<?xml version="1.0" encoding="utf-8"?>
<!-- Generator: Adobe Illustrator 24.1.0, SVG Export Plug-In . SVG Version: 6.00 Build 0)  -->
<svg version="1.1" id="Layer_2_1_" xmlns="http://www.w3.org/2000/svg" xmlns:xlink="http://www.w3.org/1999/xlink" x="0px" y="0px"
	 viewBox="0 0 401 401" style="enable-background:new 0 0 401 401;" xml:space="preserve">
<style type="text/css">
	.st0{fill:#F9D3B4;}
	.st1{fill:#020202;}
	.st2{fill:#F46403;}
	.st3{fill:#C9873F;}
	.st4{fill:#A5722F;}
	.st5{fill:#CE6D25;}
	.st6{fill:none;}
</style>
<path class="st0" d="M271.3,145.5c0.5-10.4,0.4-20.8-0.2-31.2c-0.3-5.4-1-11.2-4.6-15.3c-4.8-5.3-13.5-5.5-19.7-1.9
	s-10,10.2-12.4,16.9s-3.5,13.8-5.7,20.6c-0.3,1.3-1,2.5-2,3.4c-1.3,1-3,0.9-4.6,0.8c-25.1-1.5-50.3-0.5-75.3,3c-1,0.1-2.3,0.2-3-0.6
	c-0.4-0.5-0.6-1.2-0.6-1.8l-3.2-26c-0.7-5.2-1.6-11-5.9-14.1c-2.1-1.4-4.5-2.2-7.1-2.2c-10.2-0.2-18.7,9-21,19s0.1,20.3,2.8,30.2
	v1.4c-17.9,3-31.6,17.9-40.2,33.8c-5,9.1-10.4,20.2-20.7,21.7c2.5,1.7,4.7,3.9,6.2,6.5l-8.2,3.2l6.2,7l-9.5,3
	c26.2,2.5,45.3,25.7,69.8,35.2c15.9,6.1,33.3,6.3,50.4,6.3l55.2,0.1c16.6,0,33.5,0.1,49.7-3.6s32-11.5,42.3-24.6
	c4.8-6.1,8.2-13.2,12.8-19.5s10.7-12,18.4-13.5c-2.8-0.8-6.1-1.8-7.2-4.5s2.2-6.5,4.5-4.6c0.7-3.7-8-2.8-7.9-6.6
	c0.2-1.1,0.7-2,1.6-2.6l8.5-8.1c-13.1,1.8-25-7-35.1-15.5s-21.5-17.8-34.6-17L271.3,145.5z"/>
<path class="st1" d="M272.5,145.5c0.4-8.4,0.4-16.9,0.1-25.3c-0.2-5.9-0.1-12.6-2.7-18.1c-4.4-9.3-16.2-10.7-24.3-5.5
	c-11.1,7-13.5,21-16.6,32.7c-0.8,3-1.1,4.8-3.4,6.8s-3.5,1.6-6.4,1.5c-4.2-0.2-8.4-0.4-12.6-0.4c-8.4-0.2-16.8,0-25.2,0.4
	c-8.4,0.4-16.7,1.1-25.1,2c-1.9,0.2-3.8,0.5-5.8,0.7c-1,0.1-4.2,1-4.9,0.6c-2.6-1.2-2.5-10.8-2.8-13.4c-1.2-9.5-0.1-27.4-11.8-30.9
	c-10.2-3-20,4.8-24.2,13.6c-2.7,5.7-3.3,12.1-2.8,18.4c0.3,3.1,0.7,6.2,1.4,9.2c0.4,2.1,1,4.1,1.5,6.2c0.1,0.5,0.8,2.2,0.7,2.7
	c-0.5,1.3,0.1-0.2-0.6,0.2c-2.5,1.4-6,1.7-8.8,2.9c-3.4,1.5-6.6,3.4-9.6,5.7c-5,3.8-9.5,8.3-13.3,13.3c-4.4,5.7-7.7,12-11.2,18.3
	c-3.8,6.7-8.5,13.5-16.6,15c-1.1,0.2-1,1.7-0.3,2.2c2.3,1.6,4.3,3.7,5.8,6.1l0.7-1.8l-8.2,3.2c-0.6,0.2-1,0.9-0.8,1.5
	c0.1,0.2,0.1,0.3,0.3,0.5l6.2,7l0.5-2l-9.5,3c-0.6,0.2-1,0.9-0.8,1.5c0.2,0.5,0.6,0.8,1.1,0.8c20.2,2.3,35.9,16.2,52.6,26.5
	c8.3,5.1,16.9,9.3,26.4,11.6c10.8,2.6,21.9,3.2,32.9,3.3c25,0.3,49.9,0.4,74.9,0.2c21.2-0.2,43.2-2,62.1-12.6
	c9-5,16.7-12.1,22.5-20.6c7.3-10.9,13.3-24.8,27.3-28.1c0.6-0.2,1-0.9,0.8-1.5c-0.1-0.4-0.4-0.7-0.8-0.8c-0.8-0.2-1.7-0.5-2.5-0.8
	c-3-0.7-3.5-2.7-1.2-6.2c0.6,0.3,1.3,0.1,1.7-0.5c0.1-0.2,0.1-0.3,0.2-0.5c0.1-2.3-1.5-3.2-3.4-4c-2.1-0.9-4.9-1.1-3.3-4.3
	c1.4-2.8,6.2-5.9,8.5-8.1c0.5-0.5,0.5-1.2,0-1.7c-0.2-0.2-0.5-0.3-0.8-0.3c-28.2,2.9-41.6-33.3-69.7-32.5c-0.7,0-1.2,0.6-1.2,1.3
	c0,0.2,0.1,0.4,0.2,0.5l0.4,1c0.6,1.4,2.7,0.2,2.1-1.2l-0.4-1l-1,1.8c27.8-0.8,41.1,35.5,69.7,32.5l-0.8-2c-2.9,2.7-7.5,5.8-9.6,9.2
	c-0.7,1-1,2.2-0.7,3.4c1,2.8,7.8,3,7.7,5.4l1.8-1c-2.8-1.5-5.8,0.4-6.4,3.5c-0.9,4.7,4.7,6.8,8.2,7.8v-2.3
	c-8.8,2.1-15.1,8.3-20.1,15.5c-6.5,9.3-11.3,19.2-20.2,26.6c-18.1,15-42.4,18.4-65.2,19c-24.4,0.6-48.9,0-73.4,0
	c-11.7,0-23.6-0.1-35.2-2.3c-10.5-2.2-20.6-6.2-29.6-12c-17.4-10.6-33.4-24.9-54.5-27.2l0.3,2.4l9.5-3c0.6-0.2,1-0.9,0.8-1.5
	c-0.1-0.2-0.1-0.3-0.3-0.5l-6.2-7l-0.5,2l8.2-3.2c0.6-0.2,1-0.9,0.8-1.5c0-0.1-0.1-0.2-0.1-0.3c-1.8-2.7-4-5.1-6.7-6.9l-0.3,2.2
	c13.1-2.5,17.9-16.8,24.1-26.9c8.4-13.6,20.6-25.6,36.8-28.6c0.5-0.1,0.9-0.6,0.9-1.2c0.1-3.3-1.3-6.5-2-9.7
	c-1.3-6-2.2-12.1-1.4-18.2c1.2-9.7,8.2-20.9,19-21.4c14.2-0.8,13.4,17.4,14.6,27.2c0.6,4.7,0.7,9.7,1.8,14.3
	c0.5,2.2,1.4,3.1,3.7,3.3c4.5,0.5,10-1.3,14.5-1.7c5.8-0.6,11.6-1.1,17.4-1.4c11.6-0.7,23.2-0.8,34.8-0.4c4,0.1,9.4,1.4,13.2,0.3
	c3.1-0.9,3.9-3.8,4.8-6.6c3-10,4.1-20.9,10.7-29.4c7.9-10.1,24.7-11.7,28,3.2c2.7,12.1,1.6,26,1.1,38.3
	C270,147,272.4,147,272.5,145.5z"/>
<path class="st1" d="M219.2,176.8c-0.2,2.9,4.1,4,5.5,1.6c0.3-0.6,0.1-1.3-0.4-1.6c-0.6-0.3-1.3-0.1-1.6,0.4c0,0.1-0.1,0.1-0.1,0.1
	c-0.2,0.1,0.1,0-0.2,0c0.2,0-0.1,0-0.2,0c-0.2,0,0,0-0.2,0c-0.1-0.1-0.3-0.1-0.4-0.2c-0.2-0.2,0,0.1-0.1-0.1c0.1,0.2,0,0.1,0-0.1
	C221.7,175.3,219.3,175.3,219.2,176.8L219.2,176.8z"/>
<path class="st1" d="M178.6,224.5c2.7-0.1,5.5,0.1,8.2,0.6c1.5,0.3,2.2-2,0.6-2.3c-2.9-0.5-5.9-0.8-8.8-0.7c-0.7,0-1.2,0.5-1.2,1.2
	C177.4,223.9,178,224.5,178.6,224.5L178.6,224.5z"/>
<path class="st2" d="M185.8,114.4c-1.7-11.8,2.7-23.7,11.6-31.6c5.1-4.4,11.9-7.9,13.8-14.4c0.9-3.1,0.5-6.5,0-9.6
	c-0.6-3.6-1.4-7.3-3.8-10c-2.7-2.9-6.8-4.1-10.8-4c-11.7,0.3-21,10.1-20.6,21.8c0.1,2.9,0.8,5.8,2,8.5l1.3,0.6l0.3,2.6
	c-8.1-0.6-15.4-5.9-19.7-12.7s-5.8-15.2-5.7-23.3c0.2-8.6,2.3-17.5,7.9-24.1c9.3-11,25.9-12.9,39.9-9.5c6.6,1.6,13.1,4.2,18.4,8.5
	c14.3,11.5,16.9,32.9,12.1,50.6c-1.5,5.4-3.7,10.9-7.7,14.9c-8.4,8.4-22.8,8.3-31.1,16.8c-3.9,4-5.9,9.4-7.8,14.6"/>
<path class="st1" d="M187,114.4c-1.1-7.7,0.4-15.5,4.2-22.2c3.6-6.4,9.2-10,14.6-14.6c3.9-3.3,6.8-7.2,7.1-12.4
	c0.3-5.1-0.7-11.9-3.7-16.1c-6.7-9.4-21.3-5.6-28.1,1.4c-3.9,4.1-6.1,9.5-6.2,15.1c-0.1,3,0.4,7.1,2,9.7c0.9,1.4,1.3,0.8,1.5,2.9
	l1.2-1.2c-21-2.3-27.2-27.5-23-45c4.5-19,22.9-26,40.8-23.1c17.4,2.7,31,13.2,34.9,30.8c3.2,14.6,1.2,37.1-13,45.5
	c-6.8,4-14.7,5.3-21.4,9.4c-7.2,4.4-10.3,11.5-13.1,19.1c-0.5,1.5,1.8,2.1,2.3,0.6c2-5.4,4-11.1,8.4-15.1c3.9-3.6,9.1-5.4,14-7.2
	c7.3-2.7,14.7-5.6,19.2-12.4c8.9-13.5,9.4-34.2,3.3-48.8c-13.5-32-71.2-35.5-78.2,3c-3.4,18.8,4,43.2,25.8,45.7
	c0.7,0,1.2-0.5,1.2-1.2v0c0-1.2-0.2-2.3-0.6-3.4c-0.2-0.3-0.7-0.2-0.9-0.5c-0.5-0.8-0.9-1.7-1.2-2.6c-2-6.9-0.2-14.3,4.7-19.5
	c4.4-4.6,11.6-7.4,18-5.8c7.8,1.9,10.1,10.8,9.8,18c-0.4,10.8-13,15.1-18.8,22.8c-5.8,7.8-8.4,17.6-7.1,27.2
	C184.8,115.9,187.2,115.9,187,114.4L187,114.4z"/>
<path class="st2" d="M184.6,124.7c-1.3,0.7-1.8,2.4-1,3.6c0.7,1.3,2.4,1.8,3.6,1c1.3-0.7,1.8-2.4,1-3.6c-0.5-0.9-1.6-1.5-2.6-1.4"/>
<path class="st1" d="M184,123.7c-1.6,1-2.2,2.9-1.7,4.7c0.6,1.8,2.5,2.9,4.4,2.4c1.9-0.4,3.2-2.1,3-4c-0.2-2.1-2.1-3.7-4.2-3.6
	c-1.5,0.1-1.5,2.5,0,2.4c1.8-0.1,2.5,2.5,0.5,2.8c-1.6,0.3-2.1-1.9-0.9-2.7S185.3,122.9,184,123.7L184,123.7z"/>
<path class="st1" d="M132.8,135c-0.7-3.2-1.5-6.4-2.6-9.5c-0.7-2-1.2-4.7-2.7-6.3c-2.4-2.6-5,0.4-6,2.7c-1.5,3.4-3.2,9.4-0.8,12.9
	c2.2,3.1,6.5,3,9.9,2.7c1.5-0.2,1.5-2.6,0-2.4c-2.2,0.2-5.6,0.7-7.4-1.1c-2.3-2.2-0.8-7.6,0.2-10.1c0.1-1.4,1.2-2.6,2.6-2.7l0.7,1.6
	c0.6,1.5,1.2,3.1,1.7,4.6c0.9,2.7,1.6,5.5,2.2,8.4C130.7,137.1,133.1,136.5,132.8,135L132.8,135z"/>
<path class="st1" d="M245.1,132.5c1.9-7.3,5.1-14.3,9.3-20.5l-2.2-0.3c1.6,4,2,8.4,1.2,12.6c-0.9,4.4-4.5,10.8-9.8,7.4
	c-1.3-0.9-2.5,1.2-1.2,2.1c4.2,2.7,9,0.5,11.3-3.5c3.4-5.7,3-13.2,0.8-19.3c-0.2-0.6-0.9-1-1.5-0.8c-0.3,0.1-0.5,0.3-0.7,0.5
	c-4.3,6.5-7.6,13.6-9.6,21.1c-0.2,0.6,0.2,1.3,0.8,1.5C244.3,133.5,245,133.1,245.1,132.5L245.1,132.5z"/>
<path class="st3" d="M121.8,260c0.9-18.8,14.2-34.7,26.5-49c5-5.7,10.2-11.5,12.8-18.6s2-16-3.6-21.1c-3.7-3.3-8.8-4.5-13.8-4.4
	c-9.9,0.2-19.3,5.1-26.6,11.8s-13,14.9-18.6,23.1l-23,33.7c0,0,17,12.5,20.4,14.2S121.7,261.5,121.8,260z"/>
<path class="st1" d="M123,260c1.1-16.5,11.1-30.3,21.4-42.6c8.1-9.6,19.6-19.9,19.5-33.5c-0.1-12.7-10.6-19.3-22.5-18.1
	c-14.3,1.4-25.8,11.4-34.4,22.2c-11.7,14.9-21.8,31.2-32.4,46.8c-0.3,0.6-0.1,1.3,0.4,1.6c7.4,5.4,14.8,11.6,23.1,15.4
	c5.3,2.4,10.7,4.8,16.1,7c1.4,0.6,7.5,4,8.8,1.7c0.3-0.6,0.1-1.3-0.4-1.6s-1.3-0.1-1.6,0.4c0.6-1,0.3-0.2-0.8-0.8
	c-0.9-0.4-1.8-0.7-2.7-1c-2.7-1-5.3-2.1-8-3.3c-4.2-1.8-8.5-3.6-12.6-5.7c-7.3-3.8-14-9.4-20.6-14.3l0.4,1.6
	c10.8-15.9,21-32.8,33.1-47.7c5.6-6.9,12.3-13.2,20.5-17c8.5-4,21.9-6,28.3,2.8c11.7,15.9-9.9,34.4-18.9,45.5
	c-9.5,11.8-18,24.9-19,40.4C120.5,261.5,122.9,261.5,123,260z"/>
<path class="st3" d="M314.1,228L289,195.2c-4.6-6-9.2-12.1-14.8-17.2c-10.4-9.6-23.8-15.5-37.3-19.5c-4.5-1.3-9.4-2.5-14-1.4
	c-5.9,1.5-10.5,6.5-12.8,12.2s-2.9,11.9-3.5,18c-0.3,3.5-0.6,7.2,1,10.3c1.3,2.6,3.8,4.4,6.2,6c11.7,7.8,24.8,13.4,36.5,21.2
	s22.4,18.7,25.5,32.4c0,0,20-8.2,22-9.5S314.1,228,314.1,228z"/>
<path class="st1" d="M315.1,227.4l-19.2-25c-5.6-7.3-11-14.9-17.3-21.5c-11.9-12.6-29-21-45.9-24.6c-16.7-3.5-25,9.9-26.8,24.6
	c-0.9,6.9-2.5,15,2.9,20.4c6,6.1,15,9.9,22.5,13.9c17.9,9.7,37.9,21.1,43.2,42.3c0.2,0.6,0.8,1,1.5,0.8c3.7-1.5,7.3-3,11-4.6
	c3.8-1.6,8.5-2.9,11.8-5.4c3.5-2.7,6.3-7.2,9-10.6c2.4-3.1,4.9-6.2,7.2-9.3c0.9-1.2-1.1-2.4-2.1-1.2c-2.3,2.9-4.6,5.9-6.9,8.8
	c-2.7,3.4-5.4,7.8-8.8,10.4c-2.9,2.2-7.2,3.4-10.6,4.8c-3.8,1.6-7.6,3.2-11.4,4.7l1.6,0.9c-3.2-12.8-12-22.8-22.3-30.5
	c-13.3-9.9-29.7-15.2-42.5-25.5c-7.3-5.9-4.6-19-2.4-26.9c2.6-9.5,9.5-17.1,20-15.8c8.4,1,17.2,4.6,24.8,8.3
	c7.6,3.6,14.6,8.4,20.7,14.2c7,6.9,12.8,15.1,18.7,22.9l19.1,25C314,229.8,316.1,228.6,315.1,227.4z"/>
<path class="st4" d="M177.7,197.1c1.1,2.5,4,3.7,6.5,2.7c1.4-0.6,2.4-1.8,2.9-3.2c0.4-1.1,0-2.3-0.9-3c-0.5-0.2-1-0.3-1.6-0.2
	l-3.8,0.2c-1.3,0-2.7,0.2-3.5,1.1s-0.4,2.9,0.9,2.9"/>
<path class="st1" d="M176.7,197.7c1.4,3.1,5,4.4,8.1,3.1c2.6-1.2,5-5.1,2.7-7.6c-1.2-1.4-3.2-1-4.9-0.9s-3.8-0.1-5.4,0.9
	c-2.4,1.4-2.1,5.2,0.8,5.6c1.5,0.2,1.5-2.2,0-2.4c-0.3-0.6,0-1,0.8-1.3c0.3-0.1,0.6-0.2,0.9-0.2c0.7-0.1,1.4-0.1,2.1-0.1
	c1.2,0,4.5-0.8,4,1.5c-0.8,3.8-5.7,3.2-7.1,0.3C178,195.1,176,196.3,176.7,197.7L176.7,197.7z"/>
<path class="st0" d="M217.6,364.7c-1.2,3.5-0.6,7.3-1,11s-2.4,7.8-6.1,8.3c-3.2,0.5-6-2-7.9-4.5c-3.3-4.7-4.9-10.3-4.5-16
	c-2.6-0.6-5.3-1.2-8-0.7s-5.3,2.2-6,4.8c-0.6,2.4,0.5,4.9,0.5,7.4c0,5.1-6,9.2-10.8,7.5c-3.7-1.3-5.9-5.2-7-8.9s-1.5-7.8-3.2-11.3
	s-11.6-60.6-11.1-68.8c-4,2.4-8.5,3.9-13.2,4.2c-4.6,0.3-9.3,0.2-14-0.2c-2.2-0.2-4.5-0.3-6.4-1.6c-1.4-1.1-2.5-2.5-3.2-4.1
	c-1-1.8-1.5-3.9-1.5-5.9c0.2-2.4,1.5-4.5,3.5-5.8c1.7-0.9,3.5-1.5,5.4-1.7c6.2-1.3,12.3-3.2,18.2-5.8c1.9-0.7,3.7-1.8,5.3-3.1
	c0.2-0.2,3-4,2.1-3.9c26.5-2.4,52.9,0,79.4-0.8c6.4,6.4,15.2,12.8,24.8,8.8c2.4-1.6,0.8-4.8,2.4-7.2c3.2-4.8,8.8-2.4,11.2,1.6
	c4.8,7.2,3.2,16-4,20.8c-12,6.4-26.5-0.8-36.9-8c-2.4,11.2-1.6,22.5-2.6,33.3C223.1,313.9,218.4,362.4,217.6,364.7z"/>
<path class="st1" d="M216.5,364.4c-1.3,4.6,0.9,14.3-3.7,17.2c-2.5,1.6-6.1,0.5-8-1.4c-1.2-1.3-2.1-2.7-2.9-4.3
	c-1.9-3.9-2.8-8.2-2.6-12.5c0-0.5-0.4-1-0.9-1.2c-5-1.1-12.2-2-14.9,3.7c-1.9,3.9,1.2,8.1-1,11.9c-4.2,7.3-11.9,2.5-14.1-3.3
	c-1.7-4.9-3.2-9.9-4.3-15c-0.9-3.4-1.5-6.9-2.1-10.3c-2-10.6-3.8-21.2-5.5-31.9c-1.2-7.8-3.1-16-2.8-24c0-0.7-0.6-1.2-1.3-1.2
	c-0.2,0-0.4,0.1-0.6,0.2c-7.4,4.3-15.6,4.5-23.9,3.9c-5.8-0.4-10.8-1.6-12.2-7.9c-1.5-6.7,4.4-8.3,9.4-9.5
	c6.3-1.3,12.4-3.4,18.2-6.2c2.9-1.5,5.9-3.6,6.8-7c0.1-0.4,0-0.9-0.3-1.2l-0.2-0.1l-0.8,2c17.8-1.5,35.7-1,53.6-0.8
	c4.6,0.1,9.3,0.1,13.9,0.1c3.9,0,9.4-1.2,12.7,1.1c5.3,3.6,9.2,7.9,15.9,8.7c3.6,0.4,9,0.2,10.5-3.7c0.7-1.9-0.4-4.6,1.7-6
	c2.3-1.6,5.4-1.2,7.2,0.8c3,3.2,4.4,7.7,3.6,12c-1.7,9.5-11.9,12.1-20.2,10.7c-7.8-1.3-14.9-5.5-21.4-9.9c-0.6-0.3-1.3-0.1-1.7,0.4
	c-0.1,0.1-0.1,0.2-0.1,0.3c-2.2,11.3-1.6,22.7-2.6,34c-0.4,4.8-0.9,9.6-1.4,14.3c-0.8,7.5-1.5,15-2.3,22.4
	C217.7,355.3,217.7,360.2,216.5,364.4c-0.2,0.6,0.2,1.3,0.9,1.4c0.6,0.2,1.3-0.2,1.5-0.8c1.1-3.8,1.1-8.2,1.6-12.1
	c0.8-7.4,1.6-14.9,2.3-22.3c0.5-5.2,1.1-10.5,1.6-15.7c1-11.3,0.4-22.7,2.6-33.9l-1.8,0.7c10,6.8,23.3,13.9,35.6,9.1
	c9.3-3.6,12.3-14.7,7.3-23c-1.9-3.1-5.1-6-9-5.4c-1.8,0.3-3.5,1.4-4.5,2.9c-1.5,2.2-0.9,6-3.5,7.5c-3.4,2-9.3,0-12.5-1.6
	c-1.8-1-3.5-2.1-5.1-3.4c-1.4-1.1-3-3.2-4.5-4c-1.8-1-4.8-0.2-6.8-0.2c-4.6,0.1-9.3,0-13.9,0c-19.9-0.2-39.7-1-59.5,0.7
	c-0.9,0.1-1.7,1.3-0.8,2c-0.7-0.6-1.3,1.2-1.8,1.8c-1.7,2-4.5,3-6.9,4c-4.8,2-9.7,3.5-14.7,4.7c-5.8,1.3-12.3,3.5-11.4,10.9
	s6.2,10.5,13,11c9.3,0.7,18.6,0.8,26.9-4.1l-1.8-1c-0.3,8.6,1.8,17.7,3.2,26.2c1.8,11.5,3.7,23,6,34.4c0.5,2.8,1.1,5.6,1.9,8.4
	c2,6.3,2.6,15.3,8.3,19.7c4.2,3.1,10.2,2.2,13.3-2c0.3-0.5,0.7-1,0.9-1.5c1.7-3.4-0.6-6.3,0.3-9.5c0.7-2.6,4.1-5,6.5-5.2
	c1.1-0.1,4,0.1,4.5,0.5c1.3,1.1,0.9,4.5,1.2,6.2c1.2,5.8,5.9,15.8,13.4,14.6c9-1.5,6.3-14.3,8-20.2c0.2-0.6-0.2-1.3-0.8-1.5
	S216.7,363.7,216.5,364.4L216.5,364.4z"/>
<path class="st5" d="M221.3,339c32.3,0.4,62.1,21,94.4,20.1c6.2-0.2,13.6-2,15.5-7.9c0.6-2.1,0.6-4.3,0.2-6.4
	c-1.8-10.2-9.2-19-18.3-24.1s-19.7-7-30.1-7.3c-6.6-0.2-13.3,0.3-19.5,2.6c-5.8,2.2-10.8,5.9-15.9,9.2c-7.6,4.9-15.7,8.9-24.2,12
	L221.3,339z"/>
<path class="st1" d="M221.3,340.2c19.7,0.5,38,7.8,56.5,13.6c8.3,2.7,16.8,4.7,25.5,5.9c7.2,0.9,15.6,1.7,22.4-1.3
	c14.7-6.6,3.8-25.9-4.4-33.3c-12.8-11.5-32.7-14.7-49.3-12.4c-10.6,1.5-18.3,7.5-27.2,12.9c-4.9,3-9.9,5.6-15.2,7.9
	c-3.5,1.5-6.2,2.3-9.1,4.7c-1.2,1,0.5,2.7,1.7,1.7c4.5-3.8,11.4-5.4,16.7-8.2c7.2-3.8,13.6-8.8,20.7-12.6c15.2-8,38.2-5.8,52.9,2.6
	c6.8,3.8,12.3,9.6,15.7,16.6c1.8,4.1,3.7,10.3,1,14.4c-2.3,3.4-7,4.6-10.9,5c-15.5,1.7-31.6-3.6-46.2-8.3
	c-16.6-5.4-33.1-11.2-50.7-11.6c-0.7,0-1.2,0.5-1.2,1.2S220.6,340.1,221.3,340.2L221.3,340.2z"/>
<path class="st3" d="M243.2,328.7l12.3-6.7c0.2-0.2,0.5-0.2,0.8-0.2c0.3,0.1,0.5,0.4,0.7,0.7c1.8,3.6,3.4,7.2,4.7,11
	c1.3,3.8,2.3,8.2,0.2,11.7c-0.1,0.3-0.4,0.5-0.7,0.7c-0.3,0.1-0.6,0.1-0.9,0l-16.3-3.6c-0.4-0.1-0.8-0.2-1.1-0.4
	c-0.7-0.6-0.5-1.7-0.3-2.5c0.7-3.2,0.4-6.4-0.8-9.4"/>
<path class="st1" d="M243.8,329.7l6.2-3.4c2.6-1.4,5-3.7,7.2-1c1.9,2.3,6.1,12.5,4.9,15.5c-1.7,4.3-5.2,2.8-8.5,2.1
	c-2.2-0.5-5.2-0.7-7.2-1.6l-1.8-0.4l-0.3-3.1c0-0.9,0.1-1.8,0.1-2.7c-0.1-2-0.5-3.9-1.2-5.8c-0.5-1.5-2.8-0.8-2.3,0.6
	c0.7,1.9,1.1,3.9,1.1,6c-0.3,1.6-0.4,3.1-0.5,4.7c0.3,1.6,0.7,1.7,1.9,2.4c3,1.7,8,1.9,11.4,2.6c1.8,0.4,5.2,2,7,1.2
	c7.7-3.3-1-22.4-4.5-26c-0.3-0.3-0.8-0.4-1.2-0.3c-4.6,1.2-9.3,4.8-13.5,7.1C241.3,328.4,242.5,330.5,243.8,329.7L243.8,329.7z"/>
<path class="st3" d="M283.6,313.7c2.2,3.4,3.3,7.4,4.4,11.3c1.1,4.2,2.1,8.6,1.5,12.9c-0.8,5.8-4.2,10.7-7.6,15.5
	c7.3,1.9,14.8,3.4,22.3,4.4c0.6,0.1,1.3,0.1,1.9-0.1c0.7-0.4,1.2-1.1,1.5-1.9c4.1-9.4,5.1-20,2.6-30c-0.6-2.3-1.4-4.8-3.3-6.3
	c-1.5-1.1-3.3-1.9-5.1-2.2c-5.8-1.4-12.1-3.6-18-3.4"/>
<path class="st1" d="M282.6,314.3c3.4,5.7,6,14.2,5.9,20.9s-3.8,12.3-7.6,17.6c-0.3,0.6-0.1,1.3,0.4,1.7c0.1,0.1,0.2,0.1,0.3,0.1
	c5.2,1.3,10.4,2.5,15.7,3.4c2.5,0.4,6.7,2,9.2,0.8s3.3-5.3,4-7.5c1.3-4.2,2-8.5,2.2-12.9c0.2-6,0-15.9-5.2-20
	c-2.8-2.2-6.9-2.7-10.2-3.6c-4.4-1.3-8.9-2-13.5-2.2c-0.7,0-1.2,0.5-1.2,1.2c0,0.7,0.5,1.2,1.2,1.2c6.2,0,12.5,1.8,18.3,3.5
	c7.8,2.3,8.3,12.1,8.2,19c-0.1,5.6-0.7,17.4-7.7,18.8c-2.8,0.5-7.5-1.2-10.3-1.8c-3.4-0.7-6.8-1.5-10.2-2.4l0.7,1.7
	c4-5.7,7.9-11.6,7.9-18.8c-0.2-7.8-2.3-15.4-6.2-22.1c-0.3-0.6-1.1-0.8-1.6-0.4S282.3,313.7,282.6,314.3L282.6,314.3L282.6,314.3z"
	/>
<path class="st3" d="M185.6,352.3c-0.2,0-0.5-0.2-0.6-0.4c-3.2-4.2-7.6-27.1-4.4-40.8c1.8-7.6,4.5-15.4,10.5-20.5
	c1.1-1.2,2.7-1.9,4.3-2c1.7,0.2,3.3,1.1,4.4,2.4c5.5,5.9,6.2,14.8,5.6,22.9c-1,13-11.3,38-11.7,38.2S187.1,352.4,185.6,352.3z"/>
<path class="st1" d="M186.2,351.3c-2.9-1.5-3.7-10.3-4.2-13.1c-1.2-6.3-1.6-12.8-1.3-19.2c0.4-7.1,2.3-14.1,5.6-20.4
	c2.2-4.1,7.5-11.6,12.5-6.5c3,3,4.4,7.4,5,11.5c1.8,11.8-2.2,23.7-6,34.7c-1.4,4-2.8,8-4.5,11.9c-0.8,1.8-0.2,1-1.3,1.1
	c-2.1,0.1-4.3,0.1-6.4-0.1c-1.5-0.1-1.5,2.3,0,2.4c2.4,0.1,7.2,1.2,9.1-0.6c1.5-1.5,2.3-5.4,3-7.3c3.9-10,7.9-20.8,8.8-31.6
	c0.6-6.4,0.2-13.4-2.8-19.2c-1.9-3.8-5.8-8.6-10.6-6.9c-5.4,2-9,8.9-11,13.8c-2.4,6.1-3.7,12.5-3.9,19.1c-0.1,7,0.5,14,2,20.9
	c0.7,3.1,1.4,9.8,4.7,11.5C186.3,354.1,187.5,352,186.2,351.3z"/>
<path class="st1" d="M140,185.2c-1.2,0.3-2.3,0.9-3.2,1.7c-0.5,0.5-0.5,1.2,0,1.7c1,1.3,2.9,1.6,4.2,0.6c1.3-1,1.6-2.9,0.6-4.2
	c-0.3-0.4-0.7-0.7-1.2-0.9c-0.4-0.2-0.8-0.2-1.2,0c-1.1,0.5-1.8,1.5-1.9,2.6c0,1.1,0.8,2,1.9,2.1c1.2,0,2.1-1,2.1-2.2
	c0-1-0.5-1.9-1.3-2.4c-1.3-1-3.2-0.8-4.2,0.6c-0.1,0.2-0.3,0.4-0.3,0.6c-0.6,1.7,0.2,3.5,1.8,4.2c0.1,0,0.2,0.1,0.4,0.1
	c1.5,0.3,2.2-2,0.6-2.3c-0.4-0.1-0.7-0.4-0.6-0.8c0-0.3,0.1-0.5,0.5-0.5c0.3,0,0.6,0.2,0.8,0.4c0,0,0,0.1,0,0.1
	c0.2-0.2,0.6-0.2,0.8,0v0.2c0.2-0.2,0.4-0.4,0.7-0.6h-1.2c0.8,0.5-0.1,1.5-0.7,0.8v1.7c0.6-0.6,1.3-1,2.1-1.1
	C142.1,187.2,141.4,184.9,140,185.2L140,185.2z"/>
<path class="st1" d="M233,178.2c-0.9-0.9-2.3-0.9-3.1,0c-0.2,0.2-0.4,0.5-0.5,0.8c-0.3,1.2,0.4,2.5,1.6,2.8c0.3,0.1,0.5,0.1,0.8,0.1
	c1.3-0.2,2.2-1.4,2.1-2.8c0-0.3-0.1-0.5-0.3-0.8c-0.6-1.1-2-1.6-3.2-1c-0.1,0.1-0.2,0.1-0.3,0.2c-1.2,0.6-1.7,2.1-1.1,3.3
	c0.6,1.2,2.1,1.7,3.3,1.1c0.1-0.1,0.2-0.1,0.3-0.2c1.3-0.6,1.8-2.2,1.1-3.4c0,0,0,0,0,0c-0.7-1.1-2-1.5-3.3-1.2
	c-1.4,0.3-2.3,1.8-1.9,3.2c0,0.2,0.1,0.4,0.2,0.5c0.7,1.5,2.6,2.2,4.1,1.5c0.6-0.3,0.8-1.1,0.4-1.6c-0.3-0.6-1.1-0.8-1.7-0.4
	c-0.2,0.1-0.7-0.2-0.8-0.5c0,0,0-0.2,0-0.1c0-0.1,0.1-0.1,0.1-0.2c-0.2,0.2,0,0,0.1,0c-0.2,0.1,0.2,0,0.2,0c-0.3,0,0.3,0,0.1,0
	c0.1,0,0.2,0.1,0.3,0.1c0,0,0.1,0.1,0,0c0.1,0.1,0-0.2,0,0c0-0.1-0.1,0.1,0,0l-0.2,0.2c0.1,0,0.1,0,0,0c-0.2,0.1-0.1,0.1-0.2,0.1
	s0.1,0-0.2,0c0.1,0,0.1,0,0,0c0,0,0.1,0,0.1,0.1c0,0-0.1-0.2,0,0s-0.1,0.1,0,0c-0.2,0.1,0.2-0.3,0.1-0.1c0.1-0.1,0,0,0.2-0.1
	s0,0,0.2-0.1c-0.2,0.1,0.2-0.1-0.1,0c-0.1,0-0.1-0.2,0,0c0.2,0.4-0.2,0.1,0,0.1c0.5,0,0.1-0.1,0.1-0.1c0.1,0.1,0.1,0.3,0,0.4
	c0,0.1-0.1,0-0.2,0.1c0.2,0,0.2,0-0.1-0.1c-0.1-0.1-0.1-0.1,0,0c0.5,0.5,1.2,0.5,1.7,0C233.5,179.4,233.5,178.6,233,178.2L233,178.2
	z"/>
<rect x="0.5" y="0.5" class="st6" width="400" height="400"/>
</svg>
