<?xml version="1.0" encoding="utf-8"?>
<!-- Generator: Adobe Illustrator 24.1.0, SVG Export Plug-In . SVG Version: 6.00 Build 0)  -->
<svg version="1.1" id="Layer_4" xmlns="http://www.w3.org/2000/svg" xmlns:xlink="http://www.w3.org/1999/xlink" x="0px" y="0px"
	 viewBox="0 0 402.3 402.3" style="enable-background:new 0 0 402.3 402.3;" xml:space="preserve">
<style type="text/css">
	.st0{fill:#FCFC92;}
	.st1{fill:#420744;}
	.st2{fill:#8D9992;}
	.st3{fill:#FFFFFF;}
	.st4{fill:#FFC48A;}
	.st5{fill:#E57F0E;}
	.st6{fill:#8E663A;}
	.st7{fill:#42362A;}
	.st8{fill:#86F90D;}
	.st9{fill:#3FCC3B;}
	.st10{fill:none;stroke:#420744;stroke-width:1.26;stroke-miterlimit:10;}
	.st11{fill:none;}
</style>
<path class="st0" d="M106.6,86.7c-9.7-6.9-21.5-10.9-32.6-7.8s-20.8,14.7-20.6,28c0,4.3,1.2,8.5,3.4,12.1c2.9,4.3,7.3,6.7,11.7,8.5
	c8.2,3.4,17.2,5.2,25.8,2.9c9.2-2.5,16.5-9.6,19.3-18.8c2.8-9.7-0.7-21.8-8.7-26"/>
<path class="st1" d="M107.8,84.6C96.4,76.9,81.6,72,68.5,78.5C57,84.2,49.8,97.3,51.3,110c1.8,14.4,15.5,21.1,28.5,23.1
	s26.3-2.6,33.2-14.3c6.5-11.1,5-28.4-6.9-35.3c-2.6-1.5-5,2.5-2.4,4.1c12.2,7,10.1,25.2,1.3,34c-10.7,10.6-28.4,8.7-40.4,1.2
	c-13.3-8.3-9.9-27.1,0.5-36.4c12-10.7,28.4-6,40.4,2.2C107.9,90.4,110.2,86.4,107.8,84.6L107.8,84.6z"/>
<path class="st2" d="M66.4,126.7c2.2,3.7,6.4,5,10.2,5.5c7.6,1,15.4,0.2,22.7-2.4c0.5-0.2,1-0.3,1.6-0.2c1.2,0.3,1.5,2.1,1.6,3.6
	l1.9,36.1c0.2,1.8,0,3.7-0.6,5.5c-0.8,1.5-2.1,2.7-3.6,3.5c-9.1,5.1-20.2,5.2-29.3,0.2c-1.1-0.5-2-1.3-2.7-2.3c-1-1.7-0.7-4-0.5-6.1
	c1.8-14.4,1.2-29-1.9-43.2"/>
<path class="st1" d="M64.4,127.9c6.2,8.9,20.1,8,29.5,5.9c1.4-0.3,3.8-1.6,5.1-1.4c0.9-0.6,1.2-0.3,1,0.8l0.2,2.9l0.6,10.4
	c0.4,7.6,1,15.2,1.2,22.8c0.1,5.1-2.4,7-6.9,8.7c-6.2,2.3-13,2.4-19.2,0.2c-4.7-1.6-6.3-3.1-5.9-8.1c1.4-14.8,1.1-29.2-2-43.8
	c-0.6-3-5.2-1.7-4.5,1.2c2.1,9.7,3,19.5,2.8,29.4c-0.1,4.4-0.6,8.8-1,13.2c-0.2,2.7-0.5,5.4,1.2,7.8c3.6,5,12.5,6.5,18.2,6.6
	c6.3,0.1,14.1-1.6,19-5.8c5-4.5,2.9-13,2.6-18.8c-0.5-9-0.4-18.2-1.5-27.1c-0.8-6.5-4.6-5.4-9.5-4c-7.3,2-21.7,4.2-26.8-3.1
	C66.7,123.1,62.7,125.4,64.4,127.9L64.4,127.9z"/>
<path class="st1" d="M68.4,144.2c11.9,5.3,25.7,4,36.4-3.3c2.5-1.7,0.2-5.8-2.4-4.1c-9.5,6.4-21,8-31.7,3.3
	C68,139,65.6,143,68.4,144.2L68.4,144.2z"/>
<path class="st1" d="M69.3,160.5c6.2,2.3,12.9,2.2,19.4,1.9c5.7-0.3,11-1.2,15.7-4.7c2.4-1.8,0.1-5.9-2.4-4.1
	c-7.9,5.8-22.6,5.5-31.5,2.3C67.7,154.9,66.5,159.4,69.3,160.5z"/>
<path class="st1" d="M82.9,99.1c-4,1.3-6.5,5.3-5.9,9.5c0.6,4,4.3,7.8,8.5,6.9c4-0.8,6.4-5.1,5.9-9c-0.7-4.4-4.7-6.5-8.6-7.6
	c-2.9-0.9-4.2,3.7-1.2,4.5c1.5,0.5,3.4,1,4.5,2.2c1.2,1.4,1,3.6-0.4,4.7c-0.1,0.1-0.2,0.1-0.2,0.2c-3.3,2-5.5-5.7-1.2-6.9
	C87.1,102.8,85.8,98.2,82.9,99.1L82.9,99.1z"/>
<path class="st1" d="M82.7,113.6l1.7,14.9c0.3,3,5,3,4.7,0l-1.7-14.9C87.1,110.6,82.4,110.6,82.7,113.6z"/>
<path class="st1" d="M34.1,119.4l6.3-0.1c3,0,3-4.8,0-4.7l-6.3,0.1C31.1,114.7,31.1,119.4,34.1,119.4z"/>
<path class="st1" d="M36.8,75.1c7.3,2.7,14.6,5,22.1,7.1c2.9,0.8,4.2-3.7,1.2-4.5c-7.5-2.1-14.8-4.4-22.1-7.1
	C35.2,69.6,34,74.1,36.8,75.1z"/>
<path class="st1" d="M46.6,88.3c1.3,0,2.6,0.6,3.5,1.5c2.2,2.1,5.5-1.2,3.3-3.3c-1.8-1.8-4.2-2.8-6.8-2.9
	C43.6,83.6,43.6,88.3,46.6,88.3z"/>
<path class="st1" d="M52.3,54.6c1.3,0,3.7,5.9,4.2,7c1.4,2.7,2.7,5.5,4,8.3s5.3,0.4,4.1-2.4c-1.8-4.1-3.8-8.1-6-12
	c-1.5-2.6-2.9-5.5-6.3-5.6C49.3,49.9,49.3,54.6,52.3,54.6L52.3,54.6z"/>
<path class="st1" d="M71.9,64.7c0.6,1.2,0.9,2.6,0.9,3.9c0,1.3,1.1,2.3,2.3,2.4c1.3,0,2.3-1.1,2.3-2.4c-0.1-2.2-0.6-4.3-1.6-6.3
	c-0.7-1.1-2.1-1.5-3.2-0.8C71.7,62.2,71.3,63.6,71.9,64.7L71.9,64.7z"/>
<path class="st1" d="M97,51.5l-5.6,18c-0.9,2.9,3.6,4.1,4.5,1.2l5.6-18C102.4,49.9,97.9,48.6,97,51.5z"/>
<path class="st1" d="M108.8,81.5l5.2-7c0.6-1.1,0.3-2.5-0.8-3.2c-1.1-0.6-2.5-0.3-3.2,0.8l-5.2,7c-0.6,1.1-0.3,2.5,0.8,3.2
	C106.7,83,108.2,82.6,108.8,81.5z"/>
<path class="st1" d="M119.8,87.9c6.5-3.9,13.8-6.4,21.4-7.2c3-0.3,3-5,0-4.7c-8.4,0.9-16.5,3.5-23.8,7.8
	C114.8,85.4,117.1,89.5,119.8,87.9L119.8,87.9z"/>
<path class="st1" d="M120.7,102.2l5.6,2.4c1.3,0.3,2.5-0.4,2.9-1.6c0.3-1.2-0.4-2.5-1.6-2.9l-5.6-2.4c-1.3-0.3-2.5,0.4-2.9,1.6
	C118.8,100.5,119.5,101.8,120.7,102.2z"/>
<path class="st1" d="M121,113.5l11.8,7.3c2.6,1.6,4.9-2.5,2.4-4.1l-11.8-7.3C120.8,107.8,118.4,111.9,121,113.5z"/>
<path class="st1" d="M50.5,124l-15.4,12.2c-2.4,1.9,1,5.2,3.3,3.3l15.4-12.2C56.2,125.4,52.8,122.1,50.5,124L50.5,124z"/>
<path class="st1" d="M55,132.2c-1.3,1.5-2.3,3.2-3,5.1c-0.3,1.2,0.4,2.5,1.6,2.9c1.2,0.3,2.5-0.4,2.9-1.6c0.4-1.1,1-2.1,1.8-3
	c0.9-0.9,0.9-2.4,0-3.3C57.4,131.3,55.9,131.3,55,132.2L55,132.2z"/>
<path class="st1" d="M113.9,125.3l3.7,2.1c1.1,0.7,2.6,0.3,3.2-0.8c0.7-1.1,0.3-2.6-0.8-3.2l0,0l-3.7-2.1c-1.1-0.7-2.6-0.3-3.2,0.8
	C112.4,123.2,112.8,124.6,113.9,125.3z"/>
<path class="st3" d="M259.8,388.7c-7.4,1-21-0.8-28.4-1.7l-27.2-109.5l0.7-3.5c9.6-0.2,32.1,4.2,33.9,4c0.8-0.1,1.7-0.2,2.5-0.5
	c10.9-2.5,22.4-3.1,32.2-8.7l1.3,3.3l-2.5,39.5l-11.7,74.4L259.8,388.7z"/>
<path class="st1" d="M259.8,387.5c-5.5,0.5-11,0.4-16.5-0.3c-2.8-0.3-5.6-0.6-8.5-0.9c-0.1,0-3.6-0.9-2.3,0.5c0-0.1,0-0.2-0.1-0.3
	c-1.4-1.5-1.7-6.8-2.2-8.8l-9.9-40l-10.9-43.8l-3.4-13.7c-0.3-0.9-0.5-1.8-0.7-2.8c0-0.4,0-0.2,0,0.1c0-0.8,0.2-1.6,0.5-2.3
	c0.2-0.9,0.2-0.9-0.2,0c0.6,0,1.3,0,1.9,0c5.7,1,11.7,1.2,17.4,2c4.1,0.6,8.2,1.6,12.4,1.9c5.1,0.3,10.7-1.7,15.8-2.6
	c7.3-1.3,14.4-3,21-6.6l-1.8-0.7c2.7,6.8,0.5,15.9,0,23.2c-0.4,6.2-0.6,14.5-1.3,19.8c-2.5,18.7-5.9,37.4-8.8,56.1
	c-1,6.7-1.5,13.7-3.5,20.1c-0.5,1.5,1.9,2.2,2.4,0.7c1.7-5.5,2.2-11.5,3.1-17.2l5.2-33.6c2.2-14.2,4.2-27.9,5.2-42.3l1.2-18.2
	c0.2-3.8,0.4-5.6-1-9.1c-0.2-0.7-0.9-1-1.6-0.8c-0.1,0-0.2,0.1-0.2,0.1c-7.4,4-15.5,5.5-23.7,7c-5,0.9-9.5,2.3-14.6,1.5
	c-9.8-1.5-19.8-3.6-29.7-3.5c-0.5,0-1,0.4-1.2,0.9c-0.9,4.4,0,7.1,1.2,11.5l6.2,25.2l15.5,62.3l3.6,14.7c0.2,0.5,0.6,0.9,1.2,0.9
	c9.3,1.2,19,2.8,28.4,1.7C261.4,389.7,261.4,387.3,259.8,387.5z"/>
<path class="st4" d="M271.7,268c5.3-6.8,0.6-96.5,1.8-105.3l1.4-8.5c0.6-2.6,0.9-5.2,0.8-7.9c0.3-15.7-0.3-31.7-5.2-46.5
	c-0.9-2.9-2.1-5.6-3.7-8.1c-2.1-3.1-5.1-5.4-7.8-7.9c-3.6-3.2-7-6.7-10.1-10.4c-2.7-3.2-5.7-6.9-9.7-6.9l-7.4,0.4
	c1.6-1.8,4.3-1.5,6.6-1.5c4.1-0.1,8.1-1.7,11.2-4.5c1.1-1,2-2.2,2.6-3.5c0.6-1.8,0.8-3.7,0.7-5.5c0.1-3-0.4-6-1.5-8.8
	c-0.1-0.4-0.4-0.7-0.7-0.9c-0.3-0.1-0.7-0.1-1,0c-6.9,1.6-13.3,5-18.6,9.7c-2.7,2.3-4.9,5.1-6.3,8.3l-1.1,1l-8.7,4
	c-0.5,0.3-1,0.4-1.5,0.4c-0.5-0.1-1-0.4-1.3-0.8l-5.8-5.5c-0.3-0.2-0.5-0.5-0.6-0.8c-0.1-0.5-0.1-1.1,0-1.6c0.2-1.3,0.2-2.6-0.1-3.9
	c0-0.3-0.2-0.6-0.4-0.9c-0.3-0.2-0.6-0.4-1-0.4c-4.6-0.5-9.1,1.5-11.7,5.3c-0.5,0.6-0.8,1.4-1,2.2c-0.3,1.8,1,3.5,2.8,3.9
	c0.7,0,1.3-0.1,2-0.1c2.8-0.1,5,2.2,6.9,4.4l3,3.4c0.8,0.8,1.5,1.8,1.9,2.9c0.4,1.1,0.1,2.4-0.8,3.2l-0.1,0.7c-2,3.5-6,6.1-8.3,9.4
	c-7.9,7.6-18.2,9.3-28.4,9.3c-2.6,0.1-5.1,1-7.1,2.5c-6.3,6.8-5.5,16.9-10.3,24.5c-4,0-8.7-0.8-11.8,1.7c-1.9,1.3-2.3,3.8-1,5.7
	c0.3,0.4,0.6,0.8,1,1c3.2,1.6,6.7,2.3,10.2,2.2c4.8,0,9.7-0.9,14.4-0.3l0.3,0.2c-22.9,0.8-20.1,5.4-20.2,8.1s1.9,5.5,4.4,5.6
	c2.1,0.1,4.1-1.5,6.2-1.5c1.8,0,3.3,1,4.9,1.9c5.5,2.9,11.9,3.4,17.9,2.4s11.8-3.2,17.6-5.5c15-5.9,23.9-4.3,34.8-16.9v1.2
	c-0.5,29.1-12.1,56.6-18.7,84.9c-3.4,14.7-8.3,44.8-9,60C229,276.4,262.5,279.6,271.7,268z"/>
<path class="st1" d="M272.7,268.6c1.7-2.4,1.7-6.4,2-9.2c0.5-5.9,0.7-11.9,0.7-17.9c0.2-15.4-0.2-30.8-0.5-46.2
	c-0.2-10.5-1.3-21.4-0.3-31.9c0.6-6.5,2.2-12.5,2.3-19.1c0.2-12.8-0.3-25.7-3.3-38.1c-1.4-5.8-3.1-12.1-7-16.8
	c-4.6-5.7-10.9-10-15.8-15.6c-2.9-3.3-5.8-7.7-10.4-8.5c-2.8-0.5-5.9,0.1-8.7,0.3l0.9,2.1c2.2-1.8,5-1,7.5-1.3
	c2.4-0.3,4.7-1.1,6.8-2.2c3.6-2,6.4-5,7-9.2c0.4-3.3,0.4-9.8-1.7-12.6s-6.4-0.4-9.1,0.7c-4.5,1.8-8.7,4.4-12.4,7.6
	c-3.5,3-5.7,8.4-9.6,10.4c-4.2,2.2-7.2,3.1-11.2,0.1c-2.9-2.1-3-3.2-3-6.2c-0.1-3.2-1.1-4.4-4.3-4.5c-4.9-0.2-16.2,6.2-11.4,12.2
	c1,1.3,2,1.3,3.5,1.6c3.1,0.4,6,2,8,4.4c2,2.3,4.4,3.9,3.4,7.3c-0.7,2.2-2.5,3.8-4.1,5.4c-4.7,4.7-8.5,8.9-14.9,11.1
	c-5.8,2.1-11.6,1.9-17.7,2.5c-9.9,0.9-12,10.9-14.3,18.9c-0.6,2.3-1.3,7.1-3.7,8c-1.9,0.8-5-0.3-7.2,0.2c-3.2,0.7-6.6,3-6.2,6.7
	c0.5,4.4,5.8,5.6,9.4,6c3.1,0.3,6.2,0.3,9.2,0c2.2-0.1,6.7-1.2,8.6,0l0.6-2.3c-5,0.2-18.8-0.5-21.2,5.9c-0.4,1.7-0.5,3.4-0.1,5.1
	c0.4,2.1,1.8,3.8,3.6,4.7c2.5,1.1,4.1-0.5,6.5-0.8c4-0.5,8.4,2.9,12.4,3.8c3.4,0.7,6.9,0.8,10.3,0.4c8.2-0.9,15.5-4.5,23.2-7.1
	c5.8-2,11.8-3.1,17.5-5.4c5.5-2.3,10.4-5.9,14.2-10.5l-2.1-0.9c-0.8,29.1-11.5,56-18.2,84c-4.8,20.2-8.4,41.4-9.4,62.1
	c0,0.7,0.6,1.2,1.2,1.2c14,1.4,28,2.9,42.1,2.3c8.9-0.4,20.5-1.2,26.7-8.6c1-1.2-0.7-2.9-1.7-1.7c-6.6,7.8-19.9,7.8-29.2,8
	c-12.7,0.2-25.3-1.2-37.9-2.4l1.2,1.2c1-21.7,4.9-43.9,10.2-65c6.8-27,16.7-53,17.4-81.1c0-0.7-0.6-1.2-1.3-1.2
	c-0.3,0-0.6,0.1-0.8,0.3c-7.3,8.2-15.7,10.8-25.9,13.8c-12.2,3.6-24.6,11.2-37.7,8c-4.1-1-7.8-4.6-12.3-3.8c-3,0.6-7.1,1.6-7.8-3.7
	c-0.1-0.5-0.1-1,0-1.4c1.4-5.5,15.1-4.7,19-4.9c0.7,0,1.2-0.6,1.2-1.3c0-0.4-0.2-0.8-0.6-1c-3.3-2-9.8-0.2-13.5-0.1
	c-1.7,0.1-3.4,0-5.1-0.2c-1.1-0.1-2.2-0.3-3.2-0.6l-2-6.6c1.5-1.9,7.9-0.8,10.1-0.8c0.4,0,0.8-0.2,1.1-0.6c3.6-6.3,4-13.8,7.3-20.2
	c4.3-8.5,15.1-5.8,23-7.7c6.5-1.5,12.4-5,16.8-10c2.7-3,8.1-6.6,8.3-11.2c0.2-4.1-6.1-10-9.3-11.9c-0.8-0.5-1.6-0.8-2.5-1
	c-0.3-0.1-2.2,0-2.3,0c-0.8-0.7-0.9-5-0.4-5.6c1.2-1.7,5.8-4.1,7.8-3.3c2.4,1,1.2,3.9,1.7,5.6c0.7,2.4,3.6,4.2,5.3,5.8
	c2,1.8,3,3,5.6,2.1s7-2.6,9.3-4.4s3.2-4.9,5.2-7.1c3.3-3.4,7.1-6.3,11.4-8.3c1.7-0.9,5.2-2.9,7.3-2.8c3.6,0.3,3.2,5.5,3.2,8
	c0.1,7-5.2,11.4-11.9,12.1c-3.3,0.4-6.1-0.1-8.8,2c-0.5,0.5-0.4,1.3,0.1,1.8c0.2,0.2,0.5,0.3,0.8,0.3c2.3-0.2,4.5-0.4,6.8-0.4
	c5.9,0.3,9.3,6.6,12.9,10.6c3.9,4.1,8.5,7.5,12.3,11.7c4.8,5.3,6.5,12.8,8,19.6c2.6,12.4,3.2,25.6,2.6,38.3
	c-0.2,5.3-1.8,10.5-2.3,15.8c-0.8,9.5,0.1,19.2,0.3,28.7c0.3,14.4,0.7,28.8,0.6,43.3c0,6.8-0.1,13.6-0.5,20.3
	c-0.2,3.3,0.1,8.5-1.9,11.4C269.7,268.6,271.8,269.9,272.7,268.6z"/>
<path class="st4" d="M197,62.3c-1-0.1-2,0.3-2.6,1.2c-0.6,0.9-1,1.9-1,3c0,0.3,0,0.5,0.1,0.8c0.2,0.3,0.6,0.5,1,0.5
	c0.9,0.1,1.9,0.1,2.8-0.1c0.6-0.3,1.3-0.3,1.9,0c0.3,0.3,0.6,0.6,0.7,1l5.2,10c0,0,2.6-1.4,2.6-2.3s0.9-4.7-3.1-9.1
	S197,62.3,197,62.3z"/>
<path class="st1" d="M197,61.1c-3-0.1-7,5-4,7.4c1.5,1.2,3.6-0.1,5.1,0.5c1.3,0.5,2.2,3.3,3,4.6l2.9,5.6c0.3,0.6,1.1,0.8,1.7,0.4
	c3.7-2.1,4-5.3,2.4-9.2c-1.7-4.1-6.2-8.6-10.8-9.3c-1.5-0.2-2.2,2.1-0.7,2.4c3.4,0.5,6.8,3.8,8.5,6.6c0.8,1.4,1.7,3.6,1.3,5.3
	c-0.2,1.2-0.9,1.5-2,2.1l1.7,0.4l-2.9-5.6c-0.8-1.6-1.5-3.7-2.7-5.1c-0.5-0.7-1.3-1.1-2.1-1.1c-0.5,0-1,0.1-1.5,0.2l-1.5,0.1
	c-1.3-1.1-0.8-2.1,1.6-3C198.6,63.6,198.6,61.1,197,61.1z"/>
<path class="st5" d="M231.7,49.9l1.6-5.7c0.3-0.8,0.3-1.6,0-2.4c-0.4-0.5-1.1-0.8-1.8-0.7c-2.5,0.1-4.8,1.7-6.7,3.5
	c-1.9,1.6-3.3,3.6-4.2,5.9c-1,3.4,0.1,7.4-1.3,10.7l5-1.8l4.5-5.3L231.7,49.9z"/>
<path class="st1" d="M232.8,50.3c0.7-2.4,3.1-7,1.3-9.3c-1.6-2-5-0.8-6.9,0.2c-2.9,1.7-5.3,4.1-7,7c-2.1,4-0.8,8.5-2.1,12.7
	c-0.2,0.7,0.2,1.3,0.9,1.5c0.2,0.1,0.4,0.1,0.6,0c3.5-1.2,5.2-1.7,7.5-4.5c2-2.4,3.8-4.8,5.6-7.4c0.9-1.3-1.2-2.5-2.1-1.2
	c-1.5,2.3-3.2,4.5-4.9,6.6c-0.6,0.7-1.1,1.4-1.7,2c-1,0.9,0.2,0.1-0.5,0.5c-1.4,0.7-2.9,1.2-4.5,1.6l1.5,1.5
	c1.6-4.9-0.2-10.1,3.4-14.3c1.5-1.7,3.7-4.1,6-4.4c1.3-1,2-0.6,2.1,1.1l-0.4,1.4c-0.3,1.4-0.7,2.9-1.2,4.3c-0.2,0.7,0.2,1.4,0.9,1.5
	C232,51.3,232.7,50.9,232.8,50.3z"/>
<path class="st5" d="M237.1,55.9c1-0.9,1.9-1.9,2.9-2.8c0.9-0.9,2.2-1.5,3.5-1.6c0.1,0,0.3,0,0.4,0.1c0.1,0.1,0.2,0.2,0.3,0.3
	c0.6,0.9,0.9,1.9,1,2.9c-0.1,1-0.6,2-1.4,2.6c-0.8,0.6-1.7,1-2.7,1.2c-1.3,0.4-2.8,0.1-3.9-0.8c-0.3-0.3-0.5-0.7-0.6-1.1
	C236.6,56.3,236.8,55.9,237.1,55.9"/>
<path class="st1" d="M238,56.7c1.2-1,5.1-6,5.8-2.6c0.3,1.5-0.8,2.6-2.1,3.1c-0.5,0.2-1.1,0.3-1.7,0.3c-0.4,0-0.8,0-1.2-0.1
	c-0.4-0.2-0.7-0.4-1.1-0.6c1.3-0.9,0.1-3-1.2-2.1c-2.3,1.6-0.6,4.4,1.7,5.1c2.8,0.7,5.7-0.3,7.4-2.7c1.1-1.8,0.9-6.1-1.6-6.8
	c-3.2-0.9-5.8,2.9-7.8,4.7C235.1,56,236.9,57.7,238,56.7L238,56.7z"/>
<path class="st1" d="M208.5,87.6c6.9,4.1,20,6.2,24.7-2c0.3-0.6,0.1-1.3-0.5-1.7c-0.6-0.3-1.2-0.1-1.6,0.4
	c-3.9,6.9-15.8,4.5-21.3,1.1c-0.6-0.3-1.3-0.1-1.7,0.5C207.8,86.6,208,87.3,208.5,87.6L208.5,87.6z"/>
<path class="st6" d="M255.7,76c3.8,2.2,9.2-3.8,12.2-0.6c1.6,1.6,1,4.5,2.1,6.6s3.6,2.9,5.8,3.7s4.6,2.4,4.6,4.8
	c-0.1,0.8-0.1,1.7-0.1,2.5c0.5,2.2,3.5,2.1,5.1,3.6c2.1,2.1,0.5,6.1,1.9,8.9c0.8,1.6,2.5,2.7,3.1,4.4c1.1,3-1.8,6.2-1.6,9.4
	s3.8,5.7,3.9,9.1c0.1,1.9-1,3.7-1.8,5.4c-1.5,3.5-1.8,7.4-0.9,11.1c0.5,2.2,1.5,4.3,1.4,6.6c-0.2,2.7-1.9,5.3-1.6,8
	c0.2,1.6,1.1,3,1.5,4.6c0.3,1.4-3.7,6.2-3.9,7.6c-1.1,10.6,1.3,17.7-0.3,28.2c-0.4,2.3-0.7,4.6-1.1,7c-0.7,4.4-1,8.8-0.7,13.2
	c0.4,4,1.4,8.2-0.4,11.8c-0.4,0.7-0.8,1.4-1,2.2c-0.3,1.2,0.1,2.4,0.1,3.7s-6.6,7.7-7.7,7.5c0.8-12.7,0.3-24.2,0-37.1
	c-0.1-5.4-0.8-5.7,0-11c0.5-3.6-1.3-8.2-0.8-11.8s-0.9-12.5-0.8-16c0.3-7.2,2.1-17.3,2.4-24.5c0.2-5.5,0.6-13.1,0-18.6
	c-1.6-14.1-1.8-28.6-10.6-38.8c-3.4-4-9.9-5.7-10.7-11.1"/>
<path class="st1" d="M255.4,77.1c1.6,0.6,3.4,0.7,5,0.1c1.2-0.5,2.3-0.9,3.6-1.2c3.4-0.4,3.7,2.4,4.5,5c0.5,1.9,1.8,3.5,3.5,4.4
	c1.1,0.5,2.2,1,3.3,1.4c3.2,1.4,2.7,3.7,4,6.4c0.5,1.3,1.5,2.4,2.8,2.9c4.1,2.2,2.9,4.8,3.8,8.5c0.3,1,0.8,1.9,1.3,2.8
	c1.1,2.5,2,4.6,1.4,7.5c-0.6,2.7-1.3,4.4-0.2,7.1c0.4,0.9,0.9,1.7,1.4,2.5c1.7,3,1.5,4.7,0.4,8.1c-0.9,2.8-1.9,5.3-1.8,8.4
	c0,4,2.1,7.8,1.7,11.9c-0.2,1.7-1.1,3.2-1.3,4.9s0.3,2.7,0.7,4.4c0.8,3.7-1.2,4.7-2.5,7.8c-1,2.3-0.9,4.7-1,7.1
	c-0.1,8.2,1,16.1-0.2,24.3c-0.6,4-1.3,8.1-1.6,12.1c-0.3,4.6,0.8,9,0.7,13.5c-0.1,2.6-1.6,4.4-2,6.7c-0.4,2,0.2,3.4-0.9,5.2
	c-1,1.6-4,4.8-5.8,5.1l1.5,1.2c1-16.5-0.1-33.1,0.1-49.5c0-3.5-1-6.9-0.9-10.4c0.1-3.1-0.1-6.2-0.4-9.4c-0.6-6.7,0.1-13.1,0.9-19.8
	c1.7-14.9,1.6-30-0.5-44.9c-1-7.2-2.5-14.5-6.5-20.8c-1.5-2.4-3.4-4.6-5.7-6.4c-3-2.4-6.6-4-7.6-8c-0.4-1.5-2.7-0.9-2.4,0.6
	c1.4,5.9,7.3,7.5,11,11.6c5.4,5.9,7.4,14.3,8.5,22c2.3,15.7,2.5,31.7,0.5,47.5c-0.9,6.5-1.1,13-0.6,19.5c0.2,2.7,0.3,5.3,0.3,8
	c-0.1,3.7,1,7.4,0.8,11.1c-0.8,16.2,0.9,32.5,0,48.8c0,0.7,0.6,1.2,1.3,1.2c0.1,0,0.2,0,0.3,0c2.8-0.5,7.2-5,8.2-7.5
	c0.4-0.9,0.2-1.1,0.3-2.1c0.3-2.1,1.1-4.1,1.6-6.2c1-4.1-0.1-8.2-0.3-12.4c-0.4-9.6,2.7-18.9,2.4-28.4c-0.1-3.7-0.5-7.4-0.5-11
	c0-2.4-0.3-5.3,0.6-7.5c0.5-1.4,1.7-2.7,2.5-4c1.1-2,1.1-2.7,0.6-4.9c-0.7-2.6-0.6-5.4,0.1-8c0.5-1.5,0.6-3.2,0.4-4.7
	c-0.8-5.5-2.6-9.5-0.5-15.1c1.1-2.8,2.4-5.1,1.4-8.1c-0.4-1.1-1-2.1-1.6-3c-1.6-2.8-1.8-4.5-1-7.7c0.8-3,1.4-4.6,0-7.4
	c-1.1-2.3-2.6-3.9-2.9-6.6c0-1.2-0.1-2.4-0.4-3.6c-0.9-2.6-3.2-2.9-4.8-4.9c-1.8-2.2-1-4.9-3.7-7c-1.3-1-2.9-1.2-4.3-2
	s-3.7-2.9-4.3-4.4c-0.4-1.1-0.2-2.4-0.8-3.5c-3.1-6.5-9.2,0.5-13.8-1.4C254.6,74.2,253.9,76.5,255.4,77.1L255.4,77.1z"/>
<path class="st7" d="M165.4,102.9c-2,2.1-2.8,5-2.1,7.8c0.2,1,0.9,2.2,1.9,2.1c0.5-0.1,1-0.4,1.3-0.8c1.4-1.6,1.6-4,1.7-6.2
	c0.1-1.1,0-2.2-0.5-3.1c-0.6-0.9-2-1.1-2.5-0.2"/>
<path class="st1" d="M164.5,102c-2.2,2.3-3.1,5.6-2.5,8.7c0.5,2.6,3.1,4.5,5.3,2.2c2-2.1,2.4-6.3,2-9c-0.4-2.3-3.1-4.5-5.1-2.3
	c-1,1.2,0.7,2.9,1.7,1.7s1,2.4,1,2.5c0,0.6,0,1.2-0.1,1.8c-0.1,1-0.3,3.3-1.6,3.4s-1-2.7-0.8-3.6c0.3-1.4,0.9-2.6,1.8-3.6
	C167.3,102.5,165.6,100.8,164.5,102L164.5,102z"/>
<path class="st3" d="M203.5,274.3c4.7,1.1,9.6,1.7,14.4,1.9c5.8,0.2,11.7-0.2,17.3,1.6c0.6,0.1,1.1,0.4,1.5,0.9
	c0.5,0.9,0.5,1.9,0.1,2.9c-1.8,7.3-3.9,14.5-6.4,21.5c-2.7-1.6-4.5-4.6-6.7-7c-3.3-3.7-7.5-6.2-11.4-9.2s-7.5-6.8-8.8-11.7"/>
<path class="st1" d="M203.1,275.5c8.9,2,17.8,1.3,26.8,2.5c2.5,0.3,5.4,0,5.7,3.3c0.2,2-1.4,5.3-1.9,7.2c-1.3,4.8-2.9,9.6-4.5,14.3
	l1.8-0.7c-4.6-3.2-7.6-8.4-12.2-11.8c-5.7-4.3-11.9-8-14.2-15.3c-0.5-1.5-2.8-0.9-2.4,0.7c1.9,6.1,6.3,10.2,11.3,13.9
	c3.4,2.5,6.9,4.8,9.7,8.1c2.1,2.4,3.8,4.8,6.5,6.7c0.6,0.3,1.4,0.1,1.7-0.5c0-0.1,0.1-0.2,0.1-0.3c2-5.9,3.9-11.9,5.5-17.9
	c0.8-2.9,2.3-6.3-0.5-8.4s-9.2-1.9-12.6-2c-6.8,0-13.6-0.7-20.2-2C202.3,272.9,201.6,275.2,203.1,275.5L203.1,275.5z"/>
<path class="st3" d="M272.9,269.9c-5.6,3.6-12.5,4.1-19,5.2c-5.4,1-10.7,2.5-15.8,4.6c-0.6,3,0.9,5.9,2.4,8.5l6.6,11.8
	c0.3,0.5,0.7,1,1.2,1c0.3-0.1,0.5-0.2,0.7-0.4c8.8-7.5,17.8-15.1,24.1-25.1c0.6-0.9,1-2.4,0.1-2.9"/>
<path class="st1" d="M272.3,268.8c-5.3,3.1-11.1,3.8-17.1,4.8c-6,1-11.8,2.6-17.4,4.8c-0.5,0.2-0.9,0.6-0.9,1.2
	c-0.5,6.8,4.9,13.6,8.2,19.2c2.8,4.8,4.1,3.1,7.9-0.2c5.6-4.6,10.7-9.6,15.5-15c2.2-2.6,8.3-8.1,5.7-11.8c-0.9-1.3-3,0-2.1,1.2
	c1.5,2-5.9,9.5-7,10.7c-2.2,2.5-4.6,4.8-7,7.1c-2.6,2.4-5.3,5-8.1,7.1c-2.5,1.9-2.4,0.3-3.8-2.1l-2.8-5.1c-0.9-1.6-1.9-3.3-2.7-5
	c-1.4-1.6-1.6-3.9-0.5-5.8l1.7-0.6c3.2-2,8.8-2.6,12.4-3.3c6.7-1.2,13.3-1.8,19.3-5.4c0.6-0.4,0.7-1.1,0.3-1.7
	C273.5,268.7,272.8,268.6,272.3,268.8L272.3,268.8z"/>
<path class="st8" d="M236.2,287.9c-1.4,4.6-2.5,9.3-3.1,14.1c-0.1,0.5-0.1,1.1,0.2,1.5c0.3,0.3,0.7,0.5,1.1,0.6
	c3.2,0.7,6.4,0.5,9.5-0.6c0.4-0.1,0.7-0.4,1-0.7c0.2-0.4,0.3-0.9,0.2-1.3c-0.2-3.9-2.3-7.5-4.5-10.6c-1.1-1.6-2.7-3.4-4.6-3.2"/>
<path class="st1" d="M235,287.6c-0.9,3.1-1.7,6.2-2.3,9.3c-0.4,1.9-1.5,5.1-0.6,7c1.7,3.2,9.5,2.1,12.1,0.8c3.6-1.7,2-6,0.7-8.9
	c-1.6-3.7-4.4-9-8.9-9.3c-1.6-0.1-1.6,2.3,0,2.5c2.9,0.2,5.2,4.8,6.3,7.2c0.5,1,2.1,4.2,1.6,5.5c-0.6,1.7-4,1.7-5.3,1.8
	c-2.1,0.1-4.1,0.6-4.1-2.2c0.1-1.4,0.4-2.8,0.7-4.2c0.6-3,1.3-5.8,2.2-8.7c0.1-0.7-0.3-1.3-1-1.4C235.8,286.7,235.2,287.1,235,287.6
	L235,287.6z"/>
<path class="st8" d="M235.8,304.6l-3.4,44.7c-0.3,4-0.6,8.2,0.7,12c1.1,3.3,3.5,6.1,6.6,7.7c0.3,0.2,0.6,0.3,1,0.3
	c0.6-0.1,1.1-0.5,1.4-1l6.2-7.7c1.4-1.6,2.6-3.4,3.3-5.4c1.1-3.5-0.1-7.3-1.2-10.8c-3.9-12.6-6.3-25.6-7.3-38.8
	c-2.5-0.2-5,0.1-7.4,0.8"/>
<path class="st1" d="M234.6,304.6c-1.1,14.2-2.2,28.5-3.3,42.8c-0.4,5.3-1.1,11,1.3,16c1.2,2.5,4.7,7.5,8,7.2c1-0.1,1.6-0.8,2.2-1.4
	c2.7-2.3,5.1-6.1,7.2-9c2.8-3.5,3.7-8.2,2.5-12.6c-1.5-6.4-3.7-12.6-5-19c-1.6-7.6-2.7-15.3-3.3-23c0-0.7-0.6-1.2-1.2-1.2
	c-2.6-0.1-5.2,0.2-7.8,0.9c-0.6,0.2-0.9,1-0.7,1.6c0.2,0.5,0.8,0.9,1.4,0.8c2.3-0.6,4.7-0.9,7.1-0.8l-1.2-1.2
	c0.8,9.8,2.3,19.6,4.6,29.2c1.2,5,3.4,10.1,4,15.2c0.6,4.4-1,7.2-3.7,10.6c-1.2,1.5-3.9,6.4-5.6,6.9c-3.1,1.1-6.1-4.3-6.9-6.5
	c-0.8-2.7-1.1-5.4-0.9-8.2c0.2-5,0.7-10.1,1.1-15.1l2.5-33C237.1,303.1,234.7,303.1,234.6,304.6L234.6,304.6z"/>
<path class="st9" d="M197.4,388.7c1.6-13.2-9.1-36.7-11.1-49.8s-4.4-13.9-6.3-27c-0.1-0.7-1.1-7.1-1.6-7.6s-9.4,0.4-10.2,0.4
	l-26.5,0.3c-3.6,0-7.2,0.1-10.6-0.9c-7.6-2.2-13.2-9-17.7-15.9c-6.5-10.1-11.8-20.9-15.6-32.3c-0.4-1.2-0.8-2.7-0.1-3.7
	c0.4-0.6,1-1,1.6-1.3l24.1-12.8c3.1,16,13.3,30.2,27,37.4c2.2,1.3,4.7,2.2,7.2,2.7c2.8,0.4,5.6,0.4,8.3,0c8-0.8,17.9-9.3,23.9-3.6
	c0.3,0.3,13,2.9,13,2.9s28.4,105.5,26,108.8S197.4,388.7,197.4,388.7z"/>
<path class="st1" d="M198.6,388.7c1.3-13.1-4.8-26.6-8.4-39c-1.9-6.4-2.6-12.9-4.3-19.4s-3.7-12.3-4.7-18.8
	c-0.4-2.4-0.2-7.3-2.7-8.5c-3-1.4-8.9,0.4-12.2,0.5c-9.6,0.1-19.5,0.8-29.1,0.2c-10.3-0.6-16.9-7.3-22.3-15.6
	c-5.9-8.9-10.7-18.4-14.4-28.4c-0.5-1.1-0.9-2.2-1.2-3.4c-0.4-2.7,0.4-3.9,2.4-5.4s4.7-2.5,6.9-3.7l15.5-8.3l-1.8-0.7
	c2.6,13,9.7,24.8,20,33.2c4.4,3.5,9.7,6.9,15.3,7.8c6.7,1.1,12.7-0.9,18.8-3.4c2.8-1.1,6.2-2.7,9.2-2.1c1.8,0.3,3.5,1.7,5.4,2.2
	c3.7,1,7.4,1.8,11.2,2.4c0.6,0.1-0.7-1.3-0.4-0.4c0.2,0.5,0.3,1,0.4,1.5c0.4,1.9,1,3.8,1.5,5.8c8.2,30.9,17.2,61.9,23.2,93.3
	c0.3,1.7,1.3,4.5,0.9,6.3s-4.1,1.9-6.3,2.1c-8,0.7-16.1,0.9-24.2,0.5c-0.7,0.1-1.2,0.7-1.1,1.3c0.1,0.6,0.5,1.1,1.1,1.1
	c4.5,0.1,8.9,0.1,13.4,0c5.3-0.1,12.3,0.4,17.3-1.8c4.7-2.1,1.2-10.7,0.4-14.4c-5.3-25.3-12.1-50.3-18.7-75.3
	c-1.9-7.2-3.8-14.3-5.7-21.5c-0.1-0.4-0.4-0.7-0.9-0.9c-4.5-0.9-9.5-1.4-13.5-3.4c-7.1-3.5-13.5,1.2-20.3,3.3
	c-22.6,6.9-40.8-19.4-44.7-38.3c-0.2-0.7-0.9-1-1.5-0.8c-0.1,0-0.2,0.1-0.3,0.1l-13.8,7.4c-3.5,1.8-8.6,3.5-11.5,6.2
	c-1.7,1.7-1.5,3.5-0.9,5.7c1.2,4.1,2.8,8.2,4.7,12.1c3.7,8.6,8.2,16.8,13.7,24.3c4.2,5.7,9.5,11.1,16.6,12.8
	c8.8,2.2,19.1,0.7,28.1,0.6c3.3,0,6.7,0,10-0.2c1.8-0.1,6.2-1.4,7.7-0.5c0.8,0.5,1.1,4.5,1.3,5.8c0.5,3.5,1.2,7,2.1,10.4
	c1.8,6.4,3.5,12.6,4.7,19.2c2.9,15.7,12.3,31.6,10.8,47.9C196,390.3,198.5,390.3,198.6,388.7z"/>
<path class="st4" d="M342.9,244.7c-1-7.4,1.9-14.6,4.8-21.4c0.1-0.2,0.2-0.5,0.4-0.6c0.5-0.3,1.1-0.2,1.4,0.3c0,0,0,0,0,0.1
	c0.3,0.5,0.5,1,0.6,1.6c1,3.3,3.9,5.5,7.3,5.6c3.8-0.1,7-3.3,10.8-3.8c0.4-0.1,0.8,0,1.1,0.1c0.8,0.4,0.8,1.6,0.7,2.5
	c-0.7,6.3-3.4,12.2-7.7,16.9c-0.2,0.2-0.4,0.4-0.7,0.4c-0.2,0-0.6,0.1-0.6-0.1c-0.1-1.3-0.7-1.4-10.8-1.7c-3-0.1-6.1-0.2-9.1-0.3"/>
<path class="st1" d="M344.1,244.7c-0.5-5.9,0.9-11.3,3-16.8c0.2-0.6,0.7-2.7,1.5-2.8c0.9-0.1,0.5,0.5,1,1.3c0.6,1,1.3,1.9,2.1,2.7
	c2,1.8,4.8,2.6,7.5,2c1.5-0.4,2.9-1,4.3-1.7c0.8-0.4,2.9-1.8,3.7-1.6c1.8,0.5,1.3,3.5,1,4.7c-0.6,2.4-1.5,4.8-2.8,7
	c-0.5,0.9-3.7,6.3-3.1,6.2c0.4,0-1.2-1.6-1.4-1.7c-1.2-0.7-3.3-0.5-4.7-0.6c-5-0.3-10-0.4-15-0.6c-1.6-0.1-1.6,2.4,0,2.5
	c5.6,0.2,11.7-0.2,17.3,0.7c1.7,0.3,1.3,1.3,3,1.5c2.9,0.2,6.1-6.9,7-8.8c1.3-2.9,4-8.7,2.5-12c-1.2-2.6-4.2-1.5-6.2-0.7
	c-4.4,1.8-8.4,4.9-12.2,0c-0.8-1-1.5-3.4-2.6-4.2c-6-4.5-8.7,19.4-8.4,22.8C341.8,246.2,344.3,246.2,344.1,244.7L344.1,244.7z"/>
<path class="st4" d="M100.9,249.1c-4.1-6-4.8-13.9-5.2-21.3c0-0.3,0-0.5,0.1-0.8c0.2-0.5,0.8-0.7,1.3-0.5c0,0,0.1,0,0.1,0
	c0.5,0.3,0.9,0.6,1.3,1.1c2.3,2.4,6,2.9,8.9,1.2c3.3-2,4.8-6.4,7.9-8.8c0.3-0.3,0.6-0.4,1-0.5c0.9,0,1.4,1,1.7,1.8
	c2.1,6,2.4,12.6,0.7,18.8c0,0.3-0.2,0.5-0.4,0.7c-0.2,0.1-0.5,0.4-0.6,0.2c-0.6-1.1-1.2-0.9-10.3,3.9c-2.7,1.4-5.5,2.8-8.2,4.3"/>
<path class="st1" d="M102,248.5c-2.9-4.6-4-9.7-4.6-15.1c-0.2-1.3-0.3-2.7-0.3-4c0.1-1.9-0.5-1.2,0.5-0.8c0.9,0.3,1.9,1.5,2.8,1.9
	c2.7,1.1,5.7,0.8,8.1-0.9c1-0.8,2-1.7,2.7-2.7c0.6-0.7,1-1.4,1.6-2.2c1.2-1.6,1.5-3.2,3.4-2c2.3,1.3,2.2,5.8,2.3,8.2
	c0.1,1.2,0,2.3-0.1,3.5c-0.1,1.3-0.3,2.7-0.6,4l0.7,2.1c0.4-0.4-1.9-0.9-1.9-1c-1.5-0.1-3.3,1.2-4.6,1.8c-4.5,2.3-9,4.7-13.5,7
	c-1.4,0.7-0.2,2.8,1.2,2.1c5-2.6,10.3-6.5,15.7-8.1c1.5-0.4,1.7,0.6,3.3-0.2c2.6-1.3,2.2-10,2-12.1c-0.2-2.9-0.4-10.7-4.2-11.4
	c-2.8-0.6-5,3.6-6.4,5.5c-1.5,2.1-2.7,3.6-5.2,4.2s-4.1-1-6.3-2c-0.9-0.4-1.5-1.2-2.7-0.9c-3,1-1.3,6.8-1,8.9
	c0.6,5.5,1.9,10.8,4.9,15.5C100.7,251.1,102.9,249.9,102,248.5L102,248.5z"/>
<path class="st5" d="M275.1,150.6c-4.5-1.9-10,0.3-14.1-2.5s-4.3-9.4-3-14.5s3.6-10.3,2.6-15.5c-1-5.4-5.4-9.7-5.8-15.2
	c-0.5-6.6-1.2-14.7,3.5-19c0,0,12.6,8.4,15.8,27.9C276.4,126.3,275.1,150.6,275.1,150.6z"/>
<path class="st1" d="M275.4,149.4c-3.8-1.2-7.8-0.2-11.5-1.3c-5.6-1.7-6-8-5-12.8c1.3-7,4.7-13.2,2.1-20.3c-1.2-3.3-3.4-6.1-4.4-9.5
	c-1.1-3.7-1.1-8.4-0.8-12.2c0.1-1.5,1.7-8.1,2.2-8c0.7,0,2.1,1.8,2.5,2.2c16.4,15.8,14.5,42.3,13.4,63.2c-0.1,1.6,2.4,1.6,2.5,0
	c1.2-21.9,3.3-53.6-17.4-67.7c-0.5-0.3-1.1-0.2-1.5,0.2c-4.5,4.6-4.5,11.1-4.1,17.1c0.6,9.2,7.7,15.9,5.6,25.4
	c-1.4,6.4-4.8,13.3-1.7,19.8c3.4,7.3,11.3,4.3,17.5,6.4C276.2,152.2,276.9,149.9,275.4,149.4z"/>
<path class="st5" d="M216.6,202.4c5.8,3.6,13.2,1,18.8-3c4.2-3,8.3-7.2,8.8-12.6c0.5-4.9-2.2-9.6-2.8-14.5
	c-0.8-6.7,2.2-13.2,2.2-19.9c0-2.2-0.6-4.7-2.4-5.7c-1.1-0.4-2.3-0.5-3.4-0.3c-3.5,0.5-4.5,1.3-8,2.5c0,0-4.7,24.5-6.3,29.5
	S216.6,202.4,216.6,202.4z"/>
<path class="st1" d="M216,203.5c9.9,5.2,24-2.5,28.2-12.1c3.2-7.4-1.7-14.1-1.7-21.5c0-6.6,4.1-14.5,1.7-21.1
	c-1.9-5-7.3-3.8-11.4-2.3c-3.7,1.3-4,1.2-4.7,4.6c-1.7,8.7-3.2,17.5-5.5,26.1c-2.3,8.3-4.8,16.6-7.2,24.9c-0.1,0.7,0.3,1.3,1,1.4
	c0.6,0.1,1.1-0.2,1.4-0.8c4.4-15.7,8.8-31.1,11.9-47.1c0.2-1.6,0.5-3.2,0.9-4.7c0.6-1.9,0.1-1.3,2.3-1.8c2.7-0.6,7-3.7,9.2,1
	c0.8,1.8,0.1,5.3-0.1,7c-0.5,3.4-1.5,6.8-1.8,10.3c-0.7,8.1,5.5,16.8,1.1,24.3s-15.8,14.1-24.1,9.7
	C215.8,200.6,214.6,202.8,216,203.5z"/>
<path class="st5" d="M251,160.7c2.9,1.2,5.9-4.8,8.4-2.7c0.5,0.5,0.8,1.1,0.9,1.7c1.7,5.4,0.8,11.4,2.3,16.8
	c1.4,4.9,4.8,9.1,5.6,14.2c0.8,4.8-0.7,9.8-2.7,14.2c-2.6,6-6,11.6-10,16.7c-1,1.3-2.4,2.7-4,2.6c-0.9-0.1-1.7-0.4-2.4-0.9
	c-2.9-1.7-5.9-3.6-7.4-6.8c-2.4-5-0.1-11,2-16.2c2.6-6.3,4.8-12.7,6.8-19.3c0.9-2.9,1.7-6,0.9-8.9c-0.5-1.9-1.7-3.6-2.3-5.5
	s-0.3-4.4,1.3-5.3"/>
<path class="st1" d="M250.6,161.9c3,0.6,5.2-3,7.5-2.2c3.2,1.2,2.3,13.7,3.3,17.2c1.5,5.4,5.4,9.9,5.8,15.7
	c0.5,7.2-3.6,14.6-7.2,20.5c-1.5,2.4-3.5,6.7-5.8,8.3c-3.6,2.5-7,0-9.5-2.6c-5.9-6.1-0.9-15,1.6-21.4c2.4-5.7,4.3-11.6,5.9-17.6
	c0.7-2.2,0.8-4.6,0.5-6.9c-0.5-3.1-4.5-7.7-1.4-10.5c1.2-1-0.5-2.8-1.7-1.7c-1.5,1.3-2.3,3.3-1.9,5.3c0.3,1.5,0.8,2.9,1.5,4.2
	c1.2,2.8,1.4,6,0.6,9c-1.9,9-6.4,17.2-9.1,25.9c-2,6.4-1.6,12.5,3.9,17c4.8,3.8,8.3,5.1,12.3,0c5-6.2,8.9-13.3,11.4-20.9
	c2.4-7.6,0.5-13.2-2.7-20.1c-2.2-4.8-2.7-9.3-3.1-14.5c-0.2-2.5-0.2-6.5-1.9-8.6c-3.4-4.2-5.9,2.5-9.4,1.8
	C249.8,159.2,249.1,161.6,250.6,161.9L250.6,161.9z"/>
<path class="st5" d="M274.9,214.8c-4.1,1.4-6.1,6.7-5.8,11.3c0.2,2.2,0.8,4.4,0.2,6.5c-0.8,3.2-3.8,5-6.4,6.8
	c-4.2,2.6-8,5.8-11.3,9.5c-1.9,2-3.3,4.4-3.9,7.1c-0.5,2.7,0.7,5.9,3,7c1.1,0.4,2.3,0.6,3.5,0.5l19.6-0.1c0.4,0-0.3-0.1,0-0.4
	s0,1.3,0,0.8c0.2-10.4,1.1-22.7-0.2-33c-0.7-4.9-1.5-10.2,0.6-14.7"/>
<path class="st1" d="M274.3,213.7c-2.5,1.1-4.5,3.2-5.4,5.8c-0.6,1.5-0.9,3.1-1,4.7c-0.1,2.2,0.9,4.7,0.5,6.8
	c-1.2,5.7-7.5,8-11.6,11.3c-3.4,2.7-7,6-9,9.9c-2.8,5.5-0.8,11.8,5.7,12.4c5.8,0.5,11.8,0,17.6,0c1.4,0,4.5,0.6,4.2-1.7l-2.3,0.6
	v-0.4l2.3,0.6c0.2-7.9,0.7-15.8,0.5-23.6c-0.2-7.7-3-16.3-0.1-23.7c0.6-1.5-1.8-2.1-2.4-0.6c-2.8,7.3-0.3,15.1,0,22.6
	c0.4,8.5-0.2,16.9-0.4,25.4c0,0.7,0.6,1.2,1.3,1.2c0.4,0,0.8-0.2,1-0.6c0.4-0.6,0.4-1.4,0-2.1c-0.6-0.9-2.4-0.7-2.3,0.6
	c-0.5-4-22.7,4-23.9-5.6c-0.8-6.8,9.9-13.8,14.6-16.9c3-2,6.2-4,7-7.8c1.3-6-2.7-13.4,4.9-16.8C276.9,215.2,275.7,213.1,274.3,213.7
	L274.3,213.7z"/>
<path class="st5" d="M225,218.9c2.5-2.1,6.3-1.8,8.9,0.2s4,5.3,4.6,8.7c0.3,2,0.4,4.4,2,5.6c1,0.9,2.4,1,3.7,1.4s2.6,1.3,2.7,2.7
	c-0.1,1.1-0.7,2.1-1.7,2.6c-2,1-4.2,1.4-6.4,1.2c-2.5,0-4.9-0.3-7.3-0.6c-2-0.3-4.2-0.8-5.4-2.5c-1.1-1.5-1.2-3.6-1.1-5.5
	c0.1-4.9,0.4-9.8,1-14.6"/>
<path class="st1" d="M225.6,219.9c3.6-2.5,7.9-0.6,10,3c1.4,2.5,1.5,5,2.1,7.7c0.2,1.2,0.7,2.3,1.5,3.2c1.2,1.3,2.8,1,4,2
	c1.2,0.1,1.2,0.8-0.1,2.1c-0.1,2-1.1,2.7-3,2.2c-0.9,0-1.9,0-2.8,0c-2.2-0.1-6.1,0.2-7.9-1c-2.1-1.4-3.2-4.8-3.2-7.2
	c0-1.5,0.1-3,0.2-4.6c0.2-3,0.4-6.1,0.8-9.1c0.2-1.6-2.3-1.5-2.5,0c-0.6,5.4-1.5,11.3-0.9,16.8c0.3,2.7,1.3,4.8,3.8,6
	c3.4,1.8,8.7,1.8,12.5,1.6c2.6-0.1,5.8-0.6,7.3-3c1.1-1.6,0.8-3.7-0.8-4.9c-1.6-1.4-3.3-1.4-4.9-3.1c-2.2-2.3-1.8-4.8-2.9-7.7
	c-2.2-5.9-8.5-10.1-14.3-6.1c-1.3,0.9-0.1,3,1.2,2.1L225.6,219.9z"/>
<path class="st5" d="M217.1,245.1c2.5-2.1,6.3-1.8,8.9,0.2s9.6,5,10.1,8.3c0.3,2,0.9,4.6,2.4,5.9c1,0.9,1.9,3.8,3.2,4.2
	s-1.6,2.8-1.6,4.2c0,1.1-2-2.2-2.9-1.7c-2,1-4.2,1.4-6.4,1.2c-2.5,0-4.9-0.3-7.3-0.6c-2-0.3-4.2-0.8-5.4-2.5
	c-1.1-1.5-1.2-3.6-1.1-5.5c0.1-4.9,0.4-9.8,1-14.6"/>
<path class="st1" d="M217.7,246.1c4.2-2.8,7.8,0.3,11.3,2.5c1.6,1,3.6,1.9,4.8,3.4s1.2,3.3,1.9,5.1c0.8,2.3,3.2,3.9,3.9,6.2
	c0.2,0.8,0.8,0.5,0.7,1.4c-0.4,0.9-0.9,1.9-1.4,2.7l1.7-0.4c-1.2-0.9-1.7-1.7-3.1-2c-0.9-0.2-7.7,1.5-5,1.2c-1.8,0.1-3.5,0-5.3-0.2
	c-1.7-0.2-4.1-0.2-5.7-0.9c-3.7-1.8-3.2-5.1-3.2-8.1c0.1-4.3,0.4-8.5,0.9-12.8c0.2-1.6-2.3-1.5-2.5,0c-0.6,5.2-1.4,10.8-0.9,16
	c0.2,2.8,1,5.2,3.6,6.6c3,1.6,7.3,1.6,10.5,1.7s6.7-1.4,9.4,0.5c0.6,0.3,1.3,0.1,1.7-0.4c1.3-2.1,2.5-3.8,1.5-5.9
	c-0.6-1.2-2.1-2.6-2.9-3.8c-1.5-2.5-1.7-4.9-3-7.3c-1.8-3.3-6.3-5.1-9.3-7c-3.6-2.3-7.1-3.2-10.9-0.7
	C215.2,244.9,216.4,247,217.7,246.1L217.7,246.1z"/>
<path class="st1" d="M273,271.6c3.3,7.5,6,15.3,8.1,23.2c1.3,5,2,8.8-0.2,13.6c-1,2.1-1.6,4.4-2,6.7c-0.4,2.7-0.4,5.5,0,8.2
	c0.6,3.7,3.1,7.6,2.3,11.5s-4.6,7.3-6.9,10.3l-8.4,10.7c-1,1.2,0.8,3,1.7,1.7l9.6-12.2c2-2.5,4.5-5.2,5.8-8.2
	c2.7-6.6-2.5-13.5-1.8-20.4c0.4-4.2,2.6-7.1,3.8-11c1.1-3.5-0.4-7.3-1.3-10.7c-2.2-8.4-5-16.6-8.5-24.6
	C274.5,268.9,272.4,270.1,273,271.6L273,271.6z"/>
<path class="st9" d="M294.1,317.2l44,0.2c2.3,0.2,4.6-0.1,6.8-0.8c3.4-1.4,5.8-4.7,7.8-7.9c3.6-5.5,7-11.2,9-17.6
	c1.2-4.3,2.1-8.7,2.6-13.2l4.3-30.2l-34.9-4.3c0.4,11.2,0.5,23.3-5.8,32.2c-1.2,2-3,3.5-5.2,4.4c-1.8,0.5-3.7,0.6-5.6,0.3
	c-12.2-1.2-30.4-11.1-42.3-8.2c-2.8,0.7-1.6,37.2-3.2,47.3s-9.6,60.8-11.1,66.7s29.2,0,31.6,0S294.1,317.2,294.1,317.2z"/>
<path class="st1" d="M294.1,318.4l36,0.2c4.8,0,10.5,0.9,15.1-0.8c3.2-1.2,5.4-3.9,7.4-6.7c6.1-8.6,10.5-17.7,12.2-28.1
	c1.9-11.6,3.3-23.3,5-35c0.2-0.7-0.3-1.4-0.9-1.5c-0.1,0-0.2,0-0.2,0l-34.9-4.3c-0.7,0-1.2,0.6-1.2,1.2c0.3,9.9,0.7,20.8-4.4,29.6
	c-3.4,5.9-7.9,6.7-14.2,5.5c-4.1-0.9-8.1-2-12-3.3c-7.3-2.3-15.1-5.1-22.9-4.8c-4,0.1-5.7,0.5-6.4,4.4c-2.1,11.3-1,23.5-1.4,34.9
	c-0.3,9.5-2.1,18.8-3.6,28.1c-2,12.5-4,25.1-6.1,37.6c-0.6,3.3-1.6,6.8-1.9,10.1c-0.2,2.7,1.2,3.6,3.8,4.1c4.7,0.9,9.9,0.1,14.6-0.4
	c4.4-0.5,9-0.9,13.4-1.8s3.3-7.8,3.5-11.3c1-19.6,0.8-39.3,0.7-58.9c-0.1-0.7-0.7-1.2-1.3-1.1c-0.6,0.1-1.1,0.5-1.1,1.1
	c0.1,15.9,0.1,31.8-0.3,47.6c-0.1,4.5-0.2,8.9-0.5,13.4c-0.1,2,0.2,5.3-0.8,7.2c0.2-0.3,1.1-0.7,0.1-0.4c-0.6,0.1-1.1,0.2-1.7,0.2
	c-2,0.3-4.1,0.6-6.2,0.9c-5.3,0.9-10.6,1.3-16,1.5c-1.2,0-4.4,0.3-5.3-0.7c-0.8-0.8-0.2-1.9,0.1-3.1c0.8-4.3,1.5-8.5,2.3-12.8
	c2-11.9,3.9-23.7,5.8-35.6c1.3-8.2,2.8-16.3,3.2-24.7c0.5-11.3-0.2-22.8,1.2-34c0.4-3.3,0.4-3.7,4.2-3.9c4.4,0,8.8,0.7,13.1,2
	c8,2.1,15.7,5.5,23.9,6.5c19.4,2.5,19.3-25,18.9-38l-1.2,1.2l34.9,4.3l-1.2-1.5c-1.4,10.1-2.8,20.1-4.3,30.2
	c-1.5,10.4-4.3,19.3-10,28.2c-2.5,4-5.2,8.9-10.2,10.1c-5.2,1.2-11.5,0.3-16.8,0.2l-32-0.2c-0.7,0-1.3,0.5-1.3,1.2
	C292.9,317.8,293.4,318.4,294.1,318.4z"/>
<ellipse class="st10" cx="210.9" cy="90.7" rx="6.7" ry="8"/>
<path class="st10" d="M202.5,83.5c-3.2,2.5-5.9,3.4-8.7,6.8c-2.4,3-4.7-1.1-4.7-5.5s3-8,6.7-8S205.9,80.8,202.5,83.5z"/>
<path class="st10" d="M199.2,85.8c1.9,0.3,3.7,1.1,5.3,2.2c-0.2,0.6-0.3,1.2-0.4,1.9c0,0.4-5.5-3-5.5-3L199.2,85.8z"/>
<path class="st10" d="M218,89.6c0,0,31.2-1.9,32-0.2s0.8,5.9,0,6.8s-2.4-0.8-2.4-0.8s0.8-0.8,0-2.5s-20.5,0-22.1,0s-7.9,0.4-7.9,0.4
	L218,89.6z"/>
<path class="st1" d="M28.6,203.6c0.7,0,1.3-0.6,1.3-1.3s-0.6-1.3-1.3-1.3s-1.3,0.6-1.3,1.3S27.9,203.6,28.6,203.6z"/>
<rect x="1.1" y="1.1" class="st11" width="400" height="400"/>
</svg>
