<svg id="gameover" xmlns="http://www.w3.org/2000/svg" viewBox="0 0 401 401"><defs><style>.cls-1{fill:#abacb0;}.cls-2{fill:#a2af67;}.cls-3{fill:#fff;}.cls-4{fill:#918a5f;}.cls-5{fill:#a58066;}.cls-6{fill:none;stroke:#000;stroke-miterlimit:10;}</style></defs><title>gameover</title><path class="cls-1" d="M-503.58-286.22c-13.1,5.52-26.27,11.07-39.94,13.9-12.35,2.55-24.93,2.85-37.44,3.83a470.36,470.36,0,0,0-58.67,8.82,99.57,99.57,0,0,1-15.12,2.39c-6.47.33-13.1-.69-19.33,1.45a6.44,6.44,0,0,0-3.59,2.5c-1.1,1.76-1,4.17-.86,6.37l.57,8.61c.52,7.8,1,15.65,2.75,23.2A72.39,72.39,0,0,0-672-204.62c1.22,3.1,2.82,6.28,5.43,7.65,2.94,1.54,6.32.39,9.36-.82,4.92-2,9.85-4,15-4.95,6.74-1.21,13.61-.39,20.42-.8,10.24-.61,20.21-4,30.11-7.17q15.49-5,31.11-9.28c10.1-2.8,20.31-5.41,30.67-5.75,5.77-.19,11.56.32,17.3-.41s11.57-2.77,17.23-4.78l19-6.76a5.13,5.13,0,0,0,2.45-1.45,7.12,7.12,0,0,0,1.14-3.24c1.88-10.75,2.42-23-3.2-31.65-6.54-10.07-18.61-11.29-29.22-11.67" transform="translate(769.5 428.5)"/><path d="M-504.05-288c-18,7.59-35.71,14.25-55.31,16.09-18.82,1.76-37.53,2.8-56.22,5.87-9.47,1.56-18.86,3.5-28.28,5.36A74.94,74.94,0,0,1-658.29-259c-4.28,0-8.6-.24-12.83.56-7.91,1.49-9.57,5.69-9.09,13.2.56,8.73,1,17.54,2.42,26.18,1.17,6.88,2.83,15.82,7.55,21.29,5,5.77,11.75,2.39,17.65.11a52.41,52.41,0,0,1,14.07-3.74c4.94-.46,9.92-.06,14.87-.23,8.72-.3,17.15-2.5,25.44-5.08,17.9-5.56,35.83-11.87,54.26-15.49,10.19-2,20.18-1,30.39-2,8.57-.89,16.66-4.23,24.72-7.09,4.58-1.63,10-2.79,14.28-5.16,2.58-1.44,3.14-3.41,3.66-6.18,1.48-7.92,2-16.54-.1-24.39-4.33-16.13-19.38-19.86-34.18-20.44-2.32-.09-2.32,3.51,0,3.6,14.22.56,28.08,4,31.23,20a45,45,0,0,1,.64,10.45c-.14,3.44.11,8.59-1.42,11.75s-7.57,4.22-10.74,5.34c-4,1.43-8,2.88-12.08,4.29a71.21,71.21,0,0,1-24.65,4.51,113.54,113.54,0,0,0-22.71,1.85c-15.68,3.09-31.12,8.12-46.34,13-7.56,2.41-15.12,5-22.95,6.44-8.42,1.52-16.81.46-25.25,1.37-7.4.8-13.53,4.27-20.55,6.23-10.07,2.81-12.62-12.32-14-19.59-1.53-8-1.89-16.25-2.43-24.4a29.9,29.9,0,0,1-.33-5.14,7.71,7.71,0,0,1,6.6-7.17c4.19-.77,8.53-.39,12.76-.44,7.79-.08,15.35-2,23-3.48,8.15-1.63,16.33-3.12,24.54-4.38,18.66-2.88,37.45-3.27,56.15-5.59,17.84-2.21,34.21-8.68,50.66-15.61,2.1-.89,1.18-4.38-1-3.48Z" transform="translate(769.5 428.5)"/><path d="M-662.41-233.72a800.16,800.16,0,0,1,92.33-8.71c2.4-.09,2.42-3.84,0-3.75a808.8,808.8,0,0,0-93.33,8.84c-2.38.36-1.37,4,1,3.61Z" transform="translate(769.5 428.5)"/><path d="M-622.87-219.43a54.45,54.45,0,0,1,20-2.66c2.41.13,2.4-3.62,0-3.75a57.28,57.28,0,0,0-21,2.79c-2.28.74-1.31,4.36,1,3.61Z" transform="translate(769.5 428.5)"/><path d="M-518.3-253.64a109.68,109.68,0,0,0,21.37-6.78c2.21-1,.3-4.18-1.89-3.24a105.2,105.2,0,0,1-20.48,6.4c-2.36.49-1.36,4.1,1,3.61Z" transform="translate(769.5 428.5)"/><path d="M-514.46-242.66a132.93,132.93,0,0,0,24.08-.33c2.37-.25,2.4-4,0-3.75a132.93,132.93,0,0,1-24.08.33c-2.41-.19-2.39,3.56,0,3.75Z" transform="translate(769.5 428.5)"/><path class="cls-1" d="M-677.51-83.21A239.92,239.92,0,0,1-670.8-40.5a76.48,76.48,0,0,0,1.15,10.08c.57,0,1.14-.07,1.71-.07h235.88c-.58-6.21-1.87-12.68-.46-18.57,1.54-6.45,6.13-11.24,7.72-17.67,1.07-4.36.66-9,.24-13.57l-8.07-86.8c-1-10.26-2.3-21.5-8.55-28.34l2.28-2c.69-.5.63-1.8.21-2.63s-1.1-1.44-1.51-2.28a11.09,11.09,0,0,1-.54-4.41c-.38-13.88-14.71-21.3-17.27-34.82-.32-1.7-.57-3.69-1.78-4.57a3.72,3.72,0,0,0-2.23-.51l-13.68-.16a8.07,8.07,0,0,1-3.84-.68c-3.65-2-4-8.23-6.54-12a9.72,9.72,0,0,0-8.85-4.18c-3.27.2-6.4,1.64-9.47,3.07l-22.52,10.48-84.29,19.78a192.22,192.22,0,0,0-25.23-.13c-4.5.27-9.57,1.09-12.24,5.58-2.23,3.77-2.36,9.57-5.64,11.87-1.61,1.13-3.57,1.05-5.4,1.4-3.77.72-7.12,3.29-10.35,5.82-1.94,1.52-4.12,3.53-4.1,6.37,0,1.89,1,3.51,1.77,5.16a21.59,21.59,0,0,1-.13,17.62c-1.23,2.56-3,4.71-4.09,7.36s-1.42,6.17.17,8.41l1.31-1.36c.82,17.74-8,34.45-7.59,52.21C-682.5-100.87-679.74-92-677.51-83.21Z" transform="translate(769.5 428.5)"/><path d="M-679.23-82.74a242.91,242.91,0,0,1,5.3,28.12c1,8.19,1.08,16.54,2.57,24.67a1.78,1.78,0,0,0,1.71,1.3c26.85-1.14,54-.07,80.83-.07h156.76a1.79,1.79,0,0,0,1.78-1.78c-.84-8.26-2.16-15.91,1.64-23.69,2.57-5.26,5.62-9.89,6.18-15.87.67-7.26-.74-14.86-1.41-22.08l-2.29-24.66-4.4-47.35c-1-11.22-1.71-23.59-9.35-32.55v2.51c1.07-1,2.6-1.91,3.11-3.32a4.32,4.32,0,0,0,0-2.6c-.66-2.35-1.81-4.15-2.13-6.69a34.65,34.65,0,0,0-6.89-16.85c-4.23-5.85-8.79-11.23-10.44-18.44-.52-2.27-.8-4.6-3-5.81-3.24-1.76-8.87-.65-12.48-.69-2.68,0-5.14.39-7.31-1.24-2-1.51-2.49-3.78-3.34-6.06-1-2.66-2.11-5.25-4.37-7.09-5.09-4.15-11.53-2.38-17,0-9.33,4.17-18.28,9.76-28.27,12.1l-53.21,12.48-22.5,5.28a27.77,27.77,0,0,1-3.91.92c-4.22.34-8.88-.53-13.15-.53a114.16,114.16,0,0,0-14.14.58c-7.58,1-11.14,4.8-13.46,11.81-1,2.9-1.74,5.42-5,6.48-2.07.67-4.06.61-6.13,1.52A30.81,30.81,0,0,0-673.69-205a8.13,8.13,0,0,0-2,7.28c1.05,4.84,3.71,8.39,3.29,13.68-.67,8.38-10.15,15.26-5.56,23.92a1.79,1.79,0,0,0,2.79.36l1.31-1.36-3-1.26c.4,14.14-4.81,27.36-6.84,41.19-2,13.35,1.24,25.55,4.53,38.4.57,2.21,4,1.28,3.43-.94-1.66-6.49-3.57-13-4.55-19.59a64.84,64.84,0,0,1,.92-22.13c2.41-12.3,6.42-24.24,6.06-36.92a1.8,1.8,0,0,0-3-1.26l-1.31,1.36,2.79.36c-2.7-5.11,1.89-9.67,3.92-14a22.8,22.8,0,0,0,2.12-8.15,23.56,23.56,0,0,0-1.25-9.47c-.54-1.52-1.54-2.94-1.81-4.54-.6-3.57,1.65-5.52,4.34-7.55a27.28,27.28,0,0,1,11.13-4.84,8.17,8.17,0,0,0,5.62-4.12c1.34-2.33,1.77-5,2.75-7.52,1.94-4.91,6.16-6.28,11-6.7,4.39-.38,8.84-.42,13.24-.39s8.88.88,13.09.41a23.86,23.86,0,0,0,2.72-.64l18-4.22,51.13-12c4.05-1,8.36-1.59,12.32-2.89,6.1-2,12.05-5.56,17.88-8.28,4.16-1.94,9.06-5.07,13.77-5.25,5.16-.19,7.64,3.28,9.3,7.68,2.47,6.54,4.64,9.15,11.89,9.25l7.81.09c3.41,0,5,0,6.21,3.82a42.78,42.78,0,0,0,3.57,9.05c3.4,5.85,8.36,10.71,11.37,16.8,2,4,1.64,7.56,2.43,11.75.27,1.45,1.54,2.73,1.66,4.11s-.56,1.68-1.75,2.73a1.81,1.81,0,0,0,0,2.51c8.64,10.14,8,26.41,9.13,38.92l4.13,44.39,2,21.7c.66,7,2.35,15,.65,22-1.41,5.78-5.48,10.45-7.27,16.09-2.13,6.7-.75,13.81-.05,20.62l1.78-1.78H-639.31c-10.09,0-20.25-.35-30.34.07l1.71,1.3c-1.61-8.79-1.63-17.9-2.84-26.76a247.82,247.82,0,0,0-5-26C-676.35-85.9-679.78-85-679.23-82.74Z" transform="translate(769.5 428.5)"/><path class="cls-2" d="M-657.74-291c3.87,32.53,30.11,58.39,59.05,64.53,24.57,5.21,51.08-2.3,70.42-20,10-9.15,18.5-22,18.57-36.41,0-7.91-2.44-15.54-4.89-23l19.37,11.34a12.08,12.08,0,0,0,5,2c2.22.16,4.33-1,6.51-1.49,4.31-1,8.77.3,13.17.07,9.28-.49,17-7.73,23.84-14.75q15.84-16.33,30.66-33.82c11.31-13.35,22.74-28.73,23.52-47.06-42.74,10.13-85.7,20.33-126.39,38.06a7.39,7.39,0,0,1-4,.92c-1.66-.27-3-1.65-4.2-2.91-16.49-16.75-40.57-22.44-62.57-18.19s-42,17.56-58.36,34.42l-1.77.32c-10.23-12.48-26.83-14.74-41.95-16.21l-33.64-3.28c-11.44-1.12-23.78-2-33.58,4.65q43.43,30.71,87.17,60.86c1.91,1.32,3.91,2.67,6.14,3A5.19,5.19,0,0,0-660-291" transform="translate(769.5 428.5)"/><path d="M-659.24-291a79,79,0,0,0,52.34,63.82c30.55,10.36,66.93-1,87.05-26,5.36-6.67,9.53-14.46,11-22.95,1.83-10.35-1.12-20.31-4.32-30.06l-2.2,1.69c7.07,4.14,14.25,9.49,21.82,12.64a10.09,10.09,0,0,0,7,.36c4.92-1.3,9.09-.91,14.12-.86,14.26.14,24.43-12.61,33.34-22.06,10.91-11.57,21.81-23.39,31.45-36.05,8.77-11.52,15.73-24.33,16.61-39a1.51,1.51,0,0,0-1.9-1.45c-29.35,7-58.75,13.93-87.43,23.35q-9.88,3.24-19.62,6.89-5.32,2-10.59,4.14c-2.81,1.14-7.07,3.78-10.07,4.23-4.17.62-7.26-4-10-6.35a66.65,66.65,0,0,0-6.46-4.76,67.78,67.78,0,0,0-15.27-7.3c-22.39-7.5-46.4-2.83-66.55,8.66a124.64,124.64,0,0,0-15.31,10.38q-3.28,2.58-6.4,5.35-1.88,1.67-3.71,3.39c-.9.85-3.39,4.26-4.58,4.41s-3.69-3.4-5.08-4.51a38.74,38.74,0,0,0-5-3.41,56.53,56.53,0,0,0-16.54-5.87c-14.35-3-29.34-3.52-43.9-4.94-13.58-1.32-28.13-3.47-40.28,4.27a1.52,1.52,0,0,0,0,2.59q28.14,19.89,56.43,39.57,13.73,9.55,27.5,19.05c4.82,3.33,13,9.27,17.06,1.55.89-1.71-1.7-3.23-2.59-1.51-3.22,6.18-12-2-15.39-4.31l-12.14-8.4q-11.33-7.85-22.63-15.73-23.42-16.34-46.74-32.82v2.59c11.91-7.59,26.49-5.06,39.75-3.77,13.73,1.34,27.84,1.91,41.4,4.59a54.77,54.77,0,0,1,16.54,5.71,34.8,34.8,0,0,1,6.63,4.83c1.48,1.38,2.44,3.46,4.5,3.63,3.62.3,7.31-5.57,9.67-7.7a132.1,132.1,0,0,1,16.76-13c21.1-13.65,47-20,71.25-11.27a64.15,64.15,0,0,1,15.65,8.22,62.59,62.59,0,0,1,6.8,5.68c1.74,1.66,3.45,3.92,6,4.39,1.74.33,3.26-.3,4.84-.92,3.53-1.39,7-3,10.51-4.4q10.54-4.23,21.29-7.91c30.93-10.65,62.8-18.22,94.59-25.75l-1.9-1.45c-.84,13.85-7.5,26-15.71,36.87-8.83,11.7-18.88,22.61-28.87,33.33-8.87,9.52-19.5,24-33.82,24-3.29,0-6.53-.76-9.83-.34-4.58.58-7.82,2.33-12.26-.06-6.57-3.54-12.93-7.57-19.37-11.34a1.52,1.52,0,0,0-2.2,1.69c2.73,8.31,5.49,16.88,4.68,25.75-.71,7.79-4,15.21-8.52,21.53-9.05,12.75-22.84,22.29-37.54,27.39-27.59,9.56-57.73,2.77-78.17-18.14A74.11,74.11,0,0,1-656.24-291c-.25-1.89-3.25-1.91-3,0Z" transform="translate(769.5 428.5)"/><path d="M-635.62-291.36c1.9-5.67,7.09-9.38,12.44-10.47s10.86.06,16.1,1.66c4.64,1.42,9.77,3.8,11.33,8.87a5.53,5.53,0,0,1,.24,2.63,6.51,6.51,0,0,1-2.15,3.3c-4,3.84-8.8,6.95-14.05,7.34-5.49.42-10.77-2.12-15.81-4.61-3.27-1.62-6.76-3.45-8.49-6.93" transform="translate(769.5 428.5)"/><path d="M-633.81-290.86c2.9-7.37,10.37-10.12,17.82-9.38,4.63.46,18.13,3,18.44,9.44.19,4-4.53,7.12-7.6,8.79a16.46,16.46,0,0,1-12.55,1.46c-5.56-1.44-13.64-4.8-16.69-10-1.23-2.07-4.47-.19-3.24,1.89,2.48,4.18,6.41,6.29,10.68,8.35,4.51,2.17,9.31,4.27,14.41,4.14,6.53-.17,19.9-6.23,18.87-14.37-1.14-9-13.16-12.21-20.53-13.26-9.89-1.41-19.42,2.22-23.23,11.9-.88,2.24,2.74,3.22,3.61,1Z" transform="translate(769.5 428.5)"/><path d="M-527-306.12a8.58,8.58,0,0,0-7.47-6.44c-3.34-.38-6.65.88-9.73,2.38a65,65,0,0,0-9.42,5.62c-2.57,1.84-5.32,4.6-4.87,8,.37,2.74,2.74,4.53,4.94,5.82a63.27,63.27,0,0,0,14.14,6.14,5.64,5.64,0,0,0,3.1.28,6.15,6.15,0,0,0,2.83-2.28,45.84,45.84,0,0,0,5.41-8.45,17.9,17.9,0,0,0,2.09-6.68,7.88,7.88,0,0,0-2.21-6.39" transform="translate(769.5 428.5)"/><path d="M-525.21-306.62c-3.19-10.3-14-8.29-21.58-4.36-6.25,3.26-19,10.9-11.26,19.18,3.35,3.58,8.8,5.61,13.28,7.35,4.06,1.57,8.19,3.44,11.76.13,6-5.58,12.54-17.9,6.12-25.12-1.61-1.81-4.25.85-2.65,2.65,4.13,4.65-1.09,15.28-5.29,18.87-4.4,3.77-12.72-1.52-17-4a10.81,10.81,0,0,1-2.69-1.81,5.81,5.81,0,0,1,.08-7.67,33.81,33.81,0,0,1,7.19-5c5.31-3.07,15.71-8.11,18.47.8.71,2.3,4.33,1.32,3.61-1Z" transform="translate(769.5 428.5)"/><path d="M-577.28-266.76l1.78.64a1.88,1.88,0,0,0,2.3-1.31,1.92,1.92,0,0,0-1.31-2.3l-1.78-.64a1.88,1.88,0,0,0-2.3,1.31,1.92,1.92,0,0,0,1.31,2.3Z" transform="translate(769.5 428.5)"/><path d="M-567.79-267.15l2.37-2a1.88,1.88,0,0,0,0-2.65,1.92,1.92,0,0,0-2.65,0l-2.37,2a1.88,1.88,0,0,0,0,2.65,1.92,1.92,0,0,0,2.65,0Z" transform="translate(769.5 428.5)"/><path class="cls-3" d="M-613.54-292.69c2.34.6,3.46,4.31,1.92,6.36a3.52,3.52,0,0,1-6-1c-.95-2.46,1.08-5.65,3.48-5.48" transform="translate(769.5 428.5)"/><path d="M-614-290.88c1.7.53,1.8,4.1-.36,3.93-2.34-.19-1.77-4,.3-4,2.41,0,2.41-3.71,0-3.75-3,0-5.34,2.7-5.57,5.59a5.43,5.43,0,0,0,5,5.83c6.65.58,7.48-9.44,1.64-11.27-2.31-.72-3.29,2.89-1,3.61Z" transform="translate(769.5 428.5)"/><path class="cls-3" d="M-544.8-299.42c-1.17,2-.07,5,2,5.58s4.27-1.69,4-4-2.91-3.86-4.78-2.77" transform="translate(769.5 428.5)"/><path d="M-546.42-300.36a6.12,6.12,0,0,0,.78,6.85,4.73,4.73,0,0,0,6.88.19,5.55,5.55,0,0,0,.86-7.18,5.18,5.18,0,0,0-6.65-1.74c-2.15,1.09-.26,4.32,1.89,3.24a1.42,1.42,0,0,1,1.62.53,1.81,1.81,0,0,1-.33,2.47c-1.49,1.3-2.43-1.31-1.82-2.46,1.13-2.13-2.11-4-3.24-1.89Z" transform="translate(769.5 428.5)"/><path d="M-649.33-105.09c2.71-5.62,5.4-11.34,6.8-17.45a39,39,0,0,0,1-8.87c0-3.91-2-9.81,1.89-12.47,1.24-.84,2-.3,2.87-1.83,1.67-2.78-.58-3.53,2.91-5.67,3.13-1.92,2.78-.95,5.63,1.12a21.85,21.85,0,0,0,3.32,2.1,18.14,18.14,0,0,0,6.28,1.68c5.56.53,11-1.08,16.55-1.28,7.56-.27,11.49,3.6,17.19,7.78,2.42,1.77,6.49,2.59,6.38,6.19-.09,3-3,7.52-4.15,10.32l-8.76,21.41c-.82,2,2.45,2.89,3.26.9l10.95-26.76c2-4.86,4.31-9.77-1.44-12.38-6.76-3.07-11-9.51-18.71-10.62-6.45-.93-12.74,1.31-19.16,1.19-4.59-.09-7.4-1.62-11-4.24-2-1.42-4-2.89-6.51-2.58-6,.72-3.81,6.7-6.91,9.45-1.47,1.31-2.69,1.48-3.59,3.61-1.4,3.32-.57,6.91-.41,10.36.43,9.45-3.31,18-7.33,26.34-.94,2,2,3.67,2.92,1.71Z" transform="translate(769.5 428.5)"/><path class="cls-4" d="M-405.21-360.59c-9,13-20.72,23.46-30.17,36.1-3,4-5.7,8.13-9.08,11.63a57.87,57.87,0,0,1-7.94,6.66c-6.3,4.54-13.48,8.6-21,7.77a33,33,0,0,1-9.41-3c-6.1-2.67-12.18-5.64-17.34-10.14s-9.37-10.71-10.59-17.87l0-1.12c2.91-4.24,7.26-6.92,11.55-9.29a177,177,0,0,1,94-22.18" transform="translate(769.5 428.5)"/><path d="M-406.51-361.35c-9.21,13.09-21.14,23.92-30.66,36.76-9,12.19-24.18,29.56-41.35,23.31-7.65-2.78-15.63-6.7-21.61-12.31a31.75,31.75,0,0,1-6.56-8.63c-.86-1.67-2.08-4.08-2.25-6.07-.22-2.56,1.5-4,3.44-5.6,6-5,13.81-8.32,20.85-11.47a177.08,177.08,0,0,1,23.95-8.69,175.61,175.61,0,0,1,55.57-6.45c1.93.08,1.93-2.92,0-3a178.31,178.31,0,0,0-57.23,6.8,182,182,0,0,0-26.26,9.87c-7.57,3.53-16.78,7.32-22.18,14-3.63,4.51,1.08,12,3.89,16,4.73,6.65,11.57,11.15,18.83,14.65,7.06,3.41,14.26,6.64,22.21,4.62s15.42-7.45,21.22-13c7.69-7.36,13.26-17,20.34-24.94s14.28-15.64,20.38-24.32c1.11-1.58-1.49-3.08-2.59-1.51Z" transform="translate(769.5 428.5)"/><path class="cls-4" d="M-658.51-320.2c-1.07,4.53-2.16,9.13-4.33,13.14s-5.62,7.41-9.76,8.19c-4.79.9-9.47-1.77-13.74-4.34-3-1.78-5.91-3.56-8.79-5.47-15.25-10.07-28.73-23.63-45.11-31.21l1.06-1.44q26.77,4,53.47,8.65c9.2,1.58,19.12,3.63,25.44,11.24" transform="translate(769.5 428.5)"/><path d="M-660-320.6c-1.95,8.21-5.56,22.44-17,20.12-4.18-.85-8-3.63-11.59-5.82s-7.29-4.59-10.79-7.1c-13.24-9.51-25.32-20.72-40.16-27.79l.54,2.05,1.06-1.44-1.69.69q21.51,3.26,43,6.86c12.13,2,26.55,2.84,35.27,12.64,1.29,1.44,3.4-.68,2.12-2.12-8.35-9.37-21.08-10.78-32.78-12.76q-23.36-4-46.79-7.51a1.6,1.6,0,0,0-1.69.69l-1.06,1.44a1.5,1.5,0,0,0,.54,2.05c18.45,8.8,32.9,23.81,50.21,34.45,6.27,3.85,14,9.42,21.6,5.69,7.9-3.89,10.28-13.53,12.13-21.34.44-1.88-2.45-2.68-2.89-.8Z" transform="translate(769.5 428.5)"/><path class="cls-5" d="M-588.18-194l-1.39-17.47a6.09,6.09,0,0,1,.27-3c.72-1.55,2.51-2,4.06-2.19a483.43,483.43,0,0,1,52.18-4.74,3.19,3.19,0,0,1,2.16.45,3.8,3.8,0,0,1,1,1.7c3.63,9.66,4.43,21.39-.68,30.18a27.12,27.12,0,0,1-12.75,11,32.45,32.45,0,0,1-26.88-.47c-8.45-4-15.37-11.88-18.83-21.36" transform="translate(769.5 428.5)"/><path d="M-586.3-194l-.93-11.65c-.12-1.53-.76-4.33-.46-5.82.57-3,2.39-3.31,4.88-3.68,7.51-1.13,15.09-1.94,22.65-2.65q11.59-1.08,23.23-1.59c2.68-.12,4.14-.88,5.78,2.08a16.15,16.15,0,0,1,1.1,3.77,40.16,40.16,0,0,1,1.23,10.46c-.29,15.37-12.85,26-28,25.76-14.17-.25-25.49-10.36-30.43-23.13-.86-2.23-4.49-1.26-3.61,1,4.27,11,12.51,20.42,24,24.19,12.16,4,27,.78,35.36-9.27,7.8-9.38,8.29-24.32,3.45-35.25-2.38-5.39-8.8-3.4-13.71-3.13q-12.6.69-25.15,2-6.53.7-13,1.57c-3,.41-7.28.21-9.75,2.37-2.2,1.92-1.76,4.79-1.57,7.4.38,5.18.83,10.36,1.24,15.53.19,2.39,3.94,2.41,3.75,0Z" transform="translate(769.5 428.5)"/><path d="M-443.92-158.42a122.08,122.08,0,0,1-16.49-10c-5.18-3.74-9.54-8.74-14.77-12.32-4.6-3.14-9,.16-13.92.81-5.3.7-7.21,4.23-10.05,8.44l-12.2,18c-2.15,3.18-7.58,8.3-6.54,12.58,1,3.94,6.38,7.39,8.85,10.45a76.53,76.53,0,0,1,10.51,17.8c.76,1.75,3.23.69,3.31-.9l.12-2.25c.12-2.29-3.43-2.28-3.56,0l-.12,2.25,3.31-.9a76,76,0,0,0-15.24-23.19c-2.27-2.31-4.26-3.18-2.58-6.66,1.24-2.58,3.39-5,5-7.38l10-14.76c1.48-2.18,2.89-4.42,4.44-6.56,2.47-3.42,4.75-2.93,8.33-3.73,3.38-.76,5.53-2.41,9.21-.41,2,1.1,3.91,3.61,5.67,5.12a124.9,124.9,0,0,0,24.94,16.64c2,1,3.84-2,1.8-3.07Z" transform="translate(769.5 428.5)"/><path class="cls-2" d="M-492.49-176.12c-2.3-9.07-7.66-17.32-15.14-21.72s-17.07-4.55-24.23.45-11.27,15.31-9,24.38c1.84,7.38,7.25,13,12.94,17.26,4.45,3.36,9.8,6.29,15,4.91s8.6-6.35,11.7-11l11.61-17.56" transform="translate(769.5 428.5)"/><path d="M-491-176.52c-3.45-12.62-12.6-24.88-26.58-26-13.61-1.13-24.51,9.67-25.32,23-.79,13.06,11.57,27.38,24.15,30.19,6.54,1.46,11.62-2,15.52-7,5.51-7,10.06-14.88,15-22.3,1.07-1.62-1.53-3.12-2.59-1.51l-10.55,16C-504.82-159.13-509-151.8-516-152c-6.08-.18-12-5.28-16.11-9.38-4.51-4.52-7.79-10.21-7.83-16.73-.08-12.23,9.93-22.58,22.36-21.44C-505-198.41-497-187-493.93-175.72a1.5,1.5,0,0,0,2.89-.8Z" transform="translate(769.5 428.5)"/><path class="cls-2" d="M-587.83-145.27a43.48,43.48,0,0,0-38.21-4l1.67.57c-6-3.85-8.84-12.18-8-19.79s4.76-14.47,9.77-19.73a26.76,26.76,0,0,1,9.76-6.92c4.79-1.78,10-1.39,15-.64,6.21.93,12.43,2.42,18,5.55a29.29,29.29,0,0,1,13.11,14.41,19.64,19.64,0,0,1,1.51,7.76,21.88,21.88,0,0,1-2,8.07c-4.43,10.16-14.45,17.76-24.48,16.13" transform="translate(769.5 428.5)"/><path d="M-587.07-146.56a46,46,0,0,0-39.36-4.19,1.51,1.51,0,0,0,0,2.89l1.67.57c1.71.58,2.45-1.81,1.16-2.74-10.71-7.67-8.31-23.09-1.73-32.59,3.47-5,8.45-10,14.46-11.63,6.41-1.77,13.89-.25,20.18,1.37,11.62,3,25.49,12.44,23.77,26.23-1.46,11.71-12.67,22.71-24.81,21.23-1.91-.23-1.9,2.77,0,3,13.53,1.64,26-10.66,27.81-23.62,2.14-15.36-12.89-26.36-26-29.74-7.32-1.89-16.06-3.51-23.39-.86-6.33,2.29-11.44,7.66-15.08,13.15-7.28,11-8.53,27.59,3.24,36l1.16-2.74-1.67-.57v2.89A43,43,0,0,1-588.59-144a1.5,1.5,0,0,0,1.51-2.59Z" transform="translate(769.5 428.5)"/><path d="M-562.95-71.39a236.39,236.39,0,0,1,87.16-20c2.4-.08,2.42-3.83,0-3.75a241.29,241.29,0,0,0-89.06,20.55c-2.2,1-.3,4.2,1.89,3.24Z" transform="translate(769.5 428.5)"/><path d="M-618.79-57.32c10.68,2.64,21.94,2.07,32.87,2.12q18,.09,36-.17a149.51,149.51,0,0,0,32.62-3.94c12.36-2.87,25-3.93,37.6-4.91,2.44-.19,2.46-4,0-3.83-11,.86-22.09,1.71-33,3.83-5.68,1.1-11.24,2.79-16.94,3.77A118.63,118.63,0,0,1-548-59.22Q-565-59-582-59c-11.78,0-24.22.84-35.74-2-2.39-.59-3.41,3.1-1,3.69Z" transform="translate(769.5 428.5)"/><path d="M-483.3-132.45a36.87,36.87,0,0,1,9-19.18c1.61-1.79-1-4.44-2.65-2.65a40.4,40.4,0,0,0-9.93,20.84c-.39,2.36,3.23,3.37,3.61,1Z" transform="translate(769.5 428.5)"/><path d="M-472.74-131.52c2.54.59,4.32-.66,6.24-2.2,2.59-2.09,5.16-4.22,7.74-6.33,1.87-1.53-.8-4.16-2.65-2.65l-4.79,3.92c-1.15.94-3.94,4-5.54,3.65-2.35-.55-3.35,3.07-1,3.61Z" transform="translate(769.5 428.5)"/><path d="M-635.52-115.89q15.69-2.15,31.49-3.19c2.39-.16,2.41-3.91,0-3.75q-16.3,1.08-32.48,3.32c-2.38.33-1.37,3.94,1,3.61Z" transform="translate(769.5 428.5)"/><path d="M-624.54-103.21l23.27-2.38c2.38-.24,2.4-4,0-3.75L-624.54-107c-2.38.24-2.4,4,0,3.75Z" transform="translate(769.5 428.5)"/><path d="M-650.94-198.93a82.41,82.41,0,0,1,16.66-4.86c2.37-.43,1.37-4-1-3.61a82.41,82.41,0,0,0-16.66,4.86c-2.2.9-1.24,4.53,1,3.61Z" transform="translate(769.5 428.5)"/><path d="M-664.79-178.72a172.88,172.88,0,0,0,23.38-3.76c2.35-.55,1.35-4.16-1-3.61a165.49,165.49,0,0,1-22.38,3.62c-2.38.22-2.4,4,0,3.75Z" transform="translate(769.5 428.5)"/><path d="M-502.5-223.18a77.11,77.11,0,0,1,17.32-9c2.25-.82,1.28-4.45-1-3.61a81,81,0,0,0-18.22,9.41c-2,1.36-.1,4.61,1.89,3.24Z" transform="translate(769.5 428.5)"/><path d="M-483.18-203.14a95,95,0,0,1,11.82-3.57c2.35-.55,1.35-4.16-1-3.61a95,95,0,0,0-11.82,3.57c-2.24.84-1.27,4.46,1,3.61Z" transform="translate(769.5 428.5)"/><path d="M-641.91-302.58c13.09-5.59,26-12.39,40.41-13.39,2.39-.17,2.41-3.92,0-3.75-15.13,1.05-28.57,8-42.3,13.9-2.21.94-.3,4.17,1.89,3.24Z" transform="translate(769.5 428.5)"/><path d="M-565-318.58A306.93,306.93,0,0,1-526.49-320c2.41.07,2.41-3.68,0-3.75A306.93,306.93,0,0,0-565-322.33c-2.38.23-2.4,4,0,3.75Z" transform="translate(769.5 428.5)"/><path d="M-639.57-315.41A149.46,149.46,0,0,1-610.94-328c2.29-.73,1.31-4.35-1-3.61a154.17,154.17,0,0,0-29.53,13c-2.09,1.19-.21,4.43,1.89,3.24Z" transform="translate(769.5 428.5)"/><path d="M-557.48-332.16q7,.16,14.07.42c4.72.18,10-.2,14.44,1.52,2.25.87,3.23-2.75,1-3.61-4.27-1.65-9-1.4-13.56-1.58q-8-.32-15.94-.49c-2.41-.05-2.41,3.69,0,3.75Z" transform="translate(769.5 428.5)"/><path d="M-587-245.76c5.37-2.08,10.71-4.42,16.2-6.16,6.69-2.11,12.42-.56,18.76,1.8,2.26.84,3.24-2.78,1-3.61-5.63-2.09-11.18-3.86-17.22-2.72-6.75,1.28-13.34,4.61-19.73,7.08-2.23.86-1.26,4.49,1,3.61Z" transform="translate(769.5 428.5)"/><path d="M-571.49-243.57l6-.62a1.93,1.93,0,0,0,1.87-1.87,1.89,1.89,0,0,0-1.87-1.87l-6,.62a1.93,1.93,0,0,0-1.87,1.87,1.89,1.89,0,0,0,1.87,1.87Z" transform="translate(769.5 428.5)"/><rect class="cls-6" x="0.5" y="0.5" width="400" height="400"/></svg>