<?xml version="1.0" encoding="utf-8"?>
<!-- Generator: Adobe Illustrator 24.1.0, SVG Export Plug-In . SVG Version: 6.00 Build 0)  -->
<svg version="1.1" id="Layer_1" xmlns="http://www.w3.org/2000/svg" xmlns:xlink="http://www.w3.org/1999/xlink" x="0px" y="0px"
	 viewBox="0 0 400.9 400.9" style="enable-background:new 0 0 400.9 400.9;" xml:space="preserve">
<style type="text/css">
	.st0{fill:#D2DEFF;}
	.st1{fill:#420744;}
	.st2{fill:#D3A2F9;}
	.st3{fill:#DDDDDD;}
	.st4{fill:#662D91;}
	.st5{fill:#C1840C;}
	.st6{fill:#D6AB34;}
	.st7{fill:#A57C0A;}
	.st8{fill:#3D5599;}
	.st9{fill:#4C4C4C;}
	.st10{fill:#E5C665;}
	.st11{fill:#4F4F51;}
	.st12{fill:#BFA01B;}
	.st13{fill:#D6D7D8;stroke:#420744;stroke-width:0.82;stroke-miterlimit:10;}
	.st14{fill:#0FA2BA;}
	.st15{fill:#A9F0FC;}
	.st16{fill:none;}
</style>
<path class="st0" d="M228.7,64.4c-2.3-0.8-4.9,1.1-5.7,3.4s-0.5,4.9-0.2,7.3c-6.6-1.2-13.4,1.8-16.8,7.6c-2.3,4-2.8,8.9-3,13.6
	c-0.2,4.3-0.2,8.8,1.7,12.7s6.2,7,10.4,6.1c-1.6,2.7-3.2,5.6-3.4,8.8s1.7,6.7,4.8,7.2c-8.3,15.7-2.3,35.1,13.4,43.3
	c5.1,2.7,10.9,4,16.7,3.7c2.1,0,4.1-0.5,6.1-1.3c3.3,5.2,12.3,5.2,15.7,0c6.4,10.1,19.8,13.2,29.9,6.8c7.6-4.8,11.5-13.8,9.7-22.6
	c1.6,2.2,5.2,1.8,7.2,0s2.9-4.6,3.7-7.1c0.9,2.5,3.6,3.9,6.1,3c2.5-0.9,3.9-3.6,3-6.1c-0.1-0.2-0.2-0.4-0.3-0.6
	c10,2.8,20.7,1.3,29.6-4.2c5.2-3.3,10-9.6,7.5-15.3c3.3,0.4,5.8-4.6,3.3-6.9c3.1-2,3.2-6.4,2.6-10c-0.9-5.7-2.8-11.4-6.4-16
	s-9.1-7.8-14.9-7.7c-0.7-3.2-2.7-5.9-5.5-7.5c4.1-4,4.2-10.9,1.2-15.8S336.6,59,331,58c-6.1-1.1-13.5,0.5-16.2,6.1
	c-3.2-3-8-3.9-12.1-2.2c-0.8-1.8-3-2.7-4.8-1.9c-0.3,0.1-0.6,0.3-0.8,0.5c-2.2-6.4-8-10.7-13.8-14.2c-6.3-3.8-13.4-7.1-20.8-6.7
	c-11.8,0.6-21.9,12.3-20.7,24.1c-4.6-3.3-11.9-1.7-14.6,3.3"/>
<path class="st1" d="M229,63.3c-7.3-1.1-8.1,6.8-7.3,12.1l1.4-1.4c-11.6-1.8-19.6,6.4-21,17.4c-1.1,9.1-0.6,26.3,12.8,24.8l-1-1.7
	c-3.2,5.6-6.3,15.1,2.1,17.7l-0.7-1.7c-8.3,16.9-1.8,37.6,15.5,45.6c3.7,1.7,7.8,2.8,11.9,3.1c2.1,0.2,4.2,0.1,6.3-0.3
	c0.8-0.1,2.4-0.9,3.1-0.7c0.4,0.1,0.7,0.9,1.1,1.1c5.5,3.2,11.7,3.5,15.8-2.1h-2c6,8.8,17.7,13.1,27.8,9.1s15.6-15.2,13.9-25.7
	l-1.9,1.1c6,5.8,11.2-2.4,12.8-7.6l-2.1,0.3c0.9,3.2,4.3,5,7.5,4.1c3.2-0.9,5-4.3,4.1-7.5c-0.1-0.4-0.3-0.8-0.5-1.2l-1.4,1.4
	c9.2,2.5,19.1,1.5,27.6-2.7c6.6-3.4,13.6-10.1,10.8-18.2l-1.1,1.5c1.9,0.1,3.6-0.9,4.6-2.6c1.2-2.1,0.1-3.3,0.4-5.2
	c0.3-1.6,2-3.3,2.3-5.3c0.5-3.5-0.4-7.4-1.4-10.7c-2-6.9-5.9-13.4-12.4-16.8c-2.3-1.2-6.4-1.2-8.1-2.8c-0.9-0.8-1.4-2.9-2.2-3.9
	c-1-1.1-2.1-2.1-3.4-2.9l0.2,1.8c15.6-17.4-20.2-38.2-30.9-19.8l1.8-0.2c-1.6-1.4-3.5-2.4-5.5-3c-2.1-0.5-4.4,0.4-6.3,0
	c-2.8-0.6-4-2.8-7.3-0.8l1.7,0.7c-2.5-6.4-7.4-10.6-13.1-14.1c-6.7-4.2-14.5-8.1-22.6-7.6c-12.8,0.7-22.7,12.8-21.9,25.3l1.7-1
	c-5.4-3.4-12.6-1.8-16.1,3.6c0,0,0,0.1-0.1,0.1c-0.8,1.2,1.2,2.4,2,1.2c2.7-4.4,8.4-5.7,12.8-3c0.1,0,0.1,0.1,0.2,0.1
	c0.6,0.3,1.3,0.1,1.6-0.4c0.1-0.2,0.1-0.4,0.1-0.6c-0.8-12,9-23.2,21.3-23c6.6,0.1,12.9,3.3,18.5,6.6s11,7.3,13.3,13.5
	c0.2,0.6,0.8,1,1.5,0.8c0.1,0,0.2-0.1,0.2-0.1l4.1,1c0.3,0.4,0.8,0.7,1.3,0.5c3.7-1.5,8-0.7,11,1.9c0.5,0.4,1.2,0.4,1.7,0
	c0.1-0.1,0.1-0.1,0.2-0.2c9-15.6,40.6,2.1,27.3,17c-0.4,0.5-0.4,1.2,0,1.7c0.1,0.1,0.1,0.1,0.2,0.2c2.5,1.5,4.3,4,5,6.8
	c0.1,0.5,0.6,0.8,1.1,0.8c7.6,0.3,13.6,5.2,16.9,11.8c2.5,5,6.3,15.6,1,19.9c-0.4,0.4-0.4,0.9-0.2,1.4c1.5,2.5,0.8,4.2-2.4,5.2
	c-0.6,0-1.2,0.5-1.1,1.2c0,0.1,0,0.2,0,0.3c3,8.7-7.1,14.9-14,17.3c-7,2.4-14.5,2.6-21.7,0.7c-0.6-0.2-1.3,0.2-1.4,0.8
	c0,0.2,0,0.4,0,0.6c1.1,2,0.3,3.1-2.3,3.4c-2,2.3-3.5,2.1-4.5-0.6c-0.3-0.5-1-0.7-1.6-0.4c-0.2,0.1-0.4,0.4-0.5,0.7
	c-0.9,2.9-4.1,11.3-9,6.6c-0.5-0.4-1.2-0.4-1.6,0.1c-0.3,0.3-0.4,0.7-0.3,1.1c1.5,9.4-3.6,19.4-12.6,22.9s-19.5-0.2-24.9-8.1
	c-0.3-0.6-1.1-0.7-1.6-0.4c-0.2,0.1-0.3,0.2-0.4,0.4c-2.9,3.8-8.3,4.5-12.1,1.6c-0.6-0.5-1.1-1-1.6-1.6c-0.3-0.4-0.8-0.7-1.3-0.5
	c-10.7,4.2-23.9-1.3-31-9.6c-8.2-9.5-9.3-23.3-3.8-34.4c0.3-0.6,0.1-1.3-0.5-1.6c-0.1,0-0.2-0.1-0.2-0.1c-7-2.2-3-10.4-0.8-14.4
	c0.4-0.7-0.1-1.8-1-1.7c-16.4,1.8-15.6-41.3,7.5-37.7c0.6,0.2,1.3-0.2,1.4-0.9c0-0.2,0-0.4,0-0.5c-0.5-3.2-0.9-10.1,4.5-9.2
	C229.8,65.8,230.5,63.6,229,63.3L229,63.3z"/>
<path class="st2" d="M199.1,246.9c0.7-1.7,1.7-6-0.1-7.5c-1.5-1.2-6.9,0.9-8.7,1.4l-20.5,4.8c-3.4,0.8-6.8,1.5-10.3,2
	c-5.1,0.6-8,1.8-13.2,1.6c-1.5,0-5.8,0-7.2,0c-12.1-0.4-24.1-1.6-36-3.5c-3-0.5-6-0.7-9.1-1.1c-1-0.1-3.7-1-4.5-0.7
	s-0.8,1.5-0.9,2.2c-0.4,4.1,1.9,8.2,5.3,11c4.1,3.4,9.6,5.1,15,6.5c11,2.6,22.3,4.1,33.7,4.3c9.3,0.3,18.7-0.1,27.7-2.2
	c9-2.1,17.6-6,23.8-12C196.2,251.8,197.9,249.5,199.1,246.9z"/>
<path class="st1" d="M200,247.1c1.3-3.8,1.8-9.5-3.6-9c-3.1,0.3-6.2,1.6-9.2,2.3l-16.8,3.9c-9.2,2.1-18.3,3.7-27.8,3.8
	c-10-0.1-20-0.8-29.9-2.1c-5-0.6-10-1.4-15.1-2c-1.9-0.2-6.7-2-8.7-1c-4.6,2.5,0.8,11.4,3,13.6c6.1,6.1,15.9,7.9,24,9.4
	c10,1.9,20.1,2.9,30.3,2.9c17.7,0.1,45-2.9,53.6-21.6c0.5-1.1-1.1-2.1-1.7-1c-7,15.3-28.5,19.7-43.5,20.5
	c-16.4,0.9-33.9-0.5-49.6-5.3c-4.2-1.3-8.6-3-11.7-6.2c-2.1-2-3.5-4.7-3.8-7.7c-0.2-2.7,0.8-2.8,3-2.4c7.3,1.3,14.8,2.1,22.1,3
	c13,1.6,27,3.3,40,1.1c8.9-1.5,17.7-3.4,26.5-5.5c3.7-0.9,7.3-1.6,11-2.7c1.3-0.4,4.1-1.8,5.3-1.2c2.4,1.1,1.3,4.8,0.7,6.6
	C197.8,247.8,199.6,248.3,200,247.1z"/>
<path class="st2" d="M87,169c-1.9-0.2-3.7-1.1-5-2.6c-2.7-3.5-3.6-9.4,0.5-11.7c4.5-2.7,9.5-1.6,14-1.6c2.2,0.4,5,0.8,5.9,3.1
	c0.5,2-0.5,3.9,0.9,5.5c1.3,1.2,3.6,1.6,5.4,2c12.1,1.4,24.4,1.3,36.5-0.4c3.2-0.4,7.2-0.4,9.5-3.1c2.7-3.1,3.6-7.4,8.1-9
	c5.8-2,12.1-1.6,17.6,1.2c2.2,1.6,4.5,4.3,2.2,6.6c-2.7,2-6.8,5.1-4.1,8.2c4.1,4.3,9.5,7.8,9.9,13.7c0,5.1-1.3,10.6,3.2,14.9
	c3.6,3.5,7.7,6.3,11.7,9.8c5.9,5.9,9,13.3,7.7,20.7c-5.9,12.1-23,14.5-36.1,17.6c-0.5,0.4-1.1,0.7-1.8,0.8
	c-11.2,2.3-22.5,3.9-33.8,4.7c-6.3,0.4-13.1-0.4-19.4-0.8c-9.9-1-19.7-2.9-29.3-5.5c-2.7-0.8-5.3-1.9-7.7-3.5
	c-6.3-4.7-9.5-11-8.6-18c1.3-8.2,7.7-14.5,12.2-21.9c1.1-2.2,1.9-4.6,2.2-7c0.3-7.9,0.1-15.8-0.7-23.7"/>
<path class="st1" d="M87.3,168.1c-5.1-1-9.6-8.4-4.3-12.5c3.1-2.4,8.3-1.7,12-1.5c2.8,0.2,5.4,0.1,6.6,3.7c0.3,0.9-0.2,2.1,0.2,3
	c0.7,1.9,2,2.5,3.8,3.2c6.2,2.2,14,1.8,20.4,1.7c7.7,0,15.4-0.6,23-1.8c4.2-0.7,6.3-2.6,8.6-6.2s4.3-5.6,8.7-6.4
	c3.9-0.7,19.3-0.3,14.8,7.7c-1.5,2.6-5.2,3.6-4.2,7.3c0.5,1.9,2.8,3.4,4.2,4.7c3.4,3.3,6.4,6.3,6.4,11.3c0,4.7-0.6,9,2.4,12.9
	c4.7,6.2,12.4,9.1,16.7,15.8s5.5,14.7-0.7,20.4c-4.7,4.3-11,6.5-17,8.1c-12.6,3.6-25.4,6.2-38.4,7.8c-15.7,1.7-31.6,0.9-47.1-2.2
	c-8.6-1.6-18.4-3.2-24.2-10.3c-6.3-7.6-4.1-16.4,0.8-24c3.7-5.7,8.7-10.9,9.6-17.9c1-7.8,0-16.1-0.7-23.9c-0.1-1.2-2-1.2-1.9,0
	c0.8,8.8,2.9,20.6-0.9,28.9c-3.2,7-9.3,12.3-11.9,19.7c-2.1,5.8-1.2,12.3,2.5,17.2c4.2,5.8,10.3,8.4,17,10.1
	c17.4,4.5,35.9,6.5,53.8,4.6c15.5-1.5,30.8-4.6,45.6-9.3c5.4-1.8,10.8-4.2,14.8-8.3c4.1-4.3,4.9-9,3.3-14.8
	c-2.1-7.6-7.6-12.5-13.5-17.2c-3.7-3-7.7-5.8-8.6-10.8c-0.6-3.5,0.5-7.1-0.5-10.6c-0.9-2.6-2.4-4.9-4.4-6.8
	c-1.3-1.1-2.6-2.3-3.7-3.6c-4-5.2,0.2-5.8,2.5-8.4c3.1-3.6-0.7-7.5-4.2-8.9c-5.5-2.3-14.1-2.9-19.1,0.9c-2,1.4-3.1,3.6-4.4,5.6
	c-3.2,4.9-8,4.9-13.3,5.5c-10.9,1.2-22.4,1.9-33.3,0c-1-0.1-2-0.3-3-0.6c-3.7-2-2.3-2.7-2.7-5.1c0-0.9-0.4-1.7-0.9-2.4
	c-1.5-1.9-4.5-2.2-6.7-2.4c-5.3-0.4-14.5-1.1-16.6,5.4c-1.7,5.6,2.2,11.3,7.7,12.3C87.9,170.1,88.4,168.3,87.3,168.1L87.3,168.1z"/>
<path class="st3" d="M110,247.2l-0.1,5.4c0,0.5,0,0.9,0.2,1.4c0.4,1,1.7,1.4,2.8,1.7c1.2,0.4,2.5,0.7,3.8,0.8c0.6,0,1.1,0,1.7-0.2
	c1.2-0.6,2.1-1.7,2.5-3c0.5-1.1,0.8-2.3,1-3.5c0.1-0.4,0-0.7-0.2-1c-0.4-0.3-0.8-0.5-1.3-0.5l-9.5-1.2"/>
<path class="st1" d="M109,247.2c-0.1,3.1-1.3,7.4,2.2,8.9c2.6,1.2,6.9,2.3,9.1-0.1c1.3-1.5,3.4-5.9,1.9-7.8c-0.9-1.1-3-1-4.2-1.1
	l-7.4-0.9c-1.2-0.1-1.2,1.8,0,1.9l6.9,0.9c1.5,0.2,3.4-0.1,3,2c-0.2,0.9-0.5,1.8-0.9,2.6c-1.3,2.6-4.8,2.1-7.1,1
	c-2.6-1.2-1.7-4.9-1.6-7.4c-0.2-0.5-0.7-0.8-1.3-0.7C109.3,246.6,109.1,246.8,109,247.2L109,247.2z"/>
<path class="st3" d="M168.4,245.8l1.1,3.3c0.2,0.9,0.7,1.7,1.5,2.2c0.6,0.3,1.3,0.4,2,0.4c1.7,0.2,3.4,0,5-0.5
	c1.4-0.6,2.3-1.7,2.7-3.2c0.2-1.4-0.3-2.8-1.4-3.7c-0.1-0.1-0.2-0.1-0.2-0.2c-0.2-0.1-0.5,0-0.7,0.1c-3.3,1.1-7,1-10.2,2.1"/>
<path class="st1" d="M167.5,246.1c1.1,3.3,1.5,6.3,5.5,6.6c3.1,0.2,7-0.2,8.3-3.5c0.7-1.8,0.2-5.3-2-6c-1.3-0.4-3.3,0.6-4.6,0.9
	c-2.3,0.3-4.6,0.7-6.8,1.4c-1.2,0.4-0.7,2.2,0.5,1.8c2-0.6,4-1,6-1.2c1-0.2,2-0.3,3-0.6c1.5-0.4,2.5-0.1,2.5,1.9
	c0,3.5-4.4,3.6-6.8,3.4c-2.7-0.2-3-3-3.7-5.2C169,244.4,167.2,244.9,167.5,246.1L167.5,246.1z"/>
<path class="st1" d="M109,236.8c-0.8-0.5-1.9-0.2-2.4,0.7c0,0.1-0.1,0.1-0.1,0.2c-0.2,1,0.4,1.9,1.3,2.2c0,0,0.1,0,0.1,0
	c0.9,0.3,1.9-0.2,2.2-1.1c0-0.1,0.1-0.3,0.1-0.4c0-1.2-1.2-1.7-2.3-1.9c-0.6,0-1,0.4-1,1s0.4,1,1,1c0,0,0.4,0.1,0.4,0.1l-0.1-0.1
	c0-0.1,0-0.2,0.1-0.3c0.2-0.4,0.1,0,0-0.1c-0.4-0.3,0,0.6-0.5,0.4C109,239.1,109.9,237.5,109,236.8L109,236.8z"/>
<path class="st1" d="M105,237.4c1.3-0.6,2.4-1.4,4-1.2c1.4,0.1,2.5,0.9,3.1,2.2c0.5,1.1,2.2,0.1,1.7-1c-0.8-1.6-2.3-2.7-4.1-3
	c-2.2-0.4-3.7,0.5-5.6,1.4C102.9,236.3,103.9,237.9,105,237.4L105,237.4z"/>
<path class="st1" d="M185.2,229.1c-1.1,0.3-1.8,1.5-1.5,2.6c0,0,0,0,0,0.1c0.5,1.2,1.9,1.9,3.2,1.5c1.1-0.3,1.7-1.3,1.5-2.4
	c0-0.2-0.1-0.3-0.2-0.5c-0.5-1.1-1.7-1.8-2.9-1.7c-1.2,0-1.2,2,0,1.9c0.4,0,0.7,0.1,1,0.3c0.1,0.1,0.3,0.4,0.2,0.5s-1.5-0.3-0.8-0.5
	c0.5-0.3,0.6-0.9,0.3-1.4C185.9,229.3,185.5,229.2,185.2,229.1L185.2,229.1z"/>
<path class="st1" d="M182.3,231c0.7-1.7,1.5-3.4,3.5-3.7c1.8-0.3,3.5,0.6,5,1.6c1,0.7,2-1,1-1.6c-2.1-1.4-4.7-2.5-7.2-1.6
	c-2.2,0.8-3.3,2.8-4.1,4.9C180.1,231.6,182,232.1,182.3,231L182.3,231z"/>
<path class="st4" d="M96.4,160.8c0-0.7-0.9-1.2-1.6-1.5c-1.1-0.5-2.2-0.9-3.3-1.2c-0.9-0.4-2-0.5-3-0.1c-0.7,0.4-1.2,1.1-1.4,1.9
	c-0.3,0.8-0.1,1.7,0.3,2.5c0.7,0.8,1.6,1.3,2.6,1.4c1.3,0.3,2.6,0.2,3.8-0.3c1.1-0.4,1.9-1.5,1.9-2.8"/>
<path class="st1" d="M97.3,160.6c-0.4-1.1-1.3-1.9-2.4-2.2c-1.5-0.7-3-1.3-4.7-1.5c-2.1-0.3-4,1.2-4.2,3.3c-0.1,0.4,0,0.9,0.1,1.3
	c0.7,5.1,10.5,4.4,10.7-0.8c0-1.2-1.9-1.2-1.9,0c-0.1,3-6.6,3.2-6.9,0.3c-0.1-0.8,0.3-1.5,1-1.8c0.7-0.4,1.5-0.4,2.2-0.1
	c1,0.3,3.9,0.9,4.2,2.1c0.3,0.5,0.9,0.6,1.4,0.3C97.1,161.2,97.2,160.9,97.3,160.6L97.3,160.6z"/>
<path class="st4" d="M163.8,158.6c1.5-0.9,3-1.8,4.6-2.5c1-0.5,2.1-0.8,3.2-0.9c1.5,0,3,0.2,4.4,0.8c0.1,0,0.3,0.1,0.4,0.2
	c0.1,0.1,0.1,0.3,0.1,0.5c-0.3,1-0.9,2-1.7,2.7c-0.8,1-1.8,1.9-2.8,2.7c-1.2,0.8-2.6,1.1-4,0.8c-1-0.3-2-0.8-2.7-1.6
	c-0.8-0.8-1.7-1.8-1.3-2.8"/>
<path class="st1" d="M164.3,159.4c1.4-0.9,2.9-1.7,4.5-2.4c0.7-0.4,1.5-0.6,2.3-0.8c0.6-0.1,3.3-0.2,3.9,0.4c0.8,1-1.7,3.1-2.4,3.8
	c-1,1-2.3,1.6-3.8,1.6c-1.6-0.1-4.1-1.7-3.9-3.5c0.1-1.2-1.8-1.2-1.9,0c-0.2,2.9,3.2,5.4,5.8,5.4c3.3,0.1,5.9-2.6,7.7-5.1
	c2.1-3,0.3-4-2.7-4.5c-3.7-0.6-7.3,1.5-10.3,3.4C162.3,158.3,163.3,160,164.3,159.4L164.3,159.4z"/>
<path class="st1" d="M275.4,93.7c1.8,4.2,1.6,10.6,1.4,15.1c-0.3,5.6-4.4,9.6-6.6,14.5c-1.4,3.1-4.9,9.3,0,10.7
	c4,1.1,9.1,0.7,13.1,0.6c4.4-0.1,8.8-0.5,13.1-1.2c5.6-0.9,6.4-3.9,2.8-8.5c-1.9-2.4-4.5-4.3-6.8-6.3c-4.3-3.8-5.9-7.5-5.9-13.4
	c0-2.6,0-5.2,0.1-7.8c-0.2-2.4,0.5-4.7,1.8-6.6c0.9-1.4,1.8-2.2,0.7-4s-2.9-1.8-4.6-1.9c-2.7-0.2-7.2-0.8-9.7,0.8
	c-3.7,2.2-2.4,6.8,1.1,8.2c1.4,0.6,2-1.7,0.6-2.2c-1.1-3.1-0.6-4.6,1.6-4.4c1-0.1,2-0.1,2.9-0.1c1.2-0.1,2.3-0.1,3.5,0.1
	c4.6,1.7,0.9,2.5,0.1,4.5s-0.3,4.8-0.3,6.7c0,3.5-0.3,7,0,10.5c0.3,3.6,1.9,7.1,4.6,9.6c2.4,2.4,10.9,7.4,9.3,11.1
	s-15.4,2.8-19.4,2.7c-1.5,0.1-3.1,0-4.6-0.2c-1.1,0.3-2.3-0.1-3-1c-1.3-0.4-1.6-1.2-0.7-2.4c0-2.6,2.5-6.2,3.9-8.4
	c2.8-4.7,4.7-7.6,4.7-13.2c0-4.8,0.3-10-1.7-14.5c-0.6-1.4-2.6-0.2-2,1.2L275.4,93.7z"/>
<path class="st1" d="M279,119.8c-1.9,1-4.2,2.7-4.5,5s1.5,3.4,3.6,3.4c0.6,0,1.2-0.5,1.2-1.2c0-0.6-0.5-1.1-1.2-1.1
	c-0.5,0-1.1,0.1-1.3-0.4s0.4-1.2,0.7-1.5c0.8-0.9,1.7-1.6,2.8-2.1C281.4,121.2,280.3,119.2,279,119.8L279,119.8z"/>
<path class="st1" d="M286.1,128.9c1.4,0.1,2.8,0,4.3-0.1c1.5-0.1,1.5-2.4,0-2.3c-1.4,0.1-2.8,0.2-4.3,0.1
	C284.7,126.6,284.7,128.9,286.1,128.9z"/>
<path class="st1" d="M281,73.6c-1.4,1.3-1.7,3.3-0.8,4.9c1,1.6,2.9,2.3,4.6,1.6c1.9-0.8,3-2.8,2.7-4.8c-0.5-2.4-3.1-2.8-5.2-2.7
	c-1.5,0.1-1.5,2.4,0,2.3c0.8-0.1,2.5-0.3,2.9,0.6c0.3,1-0.3,2-1.2,2.4c-0.8,0.3-1.7-0.2-1.9-1c-0.2-0.6,0-1.3,0.6-1.7
	C283.7,74.2,282,72.6,281,73.6L281,73.6z"/>
<path class="st1" d="M264.8,79.6c0.3,0.4,0.8,0.7,1.3,0.8c0.6,0.1,1.2-0.2,1.4-0.8c0.2-0.6-0.2-1.2-0.8-1.4c-0.2,0-0.2,0-0.3-0.2
	c-0.5-0.4-1.2-0.4-1.6,0C264.3,78.5,264.3,79.2,264.8,79.6L264.8,79.6z"/>
<path class="st1" d="M267.3,75.7L267.3,75.7c-0.1,0.6,0.2,1.2,0.8,1.4c0.6,0.2,1.2-0.2,1.4-0.8c0.1-0.6,0-1.2-0.3-1.7
	c-0.3-0.6-1-0.7-1.6-0.4C267.1,74.4,266.9,75.1,267.3,75.7L267.3,75.7L267.3,75.7z"/>
<path class="st1" d="M272.8,78.1l1.7-1c0.6-0.3,0.7-1,0.4-1.6c-0.3-0.6-1-0.7-1.6-0.4l0,0l-1.7,1c-0.6,0.3-0.7,1-0.4,1.6
	C271.5,78.2,272.2,78.4,272.8,78.1z"/>
<path class="st1" d="M272.4,81.5c0.7,0.7,1.5,1.3,2.3,1.9c1.3,0.8,2.4-1.2,1.2-2c-0.7-0.4-1.3-0.9-1.8-1.5
	C273,78.8,271.4,80.4,272.4,81.5L272.4,81.5z"/>
<path class="st1" d="M268.1,82.6l-0.7,1c-0.8,1.3,1.2,2.4,2,1.2l0.7-1C270.9,82.6,268.9,81.4,268.1,82.6z"/>
<path class="st1" d="M310,121.3c6.2-3.8,12.6-7.3,19.1-10.5c3.3-1.6,6.6-3.1,9.9-4.6c0.7-0.3,5.2-2.7,6.4-2.6c2.6,0.1,3.1,2.7,4,4.5
	c0.6,1.2,2.7,4.2,2.3,5.3c-0.3,0.9-4.6,2.2-5.4,2.6l-10.7,5.2l-21.5,10.4l1.7,0.7c-1.6-3.9-3-7.7-4.3-11.7c-0.5-1.4-2.7-0.8-2.2,0.6
	c1.3,4,2.7,7.9,4.3,11.7c0.2,0.6,0.9,1,1.5,0.8c0.1,0,0.1-0.1,0.2-0.1l29.5-14.3c2.5-1.2,6-2.2,8-3.9c0.5-0.4,1-0.6,1.3-1.3
	c0.8-2.2-2.3-6.3-3.2-8.1s-1.5-5.1-3.8-5.4c-1.4-0.2-3.6,1.2-4.8,1.8c-2.1,0.8-4.1,1.7-6.1,2.6c-9.4,4.2-18.6,9-27.3,14.4
	C307.6,120.1,308.7,122.1,310,121.3L310,121.3z"/>
<path class="st1" d="M317.6,127.2l1.2,2.2c0.7,1.3,2.7,0.1,2-1.2l-1.2-2.2C318.9,124.7,316.9,125.9,317.6,127.2z"/>
<path class="st1" d="M322,119.7c1.3,2.3,2.7,4.5,4.2,6.7c0.8,1.2,2.8,0.1,2-1.2c-1.4-2.2-2.8-4.4-4.2-6.7c-0.3-0.6-1-0.7-1.6-0.4
	C321.8,118.4,321.6,119.1,322,119.7z"/>
<path class="st1" d="M331,119.9c1,0.9,1.9,1.9,2.7,3c0.5,0.4,1.2,0.4,1.6,0c0.4-0.5,0.4-1.2,0-1.6c-0.8-1.1-1.8-2.1-2.7-3
	C331.6,117.3,330,118.9,331,119.9z"/>
<path class="st1" d="M338.2,111.8c1.3,2.3,2.7,4.5,4.1,6.7c0.8,1.2,2.8,0.1,2-1.2c-1.4-2.2-2.8-4.4-4.1-6.7c-0.3-0.6-1-0.7-1.6-0.4
	C338.1,110.5,337.9,111.2,338.2,111.8z"/>
<path class="st1" d="M346.5,113.6l1.6,2.4c0.3,0.5,1,0.7,1.6,0.4c0.5-0.3,0.7-1,0.4-1.6l-1.6-2.4c-0.3-0.5-1-0.7-1.6-0.4
	C346.4,112.3,346.2,113,346.5,113.6L346.5,113.6z"/>
<path class="st1" d="M220.4,101.1l12.4-1.4l-1-1.7l-9,13.3c-0.8,1.1,0.9,2.3,1.8,1.4c2.9-2.8,8.2-2.2,9,1.8s-3.3,4.9-6.4,4.2
	c-0.6-0.2-1.2,0.2-1.4,0.8s0.2,1.2,0.8,1.4c5.1,1.3,11.1-0.5,9.3-7c-2-7.1-8.2-7.4-13-2.9l1.8,1.4l9-13.3c0.3-0.6,0.1-1.3-0.4-1.6
	c-0.2-0.1-0.4-0.1-0.6-0.1l-12.4,1.4C218.9,98.9,218.9,101.2,220.4,101.1L220.4,101.1z"/>
<path class="st1" d="M242.5,133.4c-0.4-1,0-2.2,0.9-2.8c1.7-3,3.4-1.6,5.2,4.1c-0.6,1.4-3.3,3.3-4.4,4.1c-2.6,1.9-5.4,3.4-8.4,4.5
	c-1.4,0.5-0.8,2.8,0.6,2.2c2.2-0.9,5.2,2.5,7.2,3.3c1.3,0.5,2.7,0.8,4.1,0.7c3.1-0.3,5.8-2.1,7.2-4.9c0.3-0.6,0.1-1.3-0.4-1.6
	c-0.6-0.3-1.3-0.1-1.6,0.4l0,0c-1.5,2.7-4.2,4.3-7.4,3.6c-2-0.4-3-1.7-4.5-2.8c-1.8-1.2-3.2-1.8-5.3-1l0.6,2.2
	c5-2,18.2-7.9,14.7-15.4c-2.9-6.2-11.5-3.1-10.9,3.3C240.3,134.9,242.6,134.9,242.5,133.4L242.5,133.4z"/>
<path class="st1" d="M254.2,108.6c4.2-0.6,8.5-1.1,12.8-1.6c1.5-0.2,1.5-2.5,0-2.3c-4.5,0.5-8.9,1.1-13.4,1.7
	C252.1,106.6,252.7,108.8,254.2,108.6L254.2,108.6z"/>
<path class="st1" d="M259.8,101.3c-0.4,4.5-0.5,9.1-0.3,13.6c0.1,1.5,2.4,1.5,2.3,0c-0.2-4.5-0.1-9.1,0.3-13.6
	C262.2,99.8,259.9,99.8,259.8,101.3z"/>
<path class="st1" d="M299.2,101.3c4-1.4,8-2.7,12.1-3.8c0.6-0.2,1-0.8,0.8-1.4s-0.8-1-1.4-0.8c-4.1,1.1-8.1,2.4-12.1,3.8
	C297.2,99.5,297.8,101.8,299.2,101.3z"/>
<path class="st1" d="M234.2,74.5c3.9,3.1,7.7,6.4,11.4,9.7c1.1,1,2.7-0.6,1.6-1.6c-3.7-3.3-7.5-6.6-11.4-9.7
	C234.7,71.9,233,73.6,234.2,74.5z"/>
<path class="st1" d="M237.7,83.5c2.5-3.3,4.9-6.7,7.2-10.2c0.8-1.2-1.2-2.4-2-1.2c-2.2,3.5-4.6,6.9-7.2,10.2
	C234.8,83.5,236.8,84.6,237.7,83.5z"/>
<path class="st1" d="M273.7,146.3c0.6,0,1.2-0.5,1.2-1.1c0-0.6-0.5-1.2-1.2-1.2s-1.2,0.5-1.2,1.2
	C272.6,145.7,273.1,146.3,273.7,146.3L273.7,146.3z"/>
<path class="st1" d="M271.5,151.9c3-1.1,6.1-2.1,9.2-3c0.6-0.2,1-0.8,0.8-1.4s-0.8-1-1.4-0.8c-3.1,0.9-6.2,1.9-9.2,3
	C269.5,150.2,270.1,152.5,271.5,151.9z"/>
<path class="st5" d="M121.9,163.6c-0.9-3.4-2.9-6.5-4.9-9.4c-1.5-2.6-3.5-5-5.7-7c-4.8-3.9-11.3-4.5-17.5-4.5
	c-6.4,0-13.2,0.6-18.5,4.2c-1.5,0.9-2.7,2.2-3.6,3.7c-2.2,3.6-1.4,8.3-0.3,12.3c1.5,5.2,3.7,10.2,6.6,14.8c0.6,1.3,1.7,2.4,3,3
	l24.6-7.5L121.9,163.6z"/>
<path class="st1" d="M122.8,163.4c-1.9-6-6-12.9-10.9-16.9s-11.3-4.6-17.3-4.7c-10.8-0.1-26.7,2.6-25.1,16.7
	c0.8,6.6,4.1,16.1,8.5,21.1c2.2,2.5,3.2,2.1,5.9,1.3c7.1-2.2,14.8-3.8,21.6-6.6c5.9-2.4,11.4-6.6,16.8-9.8c0.4-0.4,0.4-1,0-1.4
	c-0.3-0.2-0.6-0.3-1-0.2c-5.3,3.1-10.6,7.1-16.2,9.6c-5.4,2.4-13.2,4-19.3,5.9c-1.3,0.6-2.6,1-4,1.2c-0.3,0-0.8,0.4-1.1,0.3
	c-1.1-0.2-3.2-4.5-3.8-5.7c-4.3-8.1-10.1-21.3,0.1-27.3c7-4.1,17.9-4.2,25.7-2.5c9,2,15.4,11,18.2,19.5
	C121.3,165.1,123.2,164.6,122.8,163.4z"/>
<path class="st1" d="M81,180.9l-0.7,0.4c-0.4,0.4-0.4,1-0.1,1.4c0.2,0.2,0.5,0.3,0.8,0.3c15.1-3.6,29.3-10.3,41.5-19.9
	c1-0.8-0.4-2.1-1.3-1.4c-12,9.3-25.9,15.9-40.7,19.4l0.7,1.7l0.7-0.4C82.9,181.9,82,180.3,81,180.9L81,180.9z"/>
<path class="st5" d="M80.2,182.3c-5.3,3.9-9.4,9.4-11.6,15.6c4.5,0,8.8-1.5,13-3.2c12-4.9,23.2-11.4,34.4-17.8
	c4.2-2.4,8.4-4.9,12.4-7.7c3-2.1,6.1-4.9,6.5-8.6c-4.8-0.1-9.5,1.6-13.7,3.9s-8.1,5.1-12.3,7.4c-8.6,4.7-18.2,7.3-27.7,9.8"/>
<path class="st1" d="M79.7,181.5c-5.5,4.2-9.6,9.8-12,16.2c-0.1,0.5,0.2,1.1,0.8,1.2c0.1,0,0.1,0,0.2,0c13.4-0.5,26.9-9.3,38.3-15.7
	c6.4-3.6,12.9-7.1,19-11.1c4.3-2.8,8.9-5.9,10-11.2c0.1-0.5-0.2-1.1-0.8-1.2c-0.1,0-0.1,0-0.2,0c-9.7,0.2-16.9,5.8-24.9,10.5
	c-9,5.2-19,7.9-29,10.6c-0.5,0.3-0.6,0.9-0.3,1.4c0.2,0.3,0.5,0.4,0.8,0.5c8.4-2.2,17-4.5,24.8-8.3c9.5-4.6,17.6-12.5,28.6-12.7
	l-0.9-1.2c-1.3,6.4-8.6,9.9-13.8,12.9s-10.6,6.2-16,9.2c-10.6,5.9-23.2,14-35.7,14.5l0.9,1.2c2.2-6,6.1-11.2,11.2-15.1
	C81.7,182.4,80.7,180.7,79.7,181.5L79.7,181.5z"/>
<path class="st1" d="M111.4,191.5c4.7-0.7,8.8-0.6,13.2,1.3c1.5,0.7,3.3,2,5,1.4c2.2-0.8,2.2-3.3,0-4c-0.8-0.3-1.1,1-0.3,1.2
	c-1.4,1.2-2.8,1.3-4.1,0.3c-0.5-0.2-1-0.4-1.4-0.6c-1.3-0.6-2.7-1-4.1-1.2c-2.9-0.3-5.8-0.2-8.6,0.4
	C110.3,190.4,110.6,191.6,111.4,191.5L111.4,191.5z"/>
<path class="st1" d="M125.7,196.7c-0.4,0.6-0.3,1.4,0.3,1.9c0.6,0.4,1.4,0.2,1.8-0.4c0.3-0.6,0.2-1.3-0.4-1.7
	c-0.6-0.3-1.3-0.2-1.6,0.4c0,0.1-0.1,0.1-0.1,0.2c-0.2,0.6,0.1,1.2,0.7,1.4c0.1,0,0.2,0.1,0.3,0.1c0.7-0.1,1.2-0.8,1.1-1.5
	c0-0.7-0.6-1.2-1.3-1.1c-0.1,0-0.1,0-0.2,0c-0.6,0.2-0.9,0.8-0.7,1.4c0,0.1,0.1,0.2,0.1,0.2c0.4,0.7,1.5,0,1.1-0.6
	c0.2,0.2-0.3,0.1-0.3,0.4c0.3,0,0.4,0,0.3,0.3c-0.1-0.1-0.1-0.1-0.1,0c0.1,0.1,0,0,0-0.2C127.1,196.7,126,196.1,125.7,196.7
	L125.7,196.7z"/>
<path class="st1" d="M135.2,189.9c0.2,2.5,2.5,2.3,4.4,1.5c1.7-0.7,3.4-1.6,4.9-2.5c3-1.8,5.2-2.5,8.6-1.1c0.8,0.3,1.1-0.9,0.3-1.2
	c-2.2-0.9-4.1-1.4-6.3-0.6c-1.1,0.4-10.5,6.2-10.7,3.9C136.4,189.1,135.1,189.1,135.2,189.9L135.2,189.9z"/>
<path class="st1" d="M138.7,194.4c-0.2,0.8-0.2,1.8,0.6,2.2c0.6,0.3,1.3,0,1.6-0.6c0.1-0.1,0.1-0.3,0.1-0.4c0.2-0.7-0.2-1.4-0.9-1.7
	c0,0-0.1,0-0.1,0c-0.7,0-1.3,0.5-1.3,1.2c0,0.1,0,0.2,0,0.3c0.2,0.7,1,1.2,1.7,1c0.8-0.3,0.7-1.6,0.3-2.2c-0.3-0.6-1.1-0.8-1.7-0.4
	c-0.1,0.1-0.2,0.2-0.3,0.3c-0.4,0.6-0.2,1.5,0.4,1.9c0.1,0,0.1,0.1,0.2,0.1c0.7,0.4,1.3-0.7,0.6-1.1c-0.1-0.1-0.2-0.3-0.3,0
	s0.1,0.4,0,0.6l0.4-0.3c0,0-0.1-0.1-0.1-0.1c-0.2-0.1-0.1,0-0.2,0.2c0,0.1,0,0.1-0.1,0.2c0.1,0,0.1,0,0.1-0.1c0-0.2,0-0.5,0.1-0.7
	c0.1-0.3-0.2-0.7-0.5-0.8C139.1,194,138.8,194.2,138.7,194.4L138.7,194.4z"/>
<path class="st6" d="M97,276c11.1,2.1,22.3,3.5,33.6,4.4c5.6,0.6,11.2,0.6,16.7,0c4.1-0.6,8.1-1.5,12.1-2.7l22.8-6.1
	c0.6-0.2,1.2-0.2,1.7,0c0.5,0.3,0.9,0.9,0.9,1.6c3.3,16,4.7,32.3,4.3,48.6c0.1,1.1-0.2,2.3-0.8,3.2c-0.6,0.7-1.4,1.2-2.2,1.5
	c-10.7,5-23.2,5.5-35.2,5.6c-17,0.1-34.3-0.4-50.4-5.2c-1-0.2-1.9-0.7-2.6-1.3c-0.8-1-1.1-2.1-1.1-3.4c-1.1-15.5-1.4-31.1-0.9-46.6"
	/>
<path class="st1" d="M96.7,277.3c8.2,1.5,16.3,2.7,24.6,3.6c8.6,0.9,17.5,2,26.1,0.9c8.1-1,16-3.6,23.8-5.8
	c2.2-0.6,10.5-4.1,12.4-2.5c0.8,0.7,0.9,4.7,1.1,5.8c0.5,2.6,0.9,5.1,1.2,7.7c1.3,9.6,2,19.2,2,28.8c0,2.9,0.4,5.2-1.2,7.6
	s-4.3,3.2-7.1,4.1c-4.2,1.3-8.6,2.1-13,2.5c-17.6,1.8-35.4,1.3-52.8-1.6c-4.8-0.8-13.3-1.3-15.5-6.3c-0.9-2-0.4-5.6-0.5-7.8
	c-0.1-2.6-0.3-5.2-0.3-7.8c-0.4-10.4-0.4-20.7,0-31.1c0-1.7-2.7-1.7-2.7,0c-0.3,11-0.3,22,0.1,33c0.2,4.7-0.2,10.2,0.9,14.8
	c0.7,2.8,1.9,3.8,4.6,4.8c9.3,3.4,20.1,4.3,29.9,4.9c10.4,0.6,20.8,0.7,31.2,0.1c8.5-0.5,17.9-1.5,25.5-5.5c2-0.8,3.4-2.7,3.6-4.8
	c0.9-5.3,0.2-11.4-0.1-16.7c-0.5-10.2-1.7-20.4-3.6-30.4c-0.5-2.5-0.5-5-3.3-5.5c-1-0.2-2.7,0.5-3.5,0.7c-2.9,0.7-5.7,1.5-8.5,2.3
	c-12,3.2-23.5,6.8-36.2,6.2c-12.7-0.8-25.4-2.3-37.9-4.7C95.8,274.3,95.1,276.9,96.7,277.3L96.7,277.3z"/>
<path class="st1" d="M132.9,281.5c5.3,11.5,10.2,23.2,14.7,35.1c0.2,0.7,0.9,1.1,1.6,0.9c0.3-0.1,0.6-0.3,0.7-0.6
	c7.1-11.8,10-25.5,16.3-37.7c0.4-0.8-0.1-2-1.1-1.9c-1.2,0.1-2.4,0.4-3.5,0.9c-3.3,1.3-6.9,2.1-10.5,2.2c-5.6,0.3-11.2,0.3-16.8-0.1
	c-1.7-0.1-1.6,2.5,0,2.6c5.6,0.4,11.2,0.4,16.8,0.1c2-0.1,3.9-0.3,5.9-0.6c2.7-0.5,5.5-2.3,8.1-2.5L164,278
	c-6.3,12.2-9.2,25.9-16.3,37.7l2.3,0.3c-4.5-12.1-9.5-24-14.9-35.7C134.4,278.8,132.2,280.1,132.9,281.5L132.9,281.5z"/>
<path class="st7" d="M134,281.6l-10.4,6.5c-1.6,1-3.3,2.1-4.1,3.9l15.2,3c0.4,0,0.8,0.3,0.8,0.7c0,0.2,0,0.4-0.2,0.6
	c-1.6,4-3.5,7.9-4.5,12.1c-0.2,0.6-0.2,1.2,0.1,1.7c0.3,0.3,0.7,0.5,1.1,0.6c5.5,1.6,10.8,3.4,16.2,5.5"/>
<path class="st1" d="M133.4,280.5c-4.9,3-11.9,5.8-15,10.9c-0.4,0.6-0.1,1.4,0.5,1.8c0.1,0.1,0.2,0.1,0.3,0.1l7.6,1.5
	c3,0.6,6.9-0.1,6.1,4.3c-0.6,3.2-3.9,6.7-3.4,10.2c0.4,2.3,2.1,2.5,4.1,3.2c4.8,1.5,9.6,3.1,14.3,5c1.5,0.6,2.2-1.9,0.7-2.5
	c-2.4-0.9-4.7-1.8-7.1-2.6c-2.7-0.9-6.7-1.4-8.1-3.9c-2.2-4,3-8.7,3.3-13c0-0.5-0.2-0.9-0.6-1.1c-4.6-2.3-11.2-2.5-16.3-3.4l0.8,1.9
	c2.7-4.5,9.7-7.2,14-9.9c1.4-0.9,0.1-3.1-1.3-2.2L133.4,280.5z"/>
<path class="st7" d="M148.4,315.7l13.1-2c3.3-0.3,6.6-1.2,9.6-2.5l-7-11.8c-0.3-0.4-0.5-1-0.6-1.5c0-1,1.1-1.7,2-2.2
	c4.6-2.2,9.8-3.7,13.8-6.8c0.1-0.1,0.2-0.2,0.3-0.4c0.1-0.3-0.2-0.7-0.5-0.9c-4.4-3.1-9-5.9-13.7-8.5l-8.6,19.1l-4.3,11.1
	L148.4,315.7z"/>
<path class="st1" d="M148.7,316.9c7.6-1.2,15.9-1.6,23-4.6c0.6-0.4,0.8-1.1,0.5-1.8l-4.5-7.6c-0.8-1.4-2.7-4.5-1.5-6.2
	c0.6-0.8,3.1-1.4,4-1.7c3-1.2,8.5-2.6,10.3-5.5c0.8-1.3,0.4-1.9-0.5-3c-1.4-1.7-4.3-2.9-6.1-4.1c-2.5-1.6-5.1-3.1-7.7-4.5
	c-0.6-0.4-1.4-0.2-1.8,0.5c-2.9,6.3-5.9,12.6-8.6,19c-1.3,3.1-2.4,6.3-3.6,9.4c-1.1,2.9-3.1,5.4-4.9,8.1c-0.9,1.4,1.3,2.7,2.2,1.3
	c1.8-2.4,3.3-4.9,4.7-7.5c1.4-3.1,2.8-7.4,3.9-10c2.7-6.4,5.7-12.7,8.6-19l-1.8,0.5c2.3,1.3,4.7,2.6,7,4c1,0.7,5.3,2.6,5.5,3.9
	c0.2,2.2-9.5,5-11.7,6c-1.7,0.9-3.4,1.8-3.3,4c0.1,1.7,1.9,3.8,2.7,5.2l5,8.4l0.5-1.8c-6.8,3-15.1,3.3-22.4,4.4
	C146.4,314.7,147.1,317.2,148.7,316.9z"/>
<path class="st8" d="M153.9,281.9c-0.4,1.5-1,3-2,4.3c-0.6,0.9-1.6,1.8-2.7,1.5c-0.5-0.2-0.9-0.5-1.2-0.9c-1.1-1.1-2-2.3-2.8-3.6
	l0.7-1.1l6.9-0.4L153.9,281.9z"/>
<path class="st1" d="M152.6,281.5c-0.3,1.2-1.4,4.7-2.9,4.7c-1.2,0-2.8-2.8-3.5-3.8v1.3l0.7-1.1l-1.1,0.6l4.2-0.2
	c0.8,0,1.5-0.1,2.3-0.1c0.1,0,0.6,0,0.4,0c0.3,0.1,0.6,0.2,0.8,0.2c0.7,0.2,1.4-0.2,1.6-0.9c0.2-0.7-0.2-1.4-0.9-1.6
	c-1.8-0.3-3.7-0.4-5.5-0.1c-0.9,0-1.8,0-2.7,0.2c-1.1,0.2-1.4,0.9-1.9,1.8c-0.2,0.4-0.2,0.9,0,1.3c1.2,1.9,3.3,5.5,6,5.2
	c2.9-0.4,4.4-4.3,5-6.7c0.1-0.7-0.4-1.3-1.2-1.4C153.4,280.8,152.9,281.1,152.6,281.5z"/>
<path class="st8" d="M151.4,287l3.8,10c0.5,0.9,0.5,2.1,0,3l-3.8,9.8c-0.4,1.2-1,2.3-1.9,3.2c-1.6-4.1-3.4-8.1-5.5-12
	c1.3-4.3,3.3-9,4.3-13.4l1.5-0.7L151.4,287z"/>
<path class="st1" d="M150.2,287.2c1.3,3.3,4.5,8.7,3.8,12.3c-0.6,3.5-3.1,9.8-5.4,12.4l2,0.5c-0.8-2.1-1.6-4.1-2.6-6.2
	c-0.7-1.6-2.5-4-2.8-5.7c-0.2-2,2-5.7,2.7-7.8c0.8-2.4,0.5-4.9,3.3-4.6c1.6,0.2,1.5-2.3,0-2.5c-1.2-0.1-2.8-0.2-3.7,0.8
	c-1,1-1,2.8-1.4,4c-0.8,2.5-1.8,5-2.6,7.6s-0.9,2.9,0.2,5.1c1.7,3.3,3.2,6.6,4.5,10.1c0.2,0.7,0.9,1,1.6,0.8
	c0.2-0.1,0.3-0.1,0.4-0.2c3-3.2,4.3-8.6,5.7-12.6c1.6-4.8-1.8-10-3.5-14.5C152,285.1,149.7,285.8,150.2,287.2z"/>
<path class="st6" d="M64.5,289l7.3,4.1c3.7,2.1,7.5,4.1,11.3,5.7c1.2,0.6,2.6,0.9,3.9,1c3,0.1,5.9-1.8,8.5-3.7l-0.1-20.2
	c-3.8,1.2-7,4.7-10.9,5.2c-2.4,0.3-4.7-0.7-7-1.7l-9.2-3.8L64.5,289z"/>
<path class="st1" d="M64,290c6.6,3.7,14,9.3,21.6,10.8c3.3,0.6,10.1-1.2,11.3-4.7c1-2.8,0-7.6,0-10.5v-9.6c0-0.6-0.5-1.1-1.1-1.1
	c-0.1,0-0.2,0-0.3,0c-4,1.5-7.2,4.9-11.6,4.8c-5.1-0.1-10.2-3.2-14.9-5.1c-0.6-0.2-1.2,0.2-1.4,0.8l-4,13.5
	c-0.2,0.6,0.2,1.2,0.8,1.4c0.6,0.2,1.2-0.2,1.4-0.8l4-13.5l-1.4,0.8c4.8,2,10.4,5.5,15.6,5.5c4.6,0,8-3.6,12-5.2l-1.4-1.1l0.1,17.2
	c0,0.6,0.3,2.2,0,2.8c-1.2,2.2-7.5,3-9.8,2.4c-6.9-2.1-13.5-6.7-19.7-10.2C63.9,287.3,62.7,289.2,64,290z"/>
<path class="st6" d="M70,271.7c-3.2,7.3-6,14.8-8.4,22.4c-3.8-4.7-8.8-8.4-14.5-10.6c-0.2-0.1-0.4-0.2-0.5-0.4
	c-0.1-0.2,0-0.4,0.1-0.6c1-2.9,2.1-5.8,3.2-8.7c0.5-1.5,1.2-2.9,2.1-4.2c1.1-1.3,2.4-2.5,3.9-3.4c0.6-0.4,1.2-0.8,1.9-0.9
	c0.8-0.1,1.6,0.1,2.3,0.4c3,1.1,5.9,2.4,8.8,3.7c0.9,0.4,1.9,1.1,1.8,2"/>
<path class="st1" d="M68.8,271c-3.2,7.4-6,15-8.5,22.7l2.3-0.6c-2-2.4-4.3-4.6-6.8-6.4c-1.6-1.1-3.2-2.1-4.9-3l-1.5-0.7
	c-1.8-0.2-2-0.8-0.8-1.9c0.3-3.6,3-9.4,5.5-11.8c2.5-2.4,4.4-2.3,7.4-1.6c1.6,0.4,7.4,2,7.9,4.1c0.4,1.7,3,1,2.6-0.7
	c-0.8-3.8-8.9-6.1-12.1-6.8c-4.1-1-8,2.7-9.9,6c-1.5,2.6-2.3,5.6-3.3,8.4c-0.5,1.3-1.9,3.7-1.2,5.2c0.7,1.5,4,2.2,5.5,3
	c3.7,2.2,7,5,9.8,8.3c0.5,0.5,1.4,0.5,1.9,0c0.2-0.2,0.3-0.3,0.3-0.6c2.4-7.5,5.2-14.9,8.2-22.1C71.8,270.8,69.5,269.3,68.8,271
	L68.8,271z"/>
<path class="st9" d="M53.8,267c-2.8,3.5-5.2,7.4-7.1,11.5c-0.3,0.9-0.9,1.7-1.6,2.2c-1,0.6-2.2,0.3-3.4,0.4c-1.7,0.1-3.2,1-4.8,1.3
	c-1.9,0.2-3.8-0.2-5.6-1c-2.9-1.1-5.9-2.7-7.3-5.5c-1.2-2.6-0.9-5.6-0.4-8.4c0.1-1.4,0.5-2.8,1.2-4c0.7-1.3,2.1-2,3.6-1.7l1,3.4
	l3.4,0.1l2.6-1l5.2,2.6l-4-2.7c-0.2-0.1-0.3-0.2-0.5-0.2c-0.2,0-0.4,0.1-0.5,0.2c-2,1.4-4.7,1.5-6.8,0.4c-0.2-1.7,0.2-3.5,1.2-4.9
	c1-1.4,2.2-2.7,3.6-3.7c1.1-1,2.3-1.7,3.7-2.1c2.5-0.6,5,0.8,7,2.4c3.8,3,6.7,6.9,9.5,10.8"/>
<path class="st1" d="M52.9,266c-2.5,3.2-4.3,6.8-6.5,10.2s-7.5,5.3-11.8,4.7c-5.3-0.8-10-4.6-9.9-10.2c0-0.9,1.1-10.6,2.9-8
	c0.3,0.8,0.6,1.6,0.7,2.5c0.2,0.5,0.7,0.9,1.2,0.9c1.8,0.1,3.6-0.1,5.4-0.6c0.5-0.1,0.8-0.3,0.1-0.4c0.6,0.2,1.1,0.5,1.6,0.8
	c1.1,0.6,2.3,1.2,3.5,1.7c0.6,0.4,1.4,0.2,1.8-0.5c0.4-0.6,0.2-1.4-0.5-1.8c-1.6-1.1-3.3-2.7-5.2-3.1c-0.3-0.1-0.6,0.3-0.9,0.3
	c-1.5,0.7-3.1,1-4.8,0.9c-0.1-2,0.6-3.9,2.1-5.2c7.5-8.9,15.8,3.2,20.1,9c1,1.3,3.2,0,2.2-1.3c-3.7-5-9-13.4-16-13.9
	c-6-0.4-11.5,6.6-11.5,12.1c0,0.6,0.4,1.1,0.9,1.2c1.8,0.8,3.7,0.9,5.6,0.4c0.2,0,2.7-0.9,2.3-1c0.9,0.1,3,2.2,3.8,2.7l1.3-2.2
	c-2.2-1.1-4.4-2.9-6.8-2.5c-1.4,0.2-2.8,0.4-4.2,0.6c-1.4,0.2,0.4,1.2,0.1,0c-0.2-0.8-0.5-1.7-0.7-2.5c-0.2-0.6-0.7-0.9-1.2-0.9
	c-4.9,0.1-5.9,4.6-6.3,8.8c-0.6,5.9,1.4,9.9,6.7,12.5c2.1,1.1,4.3,1.8,6.7,2.1c1.7,0.1,1.7-0.2,3.4-0.5c1.8-0.2,3.6-0.5,5.3-0.9
	c2-0.7,2.5-1.3,3.6-3.2c2.3-3.8,4.1-7.6,6.9-11.2C55.7,266.4,53.9,264.6,52.9,266L52.9,266z"/>
<path class="st10" d="M185.7,273c0.1,5.5,1,11,2.7,16.2c0.1,0.3,0.2,0.6,0.4,0.9c0.5,0.4,1.1,0.6,1.7,0.6c4.6,0.3,9.2,0.4,13.8,0.4
	c2.9,0.1,5.8-0.3,8.6-1.4c1.4-0.6,2.6-1.4,3.8-2.4c5.2-4.2,9-9.9,10.8-16.4c0.2-0.5,0.2-1.2,0-1.7c-0.2-0.3-0.5-0.5-0.8-0.7
	l-10.2-5.8c-0.8,1.4-1.7,2.7-2.7,4c-1.2,1.6-2.7,2.9-4.4,3.9c-2.4,1.3-5.3,1.4-8,1.5l-14.9,0.5L185.7,273z"/>
<path class="st1" d="M184.4,273c0.1,4.4,0.7,8.7,1.7,13c0.5,2.2,0.8,4.8,3.1,5.8c3.5,1.4,9.4,0.6,13.1,0.6c4,0,8.2,0,11.9-1.9
	c6.1-3.1,10.8-9.4,13.3-15.5c0.7-1.8,2.2-4.5,1-6.5c-0.7-1.1-2.7-1.9-3.7-2.5l-7.6-4.4c-0.6-0.4-1.4-0.1-1.8,0.5
	c-1.9,3.2-4.1,6.6-7.8,8c-3,1.1-6.7,0.8-9.9,0.9c-3.8,0.1-9-0.7-12.6,0.9c-1.5,0.7-0.2,2.9,1.3,2.2c2.5-1.1,6.8-0.4,9.4-0.5
	c3.4,0,6.7-0.1,10-0.5c5.7-0.9,8.9-4.9,11.7-9.7l-1.8,0.5c2.5,1.4,5.2,2.7,7.6,4.4c1.3,0.9,2.5,1.6,2.6,3.1c0,1.4-1.2,3.5-1.8,4.7
	c-2.3,4.6-6,9.3-10.6,11.9c-5.2,2.9-12.4,2-18.1,1.8c-4.5-0.2-6.4-2-7.2-6.1c-0.7-3.5-1.1-7-1.2-10.6
	C187,271.3,184.3,271.3,184.4,273z"/>
<path class="st6" d="M219.5,248.6c-2.5,3-4.8,6.3-6.9,9.7c-0.1,0.2-0.2,0.4-0.2,0.7c0,0.3,0.4,0.5,0.7,0.7l18.6,10.6
	c0.2,0.2,0.5,0.2,0.8,0.2c0.3-0.1,0.6-0.4,0.7-0.7c2-3.8,3.6-7.8,4.5-12c0.1-0.3,0.1-0.6,0-0.9c-0.2-0.4-0.6-0.8-1-0.9l-6.4-3.7
	c-3.4-2-7-4-10.9-4"/>
<path class="st1" d="M218.5,247.7c-2.6,3.2-6.1,7-7.4,11c-0.1,0.4,0,0.9,0.3,1.2c2.5,2.7,7,4.3,10.2,6.2c3.2,1.8,6.7,4.6,10.3,5.6
	c0.4,0.1,0.9,0,1.2-0.3c2.4-2.3,3.6-6.6,4.6-9.7c0.7-2.1,1.7-4.2,0.4-6.1c-1.5-2.2-6.5-4-8.8-5.3c-3.1-1.8-6.5-3-10.1-3.4
	c-1.7-0.1-1.6,2.4,0,2.6c5.5,0.8,10.8,3.1,15.1,6.6c1.4,0.2,1.9,0.9,1.5,2c0,1-0.2,2-0.6,2.9c-0.7,2.5-1.5,7.4-4.9,7.2
	c-1.8-0.1-5.2-2.9-6.8-3.8l-5.1-2.9l-3.4-1.9c-1.1-1.3-1.1-2.4,0.1-3.5c0.9-2.4,3.3-4.7,4.9-6.6
	C221.3,248.2,219.6,246.3,218.5,247.7L218.5,247.7z"/>
<path class="st11" d="M222,247.8c-1.2-8.5,3.6-16.8,11.5-20c0.5-0.3,1.1-0.3,1.7,0c0.2,0.2,0.4,0.5,0.5,0.9c0.4,1.7,0.2,3.6-0.6,5.2
	c-1,2-3,3.8-2.8,6c2.9-0.9,6-0.6,8.6,1c2.8,1.6,4.7,4.9,4.2,8c-0.7,3.1-3.4,5.3-6.6,5.2c-2.6-0.1-4.8-1.8-7.1-2.9
	c-2.9-1.3-5.9-2.3-9-2.9"/>
<path class="st1" d="M223.3,247.8c-0.6-6.5,1.6-12.7,7-16.6c1.7-1.3,2-2.1,3.2-0.2c1.4,2-0.2,2.9-1.1,4.6c-0.8,1.3-1.3,2.8-1.5,4.3
	c0,0.7,0.6,1.3,1.3,1.3c0.1,0,0.2,0,0.3,0c3.7-0.9,7.9-0.1,10.1,3.2c1.2,1.8,1,5.5-0.5,7c-2.1,2.1-6.1,0.9-8.2-0.2
	c-3.6-1.8-7.4-3.2-11.3-4.1c-1.6-0.4-2.3,2.1-0.7,2.5c3.5,0.8,6.8,1.9,10,3.5c1.9,1,3.8,2.2,6,2.3c3.3,0.2,6.4-1.7,7.8-4.7
	c3.7-8.5-7.1-13.6-13.9-12l1.6,1.2c0.4-4,5.2-7,3.4-11.6c-0.8-2-2.1-2.2-4-1.6c-8.6,2.5-13,12.9-12.2,21.1
	C220.8,249.4,223.4,249.4,223.3,247.8L223.3,247.8z"/>
<path class="st12" d="M99.6,261.4c-1.9,3.4-3.2,7.1-3.8,11c-0.1,0.4,0,0.8,0.1,1.2c0.3,0.4,0.6,0.7,1.1,0.8c2,0.8,4.1,1.4,6.3,1.7
	c9.1,1.6,18.4,2.6,27.6,3c18.1,0.8,36.7-0.5,53.1-7.5c0.4-0.1,0.8-0.4,1-0.8c0.1-0.3,0.1-0.6,0-0.9c-0.5-2.4-1.4-5.1-3.8-6
	c-1.8-0.7-4-0.1-5.9,0.4C150.3,271.6,124.5,268.9,99.6,261.4"/>
<path class="st1" d="M98.4,260.7c-1.8,3-5.4,9.7-3.8,13.2c2,4.2,11.8,4.1,15.6,4.6c15.2,2.1,30.8,3,46.1,1.3
	c7-0.7,13.9-2.1,20.6-4.2c2.9-0.9,9.7-1.8,9.5-5.9c-0.1-4-3.3-7.3-7.3-7.5c-3.2,0-6.5,1.5-9.6,2.2c-4.4,1-8.9,1.8-13.5,2.2
	c-19,1.9-37.9-1.2-56-6.5c-0.7-0.1-1.4,0.4-1.6,1.1c-0.1,0.6,0.2,1.3,0.8,1.5c14.5,4.2,29.5,7.1,44.7,7.2c7.2,0,14.5-0.6,21.6-1.9
	c1.9-0.3,3.7-0.7,5.5-1.2c1.8-0.4,4.2-1.7,6-1.6c2.7,0.1,9,2.4,4.9,5.7c-1.2,1-3.6,1.4-5,1.8c-14.8,4.8-30.6,5.7-46.1,5
	c-7.9-0.4-15.8-1.1-23.6-2.3c-2.5-0.4-9.3-0.4-10-3.7c-0.5-2.4,2.4-7.7,3.5-9.6c0.3-0.7,0-1.5-0.6-1.8
	C99.6,260,98.8,260.2,98.4,260.7L98.4,260.7z"/>
<polygon class="st13" points="136.4,281.9 144.1,281.9 147.5,286.2 143.2,299.9 "/>
<polygon class="st13" points="155.2,281.9 163.7,279.4 156,297.3 151.8,287.1 "/>
<path class="st14" d="M37.6,252.7c1-4,2.3-7.9,3.9-11.7c0.1-0.4,0.5-0.7,0.9-0.6c0,0,0,0,0,0h1.2c0.4,0,0.8,0.1,1.1,0.2
	c0.6,0.4,0.6,1.2,0.5,1.9c-0.6,3.5-1.7,7-3.3,10.2c-0.1,0.4-0.5,0.7-0.9,0.6c0,0,0,0-0.1,0l-2.4-0.1"/>
<path class="st1" d="M39,253.1c0.3-1.2,3.2-12.3,4.7-11.4c1.1,0.7-1,5.8-1.3,6.5s-0.7,1.7-1,2.5c-0.7,1.8-1,1.3-2.8,1.2
	s-1.7,2.6,0,2.7c1.3,0,2.9,0.4,4-0.4s1.7-3.3,2.1-4.5c0.9-2.4,3.2-7.2,1.5-9.6c-1.2-1.8-4.7-1.7-5.8,0.1c-2.1,3.4-3,8.3-4,12.1
	c-0.1,0.7,0.4,1.4,1.1,1.6C38.2,254,38.8,253.7,39,253.1L39,253.1z"/>
<path class="st14" d="M29.2,281.3c-0.7,1.8-1.2,3.6-1.4,5.5c-0.1,0.6,0,1.2,0.3,1.8c0.7,0.7,1.8,0.7,2.5,0c0,0,0,0,0,0
	c0.6-0.7,1-1.6,1.2-2.5l0.5-2c0-0.2,0-0.4,0-0.6c-0.1-0.2-0.3-0.4-0.5-0.6c-0.7-0.5-1.4-0.9-2.1-1.1"/>
<path class="st1" d="M28,281c-0.8,2-1.8,4.9-1.4,7.1c0.3,1.6,1.7,2.6,3.3,2.3c0.3-0.1,0.6-0.2,0.9-0.3c2-1,2.3-3.3,2.8-5.2
	c0.3-0.8,0.3-1.7-0.2-2.4c-0.8-0.9-1.8-1.5-2.9-1.9c-1.6-0.7-3,1.6-1.4,2.3c0.6,0.2,1.2,0.5,1.7,0.9l0.2-0.1l-0.2,1
	c-0.2,0.9-0.3,2.1-0.9,2.8c-1.1,1.1-0.4-1.8-0.3-2.2c0.2-1.2,0.6-2.3,1-3.4C31.1,280,28.5,279.3,28,281L28,281z"/>
<path class="st15" d="M52.2,202.9c-1.6-0.6-3.2,0.6-4.5,1.7c-2.6,2.3-7.5,4.7-9.7,12.3c-1.7,6-1.5,7.9-1.3,9.4
	c0.3,3.2,1.4,6.3,3.2,8.9c1.9,2.5,5.2,4.2,8.3,3.7c2.6-0.5,4.7-2.4,6.2-4.5c4.1-5.5,5.5-12.7,5.3-19.5c0.1-2.5-0.5-5.1-1.6-7.3
	c-1.2-2.2-3.6-3.9-6.1-3.8"/>
<path class="st1" d="M52.2,201.6c-3.5-0.4-6.4,2.7-8.9,4.9c-3.3,2.9-5.7,6.7-6.8,11c-2,7.3-1.7,17.4,5.8,21.6
	c9.4,5.2,16-6.7,17.8-14.3c1.7-7.4,2.5-21.7-8.1-22.2c-1.7-0.1-1.7,2.5,0,2.6c9.1,0.5,6.7,15.8,5,21.3c-1.1,3.6-3.2,8.2-6.6,10.3
	c-5.9,3.5-10.5-2.4-11.9-7.5c-1.2-4.5-0.4-9.1,1.2-13.4c1.3-3.5,7.7-12.1,12.5-11.6C53.8,204.4,53.8,201.8,52.2,201.6L52.2,201.6z"
	/>
<path class="st1" d="M49.6,210.2c1.8,4.5,2.1,9.5,0.8,14.1c-0.2,0.7,0.2,1.4,0.9,1.6c0.7,0.2,1.4-0.2,1.6-0.9l0,0
	c1.4-5.1,1.2-10.5-0.8-15.5C51.5,208,49,208.7,49.6,210.2L49.6,210.2z"/>
<path class="st1" d="M47,231.4c-0.5,0.4-1.1,0.7-1.7,1c-0.6,0.4-0.8,1.1-0.5,1.8c0.4,0.6,1.1,0.8,1.8,0.5c0.8-0.4,1.5-0.8,2.2-1.4
	c0.5-0.5,0.5-1.3,0-1.8C48.4,231,47.6,231,47,231.4L47,231.4z"/>
<rect x="0.4" y="0.4" class="st16" width="400" height="400"/>
</svg>
