<svg xmlns="http://www.w3.org/2000/svg" viewBox="0 0 403.35 401.52"><defs><style>.cls-1{fill:#420744;}.cls-2{fill:#ffc48a;}.cls-3{fill:#e57f0e;}.cls-4{fill:#8e663a;}.cls-5{fill:#42362a;}.cls-24,.cls-6{fill:none;}.cls-17,.cls-24,.cls-6{stroke:#420744;stroke-miterlimit:10;}.cls-6{stroke-width:1.2px;}.cls-7{fill:#3d5599;}.cls-8{fill:#d3a2f9;}.cls-9{fill:#ddd;}.cls-10{fill:#662d91;}.cls-11{fill:#c1840c;}.cls-12{fill:#d6ab34;}.cls-13{fill:#a57c0a;}.cls-14{fill:#e5c665;}.cls-15{fill:#4f4f51;}.cls-16{fill:#bfa01b;}.cls-17{fill:#d6d7d8;stroke-width:0.99px;}.cls-18{fill:#f9d3b4;}.cls-19{fill:#020202;}.cls-20{fill:#f46403;}.cls-21{fill:#c9873f;}.cls-22{fill:#a5722f;}.cls-23{fill:#5f4000;}.cls-24{stroke-width:0.95px;}.cls-25{fill:#ff5c2d;}.cls-26{fill:#32d4ff;}.cls-27{fill:#1b7cff;}.cls-28{fill:#ff2dbf;}</style></defs><title>HOME</title><g id="Layer_4" data-name="Layer 4"><path class="cls-1" d="M1576.48,416.45a1.34,1.34,0,0,0,0-2.69,1.34,1.34,0,0,0,0,2.69Z" transform="translate(-1253.02 -135.03)"/><path class="cls-2" d="M1496.34,452.93a20.91,20.91,0,0,0,10.13-.36c4.57-1.13,9-3.06,13.53-3.56l.32.09c-21.46,6.07-17.79,9.6-17.27,12.09s3,4.58,5.42,4.11c2-.4,3.49-2.33,5.51-2.84,1.66-.42,3.38.19,5.05.6,5.82,1.41,12,.32,17.46-2s10.45-5.7,15.37-9.09c12.89-8.9,21.63-9.44,29.09-23.45l.23,1.08c6.06,26.69,1.2,54.39,1.31,81.71,0,6.12.43,14.89,1.1,24h65.94c-4.38-24.55-20.36-78.07-21-84.75l-.61-8.12a27.94,27.94,0,0,0-1-7.36c-3.24-14.39-7.4-28.85-15.33-41.24a29.24,29.24,0,0,0-5.31-6.51c-2.7-2.33-6-3.77-9.15-5.37a91.14,91.14,0,0,1-11.84-7.18c-3.22-2.3-6.89-5-10.65-4l-6.87,2c1.08-2,3.69-2.36,5.86-2.93a17.06,17.06,0,0,0,9.54-6.66,9.31,9.31,0,0,0,1.7-3.8,12.33,12.33,0,0,0-.62-5.19,20.5,20.5,0,0,0-3.4-7.64,1.17,1.17,0,0,0-1.76-.39,41.75,41.75,0,0,0-15.44,13.19,22.41,22.41,0,0,0-4.13,9l-.85,1.17-7.37,5.65a2.67,2.67,0,0,1-1.37.68,2.73,2.73,0,0,1-1.44-.46l-6.7-3.65a2.24,2.24,0,0,1-.76-.57,2.68,2.68,0,0,1-.34-1.48,9,9,0,0,0-1-3.51,1.63,1.63,0,0,0-.55-.7,1.58,1.58,0,0,0-1-.12,12.3,12.3,0,0,0-9.85,7.53,5,5,0,0,0-.46,2.22,3.2,3.2,0,0,0,3.5,2.87,16.24,16.24,0,0,0,1.83-.59c2.57-.74,5.2.86,7.45,2.38l3.55,2.41a7.61,7.61,0,0,1,2.41,2.2,2.65,2.65,0,0,1-.08,3.08l.05.69c-1.13,3.68-4.3,6.91-5.79,10.53-5.77,8.76-15.1,12.67-24.8,15a12.14,12.14,0,0,0-6.15,4c-4.46,7.62-1.46,16.68-4.24,24.7-3.73.91-8.4,1.24-10.82,4.28A3.77,3.77,0,0,0,1496.34,452.93Z" transform="translate(-1253.02 -135.03)"/><path class="cls-1" d="M1496,454.06a25.75,25.75,0,0,0,11.6-.59c3.11-.82,9.22-4.16,12.38-3.24V448c-4.51,1.3-18,3.8-18.66,10.43a9.83,9.83,0,0,0,1.11,4.59,6.38,6.38,0,0,0,4.5,3.48c2.36.34,3.4-1,5.39-1.89,4.1-1.82,9.39.5,13.76.23a34.08,34.08,0,0,0,10.69-2.58c7.11-2.9,13-7.74,19.52-11.72,10.22-6.27,19.58-10.41,25.64-21.35l-2.14-.28c3.86,17.8,3.46,35.72,2.53,53.8a426.07,426.07,0,0,0,.07,52.68,1.19,1.19,0,0,0,1.17,1.17h65.94a1.19,1.19,0,0,0,1.13-1.48c-4.58-25.26-12.36-49.91-18.75-74.75a82.73,82.73,0,0,1-2.23-9.69c-.57-4.32-.33-8.75-1.05-13a145.46,145.46,0,0,0-8-28.26c-3-7.68-6.77-16.43-12.89-22.17-3.33-3.12-7.56-4.82-11.54-6.92-4.63-2.46-8.71-5.63-13.17-8.35-5.64-3.44-9.75-1.85-15.56-.11l1.14,2c2-2.47,5.45-2.43,8.12-3.63a18,18,0,0,0,4.26-2.68c2.84-2.4,5.31-5.77,5.14-9.64-.15-3.37-1.67-9.23-4.25-11.68-2.13-2-3.79-.7-6.12.69a43,43,0,0,0-11,9.36,38.56,38.56,0,0,0-3.48,4.84c-1.27,2.12-1.68,5.29-3,7.22-1.88,2.79-7,6.84-10.24,5.74-2.4-.81-5.41-2.43-6.25-4.72-.67-1.82-.51-4-2.6-4.77-3-1.11-7.48,2.09-9.33,4.09-3.56,3.87-4.72,11,2.31,10.57,3.32-.18,3.6-.78,6.53.9.89.51,1.73,1.14,2.58,1.71,2.13,1.43,4.32,2.95,4.12,5.88-.17,2.4-2.16,4.7-3.39,6.68-1.57,2.54-2.81,5.1-4.83,7.34a34.5,34.5,0,0,1-13.61,8.74c-4,1.52-8.68,1.92-12.19,4.5-3.84,2.82-4.81,7.49-5.24,12s1.53,14-4.07,15.22c-3.27.72-7.41,1.83-9,5.2-1.27,2.78.13,5.32,2.63,6.67,1.33.72,2.51-1.3,1.18-2q-2.16-5.73,2.49-6.75a19,19,0,0,1,2-.54c1.52-.38,3.06-.66,4.59-1a1.17,1.17,0,0,0,.82-.82c2.28-7.56-.21-16.73,4-23.56,2.67-4.35,7.6-4.61,12-6.15a46.11,46.11,0,0,0,9-4.1c6.17-3.76,9.36-8.92,13.1-14.84,1.72-2.72,4.62-7.06,2.7-10.35-1.34-2.29-4.82-4-7-5.37-2.79-1.75-4.58-1.84-7.66-2-4.75-.32-2.69-5-.43-7,2.62-2.34,5.28-3.38,7,.48.71,1.55.31,1.93,1.74,3.1,1.65,1.34,6.36,4.36,8.67,4.24,2.61-.13,5.82-3.8,7.85-5.36s2.41-2.19,3.23-4.63a32.28,32.28,0,0,1,8.63-12.84,41.22,41.22,0,0,1,5.93-4.7c3.1-2,5.08-1.93,6.53,1.77,1.23,3.14,2.07,6.86.79,10.13-1.08,2.76-4.43,5.11-7,6.3-3.13,1.46-6.72,1.38-9,4.23-.68.85-.08,2.32,1.14,2,1.73-.52,3.46-1.08,5.21-1.55,4.78-1.3,8.34,1.27,12.12,3.89,7,4.89,16.78,7.7,22.4,14.26,6.19,7.24,10,17.06,12.94,26,2.74,8.35,5.57,17.44,6,26.23.86,17.85,7.56,35.4,12.09,52.56,3.52,13.33,7.1,26.72,9.57,40.29l1.13-1.48H1583.6l1.17,1.17c-1.31-18.3-.9-36.29,0-54.6.89-17.66,1.05-35.15-2.71-52.51a1.18,1.18,0,0,0-2.14-.28c-4.92,8.89-12,13.25-20.6,18.06-10.65,6-20.45,15.61-33.23,16.43-4.55.29-9.57-2.5-13.87-.56-2.65,1.2-1.21,1.73-5.09.17-6.08-2.43-2.27-.11-3.09-1.64a3.63,3.63,0,0,1-.36-1.23c-.12-5.47,13.32-7.93,16.92-9a1.18,1.18,0,0,0,0-2.26c-2.28-.66-5.54.81-7.7,1.45-5.45,1.61-10.5,3.45-16.28,2.38C1495.18,451.53,1494.55,453.79,1496,454.06Z" transform="translate(-1253.02 -135.03)"/><path class="cls-2" d="M1533.88,376.81a2.65,2.65,0,0,0-2.21,1.67,5.31,5.31,0,0,0-.24,2.94,1.26,1.26,0,0,0,.25.66,1.17,1.17,0,0,0,1,.24,7.71,7.71,0,0,0,2.58-.75,2.49,2.49,0,0,1,1.79-.44,2.25,2.25,0,0,1,.9.7l7.19,7.92s2.11-1.89,1.92-2.66-.23-4.48-5-7.58S1533.88,376.81,1533.88,376.81Z" transform="translate(-1253.02 -135.03)"/><path class="cls-1" d="M1533.57,375.68c-2.83.6-5.39,6.19-2,7.65,1.71.74,3.33-.92,4.95-.71,1.39.18,2.85,2.47,3.83,3.55l4,4.4a1.19,1.19,0,0,0,1.66,0c7.08-6.52-5.46-15.54-12.1-14.93-1.49.14-1.5,2.48,0,2.34,3.39-.31,7.47,1.88,9.71,4.25,1,1,2.24,2.85,2.22,4.37,0,1-.68,1.57-1.49,2.31H1546l-4-4.4c-1.16-1.28-2.31-3-3.72-4A2.56,2.56,0,0,0,1536,380a8,8,0,0,0-1.32.54l-1.41.48q-2.22-1.16.92-3.11C1535.67,377.62,1535,375.37,1533.57,375.68Z" transform="translate(-1253.02 -135.03)"/><path class="cls-3" d="M1563.85,357.49l.26-5.55a2.65,2.65,0,0,0-.57-2.19,2,2,0,0,0-1.87-.22c-2.38.64-4.12,2.66-5.53,4.72a13,13,0,0,0-2.63,6.31c-.22,3.38,1.76,6.73,1.17,10.06l4.3-2.78,3.09-5.89Z" transform="translate(-1253.02 -135.03)"/><path class="cls-1" d="M1565,357.49c.1-2.22,1.33-6.93-.77-8.66-1.65-1.36-4.15-.12-5.58.92a17.79,17.79,0,0,0-5.67,7.82c-1.6,4.48.86,8.54.51,13.05a1.18,1.18,0,0,0,1.76,1c2.73-1.76,4.41-2.59,5.88-5.41a87.38,87.38,0,0,0,3.82-8.42c.56-1.4-1.71-2-2.26-.62a77.18,77.18,0,0,1-3.4,7.49c-1.45,2.77-2.16,2.95-5.24,4.94l1.76,1c.38-4.92-2.37-9.25.2-14,1.23-2.29,2.45-4.36,5.1-4.54,2.4-.16,1.77.07,1.69,2l-.16,3.47C1562.61,359,1565,359,1565,357.49Z" transform="translate(-1253.02 -135.03)"/><path class="cls-3" d="M1570.39,361.6c.78-1,1.34-2.19,2.09-3.23a5.24,5.24,0,0,1,3-2.25.73.73,0,0,1,.38,0,.85.85,0,0,1,.32.23,5.11,5.11,0,0,1,1.56,2.42,3.42,3.42,0,0,1-.71,2.72,5.94,5.94,0,0,1-2.26,1.69,4.34,4.34,0,0,1-3.84.21,1.65,1.65,0,0,1-.8-.85.91.91,0,0,1,.3-1.06" transform="translate(-1253.02 -135.03)"/><path class="cls-1" d="M1571.4,362.19c.75-1,1.32-2.21,2.09-3.23s1.86-2.25,2.75-.71,0,2.7-1.24,3.47a5.91,5.91,0,0,1-1.5.69,3.51,3.51,0,0,1-1.17.18l-1.09-.27c1-1.12-.64-2.78-1.66-1.66-2,2.2.76,4.3,3,4.26,2.55-.05,5.52-1.85,6.22-4.4.53-1.92-.9-5.75-3.33-5.56-3.1.24-4.54,3.92-6.08,6.06-.88,1.22,1.15,2.39,2,1.18Z" transform="translate(-1253.02 -135.03)"/><path class="cls-1" d="M1550.44,397.22c7.35,2.12,20.21,1.13,22.83-7.59A1.17,1.17,0,0,0,1571,389c-2.18,7.26-14,7.67-19.95,6a1.17,1.17,0,0,0-.62,2.26Z" transform="translate(-1253.02 -135.03)"/><path class="cls-4" d="M1592.36,375.65c4,1.17,7.83-5.55,11.45-3.34,1.86,1.14,2,3.9,3.45,5.54s4.05,1.78,6.29,2,4.86,1.1,5.45,3.34a10.73,10.73,0,0,0,.5,2.33c1,1.86,3.81,1.07,5.61,2.11,2.49,1.43,1.89,5.45,3.74,7.68,1.1,1.32,2.94,1.86,3.9,3.3,1.68,2.53-.36,6,.58,8.95s4.83,4.34,5.7,7.38c.5,1.75-.13,3.59-.45,5.37a16,16,0,0,0,1.63,10.31c1,1.86,2.39,3.58,2.78,5.66.47,2.53-.63,5.25.31,7.65.55,1.41,1.73,2.48,2.4,3.84.58,1.17-2.13,6.55-2,7.85,1.28,9.9,5.22,15.79,6,25.74.18,2.2.34,4.4.55,6.6a51.55,51.55,0,0,0,2.29,12.21c1.23,3.54,3.16,7.2,2.25,10.81a9.48,9.48,0,0,0-.5,2.24c0,1.16.67,2.2.94,3.32s-4.49,8.49-5.6,8.61c-2.08-11.73-5.16-22.14-8.29-33.87-1.3-4.87-2-5-2.45-10-.3-3.39-3.05-7.21-3.38-10.6s-3.68-11.19-4.33-14.45c-1.31-6.62-1.91-16.26-3.22-22.87-1-5.12-2.32-12.05-4.14-16.94-4.67-12.53-8.13-25.65-18.7-32.88-4.12-2.82-10.6-2.95-12.56-7.61" transform="translate(-1253.02 -135.03)"/><path class="cls-1" d="M1592.05,376.78a7.33,7.33,0,0,0,4.86-1c1-.52,1.85-1.4,2.87-1.83,3.39-1.43,4.25.94,5.72,3.36a6.77,6.77,0,0,0,4.33,3.17c1.46.39,3.13.17,4.54.64,2.51.85,2.62,3.27,4.12,5,1.24,1.4,2.1,1.35,3.74,2,2.06.79,3,1.14,3.86,3.39a26.65,26.65,0,0,0,1.16,3.51c1.69,2.94,4.68,3.95,4.89,8,.13,2.57-.54,4.44,1,6.73,2.59,3.8,5,3.67,4.48,9.43-.26,2.87-.64,5.43.09,8.29,1,4,4.06,7,4.18,11.21.09,3.37.11,4.84,1.54,7.86s-.07,4.63-.64,7.64c-.48,2.52.28,5,.89,7.5,1.86,7.54,4.46,14.41,5.09,22.24a105,105,0,0,0,1.33,11.5c1,5.12,4.1,10,3.6,15.33a18.78,18.78,0,0,0-.5,2.86c.08,1.53.89,2.68.45,4.24-.49,1.72-3,5.66-4.57,6.38l1.72.7c-1.53-8.38-3.62-16.62-5.84-24.84-1.08-4-2.06-8-3.31-12-.89-2.78-1.09-5.58-1.8-8.38-.81-3.2-2.42-6.08-3.17-9.31a78.63,78.63,0,0,0-2.26-7.88c-2.36-6.89-3.13-13.7-4-20.92a151.9,151.9,0,0,0-10.79-39.94c-2.37-5.7-5.28-11.29-9.73-15.67a23.6,23.6,0,0,0-6.5-4.69c-3.55-1.67-7.75-2.15-9.78-5.91-.72-1.33-2.74-.15-2,1.18,2.73,5.05,8.56,5.16,13,8,6.7,4.35,10.54,12,13.41,19.22a166.06,166.06,0,0,1,10.66,42.64,79.08,79.08,0,0,0,3.52,16.69,73.33,73.33,0,0,1,2.26,7.88c.72,3.23,2.42,6.1,3.17,9.31,3.48,15,8.17,29.92,11,45.17a1.19,1.19,0,0,0,1.72.7c2.45-1.11,5.62-6.2,6.05-8.73a5.53,5.53,0,0,0-.1-1.75,21.28,21.28,0,0,1-.26-4.39c.38-3.65-.44-6.44-1.69-9.91-3.14-8.72-2.37-17.88-4.41-26.79-1.57-6.89-6.4-15.13-4-22.14.52-1.55,1.4-3.31,1-5s-1.81-2.89-2.27-4.66c-.6-2.34,0-4.5-.44-6.83-.83-4.07-4-7-4.47-11.29-.39-3.62,1.63-7.4.16-10.87s-5.42-4.47-5.55-8.85c-.08-2.57.93-4.88-.69-7.18-1.38-2-3.4-2.2-4.61-4.72-.5-1-.55-2.33-1-3.41-.92-2.23-1.93-2.84-4.05-3.64-1.2-.46-1.51-.12-2.61-1.1s-.59-1.16-1.31-2.31a6.8,6.8,0,0,0-2.07-2.53c-3.73-2.52-8.24-.42-11-5.14-1.25-2.14-2.08-4.31-5-4.23-3.48.09-5.7,4.31-9.31,3.82-1.47-.2-2.11,2.06-.62,2.26Z" transform="translate(-1253.02 -135.03)"/><path class="cls-5" d="M1513,421.06a7.94,7.94,0,0,0-.27,7.61c.46.89,1.36,1.79,2.29,1.49a1.92,1.92,0,0,0,1-1c1-1.81.61-4,.2-6.08a4.75,4.75,0,0,0-1.19-2.72c-.75-.66-2.15-.59-2.46.36" transform="translate(-1253.02 -135.03)"/><path class="cls-1" d="M1512,420.47a9.22,9.22,0,0,0-.4,8.51c1.23,2.52,4.21,3.36,5.58.5,1.16-2.43.77-6.38-.43-8.74-1-2-3.92-2.86-5.17-.59-.73,1.32,1.29,2.5,2,1.18.42-.76,1.29,1.17,1.39,1.47a8.78,8.78,0,0,1,.25,1.21c.17.94.7,3.32,0,4.13q-.06.83-.8.18a1,1,0,0,1-1-1.1,6.82,6.82,0,0,1-.32-1.8,6.9,6.9,0,0,1,.94-3.78c.74-1.32-1.29-2.5-2-1.18Z" transform="translate(-1253.02 -135.03)"/><path class="cls-3" d="M1627.31,439.2c-4.65-.68-9.41,2.61-13.85,1s-6.18-7.54-6.09-12.51,1.09-10.21-1-14.73c-2.17-4.71-7.29-7.62-8.93-12.55-1.95-5.86-4.42-13.16-.91-18.11,0,0,13.83,4.78,21.14,21.75C1623.16,416.77,1627.31,439.2,1627.31,439.2Z" transform="translate(-1253.02 -135.03)"/><path class="cls-1" d="M1627.31,438c-3.77-.23-7.15,1.51-10.85,1.45-5.79-.1-7.7-5.68-7.91-10.52-.27-6.09,1.43-12.22-1.82-17.82-1.48-2.55-3.75-4.51-5.59-6.78-2.58-3.18-3.84-7.45-4.67-11.43-.25-1.22-1-9.25.09-9.36.77-.07,2.31,1.1,2.94,1.45,18.78,10.53,23.06,35.06,26.68,54.49.28,1.48,2.53.85,2.26-.62-3.81-20.44-9.08-49.69-31.59-57.7a1.18,1.18,0,0,0-1.32.54c-3.47,5.78-1.55,13.11.79,19a21.65,21.65,0,0,0,4.09,6.34c3.83,4.42,6.1,7.83,6.09,13.93,0,5.79-1.24,12.15,2.49,17.17,4.8,6.45,11.91,1.82,18.32,2.2C1628.82,440.46,1628.81,438.12,1627.31,438Z" transform="translate(-1253.02 -135.03)"/><path class="cls-3" d="M1583.65,500c6.25,2,12.69-2.18,17.08-7,3.33-3.69,6.22-8.46,5.5-13.49-.66-4.62-4.19-8.25-5.85-12.61-2.23-5.89-.86-12.57-2.38-18.68-.5-2-1.59-4.19-3.56-4.63a5.82,5.82,0,0,0-3.29.53c-3.25,1.24-4,2.25-7,4.07,0,0,1,23.42.62,28.41S1583.65,500,1583.65,500Z" transform="translate(-1253.02 -135.03)"/><path class="cls-1" d="M1583.33,501.16c10.51,2.51,22.67-8,24-18.37.85-6.4-3.83-10.84-5.89-16.45-2.39-6.53.23-15-3.39-21.1-2.56-4.32-7-2.77-10.64-.64-2.91,1.72-4.47,2.18-4.39,5.33.21,8.34.84,16.7.61,25s-.86,16.71-1.21,25.06c-.06,1.51,2.28,1.5,2.34,0,.66-15.43,1.32-30.6.75-46,0-1.3-.5-3.28-.17-4.57.38-1.53.28-1.18,2.26-2.15,2.32-1.14,5.55-4.53,8.42-.84,1.24,1.6,1.34,5.14,1.48,6.88.25,3.26.14,6.53.67,9.77,1.19,7.4,8.63,13.48,6.42,21.26-2.29,8.06-12,16.65-20.68,14.57C1582.49,498.55,1581.87,500.81,1583.33,501.16Z" transform="translate(-1253.02 -135.03)"/><path class="cls-3" d="M1606.79,454c3,.45,4.54-5.77,7.31-4.41a3.31,3.31,0,0,1,1.25,1.34c2.77,4.55,3.28,10.21,6,14.8,2.44,4.16,6.54,7.2,8.49,11.62,1.87,4.21,1.51,9.07.67,13.58a69.83,69.83,0,0,1-5.75,17.59c-.7,1.45-1.64,3-3.19,3.33a5.3,5.3,0,0,1-2.44-.3c-3.12-.89-6.42-2-8.54-4.48-3.39-4-2.55-10-1.71-15.25q1.52-9.5,2.1-19.14c.17-2.83.24-5.86-1.16-8.33-.92-1.63-2.39-2.86-3.36-4.45s-1.27-3.92.09-5.15" transform="translate(-1253.02 -135.03)"/><path class="cls-1" d="M1606.79,455.19c3-.12,3.21-3.15,5.48-3.91,3.69-1.24,6.15,11.53,7.67,14.36,2.41,4.49,6.76,7.63,8.79,12.34,2.88,6.7.5,15-1.66,21.66-.88,2.71-1.86,7.3-3.91,9.4-2.53,2.59-7.52.64-9.92-1.12-6.17-4.52-3.57-13.26-2.68-19.57.84-6,1.76-12.18,1.65-18.22a13.71,13.71,0,0,0-1.06-5.57c-1.22-2.66-5.94-6-3.61-9.19.89-1.22-1.14-2.39-2-1.18a5.2,5.2,0,0,0-.58,5.3,12.32,12.32,0,0,0,1.93,2.95,13.42,13.42,0,0,1,3,8.56c.24,9-2.51,17.79-2.89,26.72-.25,6,1.79,11,7.54,13.53,4.29,1.9,8.32,3,10.95-1.56a57.73,57.73,0,0,0,6.71-22.15c.76-7.59-1.88-12.37-6.54-18A33,33,0,0,1,1619.5,458c-.84-2.56-1.74-6.78-3.86-8.67-4.12-3.68-5.32,3.35-8.85,3.5-1.5.06-1.51,2.4,0,2.34Z" transform="translate(-1253.02 -135.03)"/><path class="cls-3" d="M1650.05,535.36c-1.59-7.7-3.34-15.9-6.05-22.71-1.73-4.34-3.66-9-2.7-13.54l.16-1.33c-3.6,2.24-4.31,7.54-2.91,11.67.66,1.93,1.69,3.82,1.66,5.86,0,3.09-2.46,5.48-4.58,7.65a50.94,50.94,0,0,0-8.53,11.23c-.21.39-.41.78-.6,1.18Z" transform="translate(-1253.02 -135.03)"/><path class="cls-1" d="M1651.18,535a156.36,156.36,0,0,0-5.16-20.3c-2.06-5.84-4.18-10.61-3.39-17a1.18,1.18,0,0,0-1.76-1c-4.39,3.36-4.89,8.71-3.17,13.71,1.27,3.69,1.84,6-.76,9.39-1.32,1.74-3.08,3.2-4.52,4.84a49.17,49.17,0,0,0-6.91,10.06,1.18,1.18,0,0,0,1,1.76h23.54a1.17,1.17,0,0,0,0-2.34h-23.54l1,1.76a48.48,48.48,0,0,1,7.73-10.89c1.85-2,4.17-3.89,5.3-6.42,3-6.67-5.86-14.22,1.5-19.84l-1.76-1c-.74,6,.77,10.37,2.88,16,2.67,7.08,4.21,14.52,5.75,21.92C1649.23,537.14,1651.49,536.52,1651.18,535Z" transform="translate(-1253.02 -135.03)"/><path class="cls-3" d="M1595.23,513.09c1.9-2.51,5.58-3.1,8.47-1.88a12.5,12.5,0,0,1,6.26,6.87c.75,1.78,1.39,3.88,3.1,4.7,1.17.56,2.52.34,3.8.39s2.76.6,3.11,1.88a3,3,0,0,1-1,2.78,11.47,11.47,0,0,1-5.73,2.6,57.25,57.25,0,0,1-7.06,1.13c-1.95.19-4.1.21-5.64-1.05-1.37-1.12-1.89-3-2.3-4.73a118.35,118.35,0,0,1-2.35-13.53" transform="translate(-1253.02 -135.03)"/><path class="cls-1" d="M1596.05,513.92c5.54-5.81,11.07,1,13.34,5.85,1.36,2.91,2.26,3,4.73,4.5,1.67,1,2-2.19.88,2.36-.67,2.72-.67,2.36-3,2.86-1.41.3-2.82.52-4.25.7-3,.38-2.8.53-5.6-1.55-3-2.24-3-3.85-3.73-7.36-.59-3-1-6-1.41-9-.18-1.48-2.52-1.49-2.34,0a106.88,106.88,0,0,0,2.39,13.84c.68,2.64,1.61,5.22,4.38,6.27,3.47,1.32,8.63,0,12.06-.8,2.65-.65,6.43-1.75,7.44-4.7.71-2.08-.44-3.78-2.35-4.53-2.41-.94-4.68-.21-6.72-2.65-1.11-1.33-1.55-3.7-2.6-5.19-3.53-5-10.3-7-14.9-2.23-1,1.09.61,2.75,1.66,1.66Z" transform="translate(-1253.02 -135.03)"/><ellipse class="cls-6" cx="1553.26" cy="399.43" rx="6.53" ry="7.53" transform="translate(-1303.45 245.57) rotate(-13.75)"/><path class="cls-6" d="M1543.82,394.8c-2.42,3-4.84,4.45-6.7,8.17-1.64,3.28-4.71.13-5.7-3.91s1.05-8,4.55-8.87S1546.36,391.61,1543.82,394.8Z" transform="translate(-1253.02 -135.03)"/><path class="cls-6" d="M1541.21,397.66a13.27,13.27,0,0,1,5.48.77,11.77,11.77,0,0,0,0,1.78c.1.39-5.88-1.41-5.88-1.41Z" transform="translate(-1253.02 -135.03)"/><path class="cls-6" d="M1559.76,396.79s29-8.91,30.16-7.55,2.06,5.21,1.51,6.16-2.43-.22-2.43-.22.56-1-.57-2.31-19.41,4.75-20.9,5.11-7.37,2.22-7.37,2.22Z" transform="translate(-1253.02 -135.03)"/></g><g id="Layer_1" data-name="Layer 1"><path class="cls-1" d="M1259.45,317.22a203.32,203.32,0,0,1,21.49-9.2,1.57,1.57,0,0,0,.68-2.59c-2.6-2.53-6.54-3-9.56-5A52.5,52.5,0,0,1,1260,288.58c-1.2-1.56-3.89,0-2.68,1.56a61.55,61.55,0,0,0,10.27,10.77,39,39,0,0,0,5,3.42c2,1.15,5.29,1.73,6.89,3.3l.68-2.59a210.29,210.29,0,0,0-22.23,9.51c-1.8.86-.23,3.53,1.56,2.68Z" transform="translate(-1253.02 -135.03)"/><path class="cls-7" d="M1268.81,300.25a17.63,17.63,0,0,1-5.56,2.19c-1.34.27-3,.24-3.49-.89a3.27,3.27,0,0,1-.1-1.81,30.8,30.8,0,0,1,1.31-5.53l1.64-.4,5.67,5.31Z" transform="translate(-1253.02 -135.03)"/><path class="cls-1" d="M1268,298.91a17.69,17.69,0,0,1-3.28,1.53c-.73.24-2.33.93-3.11.57-1.29-.59.45-5.22.82-6.38l-1.08,1.08,1.64-.4-1.51-.4,3.5,3.27c.62.58,1.25,1.16,1.87,1.75.2.19.33.42.1.06a10.15,10.15,0,0,1,.49,1c.85,1.8,3.52.23,2.68-1.56s-2.21-2.78-3.61-4.09c-.86-.8-1.69-1.67-2.59-2.43a2.46,2.46,0,0,0-2.57-.43c-2,.48-2.15,1.85-2.61,3.73s-1.31,4.51-.23,6.25c2.24,3.62,8.46.58,11.06-.92A1.55,1.55,0,0,0,1268,298.91Z" transform="translate(-1253.02 -135.03)"/><path class="cls-7" d="M1261.18,301.33l-1.77-.65c-1.56.95-3.22,1.84-4.91,2.7v12.84a6.76,6.76,0,0,0,1-1.51l6.62-12Z" transform="translate(-1253.02 -135.03)"/><path class="cls-1" d="M1261.58,299.91a6.06,6.06,0,0,0-2.36-.68c-1.59.13-4.07,2.16-5.46,2.88a1.47,1.47,0,0,0-.73,1.28v12.84c0,1.17,1.7,2.09,2.52,1,3.2-4.06,5.4-9.3,7.89-13.82a1.47,1.47,0,0,0,0-1.49l-1-1.37c-1.09-1.54-3.66-.06-2.55,1.49l1,1.37V302c-2.36,4.27-4.4,9.38-7.43,13.22l2.52,1V303.38l-.73,1.28c1.13-.58,2.94-2,4-2.31a4.15,4.15,0,0,1,1.59.41C1262.58,303.41,1263.35,300.56,1261.58,299.91Z" transform="translate(-1253.02 -135.03)"/><path class="cls-8" d="M1327.71,295.76l-17.91-11.12a85.71,85.71,0,0,1-8.67-5.89c-4-3.2-6.93-4.48-10.27-8.34-1-1.1-3.93-4.15-4.88-5.25a247.08,247.08,0,0,1-21.37-28.91c-1.64-2.55-3.53-4.93-5.22-7.45-.54-.81-1.66-3.46-2.51-3.83a1.53,1.53,0,0,0-1.39.28v33.36a142.39,142.39,0,0,0,17,23.89c6.06,7,12.74,13.54,20.6,18.44s17,8.07,26.28,7.89a23,23,0,0,0,9.17-1.82c1.92-.88,6.2-3.47,6.24-6C1334.79,299,1329.31,296.76,1327.71,295.76Z" transform="translate(-1253.02 -135.03)"/><path class="cls-1" d="M1328.22,294.88c-9.32-5.79-18.85-11.3-27.66-17.85a95,95,0,0,1-16.78-16c-6.87-8.27-12.8-17.11-18.8-26-1.35-2-2.87-3.91-4.2-5.94-.8-1.23-1.43-3.08-2.49-4.11a2.47,2.47,0,0,0-3.32-.55,1,1,0,0,0-.51.88v18.15c0,5.11-1.53,12.6,1,17.23A126.27,126.27,0,0,0,1284,295.53c10.49,8.88,24.38,15.81,38.51,14.12,4.18-.5,11.42-2.65,13-7.28,1.4-4.07-4.63-6-7.26-7.5a1,1,0,0,0-1,1.77,21.78,21.78,0,0,1,3.61,1.93c2.7,2.35,1.83,4.91-1,6.61-4.67,2.78-10.36,3-15.64,2.39-11-1.23-21.09-6.9-29.38-14.06a130.54,130.54,0,0,1-20.51-23c-3.08-4.31-7.72-9.16-7.72-14.61V227.74a7.2,7.2,0,0,1,0-1.74c.25-.83-.56-.73.29,0s1.56,3,2.22,4c1.49,2.28,3.19,4.43,4.7,6.7,5.37,8.08,10.8,16.06,16.91,23.6,5.26,6.49,10.7,12.44,17.46,17.36,9.38,6.82,19.24,12.79,29.09,18.91C1328.31,297.34,1329.34,295.58,1328.22,294.88Z" transform="translate(-1253.02 -135.03)"/><path class="cls-8" d="M1318.72,164.08a7.24,7.24,0,0,1-1.21-5.64c1.15-4.74,5.52-10,10.25-8.93,5.37,1.12,7.73,5.65,10.79,8.94,1.19,1.95,2.69,4.23,1.31,6.73-1.35,1.87-3.62,2.76-4,5-.08,1.91,1.11,3.86,2,5.48a121.87,121.87,0,0,0,25,26.26c2.47,2,5.21,4.94,9.06,4.42,4.48-.5,8.74-3.24,13.12-1.19A19.8,19.8,0,0,1,1396,218.85c.2,2.87-.6,6.67-4.11,6.88-3.49-.43-8.89-.91-9.71,3.53-.9,6.35-.22,13.06-4.89,18-4.31,4-9.87,7.34-10.46,14-.54,5.4-.12,10.51-.36,16.24-1,8.89-5.17,17-12.39,21.92-14.25,5.3-27.83-5.32-39.33-12.36a3.38,3.38,0,0,1-1.88-.7,216.29,216.29,0,0,1-26.87-20.9c-4.6-4.28-8.52-9.82-12.46-14.72a159.08,159.08,0,0,1-15.19-25.64,24.82,24.82,0,0,1-2.2-8.35c-.29-8.29,2.88-15.53,9.46-20.42,7.88-5.49,17.46-5.84,26.81-8.42a27.72,27.72,0,0,0,7.49-3.91,222.52,222.52,0,0,0,19.62-19.18" transform="translate(-1253.02 -135.03)"/><path class="cls-1" d="M1319.61,163.56c-3.27-5.63,2.14-14.1,8.59-12.71,3.55.76,5.86,3.72,8,6.43s4,5,1.54,8.64c-.6.91-1.72,1.42-2.27,2.42-.94,1.68-.63,3.19,0,4.93,2.15,5.83,7.82,11.46,12,15.89a162.42,162.42,0,0,0,16.14,14.65c4.29,3.49,7.45,4,12.77,2.58s9.7-.52,13.67,3.51c2.47,2.51,5.71,7.31,4.8,11.06-1.41,5.78-9.5,1.61-12.71,5.82-1.16,1.53-1.16,3.6-1.33,5.42-.4,4.1-.46,8.5-2.62,12.15-2.91,4.91-8.83,7.16-11.26,12.55-2.56,5.66-1.2,12.72-1.44,18.74-.3,7.39-3.19,15.32-8.79,20.39-7.27,6.58-17.92,3.53-25.73-.39a195.31,195.31,0,0,1-36.9-24.44c-12.42-10.35-22.16-23.15-30.09-37.22-4.63-8.23-9-16.88-5.51-26.43,3.39-9.37,11.88-13.56,21-15.71,7.38-1.73,14.86-2.4,21.1-7.1,7.22-5.44,13.5-12.57,19.62-19.18.89-1-.55-2.41-1.45-1.45-6.57,7.09-13.71,16-22.21,20.8-7.79,4.41-17.45,4-25.69,7.42-14.31,5.9-19.11,21.25-12.7,34.88,7.64,16.27,18.71,32,32.4,43.69,6.77,5.78,14,11.89,21.75,16.35,6.7,3.88,13.39,8.4,20.52,11.5,6.22,2.7,14.1,4.58,20.69,1.92,5.45-2.2,9.44-8.44,11.56-13.68,3.38-8.36,1.57-16.72,2.73-25.39,1.12-8.39,9.57-10.62,12.83-17.65a27.19,27.19,0,0,0,1.93-8.82c.28-2.8-.09-6.87,3.18-8.38,1.5-.69,3.51-.15,5.1-.14,4.51,0,6.73-3.65,6.09-8.06-.86-6-5.93-12-11.38-14.33-3-1.29-5.86-.8-8.94,0-2.77.68-5.41,1.44-8.17.46-2.27-.81-4.36-3-6.22-4.57-8.32-6.85-16.48-14.54-22.53-23.53a11.93,11.93,0,0,1-1.7-2.7l-.26-5.14q.71-.68,1.43-1.33c1.1-1.34,1.84-1.62,2.16-3.4.5-2.74-1.34-5.18-2.9-7.17-3.37-4.31-8.61-10.43-14.82-7.84-5.83,2.43-9,10.17-5.8,15.63a1,1,0,0,0,1.77-1Z" transform="translate(-1253.02 -135.03)"/><path class="cls-9" d="M1308.7,283.87l-2,3.41a4.2,4.2,0,0,0-.86,2.85,4.08,4.08,0,0,0,1,1.72,9.83,9.83,0,0,0,3.85,3.23,5,5,0,0,0,6.7-4.51.84.84,0,0,0,0-.31,1,1,0,0,0-.55-.46c-3.14-1.52-5.56-4.27-8.72-5.75" transform="translate(-1253.02 -135.03)"/><path class="cls-1" d="M1307.82,283.36c-1.85,3.09-4.44,5.94-1.72,9.22,2.21,2.66,5.21,4.84,8.75,3.27,1.86-.83,4.62-4,3.3-6.21-.72-1.18-2.87-1.89-4-2.71a40.43,40.43,0,0,0-5.57-3.76c-1.17-.59-2.21,1.17-1,1.77a36.45,36.45,0,0,1,5.27,3.54,26.19,26.19,0,0,0,2.47,1.68c.13.08,1,.49,1,.48.16.29-.44,1.64-.64,1.95-1.93,2.9-5.23,1.69-7.17-.34a3.79,3.79,0,0,1-.75-4.78c.6-1,1.22-2,1.83-3.07a1,1,0,0,0-1.77-1Z" transform="translate(-1253.02 -135.03)"/><path class="cls-1" d="M1334.09,283a2.43,2.43,0,0,0-3.25,1,2.77,2.77,0,0,0,1,3.56,2.34,2.34,0,0,0,3.29-1.28,3.14,3.14,0,0,0-.64-3.48,1,1,0,0,0-1.45,1.45,1.05,1.05,0,0,1,.32.88c0,.24-.27.73-.45.72-.43,0-.42-1.33.16-1,1.17.6,2.2-1.16,1-1.77Z" transform="translate(-1253.02 -135.03)"/><path class="cls-1" d="M1330.75,282.33c1.65-.76,3.7-1.65,5.38-.51s1.9,3,2,4.74c.12,1.3,2.16,1.31,2,0-.22-2.49-.86-5.2-3.16-6.59s-5-.46-7.35.6c-1.19.55-.16,2.31,1,1.77Z" transform="translate(-1253.02 -135.03)"/><path class="cls-10" d="M1379.56,211.69a31.92,31.92,0,0,1,5.23,1.39,8.84,8.84,0,0,1,3,1.6,10.26,10.26,0,0,1,2.31,3.81.76.76,0,0,1,.09.43.71.71,0,0,1-.35.41,7.8,7.8,0,0,1-3.45.93,14.51,14.51,0,0,1-4.24,0,4.83,4.83,0,0,1-3.42-2.25,6.09,6.09,0,0,1-.51-3.23c.07-1.21.38-2.62,1.48-3.15" transform="translate(-1253.02 -135.03)"/><path class="cls-1" d="M1379.29,212.67c4,.77,8.94,1.82,9.89,6.52l.26-1c-1.18,1.38-4.77,1.38-6.48,1.19a3.93,3.93,0,0,1-3.58-2.37c-.43-1.19-.36-3.66.81-4.47s.06-2.51-1-1.77c-2.4,1.66-2.66,5.72-1.14,8.07,2,3.07,6.2,2.77,9.34,2.3,1.12-.17,3.17-.48,3.7-1.73.46-1.08-.53-2.62-1-3.51-2-3.56-6.43-4.5-10.18-5.22-1.29-.25-1.84,1.72-.54,2Z" transform="translate(-1253.02 -135.03)"/><path class="cls-11" d="M1346.85,185.18c2.28-3.38,3.5-7.22,4.69-11,1-3.21,2-6.47,2.07-9.69.08-6.52-3.85-11.8-8-16.28-4.35-4.69-9.46-9.16-16.14-10.13a13.15,13.15,0,0,0-5.55.28c-4.55,1.31-8,5.48-10.63,9.54a79.31,79.31,0,0,0-8.18,16.46c-.55,1.53-1,3.21-.46,4.56l23,12Z" transform="translate(-1253.02 -135.03)"/><path class="cls-1" d="M1347.73,185.69c3.67-5.92,6.82-14.16,6.9-21.18.07-6.41-3.65-11.86-7.78-16.43-8.63-9.55-21.84-16.37-31.68-4.48a61.51,61.51,0,0,0-11,20.52c-1.09,3.61-1.11,5.12,2,6.73,6.81,3.55,13.62,8,20.76,10.82,6.08,2.41,13.33,3.08,19.73,4.5,1.28.28,1.83-1.69.54-2-6.23-1.38-13.16-2.06-19.15-4.23s-13.23-6.9-19.38-10.1c-.65-.34-2.9-1-3.26-1.7-1.27-2.32,3.17-9.53,4.23-11.66,4.25-8.55,10.5-20,21.87-16.92,7.64,2,15.17,9.68,18.87,16.54,4.72,8.74.55,20.65-4.34,28.54C1345.27,185.78,1347,186.81,1347.73,185.69Z" transform="translate(-1253.02 -135.03)"/><path class="cls-11" d="M1302.83,169.63a38.53,38.53,0,0,0-21.12,3.9c3,3.28,7.28,5.23,11.54,6.9,12.26,4.82,25.36,7.89,38.41,11a150.34,150.34,0,0,0,14.91,3c3.87.5,8.29.58,11.7-2-3.13-3.6-7.75-5.63-12.53-6.92s-9.82-1.91-14.62-3.13c-9.84-2.51-18.49-7.49-27-12.42" transform="translate(-1253.02 -135.03)"/><path class="cls-1" d="M1302.83,168.61a41.54,41.54,0,0,0-21.63,4,1,1,0,0,0-.21,1.61c4.31,4.27,9.9,6.46,15.52,8.5a228.19,228.19,0,0,0,22.78,6.72c7.69,1.91,15.43,3.93,23.24,5.28,5.65,1,11.23,1.71,16.27-1.55a1,1,0,0,0,.21-1.61c-6.6-6.88-16-7.77-24.88-9.69-10.68-2.32-20.13-7.54-29.51-12.95a1,1,0,0,0-1,1.77c7.91,4.56,15.92,9.14,24.7,11.8,9.87,3,21.66,2.58,29.27,10.52l.21-1.61c-6,3.88-13.78,1.64-20.29.23s-13-3-19.5-4.63c-6.14-1.56-12.26-3.26-18.25-5.32s-12.58-4.25-17.29-8.91l-.21,1.61a39.6,39.6,0,0,1,20.6-3.76c1.31.12,1.3-1.93,0-2Z" transform="translate(-1253.02 -135.03)"/><path class="cls-1" d="M1316.2,199.59c3,2.28,5.81,4.71,7.1,8.35.69,1.94.62,4.81,2.09,6.37,1.88,2,5.62.25,4.16-2.43-.42-.77-1.6-.08-1.18.69q-2.47.79-2.67-.86-.17-.68-.32-1.36c-.15-.62-.3-1.25-.48-1.86a15.32,15.32,0,0,0-1.82-4.08,25.65,25.65,0,0,0-6.19-6c-.7-.53-1.38.65-.69,1.18Z" transform="translate(-1253.02 -135.03)"/><path class="cls-1" d="M1321.31,214.06a1.62,1.62,0,0,0-1.26,1.63,1.31,1.31,0,0,0,1.61,1.13,1.49,1.49,0,0,0,1.09-1.65,1.23,1.23,0,1,0-2.14,1.1,1.44,1.44,0,0,0,2-.26,1.3,1.3,0,0,0-.12-2,1.24,1.24,0,0,0-1.78.75c-.28.83,1,1.19,1.31.36-.08.23-.26-.14-.36-.12s-.21.16-.2.15-.34-.26.07.21-.11,0-.07,0,0,.14,0,.12.1,0,.07,0,.13-.1.21-.12a.68.68,0,0,0-.36-1.31Z" transform="translate(-1253.02 -135.03)"/><path class="cls-1" d="M1333.49,215.62c-1.87,1.74-.39,3.45,1.43,4.29a28.53,28.53,0,0,0,6.13,1.77c3.4.71,5.28,1.66,6.38,5.17.26.83,1.58.48,1.31-.36-.75-2.4-1.69-4.3-4.14-5.3a32.55,32.55,0,0,0-4.92-1.18c-.9-.22-7.07-1.72-5.23-3.42.64-.6-.32-1.56-1-1Z" transform="translate(-1253.02 -135.03)"/><path class="cls-1" d="M1332.06,221.72a2.59,2.59,0,0,0-1.37,1.44,1.25,1.25,0,0,0,.75,1.55c1.25.37,3-1.58,1.73-2.56s-2.62.69-2.07,1.91c.68,1.5,2.57,0,2.61-1.18a1.18,1.18,0,0,0-1.36-1.28,1.59,1.59,0,0,0-1.22,1.78.7.7,0,0,0,.68.68.69.69,0,0,0,.68-.68c0-.12,0-.3,0-.4s.06-.13-.18-.16t0,0c-.05,0-.17.23-.23.29a.76.76,0,0,1-.34.23l.53.07s.1-.08.1-.17h0q.19,0-.18-.25s-.19.21-.24.24l-.13.08q-.23.07.13.23s.05-.17.07-.18a3,3,0,0,1,.68-.5.68.68,0,0,0-.69-1.18Z" transform="translate(-1253.02 -135.03)"/><path class="cls-12" d="M1297.29,315.66c-.14-.58-.7-.94-1.22-1.23l-20.6-11.78a80.05,80.05,0,0,1-10.43-6.7,61.76,61.76,0,0,1-9.54-10v74.88a8,8,0,0,0,2.79-1.84,288,288,0,0,0,38.28-41.44A2.46,2.46,0,0,0,1297.29,315.66Z" transform="translate(-1253.02 -135.03)"/><path class="cls-1" d="M1298.54,314.92c-1.79-2.77-5.83-4.09-8.6-5.68l-12-6.87c-8.36-4.78-15.29-9.88-21.39-17.44-.82-1-2.48-.14-2.48,1v74.88a1.47,1.47,0,0,0,2.19,1.25c4.47-2.31,8.18-6.65,11.78-10.13q6.23-6,12.09-12.4,5.55-6,10.74-12.39c2.38-2.91,7.31-7.31,7.85-11.13.26-1.83-2.54-2.62-2.8-.77-.36,2.6-3.26,5.07-4.81,7s-3.05,3.78-4.61,5.64q-4.69,5.58-9.65,10.93t-10.2,10.43c-3.57,3.47-7.38,8-11.84,10.31l2.19,1.25V286l-2.48,1a63.48,63.48,0,0,0,18,15.58c3.9,2.28,7.83,4.49,11.75,6.73l6,3.44c1.67,1,4.77,2,5.85,3.65S1299.56,316.5,1298.54,314.92Z" transform="translate(-1253.02 -135.03)"/><path class="cls-13" d="M1280.52,324.68a134.33,134.33,0,0,0-2.05-16.66l-22,8.8-.94.43v19l4.87-13.29a3.82,3.82,0,0,1,.91-1.6,3.26,3.26,0,0,1,3.23-.25c5,1.62,9.7,4.21,15.13,4.68a.93.93,0,0,0,.5-.05C1280.5,325.54,1280.55,325.05,1280.52,324.68Z" transform="translate(-1253.02 -135.03)"/><path class="cls-1" d="M1281.9,324.68a154.06,154.06,0,0,0-2.1-17,1.38,1.38,0,0,0-1.69-1c-7.75,3.1-15.71,5.88-23.3,9.37a1.35,1.35,0,0,0-.68,1.19v19a1.38,1.38,0,0,0,2.7.37c1.32-3.6,2.2-8.4,4.26-11.63q.22-2.58,3.05-2.56,1.51.49,3,1.06c1.73.64,3.43,1.36,5.18,2,2.51.87,9.22,3.86,9.6-.79.14-1.77-2.61-1.76-2.75,0q2-.93-2.32-.73-1.54-.36-3-.87c-1.51-.49-3-1.09-4.45-1.66-2.17-.83-5.15-2.58-7.57-1.81-1.88.59-2.38,2.14-3,3.83-1.58,4.13-3,8.31-4.56,12.46l2.7.37v-11c0-2.16.13-4.37,0-6.53a4.19,4.19,0,0,1,0-1.43c-.58,1.13-.11.73.52.59,4-.86,8-3.21,11.79-4.71l9.64-3.85-1.69-1a147.47,147.47,0,0,1,2,16.29C1279.26,326.43,1282,326.45,1281.9,324.68Z" transform="translate(-1253.02 -135.03)"/><path class="cls-14" d="M1297.37,317.82a77.68,77.68,0,0,0-12,14.75,3,3,0,0,0-.48,1,2.24,2.24,0,0,0,.67,1.71q4.25,5.38,9,10.31c2,2.08,4.16,4.15,6.95,5.18a17.06,17.06,0,0,0,4.61.89,37.59,37.59,0,0,0,21.17-5.05,2.91,2.91,0,0,0,1.44-1.38,2.32,2.32,0,0,0,0-1.14l-1.95-12a34.52,34.52,0,0,1-5.23,1.24,14.88,14.88,0,0,1-6.26-.11c-2.72-.77-4.74-2.75-6.67-4.68l-10.49-10.47Z" transform="translate(-1253.02 -135.03)"/><path class="cls-1" d="M1296.4,316.85a86,86,0,0,0-8.79,10c-1.56,2.11-4.8,5.25-3.8,8.18,1.12,3.25,5.17,6.54,7.47,9,2.77,3,5.67,6.35,9.57,7.88,6.89,2.7,15.89.87,22.46-1.87,2.23-.93,6.17-2.1,6.83-4.86.35-1.49-.36-3.49-.6-4.94l-1.39-8.57a1.39,1.39,0,0,0-1.69-1c-3.35,1-7.27,2.14-10.76,1.13-3.26-.95-5.71-4-8-6.29-2.84-2.84-6.11-7.77-9.94-9.16-1.67-.6-2.39,2.06-.73,2.65,2.44.88,5.59,5.31,7.41,7.14a59.54,59.54,0,0,0,6.59,6.26c4.91,3.58,10.7,2.52,16.18.91l-1.69-1c.46,2.83,1.13,5.71,1.39,8.57s.31,3.52-1.8,5.23c-1.4,1.14-3.62,1.66-5.27,2.22-6.07,2-14.45,3.38-20.17-.23-4.17-2.63-9.49-8.37-12-12.6-1.61-2.69-.67-3.11.84-5.31,1.08-1.56,2.22-3.08,3.41-4.56a84.79,84.79,0,0,1,6.45-7C1299.61,317.55,1297.66,315.6,1296.4,316.85Z" transform="translate(-1253.02 -135.03)"/><path class="cls-12" d="M1340.88,323.17a87.91,87.91,0,0,0-12.88,2.66,1.42,1.42,0,0,0-.73.38,1.24,1.24,0,0,0-.15,1l3.61,21.84a1.07,1.07,0,0,0,.32.73,1.29,1.29,0,0,0,1.1,0,61.91,61.91,0,0,0,13.25-6.18,2.43,2.43,0,0,0,.82-.7,2,2,0,0,0,.14-1.44l-1.2-7.6c-.63-4-1.35-8.22-4-11.12" transform="translate(-1253.02 -135.03)"/><path class="cls-1" d="M1340.52,321.85c-2.47.35-4.93.74-7.37,1.28-1.77.38-4.79.55-6.2,1.71-1.78,1.46-1.05,3.38-.7,5.51l2.56,15.47c.33,2,.11,5.07,2.59,5.47s6.75-2.27,9.05-3.38,6.6-2.5,7.31-5.33-1-7.65-1.5-10.57c-.68-3.84-1.66-7.13-4.07-10.21-1.09-1.39-3,.57-1.95,1.95,2.8,3.59,4.54,10.71,4.36,15.26-.15,3.8-2.43,5-5.53,6.53q-2.31,1.1-4.7,2-.84.33-1.71.62-1.58,1-.89-1.27c-1.6-4.34-1.65-10-2.41-14.56-.15-.93-.82-2.74-.6-3.64.57-2.32,2.41-2.3,4.2-2.71,2.74-.63,5.51-1.1,8.29-1.49,1.75-.24,1-2.9-.73-2.65Z" transform="translate(-1253.02 -135.03)"/><path class="cls-15" d="M1343.3,324.43a25,25,0,0,1,11.73-7.74,20,20,0,0,1,13,.39c.55.22,1.14.56,1.14,1.17a1.9,1.9,0,0,1-.43,1,10.08,10.08,0,0,1-4.79,3.67c-2.41.85-5.24.79-7.05,2.7a9.21,9.21,0,0,1,5,7,9.92,9.92,0,0,1-4,9.35c-2.93,2-7,1.67-8.91-.69-1.62-2-1.72-4.86-2.3-7.44a36.13,36.13,0,0,0-3.63-8.77" transform="translate(-1253.02 -135.03)"/><path class="cls-1" d="M1344.28,325.4c4.41-4.87,13.33-10.64,20.35-7.9,4.86,1.9-.86,4-3.52,4.76a12.84,12.84,0,0,0-5.16,2.39,1.39,1.39,0,0,0,.28,2.16,8.19,8.19,0,0,1,4.12,9.3c-1.35,5.16-8.56,8.67-11.35,2.07-.91-2.16-.86-4.77-1.62-7a49.42,49.42,0,0,0-3.09-6.8c-.82-1.57-3.19-.18-2.38,1.39a38.64,38.64,0,0,1,3.79,10c.47,2.25.77,4.67,2.35,6.47,2.31,2.65,6.37,3,9.43,1.54,8.19-3.79,7.24-15.21.14-19.35l.28,2.16c3.69-3,9.23-1.75,12-6.51,1.21-2.11.52-3.2-1.43-4.34-8.45-5-20.43,1.45-26.09,7.7-1.19,1.31.75,3.26,1.95,1.95Z" transform="translate(-1253.02 -135.03)"/><path class="cls-16" d="M1302,307.42c-.65-1.91-2.57-3-4.34-3.94-18.63-10.11-32.06-25.7-42.15-44v23.77c11.43,13.62,25.1,25.86,41.91,32.2a1.78,1.78,0,0,0,1.35.12,2,2,0,0,0,.71-.69C1301.11,312.68,1302.84,309.94,1302,307.42Z" transform="translate(-1253.02 -135.03)"/><path class="cls-1" d="M1303.23,306.7c-2-3.88-6.81-5.44-10.29-7.65a93.38,93.38,0,0,1-14.8-11.69,121.93,121.93,0,0,1-21.39-28.56,1.45,1.45,0,0,0-2.69.73v16.25c0,2.25-.49,5.11,0,7.31.68,3.09,4.72,6.21,6.89,8.5,7.84,8.29,16.76,15.78,26.88,21.15,2.48,1.31,8.32,5.32,11.33,4.28,3.42-1.18,4.67-6.94,4.23-10-.27-1.83-3-1.05-2.78.77a6.44,6.44,0,0,1-1.4,5c-1.7,1.6-2.1,1.07-4.25.15s-4.3-2-6.39-3.1a89.69,89.69,0,0,1-12.47-8.24,116.26,116.26,0,0,1-10.28-9.16q-2.59-2.58-5-5.29c-.91-1-3.4-3-3.84-4s0-3.28,0-4.35V259.52l-2.69.73a127.18,127.18,0,0,0,19.68,27,100,100,0,0,0,11.8,10.33q3.43,2.56,7.08,4.8c2.65,1.62,6.47,2.9,7.92,5.78C1301.58,309.81,1304.07,308.35,1303.23,306.7Z" transform="translate(-1253.02 -135.03)"/><polygon class="cls-17" points="2.42 150.95 1.48 152.64 1.48 166.67 6.8 163.85 8.28 157.25 2.42 150.95"/><polygon class="cls-17" points="16.75 166.35 25.71 171.08 2.7 180.72 9.24 168.11 16.75 166.35"/><path class="cls-9" d="M1273.51,250.51l-5.22,4.67a4.64,4.64,0,0,0-1.16,1.34c-.59,1.21,0,2.63.53,3.85a17.26,17.26,0,0,0,2.18,3.82,4.31,4.31,0,0,0,1.42,1.2c1.47.7,3.21.07,4.7-.6a17.42,17.42,0,0,0,4.08-2.35,1.92,1.92,0,0,0,.76-1.06,2.08,2.08,0,0,0-.53-1.46l-6.13-8.86" transform="translate(-1253.02 -135.03)"/><path class="cls-1" d="M1272.7,249.69c-3,2.68-8.14,5.37-6.55,10,1,3.06,3.14,7.33,7,7.09,2.46-.16,8.2-2.41,8.79-5.14.33-1.54-1.09-3-1.87-4.12l-4.91-7.09c-.84-1.21-2.83-.06-2,1.16l4.29,6.21c.78,1.12,2,2.09,1.56,3.42s-1.68,1.63-2.75,2.14c-2,1-4,1.2-5.93-.49a8.1,8.1,0,0,1-1.65-3.11l.45-3.8,1.74-1.56,3.48-3.11c1.11-1-.53-2.61-1.63-1.63Z" transform="translate(-1253.02 -135.03)"/><path class="cls-1" d="M1282.61,240.44a2,2,0,0,0-2.51-1.38,2.19,2.19,0,0,0-1.24,2.89,2.06,2.06,0,0,0,3,1.17,2.47,2.47,0,0,0,.39-3.55,1.18,1.18,0,0,0-1.57-.41,1.16,1.16,0,0,0-.41,1.57c.07.1.25.47.29.5s.4-.07.41-.08.08,0,.06.05-.06-.22,0-.22-.18.23-.24.27-.27-.12-.08,0a.33.33,0,0,1-.16-.08q-.2-.43-.14-.14a1.16,1.16,0,0,0,1.42.8,1.18,1.18,0,0,0,.8-1.42Z" transform="translate(-1253.02 -135.03)"/><path class="cls-1" d="M1279.18,237.74c1.44.45,2.91.62,3.93,1.86a4.22,4.22,0,0,1,.49,4.48c-.61,1.34,1.37,2.51,2,1.16a6.67,6.67,0,0,0-.14-6.32c-1.31-2.18-3.36-2.69-5.65-3.4-1.42-.44-2,1.78-.61,2.22Z" transform="translate(-1253.02 -135.03)"/></g><g id="Layer_2" data-name="Layer 2"><path class="cls-18" d="M1654.36,187.77a3.08,3.08,0,0,1-1.35-.18c-1.55-.61-1.74-3.49-.08-3.61-1.23-1.75-4.32,2.13-5.79.58a2.28,2.28,0,0,1-.4-1.66l.14-6.63c-4.47,6-12.75,7.26-20.18,7.93s-15.45,1.57-20.39,7a167.64,167.64,0,0,0-12.22-11.87c-2.31-2-4.91-4.08-8-4.21-4-.18-7.59,3.27-8.57,7.18s.12,8.08,1.88,11.71,4.17,6.92,6,10.5a3.69,3.69,0,0,1,.58,2.13,3.91,3.91,0,0,1-1.51,2.18,215.21,215.21,0,0,0-28.69,31.47c-.36.48-.82,1-1.42,1a1.83,1.83,0,0,1-1-.47l-11.76-9c-2.36-1.81-5.09-3.73-8-3.26a7,7,0,0,0-3.69,2c-4.15,4-3.8,11.1-.71,16s8.23,8,13.27,10.84l.57.58c-5.88,8.4-5.35,19.79-2.38,29.6,1.71,5.63,4,12.21.51,16.94a11.41,11.41,0,0,1,5.09.07l-2,4.55,5.29.29-2.59,5c11.41-9.52,28.33-8,41.88-14.1,8.77-3.95,15.76-10.92,22.53-17.75l22-22.13c6.62-6.68,13.31-13.43,18.26-21.42a54.81,54.81,0,0,0,2.65-4.8Z" transform="translate(-1253.02 -135.03)"/><path class="cls-19" d="M1654.54,187.12l-1.43-2.48a.69.69,0,0,0,.16-1.24c-1.07-.82-1.34-.25-2.59-.21-1.57.05-2.59.68-3.25-1.11-.53-1.44.09-4.26.12-5.8a.69.69,0,0,0-1.16-.48c-6.76,8.17-17.88,7-27.33,8.66a26.37,26.37,0,0,0-10.38,3.81c-2.27,1.56-2.31,1.64-4.51-.3-2.36-2.07-4.47-4.47-6.79-6.6-4.88-4.48-11.54-10.29-17.67-4.23-5.73,5.67-2.65,14.27.76,20.25,1.18,2.06,3.24,4.42,4,6.7,1.21,3.78-2,5.61-4.34,7.86q-6.46,6.1-12.4,12.73-5,5.62-9.68,11.59c-.39.5-1.48,2-1.73,2.25-1.89,1.78-2,1.52-4,.56-2.61-1.27-5.06-3.89-7.35-5.65-5.15-4-11.93-9.09-16.82-1.78-3.74,5.59-1.63,13.07,2.51,17.78a29.51,29.51,0,0,0,4.8,4.27c1.39,1,6.62,3.6,6.55,4.73s-2.14,4-2.59,5.33a30,30,0,0,0-1.4,6.84,43.12,43.12,0,0,0,1.24,14.05c1.53,6.28,5.2,13.25,1.39,19.4-.35.56.22,1.07.77,1,5.33-.73,3.41,1.2,2.37,3.63a.69.69,0,0,0,.59,1l5.29.29-.59-1-2.59,5a.68.68,0,0,0,1.07.82c12.44-9.83,29.51-7.83,43.27-14.72,7.42-3.71,13.53-9.52,19.34-15.32,6.8-6.8,13.55-13.65,20.33-20.48,6.12-6.17,12.44-12.25,17.73-19.17,2.53-3.3,6.32-7.6,6.81-11.82.86-7.57,0-15.74,0-23.35V187.77a.68.68,0,0,0-1.36,0v43c0,3.91-1.17,5.73-3.51,9.29-5,7.61-11.51,14.06-17.89,20.49l-19.9,20.05c-6.36,6.41-12.75,13.12-20.74,17.51-14.18,7.8-32,5.42-45,15.72l1.07.82,2.59-5a.69.69,0,0,0-.59-1l-5.29-.29.59,1,2-4.55c.15-.36.07-.92-.41-1a17.09,17.09,0,0,0-5.45-.07l.77,1c3.77-6.08.83-12.67-.87-18.95-2.51-9.29-2.67-19.29,2.73-27.59a.69.69,0,0,0-.11-.82c-1.51-1.55-3.67-2.35-5.47-3.53-3.5-2.28-7-5.11-8.92-8.92-1.84-3.63-2.37-8.44-.23-12.08,1.9-3.23,6.85-4.09,9.91-2.28a41.67,41.67,0,0,1,3.95,2.88c2.94,2.25,5.8,4.65,8.82,6.78,1.67,1.18,2.06,2,3.84,1.34,2.11-.79,3.91-4.87,5.18-6.45Q1564,231,1567.5,227q7.06-8,14.87-15.27c4.63-4.31,5.19-5,2-10.54-3.81-6.5-11.78-19.38-1.67-24.54,7.76-4,18.56,10.17,23.16,15.06a.69.69,0,0,0,1,0c11-11,30.28-2.49,40.57-14.93l-1.16-.48c0,1.89-1.26,7.26.53,8.82s4.24-1.77,5.86-.53l.16-1.24c-3.21,1.25-1.27,4.74,1.43,5.1C1655,188.54,1655.4,187.23,1654.54,187.12Z" transform="translate(-1253.02 -135.03)"/><path class="cls-19" d="M1598.68,225a1.72,1.72,0,0,0,2.84-1.59.68.68,0,0,0-1.31.36c0,.13-.1.23-.22.29s-.27.07-.35,0c-.6-.64-1.56.32-1,1Z" transform="translate(-1253.02 -135.03)"/><path class="cls-19" d="M1601.7,260.26a22.54,22.54,0,0,1,3.5-3.06c.71-.5,0-1.68-.69-1.17a24.23,24.23,0,0,0-3.78,3.28c-.6.64.36,1.6,1,1Z" transform="translate(-1253.02 -135.03)"/><path class="cls-20" d="M1560.27,213.65a20.15,20.15,0,0,1-8.13-17.23c.24-3.81,1.52-7.92-.33-11.27a12.35,12.35,0,0,0-3.88-3.84c-1.66-1.18-3.48-2.34-5.52-2.42a7.87,7.87,0,0,0-5.88,2.77,12,12,0,0,0,4.77,19.48l.76-.29,1.15.91a14.92,14.92,0,0,1-12.94,2.87,24,24,0,0,1-11.65-7c-3.41-3.49-6.14-7.89-6.57-12.75-.72-8.11,5.12-15.52,12-19.82a26.06,26.06,0,0,1,10.74-4c10.31-1.15,19.94,6.26,25.14,15.23a18.39,18.39,0,0,1,2.93,9c0,6.71-5.74,12.46-5.58,19.17.08,3.15,1.46,6.1,2.82,8.93" transform="translate(-1253.02 -135.03)"/><path class="cls-19" d="M1560.75,213.17a20.09,20.09,0,0,1-7.36-10.88c-1.07-4.33.1-8.2.08-12.5,0-5.24-3.83-9.3-8.68-11-10.7-3.83-14.76,12.33-9.26,19.08,1.6,2,3.73,2.41,5.51,3.93.1.09.84,0,.82-.11.24,1.6-6,2.61-7,2.67-9.22.57-19.1-7.71-21.52-16.42-2.78-10,4.84-19.13,13.26-23.45,9-4.62,18.27-2.89,25.79,3.63a32.16,32.16,0,0,1,8.38,11.34c2.51,5.78.8,10.36-1.6,15.78-3,6.85-2.81,11.78.38,18.54.37.79,1.55.1,1.17-.69-2.5-5.29-3.39-9.7-1.2-15.23,1.25-3.15,3-6.17,3.71-9.52,1.22-5.9-1.69-11.49-5.17-16.07-7.32-9.64-19.11-15-30.67-9.68-10.8,5-20,16.88-14.12,28.88,5.22,10.64,19.59,19.13,30.29,10.92.31-.23.52-.76.14-1.07-1.82-1.45-.88-.52-2-1-2.73-1.21-5-2.51-6.53-5.46a11.52,11.52,0,0,1,1.85-12.67c4.19-4.46,11-1.56,13.68,3,3,5.12-.09,11.74,1.39,17.49a21.38,21.38,0,0,0,7.71,11.48c.68.54,1.65-.42,1-1Z" transform="translate(-1253.02 -135.03)"/><path class="cls-20" d="M1564,218.27a1.52,1.52,0,1,0,.25-.52" transform="translate(-1253.02 -135.03)"/><path class="cls-19" d="M1563.3,218.09a2.32,2.32,0,0,0,1.56,2.68,2.12,2.12,0,0,0,2.54-1.32,2.07,2.07,0,0,0-.88-2.64,2.3,2.3,0,0,0-2.79.47c-.56.67.4,1.63,1,1s1.74-.35,1.5.58a.81.81,0,0,1-1.58-.36c.18-.85-1.13-1.22-1.31-.36Z" transform="translate(-1253.02 -135.03)"/><path class="cls-19" d="M1547.51,243.18a48,48,0,0,0-4.48-2.55c-1.13-.56-2.69-1.57-4-1.62-1.91-.08-1.88,1.93-1.4,3.26.71,2,2.26,4.63,4.33,5.45,2.3.91,4.3-1.07,5.62-2.71.54-.68-.41-1.64-1-1-1.3,1.62-3.14,3.57-5.18,1.67a9.68,9.68,0,0,1-2.59-4.07c-.74-2.41,2.47-.35,3.47.15a48,48,0,0,1,4.48,2.55c.74.47,1.42-.7.69-1.17Z" transform="translate(-1253.02 -135.03)"/><path class="cls-19" d="M1591.11,197a38.35,38.35,0,0,1-4.56-11.91l-1,.77a13.18,13.18,0,0,1,4.79,3.51c1.74,2.09,3.93,7-.14,7.89-.85.19-.49,1.5.36,1.31,3-.65,3.84-3.72,3-6.37-1.12-3.43-4.1-6.08-7.3-7.52a.69.69,0,0,0-1,.77,39.46,39.46,0,0,0,4.69,12.23.68.68,0,0,0,1.17-.69Z" transform="translate(-1253.02 -135.03)"/><path class="cls-21" d="M1593.44,297.22c-7.22-7.82-8.32-19.52-9.18-30.13-.35-4.27-.59-8.67-2.4-12.56s-5.63-7.18-9.91-7a11.17,11.17,0,0,0-7.25,3.78c-3.86,4.07-5.58,9.79-5.83,15.4s.82,11.17,1.9,16.67l4.42,22.67s11.76-1.85,13.82-2.59S1594,297.84,1593.44,297.22Z" transform="translate(-1253.02 -135.03)"/><path class="cls-19" d="M1593.92,296.74c-8.42-9.71-7.93-22.56-9.43-34.57-.87-7-5.18-17.07-14.1-15.06-8.35,1.88-11.86,12.13-12.21,19.64-.3,6.31,1.09,12.58,2.29,18.74l4.05,20.78a.7.7,0,0,0,.84.47c5.37-.85,10.91-1.47,16-3.41,2.06-.78,12.56-3.5,12.75-6.12.06-.87-1.3-.87-1.36,0-.07,1-9.56,4-11,4.51a46.34,46.34,0,0,1-8.54,2.32,43.06,43.06,0,0,1-6.4,1.09c-.38,0-1.47.48-1.78.29.27.17-.33-5-.37-5.18-1.57-8.07-3.44-16.15-4.6-24.29s-1.13-17.88,5-24.12c4-4,9.66-4.76,13.78-.4,3.37,3.56,4,8.6,4.43,13.24,1.08,11.59,1.58,23.8,9.58,33C1593.53,298.37,1594.49,297.4,1593.92,296.74Z" transform="translate(-1253.02 -135.03)"/><path class="cls-21" d="M1654.36,206.82l-20.6-2.59a73.55,73.55,0,0,0-12.8-.86c-8,.4-15.66,3.4-22.66,7.28-2.35,1.3-4.73,2.79-6.1,5.1-1.77,3-1.53,6.81-.2,10s3.6,5.89,5.84,8.52c1.29,1.51,2.68,3.1,4.57,3.69a9.8,9.8,0,0,0,4.84-.11c7.8-1.6,15.25-4.66,23.05-6.26s16.4-1.58,23.17,2.61l.88-2.14Z" transform="translate(-1253.02 -135.03)"/><path class="cls-19" d="M1654.36,206.14c-13.55-1.7-28.51-5.62-42-2.08-8.4,2.21-23.26,7.12-22,18.09.57,4.91,3.81,9,7,12.6,3.63,4.12,6.67,4.55,11.87,3.36,14.33-3.27,29.67-11.41,43.91-3.32a.69.69,0,0,0,1-.41c1.64-4,.9-8.67.9-13v-14.6a.68.68,0,0,0-1.36,0v21.66a19.26,19.26,0,0,1,0,3.37,6.79,6.79,0,0,1-.74,1.89c.8-.32-3.35-2.17-3.54-2.24-6.17-2.19-13-1.85-19.27-.58-4.21.84-8.3,2.16-12.41,3.4s-12.22,4.7-16.3,2.42c-3.87-2.16-8-8.35-9.27-12.59-2-6.83,2.53-10.84,8-13.74,8.23-4.36,16.94-6.88,26.31-6.29s18.65,2.2,27.9,3.37C1655.22,207.61,1655.21,206.25,1654.36,206.14Z" transform="translate(-1253.02 -135.03)"/><path class="cls-22" d="M1590.33,249.74a2.8,2.8,0,0,0,3.48-4,1.42,1.42,0,0,0-1.55-.81,1.83,1.83,0,0,0-.71.56l-1.46,1.61a2.78,2.78,0,0,0-1,1.86c0,.72,1,1.32,1.49.78" transform="translate(-1253.02 -135.03)"/><path class="cls-19" d="M1590.15,250.4a3.52,3.52,0,0,0,4.42-1.9c.6-1.48.14-3.92-1.71-4.24-1-.18-1.66.62-2.28,1.31a8.14,8.14,0,0,0-2,2.65c-.48,1.54,1.15,3.17,2.54,2,.68-.55-.29-1.51-1-1a.42.42,0,0,1-.3-.23,1.17,1.17,0,0,1,.24-.85,8.13,8.13,0,0,1,1-1.13,7,7,0,0,1,1-1.07q.31-.5,1-.19a1.54,1.54,0,0,1,.38.62,2.15,2.15,0,0,1-2.86,2.66c-.83-.29-1.18,1-.36,1.31Z" transform="translate(-1253.02 -135.03)"/><path class="cls-18" d="M1654.36,276.72c-3.78-4.24-8.12-8.14-11.38-13.12a35.54,35.54,0,0,0,11.38-3.93V242.13l-.31-.07c-2.57-.62-5.76.68-5.1,3.88.33,1.6,2.26,2.23,1.95,3.83-2.21,5.46-8.29,6.46-13.42,6.5-10.18,11-21.66,20.65-31.2,32.25.31-.38.75,2.28.74,2.42a11.09,11.09,0,0,1-.86,3.38,52.58,52.58,0,0,1-4.89,9.6,9.22,9.22,0,0,0-1.44,2.85,4.29,4.29,0,0,0,.94,3.72,6.6,6.6,0,0,0,3,1.76,5.81,5.81,0,0,0,2.94.33,7.24,7.24,0,0,0,3.17-1.93,49,49,0,0,0,5.64-5.51,16.39,16.39,0,0,0,3.57-7c3.11,3.41,30,22.07,32.08,22.82a17.39,17.39,0,0,1,3.22,1.66Z" transform="translate(-1253.02 -135.03)"/><path class="cls-19" d="M1654.84,276.24c-1.38-1.51-11-10.33-10.26-11.9.45-.95,3.89-1.37,5.11-1.8a33.43,33.43,0,0,0,5-2.28.68.68,0,0,0,.34-.59V242.13a.69.69,0,0,0-.5-.66c-2.55-.61-5.94.16-6.33,3.2s3.24,4.71.12,7.72a11.44,11.44,0,0,1-5.56,2.67c-1.52.35-3.88-.06-5.28.51-2,.82-3.91,3.81-5.45,5.38-2.94,3-6,5.89-8.94,8.82A249.34,249.34,0,0,0,1605.8,288a.69.69,0,0,0,.14,1.07c3.27,1.55-5.26,13.88-6.17,16-1.3,3-.42,5.85,2.62,7.34,7.59,3.7,15.62-7.91,17.32-14.08l-1.14.3c4.83,5,11.35,8.85,17,12.82,6,4.23,12.11,8.07,18.43,11.77a.69.69,0,0,0,1-.59V276.72a.68.68,0,0,0-1.36,0v45.94l1-.59c-6-3.51-11.81-7.13-17.55-11.15s-12.62-8.07-17.61-13.23a.69.69,0,0,0-1.14.3,22.12,22.12,0,0,1-7.84,11.12c-6.37,5.11-10.53.95-7.74-6.4.62-1.63,1.79-3.17,2.53-4.77,1-2.22,2.47-4.9,2.32-7.37,0-.67-.92-2.2-.84-2.57,0-.18,3.1-2.73,3.45-3.12,1.39-1.57,2.82-3.1,4.27-4.62,2.68-2.81,5.44-5.55,8.22-8.28,3-2.93,6-5.84,9-8.81s4.95-5.9,9.4-6.47c3.71-.48,8.65-2.06,10.07-6,.56-1.56-.36-1.93-.45-3.2,0,0,2.5-6.17,2.93-5.1.13.33-.06,1,0,1.31.72,3.8,0,8.38,0,12.25,0,.89.39,2.87,0,3.64s-4,1.52-5.08,1.88a48.5,48.5,0,0,1-5.81,1.46.68.68,0,0,0-.41,1c3.35,4.85,7.54,8.91,11.49,13.26C1654.47,277.85,1655.42,276.89,1654.84,276.24Z" transform="translate(-1253.02 -135.03)"/><path class="cls-21" d="M1654.36,294.69a54.12,54.12,0,0,0-6-9.56c-3-3.47-6.86-6.74-11.44-6.86a3.69,3.69,0,0,0-2.73.82,3.82,3.82,0,0,0-.91,2.5c-.31,4.39,1.74,8.59,4.07,12.33,3.78,6.06,13,12.54,17,14.1Z" transform="translate(-1253.02 -135.03)"/><path class="cls-19" d="M1654.94,294.35c-3.13-5.91-6.93-12.69-13.33-15.6-3.66-1.67-8.21-2-9,2.76-1.83,11.37,12.26,23.2,21.38,27.1a.69.69,0,0,0,1-.59V294.69a.68.68,0,0,0-1.36,0V308l1-.59c-7.17-3.07-14.33-9.12-18-16a25.87,25.87,0,0,1-2-4.38c-.84-2.69-1-3.55.71-5.95,1.86-2.68,2.72-2.3,5.53-1.06a16.8,16.8,0,0,1,4.21,2.8c3.8,3.3,6.26,7.81,8.58,12.19C1654.18,295.81,1655.35,295.12,1654.94,294.35Z" transform="translate(-1253.02 -135.03)"/><path class="cls-19" d="M1570.55,260.22a3.57,3.57,0,0,0-.56,2,.69.69,0,0,0,.68.68,1.67,1.67,0,1,0-.38-3.26.67.67,0,0,0-.47.47,1.85,1.85,0,0,0,.3,1.8,1.17,1.17,0,0,0,1.6.08,1.2,1.2,0,0,0,.09-1.54,1.53,1.53,0,0,0-1.4-.64,1.75,1.75,0,0,0-1.59,2.24,1.83,1.83,0,0,0,2.63.9c.73-.48,0-1.65-.69-1.17-.27.18-.87-.06-.61-.42a.6.6,0,0,1,.42-.2l.1,0q.15.27.42-.24a4.71,4.71,0,0,0,0-.48l-.47.47c.49-.12.57.61,0,.59l.68.68a2.25,2.25,0,0,1,.37-1.27c.47-.74-.71-1.42-1.17-.69Z" transform="translate(-1253.02 -135.03)"/><path class="cls-19" d="M1604.69,220a1.26,1.26,0,0,0-1.17,1.73,1.29,1.29,0,0,0,2.1.25,1.38,1.38,0,0,0-.7-2.18,1.32,1.32,0,0,0-1.65,1,1.49,1.49,0,0,0,.82,1.76,1.41,1.41,0,0,0,1.77-.88,1.49,1.49,0,0,0-.64-1.94,1.63,1.63,0,0,0-2.05.77,1.49,1.49,0,0,0,.92,2.17,1.77,1.77,0,0,0,2.12-1.09c.31-.82-1-1.17-1.31-.36-.09.23-.59.2-.58,0a.37.37,0,0,1,.34-.28c-.09,0,0-.08,0,.06a.51.51,0,0,0,0,.14c0,.36-.1-.08,0,.17,0,0,0-.2,0-.25,0,.11.07-.32,0,0h0s0,0,0,.06c0-.11,0-.11,0-.1s.23.3,0,.29c.87.06.87-1.3,0-1.36Z" transform="translate(-1253.02 -135.03)"/><path class="cls-21" d="M1332,404.35c-1.85-4.26-4.4-9.1-8.42-9.34-2.09-.13-4.06,1.08-5.87,2.31-2.95,2-5.91,4.24-7.8,7.59s-2.41,8.12-.39,11.36" transform="translate(-1253.02 -135.03)"/><path class="cls-1" d="M1333.7,403.36c-1.55-3.47-3.48-7.68-7.08-9.49s-7.33,0-10.46,2.13c-7,4.8-12.72,12.72-8.34,21.27,1.16,2.25,4.55.27,3.4-2-3.32-6.48,1.9-12.39,6.93-15.88,2.67-1.85,5.55-3.39,8.28-.73,1.78,1.73,2.88,4.45,3.87,6.68s4.42.31,3.4-2Z" transform="translate(-1253.02 -135.03)"/><path class="cls-21" d="M1426.08,455.67c-3.19-3.06-7.77-2.95-11.43-.88s-6.55,5.79-9.14,9.65c-4.17,6.19-7.85,13-12.71,18.31-8.83,9.7-20.61,13.68-32,17.23L1286,467.71a158,158,0,0,1-6.13-39.85c-.08-3.14-.27-6.79-2.31-8.59a5,5,0,0,0-4.54-.81c-5.66,1.31-10.09,7.32-12.19,14.08-3.75,12-1.11,25.85,3.44,37.44s10.93,22,15.24,33.71l-1.86.2a243.34,243.34,0,0,1-10.93,31h83.9a17.72,17.72,0,0,1,1.87-2.73c2.9-3.42,6.89-4.85,10.7-6.24q14.57-5.33,28.8-12a88.35,88.35,0,0,0,13.78-7.67c8.47-6,15.63-14.91,20.54-25.48a35.23,35.23,0,0,0,3.63-12.81C1430.22,463.33,1429,458.44,1426.08,455.67Z" transform="translate(-1253.02 -135.03)"/><path class="cls-1" d="M1427.08,454.67c-11.13-9-20.84,5.9-26.08,14.14-4.59,7.22-9.24,14.25-16.36,19.23-6.21,4.34-13.31,7.06-20.47,9.39-2.76.9-2.22,1.5-4.63.46l-6.62-2.85-21.08-9.09-42-18.13c-.73-.32-2.5-.69-3-1.31a30.2,30.2,0,0,1-.59-3.55q-.8-3.09-1.47-6.21-1.5-7-2.35-14.13-.71-6-1-12c-.13-3,.08-6.29-.92-9.2-1.51-4.41-5.5-5.36-9.59-3.75-13.05,5.14-14.31,24.27-12.56,35.85,2.74,18.25,13.44,33.54,19.84,50.51l1.36-1.79-1.86.2a1.47,1.47,0,0,0-1.36,1,254.37,254.37,0,0,1-10.79,30.62,1.43,1.43,0,0,0,1.22,2.12h75.93c2.24,0,5.56.64,7.72,0s2.56-2.75,4.25-4.33c4.91-4.6,13.07-6.16,19.19-8.62,10.56-4.25,21.69-8.56,31.2-14.9a64.8,64.8,0,0,0,21.8-25.5c4.25-8.66,7.49-20.22.23-28.25-1.22-1.35-3.21.65-2,2,8.55,9.46.25,24.66-5.58,33.3-6.37,9.43-14.91,16.16-25.06,21.17-10.74,5.3-21.87,9.6-33,13.92-3.43,1.33-7.66,2.93-9.89,6.08-1.24,1.76-.36,1.85-1.84,2.31-2.36.73-6.15,0-8.6,0h-74.33l1.22,2.12a260,260,0,0,0,11.08-31.3l-1.36,1,1.86-.2c.82-.09,1.72-.84,1.36-1.79-5.17-13.69-13.27-26.18-17.51-40.23a59.05,59.05,0,0,1-2.74-22.11c.63-7.11,3.65-18.42,11.58-20.81,6.54-2,6.17,5.79,6.32,9.54s.4,7.39.8,11.07a159.94,159.94,0,0,0,3.9,22c1.55,6.15,1.78,6,6.87,8.17l39.4,17,20.08,8.66c3.18,1.37,6.87,3.74,10.28,4.43s8.43-2,11.71-3.27a62.58,62.58,0,0,0,17.34-9.51c5.89-4.78,10-11,14-17.34s12.67-22,22.12-14.31C1426.48,457.8,1428.49,455.82,1427.08,454.67Z" transform="translate(-1253.02 -135.03)"/><path class="cls-21" d="M1306.26,485.67c-10.77-8.34-18.37-21.29-19.22-35.11s5.54-28.18,17-35.54c8.21-5.28,18.16-6.76,27.82-7.56,6.34-.52,12.76-.8,19,.26,14.5,2.45,27.44,12.23,34.92,25.22s9.62,28.89,6.9,43.72c-1.24,6.73-3.64,13.59-8.67,18.09a26.85,26.85,0,0,1-8.93,5c-11.34,4.08-23.89,3.37-35.51.21s-22.48-8.64-33.26-14.08" transform="translate(-1253.02 -135.03)"/><path class="cls-1" d="M1307.3,484.63c-14.7-11.74-23.07-31.33-16.62-49.76a35.72,35.72,0,0,1,18.57-21c9.73-4.47,21.53-5.38,32.12-5.36,19.85,0,37.13,11.68,45.44,29.65a63.44,63.44,0,0,1,5.35,31.06c-.77,10.62-3.61,22.41-13.88,27.63-23.25,11.83-50.34-1.63-71.23-12.18-1.69-.85-3.18,1.69-1.49,2.54,21.13,10.67,45.92,22.69,69.91,14,21.37-7.72,22.61-36,17.45-54.83-5.38-19.59-21.15-36.55-41.66-40.06-11.66-2-25.4-.82-36.76,2.49-9.54,2.78-17.56,8.41-22.77,16.94-12.6,20.65-4.6,46.55,13.48,61,1.47,1.17,3.57-.9,2.08-2.08Z" transform="translate(-1253.02 -135.03)"/><path class="cls-1" d="M1289.9,467c4.73,16.55,24,23.6,38.27,29.68,17.49,7.43,37.69,11.94,55.12,1.87a1.47,1.47,0,0,0-1.49-2.54c-16.61,9.59-35.88,5-52.49-2-13.32-5.65-32.16-12.33-36.57-27.76a1.47,1.47,0,0,0-2.84.78Z" transform="translate(-1253.02 -135.03)"/><path class="cls-1" d="M1333.86,429.75a1.47,1.47,0,0,0,0-2.95,1.47,1.47,0,0,0,0,2.95Z" transform="translate(-1253.02 -135.03)"/><path class="cls-1" d="M1361.5,442.69a1.47,1.47,0,0,0,0-2.95,1.47,1.47,0,0,0,0,2.95Z" transform="translate(-1253.02 -135.03)"/><path class="cls-1" d="M1327.54,448.5a6.42,6.42,0,0,0,4,8c5.06,1.85,9.55-1.9,13-5.15l-2.52-1c0,4.32.4,9.49,4.35,12.17a6.35,6.35,0,0,0,8.85-1.38c1.15-1.48-.92-3.58-2.08-2.08l-5.84.42a7.15,7.15,0,0,1-1.95-4.27,21.83,21.83,0,0,1-.38-4.85,1.49,1.49,0,0,0-2.52-1c-1.51,1.43-3,3-4.93,3.81-2.19.91-8.89,2.42-7.12-3.83a1.47,1.47,0,0,0-2.84-.78Z" transform="translate(-1253.02 -135.03)"/><path class="cls-21" d="M1386.72,433.29c1.39-1.26,3.53-1,5.28-.4,3.73,1.35,7,4.5,7.74,8.49s-1.85,8.57-5.76,9.19" transform="translate(-1253.02 -135.03)"/><path class="cls-1" d="M1387.46,434.56c3.44-2.33,8.45,1.77,10,4.74,2,3.72.42,8.81-3.89,9.85-1.84.44-1.06,3.29.78,2.84,5.78-1.39,8.33-8,6.08-13.28-2.07-4.84-9.33-10.18-14.47-6.7-1.56,1.06-.09,3.61,1.49,2.54Z" transform="translate(-1253.02 -135.03)"/><path class="cls-23" d="M1343,442.22a4.46,4.46,0,0,0,4.32,7.74,4.38,4.38,0,1,0-4.54-7.36" transform="translate(-1253.02 -135.03)"/><path class="cls-1" d="M1341.91,441.16a6.08,6.08,0,0,0-.79,8.62,6,6,0,0,0,8.62.26,5.8,5.8,0,0,0-.14-8.3,6.19,6.19,0,0,0-7.92-.2c-1.52,1.18.61,3.29,2.12,2.12,2.63-2,6.18,1.69,3.81,4.26a3,3,0,0,1-4.38-.26,3.15,3.15,0,0,1,.79-4.38c1.5-1.22-.64-3.33-2.12-2.12Z" transform="translate(-1253.02 -135.03)"/><rect class="cls-24" x="2.48" y="0.47" width="400" height="400"/><path class="cls-25" d="M1499.46,242.72a3.6,3.6,0,0,0-.29-2.55,3.39,3.39,0,0,0-1.88-1.57,2.15,2.15,0,0,0-2.64,1.5,2.21,2.21,0,0,0,1.5,2.64q-1-.67-.55-.29a1,1,0,0,1-.3-.51q.09.34,0-.18,0,.35,0-.18a2.14,2.14,0,1,0,4.13,1.14Z" transform="translate(-1253.02 -135.03)"/><path class="cls-25" d="M1474.74,224.55a22.2,22.2,0,0,1,9.61-4.72c2.61-.57,1.5-4.56-1.1-4a26.65,26.65,0,0,0-11.44,5.79c-2.05,1.71.89,4.63,2.93,2.93Z" transform="translate(-1253.02 -135.03)"/><path class="cls-25" d="M1373.47,224.84a80.05,80.05,0,0,1,29.6-16.64c2.55-.77,1.46-4.77-1.1-4a85,85,0,0,0-31.43,17.71c-2,1.76.93,4.68,2.93,2.93Z" transform="translate(-1253.02 -135.03)"/><path class="cls-25" d="M1383.83,218.32a92.53,92.53,0,0,1,2.5,20.37c0,2.67,4.18,2.67,4.15,0a97.66,97.66,0,0,0-2.64-21.47c-.62-2.59-4.62-1.5-4,1.1Z" transform="translate(-1253.02 -135.03)"/><path class="cls-25" d="M1380.06,246.37a45.54,45.54,0,0,1,15.07-3.56c2.65-.16,2.67-4.31,0-4.15a51.54,51.54,0,0,0-17.16,4.13c-2.45,1-.34,4.61,2.09,3.58Z" transform="translate(-1253.02 -135.03)"/><path class="cls-25" d="M1396.87,227.59a70.94,70.94,0,0,1,1.21,13.93c0,2.26,3.72,2.92,4.07.55.58-3.84,1.11-8.26,3.31-11.57.21-.32,1.43-2.09,1.95-2.08.69,0,.87,1.5,1.07,2.17a27.71,27.71,0,0,1,1.11,8.21c0,2.67,4.14,2.67,4.15,0,0-3.92-.73-17.28-7.66-14.36-5.89,2.48-7.11,11.1-7.93,16.53l4.07.55a76.65,76.65,0,0,0-1.36-15c-.5-2.62-4.49-1.51-4,1.1Z" transform="translate(-1253.02 -135.03)"/><path class="cls-25" d="M1436.82,223c-6.15-10.17-18,1.56-17.77,9.87.13,4.06,3.42,7.45,7.61,6.38,5-1.29,6.61-7.17,7.73-11.55.66-2.59-3.33-3.69-4-1.1s-1.19,5.5-3,7.45c-2,2.22-4.39,1-4.24-2,.2-3.9,6.52-12.75,10-7,1.38,2.28,5,.2,3.58-2.09Z" transform="translate(-1253.02 -135.03)"/><path class="cls-25" d="M1433.55,205.31a149.71,149.71,0,0,0-.84,29.54c.19,2.65,4.33,2.67,4.15,0a149.71,149.71,0,0,1,.84-29.54c.34-2.64-3.81-2.61-4.15,0Z" transform="translate(-1253.02 -135.03)"/><path class="cls-25" d="M1440.44,222.4c0,4.13-.56,8.23-.71,12.36-.12,3.15.52,4.75,3.73,5.45,8.61,1.89,10.95-15.46,12.11-21l-4.07-.55a51.28,51.28,0,0,0,1.89,17.78c.74,2.56,4.74,1.47,4-1.1a47.85,47.85,0,0,1-1.74-16.68c.16-2.32-3.59-2.84-4.07-.55-.68,3.21-1.35,6.43-2.31,9.57-.3,1-3.58,10.68-5.74,8.14.16.19.36-1.16.4-2.07.06-1.26.16-2.51.25-3.77.18-2.53.39-5.07.41-7.61s-4.12-2.67-4.15,0Z" transform="translate(-1253.02 -135.03)"/><path class="cls-25" d="M1471.06,223.89c-.16-2.86-3.14-4.54-5.42-2.4-2.56,2.39-3.87,7.5-3.54,10.87.27,2.84,1.83,6.21,5,6.69a5.2,5.2,0,0,0,5.76-4.5c.42-2.61-3.57-3.73-4-1.1-.57,3.48-2.58-.32-2.64-1.89a10,10,0,0,1,.5-3.17,14.88,14.88,0,0,1,.9-2.22q1.14-1.28-.68-2.27c.15,2.65,4.3,2.67,4.15,0Z" transform="translate(-1253.02 -135.03)"/><path class="cls-25" d="M1479.42,207.75a180.82,180.82,0,0,0-2.43,30.93c0,2.67,4.17,2.67,4.15,0a174.24,174.24,0,0,1,2.29-29.83c.43-2.61-3.56-3.73-4-1.1Z" transform="translate(-1253.02 -135.03)"/><path class="cls-25" d="M1487.92,221.84,1485,238.19c-.46,2.61,3.54,3.73,4,1.1l2.88-16.34c.46-2.61-3.54-3.73-4-1.1Z" transform="translate(-1253.02 -135.03)"/><path class="cls-25" d="M1494.06,224l1,23.92c.08,1.88,3,3,3.86,1l8.4-18.37c1.1-2.41-2.47-4.52-3.58-2.09l-8.4,18.37,3.86,1-1-23.92c-.11-2.66-4.25-2.67-4.15,0Z" transform="translate(-1253.02 -135.03)"/><path class="cls-25" d="M1509.06,239.79c2.85,4.53,9.11,6.68,13.38,2.57,3.6-3.46,3.25-11.31-3-11-6.13.31-8,8.14-6.25,12.91,2.4,6.59,9.24,8.54,15.39,6,2.44-1,1.37-5-1.1-4-2.78,1.14-5.89,1.71-8.35-.44a7.34,7.34,0,0,1-2.23-7.49c.35-1.05,1.65-3.3,3.18-2.85,1.75.51.26,3.17-.52,3.89-2.35,2.17-5.44.55-6.87-1.73s-5-.17-3.58,2.09Z" transform="translate(-1253.02 -135.03)"/><path class="cls-26" d="M1438.35,268.73c2.35-3.77,16.87-21.71,5-22.62-1.82-.14-3.08,2.61-1.57,3.8a57.6,57.6,0,0,1,15.76,19.31l.8-3c-5.14,3-11-4.11-14.19-7.21s-6.29-6.31-9.27-9.62c-1.92-2.14-5.06,1-3.15,3.15,4.72,5.25,9.68,10.7,15.28,15,4.1,3.18,8.76,5.26,13.58,2.49a2.27,2.27,0,0,0,.8-3,60.66,60.66,0,0,0-16.46-20.21l-1.57,3.8c1,.07-3.52,7.37-3.83,7.86l-5,8.06c-1.52,2.44,2.33,4.68,3.85,2.25Z" transform="translate(-1253.02 -135.03)"/><path class="cls-27" d="M1471.84,303.72a14.9,14.9,0,0,1,8.25-1.21c2.8.41,4-3.89,1.18-4.29a20.37,20.37,0,0,0-11.69,1.66c-2.61,1.18-.35,5,2.25,3.85Z" transform="translate(-1253.02 -135.03)"/><path class="cls-27" d="M1497.66,291.54c.64-1.59-.91-3.14-2.44-3.11a2.57,2.57,0,0,0-1.82.77,2.46,2.46,0,0,0-.33,2.88,2.22,2.22,0,0,0,1.33,1,2.28,2.28,0,0,0,1.72-.22,2.25,2.25,0,0,0,1-1.33,2.62,2.62,0,0,0-.22-1.72l0-.07.3,1.12-.07.48-.57,1a1.84,1.84,0,0,1-2.6,0l-.57-1,0-1a2.23,2.23,0,0,0,1.56,2.74,2.29,2.29,0,0,0,2.74-1.56Z" transform="translate(-1253.02 -135.03)"/><path class="cls-27" d="M1374.9,284l.76,32.56c0,1.79,2.5,3.12,3.8,1.57l1.26-1.49c1.84-2.17-1.29-5.34-3.15-3.15l-1.26,1.49,3.8,1.57-.76-32.56c-.07-2.86-4.52-2.87-4.45,0Z" transform="translate(-1253.02 -135.03)"/><path class="cls-27" d="M1379.87,286.24l4-3.33a5.06,5.06,0,0,1,2.78,2.32,10.32,10.32,0,0,1,1.62,4.3,28.74,28.74,0,0,1-.15,9,36.13,36.13,0,0,1-1.75,7.52c-.34.94-4.24,6.91-4.24,6.92-.76-2.76-5.06-1.59-4.29,1.18,1.4,5.11,6.31,3.69,8.94.48,4.68-5.73,6.15-14.21,6.21-21.4.05-5.53-1.58-12.18-7.36-14.33-5.3-2-10,2.13-10.23,7.39-.14,2.86,4.31,2.86,4.45,0Z" transform="translate(-1253.02 -135.03)"/><path class="cls-27" d="M1392.46,311c5.67-1.94,13.78-2,14.16-9.93.32-6.65-7.52-7.8-11.13-3.2-3.31,4.22-5.6,13.65-.57,17.43,3.94,3,12,3.72,14.47-1.46,1.21-2.58-2.63-4.84-3.85-2.25s-5.58,1.62-7.49.36c-2.79-1.84-1.24-6.44-.25-9.06a7.49,7.49,0,0,1,1.49-2.68c.67-.64,2.26-1.16,2.84,0s-.69,2.92-1.35,3.56c-2.25,2.16-6.65,2-9.51,3-2.7.92-1.54,5.23,1.18,4.29Z" transform="translate(-1253.02 -135.03)"/><path class="cls-27" d="M1430,300.68c-4.55-2.5-10-4.08-14.82-1.42a9.88,9.88,0,0,0-5,11.21c1.12,4.14,5,6.8,9.26,5.5,5.22-1.59,7.16-7.23,8.53-11.94.8-2.76-3.49-3.94-4.29-1.18-.74,2.55-1.43,5.51-3.37,7.46-2.45,2.47-5.7,1.61-6-2a5.59,5.59,0,0,1,4-5.62c3.24-1.16,6.57.26,9.4,1.81,2.51,1.38,4.76-2.47,2.25-3.85Z" transform="translate(-1253.02 -135.03)"/><path class="cls-27" d="M1427.15,284a193.5,193.5,0,0,0-1.33,23.81c0,4.08-.6,9.22,3.84,11,2.65,1.09,3.8-3.22,1.18-4.29-1.67-.68-.53-12.78-.48-14.39.18-5.41.62-10.8,1.24-16.17.33-2.84-4.13-2.82-4.45,0Z" transform="translate(-1253.02 -135.03)"/><path class="cls-27" d="M1435.35,301.51c1.53,2.94-.15,6.68,1,9.84.83,2.19,2.68,4,5.18,3.81s4.12-2.27,5.13-4.34c1.72-3.52,2.72-7.54,4-11.24l-4.37-.59.17,10.76c0,2.4-.46,5.12,1.16,7.07a2.28,2.28,0,0,0,2.7.35,2.42,2.42,0,0,0,1.4-1.81,2.31,2.31,0,0,0-1-2.51l-.2-.14c-2.35-1.65-4.58,2.21-2.25,3.85l.2.14-1-2.51.65-.86,2.7.35s.15-3.21.15-3.28l-.06-3.8-.12-7.6a2.24,2.24,0,0,0-4.37-.59l-2.35,6.83c-.4,1.16-1.46,6.16-3.4,4.86-1.11-.75-.27-4.83-.28-5.91a10.37,10.37,0,0,0-1.18-4.91c-1.32-2.54-5.17-.29-3.85,2.25Z" transform="translate(-1253.02 -135.03)"/><path class="cls-27" d="M1462.67,299.05a4.16,4.16,0,0,0-7-1.71,14.45,14.45,0,0,0-4,11.06c1,8.12,10.36,11.7,16.16,5.75,2-2.05-1.14-5.21-3.15-3.15-2.52,2.59-6.38,2.24-8-1.12a6.46,6.46,0,0,1-.35-4.61c.31-1.08,2.43-3.87,2-5,1,2.68,5.26,1.53,4.29-1.18Z" transform="translate(-1253.02 -135.03)"/><path class="cls-27" d="M1474.24,291a263.33,263.33,0,0,0-1.5,26.36c0,2.87,4.43,2.87,4.45,0a263.33,263.33,0,0,1,1.5-26.36c.31-2.85-4.15-2.82-4.45,0Z" transform="translate(-1253.02 -135.03)"/><path class="cls-27" d="M1486.54,304.21a95,95,0,0,1-2.51,18c-.66,2.79,3.63,4,4.29,1.18a101.36,101.36,0,0,0,2.67-19.14c.13-2.87-4.33-2.86-4.45,0Z" transform="translate(-1253.02 -135.03)"/><path class="cls-27" d="M1497.16,310.07a28.85,28.85,0,0,0,2.06,14.64c.72,1.73,3,2.28,4.07.53a47.66,47.66,0,0,0,7-19.54c.38-2.83-4.08-2.8-4.45,0a42.53,42.53,0,0,1-6.35,17.3l4.07.53a26.21,26.21,0,0,1-1.9-13.46c.32-2.84-4.13-2.82-4.45,0Z" transform="translate(-1253.02 -135.03)"/><path class="cls-27" d="M1512.37,316.88c4.35,3.51,11.62,5.42,14.68-.85,2.23-4.57-2.34-11.58-7.53-8.38-2.39,1.47-3.64,4.6-4.61,7.08s-2.63,6.5-.8,9c3.54,4.91,12,3.53,16.2.52,2.3-1.66.08-5.53-2.25-3.85a9.37,9.37,0,0,1-7.77,1.86c-1.13-.27-2.17-.5-2.5-1.76-.25-1,.85-3.23,1.2-4.13.28-.72,3.23-7.68,4.23-3.76.45,1.75-1.38,3.07-2.87,3.19-1.8.15-3.52-1-4.84-2.1-2.21-1.78-5.38,1.35-3.15,3.15Z" transform="translate(-1253.02 -135.03)"/><path class="cls-28" d="M1371,344.84q-.05,29,.86,58.06h5.85q-1.32-17.56-1.63-35.17c-.1-5.56-.52-11.33.07-16.87.48-4.56,2.77-6.91,7-8.27l-3.6-2c2.81,11.09-1.43,22-6,31.91a3.08,3.08,0,0,0,.46,3.54c5.18,6,8.4,13.42,10.56,21,1,3.61,6.67,2.08,5.64-1.55-2.45-8.58-6.2-16.77-12.06-23.57l.46,3.54c5.31-11.42,9.86-23.69,6.64-36.42a3,3,0,0,0-3.6-2c-4,1.3-7.71,3.38-9.62,7.32-2.65,5.48-1.84,12.35-1.79,18.26q.17,20.2,1.7,40.36c.28,3.71,6,3.8,5.85,0q-.91-29-.86-58.06c0-3.76-5.84-3.77-5.85,0Z" transform="translate(-1253.02 -135.03)"/><path class="cls-28" d="M1394.71,378.69c4.84-4.44,7.88-13.36,6.38-19.82-.69-3-3.29-5.33-6.47-4.41-3.33,1-4.62,4.64-5.16,7.71a65.69,65.69,0,0,0-.84,12.3c.07,4,.61,8.34,2.85,11.73,1.59,2.4,4.22,4.08,7.15,3.16,3.37-1.07,4.72-4.6,5.08-7.79.42-3.73-5.43-3.7-5.85,0,0,.44-.34,2.11-1,2.21.45-.07,0,.05-.33-.53a15,15,0,0,1-1.88-5.8,55.06,55.06,0,0,1,.33-12.72,18.25,18.25,0,0,1,.48-2.69c.26-.93,1.14-1.77.33-2.13s-.26,1.42-.28,2.14a20,20,0,0,1-.28,2.74c-.6,3.59-1.92,7.26-4.65,9.76s1.36,6.67,4.13,4.13Z" transform="translate(-1253.02 -135.03)"/><path class="cls-28" d="M1425.72,351c-2.1-4-6.28-6.88-10.87-5.27s-6.59,6.6-7.19,11-.17,9.61,2.07,13.7c1.1,2,3,3.26,4.23,5.11a4.45,4.45,0,0,1,.6,3.77c-.56,2-1.51,1.9-3.26,1.18-3.48-1.43-5,4.22-1.55,5.64,5.28,2.17,9.86-1.06,10.7-6.51a10.13,10.13,0,0,0-1.46-7.06c-1.11-1.7-2.81-2.88-3.91-4.55-2.17-3.32-2.28-8.38-1.34-12.11.41-1.62,1.18-4,2.93-4.65,1.93-.72,3.23,1.23,4,2.69,1.76,3.33,6.8.38,5-3Z" transform="translate(-1253.02 -135.03)"/><path class="cls-28" d="M1447.25,353.76c-4.42-5.12-11.64-6-16-.25a21.05,21.05,0,0,0-2.6,19c1.82,4.72,7,9.45,12.1,5.95,5.42-3.72,5.59-12.65,5.61-18.48,0-3.76-5.84-3.77-5.85,0,0,3.92,0,8.43-1.84,12-1.71,3.36-3.74.8-4.64-1.75-2-5.57,1.74-20.91,9.07-12.4,2.46,2.85,6.58-1.3,4.13-4.13Z" transform="translate(-1253.02 -135.03)"/><path class="cls-28" d="M1443.5,357.58c3.52.52,4.68,6.23,5.17,9.08.88,5.17.49,10.53.19,15.74-.19,3.24,5.2,4.05,5.74.78.75-4.56,1.6-9.1,2.57-13.61q.72-3.34,1.53-6.66c.25-1,.48-2.07.82-3.08.15-.45,1.21-2.07,1.13-2.42q-2.77-1.36-1.83.3l.18.77a38,38,0,0,1,.56,3.91q.46,3.61.86,7.22.79,7.26,1.33,14.55c.28,3.73,6.13,3.76,5.85,0q-.74-9.88-1.93-19.71c-.46-3.73-.25-12.59-5.8-12.7-5-.1-6.29,7.47-7.14,11-1.48,6.24-2.72,12.53-3.76,18.86l5.74.78c.38-6.58.82-13.46-1-19.89-1.17-4.22-3.78-9.85-8.67-10.57-3.68-.54-5.27,5.09-1.55,5.64Z" transform="translate(-1253.02 -135.03)"/><path class="cls-28" d="M1470.54,355v25.36c0,3.76,5.85,3.77,5.85,0V355c0-3.76-5.85-3.77-5.85,0Z" transform="translate(-1253.02 -135.03)"/><path class="cls-28" d="M1475,337.24" transform="translate(-1253.02 -135.03)"/><path class="cls-28" d="M1478,352.46l2,25c.24,3.05,5.11,4.24,5.74.78a73.91,73.91,0,0,1,2.52-10.82c.56-1.64,2.53-7,5.06-6.29,2.12.59,2.55,5.39,2.7,7a48.61,48.61,0,0,1-.23,9.6c-.4,3.74,5.45,3.71,5.85,0,.69-6.52,1.55-20.47-7.21-22.38-4.25-.93-7.91,2.5-9.83,5.9-2.64,4.66-3.53,10.19-4.49,15.39l5.74.78-2-25c-.29-3.73-6.14-3.76-5.85,0Z" transform="translate(-1253.02 -135.03)"/><path class="cls-28" d="M1521.52,364.91c3.53-4.8-2-13.52-7.59-8.75-2.59,2.23-4,6.07-4.9,9.28a27.28,27.28,0,0,0-.81,11.31c.45,3,1.65,7.11,4.95,8,3.65,1,5.78-2.75,7.06-5.51a44,44,0,0,0,3.58-22.55H1518c1.25,10.52,2.49,21.09,2.14,31.71-.31,9.07-1.68,18.71-6.29,26.68l4-1c-2.07-1.19-2.45-4.74-2.58-6.86a17.61,17.61,0,0,1,1.86-9.56c3.7-6.8,12.16-9.15,19.41-8.91,3.76.12,3.76-5.72,0-5.85-9.94-.33-20.94,3.74-25.2,13.34-2.86,6.42-3.62,18.77,3.56,22.89a3,3,0,0,0,4-1c4.82-8.33,6.5-18.22,7-27.72.6-11.24-.73-22.47-2.05-33.62-.43-3.66-6.2-3.78-5.85,0a42.39,42.39,0,0,1-.61,12.73,35.11,35.11,0,0,1-1.68,5.72,23.81,23.81,0,0,1-1,2.21q-.35.68-.74,1.33,1.33.62.74-.27c.09-.68-.65-2.08-.75-2.83a18.39,18.39,0,0,1-.13-2.6,23,23,0,0,1,.89-6c.52-1.88,1.65-3.51,2.22-5.32q1.22-.83,0-1.22-.88-.79-.4,0c-.22.52.37,1-.05,1.54-2.23,3,2.84,6,5,3Z" transform="translate(-1253.02 -135.03)"/></g></svg>