<svg id="Layer_6" data-name="Layer 6" xmlns="http://www.w3.org/2000/svg" viewBox="0 0 401 401"><defs><style>.cls-1{fill:#ffffb6;}.cls-2{fill:#f9ff00;}.cls-3{fill:#f4ac4d;}.cls-4{fill:#ffe969;}.cls-5{fill:#dbc06a;stroke-width:2.31px;}.cls-10,.cls-5{stroke:#000;stroke-miterlimit:10;}.cls-6{fill:#232323;}.cls-7{fill:#474431;}.cls-8{fill:#ff2704;}.cls-9{fill:#ff7d4a;}.cls-10{fill:none;}</style></defs><title>Q6</title><path class="cls-1" d="M894.09,209.65c-4.86,4.95-8.72,10.51-12.56,16.28l-2.47-1.22a62.58,62.58,0,0,1-5.2-5c-2.34-2.53-4.61-5.8-3.81-9.15a2.88,2.88,0,0,1,.94-1.65,3.56,3.56,0,0,1,1.06-.5c6.18-2.09,15.92-1,22,1.24" transform="translate(-627.5 -65.5)"/><path d="M893.14,208.7a120,120,0,0,0-12.77,16.55l1.84-.48c-4.23-2.09-16-12.23-8-15.56,5.48-2.27,14.2-.06,19.49,1.74,1.64.56,2.35-2,.72-2.6A44.31,44.31,0,0,0,879.39,206c-3,.06-8.38.06-10.17,3-4.06,6.66,6.68,15.69,11.63,18.13a1.39,1.39,0,0,0,1.84-.48,116,116,0,0,1,12.35-16c1.2-1.25-.7-3.16-1.9-1.9Z" transform="translate(-627.5 -65.5)"/><path class="cls-2" d="M761.48,258.12c.32-1.87.86-1,2.73-1.85s4-1.49,5.48-2.81c2.51-2.16,2.88-5.61,2.78-8.73-.31-9.15-3.38-18.14-3.13-27.29.09-3.28.61-6.56.32-9.84a6.07,6.07,0,0,0-.83-2.89,7.24,7.24,0,0,0-2.46-2.06c-6.34-3.72-14.12-5.08-21.69-5s-15,1.6-22.4,3.16c-8.49,1.8-17,3.73-24.82,7.24,0,0,1,20.75-.5,30.52a158.47,158.47,0,0,1-4.49,18.93c-3.09,11-6.19,22-10.12,32.85l-.19-.34a90.3,90.3,0,0,0-.38,32.52c.6,3.48,1.43,7,3.51,10a12.15,12.15,0,0,0,9.56,5.38c-1,2.47-4.12,6.95-5.12,9.42l3.62-1.77.73,4.6,3.79-2,1.47,3.23a12.37,12.37,0,0,0,4.19-2.22l1.57,2a20.14,20.14,0,0,0,2.76-8.06,3,3,0,0,1,.39-1.41c.59-.85,1.9-1,3-1,8.48-.3,15.93-.73,23.91-3.32l0-.32c2.8,4.05,5.84,8.31,10.61,10.41a3.54,3.54,0,0,1,.34-1.89l2.43,1.52a.94.94,0,0,0,.67.2.83.83,0,0,0,.48-.44l1.21-2,1.47.87.65-.62L747.29,336a2.58,2.58,0,0,1-.58-2c.18-.66.86-1.09,1.49-1.47,4.93-3,10.07-6.47,11.71-11.59.83-2.58.65-5.32.64-8,0-3.84,1.8-7.49,1.93-11.6l-.17,1.21a96.26,96.26,0,0,0,1.32-22.6c-.35-7.71-1.28-15.1-2.23-22.4" transform="translate(-627.5 -65.5)"/><path d="M762.66,258.44c.37-1.17,5.6-2.54,6.41-3.06a9.41,9.41,0,0,0,3.34-3.44c2.08-3.81,1.3-8.94.77-13-.93-7.16-2.76-14.23-2.62-21.5.09-4.61,2-11.34-2.08-14.83-8.5-7.23-23.14-6.76-33.37-5.36-12.89,1.77-26.31,4.59-38.27,9.78a1.18,1.18,0,0,0-.6,1.05c.43,9.29.75,18.78-.2,28-.93,9-3.83,17.89-6.29,26.6-2.6,9.19-5.34,18.34-8.57,27.34l2.23-.29-.19-.34a1.23,1.23,0,0,0-2.23.29,92.9,92.9,0,0,0-.25,33.92c1.46,7.8,5.5,14.85,14.11,15.54l-1.05-1.83c-1.49,3.26-3.63,6.16-5.12,9.42a1.23,1.23,0,0,0,1.67,1.67l3.62-1.77-1.79-.73.73,4.6a1.23,1.23,0,0,0,1.79.73l3.79-2-1.67-.44,1.47,3.23a1.22,1.22,0,0,0,1.38.56c1.81-.68,3.23-2.25,4.58-.53a1.22,1.22,0,0,0,1.91-.25c1.34-2.46,1.62-5.08,2.75-7.51,1.58-3.38,6.11-2.47,9.41-2.7a75.77,75.77,0,0,0,17.18-3,1.27,1.27,0,0,0,.89-1.17l0-.32-2.27.61c3.05,4.38,6.19,8.41,11.05,10.85a1.23,1.23,0,0,0,1.83-1.05l.3-1.57-1.79.73c3.53,2.22,4.23,2.49,6.45-1.1l-1.67.44,1.47.87a1.24,1.24,0,0,0,1.48-.19l.65-.62a1.24,1.24,0,0,0,.19-1.48l-3.85-6.16c-1.87-3-2.53-4.11.56-6.09a29.34,29.34,0,0,0,8.08-6.92,15.79,15.79,0,0,0,2.87-9.24c.17-5.09,1.48-9.8,1.91-14.84.12-1.35-2.2-1.69-2.39-.32l-.17,1.21c-.21,1.51,2.05,2.22,2.35.65,2.84-15,1.07-30.32-.86-45.32-.2-1.53-2.64-1.55-2.44,0,1.9,14.76,3.75,29.9.95,44.67l2.35.65.17-1.21-2.39-.32c-.43,5-1.63,9.76-1.91,14.84-.39,7.09-4.81,10.9-10.42,14.49-1.86,1.19-3.73,2-3.34,4.51.24,1.54,1.77,3.2,2.58,4.49a25.88,25.88,0,0,0,2.41,3.85c.81.88,1.88.92,1,.39a1.24,1.24,0,0,0-1.67.44c-.94,1.52-1.69,1.12-3.12.23a1.23,1.23,0,0,0-1.79.73,5.76,5.76,0,0,0-.38,2.22l1.83-1.05c-4.5-2.26-7.35-5.92-10.18-10a1.23,1.23,0,0,0-2.27.61s-11,1.66-11.43,1.71c-3.75.42-7.56.28-11.3.71-6.07.7-4.61,6.3-7.22,11.08l1.91-.25-1.57-2a1.21,1.21,0,0,0-1.48-.19c-1.9,1.35-3,1.66-4-.57a1.23,1.23,0,0,0-1.67-.44l-3.79,2,1.79.73-.73-4.6a1.23,1.23,0,0,0-1.79-.73l-3.62,1.77,1.67,1.67c1.49-3.26,3.63-6.16,5.12-9.42a1.24,1.24,0,0,0-1.05-1.83c-10.4-.83-11.95-12.62-12.73-20.85a92.12,92.12,0,0,1,1.22-25.52l-2.23.29.19.34a1.23,1.23,0,0,0,2.23-.29,364.73,364.73,0,0,0,13.54-46.05c2.16-10,2.08-20.29,1.82-30.51,0-1.37-.48-3.34-.15-4.67.07-.29-.2-.92,0-1.16.26-.41,4.14-1.09,5.07-1.42a174.52,174.52,0,0,1,23.47-5.84c8.47-1.68,17.25-3,25.87-1.63,3.57.55,8.14,1.4,11.18,3.45,5.5,3.71,3.87,9.86,3.84,15.46,0,8.6,2.68,16.91,3.09,25.47.27,5.65-1.89,9.28-7.33,11.22-2,.7-2.93.71-3.57,2.76-.47,1.5,1.88,2.14,2.35.65Z" transform="translate(-627.5 -65.5)"/><path class="cls-3" d="M714.1,287.57A215.08,215.08,0,0,1,713,325.86c-.08.64-.06,1.46.53,1.73a1.52,1.52,0,0,0,.75.07c9.79-.76,19.53-4.06,29.23-2.58A26.78,26.78,0,0,1,760,312.61c.09-6.57,3.63-12.62,4.42-19.14a46.48,46.48,0,0,0-.07-9l-1-13.67a4.39,4.39,0,0,0-1.12-3.17,4.28,4.28,0,0,0-2.18-.75,139.08,139.08,0,0,0-42.82.35" transform="translate(-627.5 -65.5)"/><path d="M712.72,287.57c.39,7,.5,14.05.23,21.08q-.22,5.75-.75,11.48c-.18,2-1.29,5.36-.47,7.26,1.4,3.26,6.71,1.19,9.3.8,7.5-1.15,14.84-2.67,22.45-1.74a1.35,1.35,0,0,0,1.19-.68,26.39,26.39,0,0,1,15.71-11.83,1.42,1.42,0,0,0,1-1.33c.47-8.49,4.85-15.88,4.58-24.53-.14-4.45-.61-8.92-.93-13.36-.17-2.37.23-6-1.7-7.91-1.7-1.65-4.75-1.52-7-1.79q-6.5-.78-13-.95a145.92,145.92,0,0,0-26.43,1.84c-1.74.27-1,2.93.73,2.65a142.22,142.22,0,0,1,22.9-1.78q5.14,0,10.27.43,2.79.22,5.58.56c4.06.49,4.92,1.31,5.76,5,.77,3.35.53,7.29.78,10.74.27,3.74.6,7.51-.06,11.22-1.09,6.1-3.87,11.63-4.22,17.89l1-1.33a29,29,0,0,0-14.52,9.09c-1.23,1.46-1.56,2.51-3.46,3.1-1.44.45-4-.17-5.47-.11a89.47,89.47,0,0,0-10.41,1.26c-2.17.36-10.44,2.53-11.44,1.23-.31-.41.55-5.15.6-5.72q.31-3.34.51-6.69a223.15,223.15,0,0,0,0-25.87c-.1-1.76-2.85-1.77-2.75,0Z" transform="translate(-627.5 -65.5)"/><path class="cls-1" d="M894,267.12c-9.11,17.71-17.17,36-19.61,55.08-.49,3.82-.73,7.76.71,11.42,1.14,2.91,3.29,5.48,5.48,8A49.44,49.44,0,0,0,890.93,351c9,5.77,21.31,7.05,32.84,6.71,3.49-.1,7.09-.36,10.18-1.68a19.82,19.82,0,0,0,6.76-5.14c8.48-9.27,12-21,12.24-32.53s-2.6-22.92-5.81-34.14a37.11,37.11,0,0,0-3.77-9.56,5,5,0,0,0-1.77-1.88,7.64,7.64,0,0,0-2.64-.68C929,270.81,919,269.49,909,270.24c-3,.22-6,.62-8.85.11s-5.72-2.22-6.09-4.59" transform="translate(-627.5 -65.5)"/><path d="M893,266.51c-9.15,17.86-18.11,37.09-20,57.33-1.54,16.79,15.69,30.16,30.67,33.51a71.83,71.83,0,0,0,25.63,1.16c8.51-1.29,14.22-7.9,18.29-15.07,9.62-17,6.86-36.83,2-54.83-1.27-4.71-2.27-10.47-5.2-14.54-2.31-3.21-5.46-3.16-9.18-3.64a167.08,167.08,0,0,0-18.72-1.61c-5.13-.08-19.06,3.22-21.28-3.39-.49-1.47-2.83-.84-2.33.64,1.89,5.63,8.38,5.92,13.44,5.58a140.63,140.63,0,0,1,27,.95c3,.38,6.83.18,9,2.68,1.34,1.59,2,4.07,2.67,6,1.61,4.74,2.82,9.67,4,14.54,2.19,9.36,3.56,19.06,2.32,28.66A46.8,46.8,0,0,1,941,348.78c-6.56,7.77-15.13,8.11-24.69,7.71-8.5-.36-17.47-1.84-24.75-6.51s-16.17-13.6-16.29-22.83c-.13-9.73,3.19-20.14,6.38-29.23a244.39,244.39,0,0,1,13.44-30.19c.71-1.38-1.38-2.61-2.09-1.22Z" transform="translate(-627.5 -65.5)"/><path class="cls-1" d="M893,269.25c-7.3-1.41-12.78-8-14.62-15.24s-.59-14.84,1.53-22c2.23-7.49,5.69-15,12-19.64,5.13-3.76,11.58-5.17,17.84-6.32A97.83,97.83,0,0,1,929.13,204c13.55.25,27.26,5.78,35.95,16.18s11.61,25.79,5.86,38.06-20.6,20-33.63,16.28" transform="translate(-627.5 -65.5)"/><path d="M893.35,268c-21.68-5.22-15.45-37.52-5-50.34,5.89-7.21,14.93-9.06,23.63-10.59,10-1.75,20-2.55,29.91.21,17.21,4.81,31,19.47,30.63,38-.4,17.75-17,32.55-34.89,28a1.35,1.35,0,0,0-.72,2.6c13.66,3.49,28.54-3.7,34.84-16.27,6.78-13.54,3.13-30.5-6.78-41.5-11.48-12.74-29.11-16.77-45.61-14.85-8.24,1-17.33,2.13-24.8,6-6.74,3.47-11.09,9.68-13.9,16.56-6.07,14.81-8.19,40,11.95,44.81,1.68.41,2.4-2.19.72-2.6Z" transform="translate(-627.5 -65.5)"/><path class="cls-4" d="M896.63,206.44c-6-.39-11-3.56-15.25-6.47-1.33-.91-2.75-2-2.62-3.07.22-1.8,19.75-1.4,26-1.13a7.47,7.47,0,0,0,2.66-.19,2.67,2.67,0,0,0,1.42-1.33,84.8,84.8,0,0,1,19.09-21.58,6.34,6.34,0,0,1,2.54-1.43,13.58,13.58,0,0,1,4.84,0,205.86,205.86,0,0,1,31.14,6.58c2.77.82,5.63,1.75,7.49,3.25a7.79,7.79,0,0,1,2.78,5.72,40.37,40.37,0,0,1-4.7,24.11c-.47.87-1,1.8-.44,2.75.4.72,11.82,10.18,11.31,11.57-.45,1.21-2.28,2-4.25,2.34-6.22,1.13-13.58-1-19.83-3.28-9.92-3.63-19.41-7.92-30-10.56-11.69-2.92-24.59-3.81-35.07-8.34" transform="translate(-627.5 -65.5)"/><path d="M896.63,205.61A29.4,29.4,0,0,1,883,200.05c-.32-.22-3.62-2.47-3.5-2.76s.85-.16,1.08-.31c1-.64,3.46-.39,4.63-.45,6-.32,12.1-.16,18.14,0,2,.06,3.93.36,5.54-1,1-.78,1.73-2.66,2.39-3.65a75.46,75.46,0,0,1,5.35-7.08,86.92,86.92,0,0,1,10.49-10.45c5.13-4.29,12.14-1.82,18.2-.71q7.38,1.35,14.64,3.23c5.46,1.42,14.1,2.58,15.78,8.94,1.41,5.37.23,12.22-1.38,17.38-.85,2.74-2.57,5.23-3.36,7.94-.31,1.07-.73,1.39-.23,2.72.36,1,1.65,1.76,2.37,2.42,2.12,1.93,4.3,3.81,6.32,5.85.46.47,2.39,1.93,2.34,2.59-.19,2.61-6.7,2.35-8,2.29-5.66-.24-11.16-2.19-16.42-4.15-10.2-3.8-20.2-8.14-30.86-10.54-10.89-2.46-22.14-3.46-32.55-7.75-1-.41-1.42,1.2-.44,1.61,11.78,4.85,24.62,5.5,36.82,8.8,11.89,3.21,22.9,9,34.77,12.23,2.94.8,19.41,4,18.52-2.59-.23-1.73-3.27-4-4.37-5-1.74-1.65-5.85-4-6.76-6.19-.59-1.45,1.32-4.2,1.91-5.58a42,42,0,0,0,2.65-8.48c.92-4.65,1.55-10.59,0-15.17-1.35-3.95-5-5.44-8.72-6.68a158.75,158.75,0,0,0-19.79-4.95c-5.16-1-11.25-2.91-16.55-2.42-4.64.43-8.14,4.73-11.28,7.83a83.15,83.15,0,0,0-10.4,12.4c-1.93,2.83-2.68,4.3-6.58,4.47-1.86.08-3.76-.12-5.62-.15-4.46-.08-8.93-.12-13.38.14-1.34.08-5.34-.14-6.36,1.19-3.69,4.8,15.42,10.89,18.29,11.2,1.07.11,1.06-1.55,0-1.67Z" transform="translate(-627.5 -65.5)"/><path d="M897.28,228.7c1.92,4.77,7,6.6,11.79,5.13,1.65-.51.95-3.11-.72-2.6-3.23,1-7.11.16-8.48-3.25-.64-1.59-3.24-.89-2.6.72Z" transform="translate(-627.5 -65.5)"/><path d="M919.38,234.81a10.85,10.85,0,0,0,14,2.39,1.35,1.35,0,0,0-1.36-2.32,8.18,8.18,0,0,1-10.71-2c-1.08-1.35-3,.56-1.9,1.9Z" transform="translate(-627.5 -65.5)"/><path d="M899.27,259.05c4.18,4.16,10.07,2.68,12.17-2.68L908.8,256c.71,6.94,7.93,10.63,13.74,6.34,1.38-1,0-3.36-1.36-2.32-3.87,2.86-9.16,1.14-9.69-4a1.35,1.35,0,0,0-2.64-.36q-3.9,5.52-7.67,1.49a1.35,1.35,0,0,0-1.9,1.9Z" transform="translate(-627.5 -65.5)"/><path d="M892.25,270.53c6.69,3.66,13.68,3.31,21.1,2.84,9.67-.61,18.48.67,27.25,5,1.7.84,3.21-1.71,1.49-2.56a51.63,51.63,0,0,0-22-5.63c-8.94-.17-18.06,2.34-26.36-2.2-1.67-.91-3.17,1.64-1.49,2.56Z" transform="translate(-627.5 -65.5)"/><path class="cls-1" d="M893.78,270.3c-3.27,3.45-6.76,7-11.3,8.43-5.26,1.62-11,0-15.82-2.74s-8.88-6.5-13.41-9.62-9.79-5.68-15.29-5.43-11.12,4-11.92,9.47a4.08,4.08,0,0,0,.34,2.65A5.07,5.07,0,0,0,829,274.9c3.69,1.51,7.56,2.89,10.54,5.54a53.06,53.06,0,0,1,4.8,5.5c9.76,11.48,27.18,15.67,41.1,9.9" transform="translate(-627.5 -65.5)"/><path d="M892.81,269.32c-3.07,3.21-6.32,6.72-10.69,8.08-5,1.56-10.35-.14-14.76-2.6-6.76-3.77-12.08-9.69-19.17-13-5.11-2.36-11.05-3.3-16.28-.75-3.76,1.83-8,6.24-7.28,10.86.81,5,8.27,5.62,11.84,7.9,5.64,3.59,8.83,10,14.57,13.73a38.64,38.64,0,0,0,34.77,3.58c1.63-.64.92-3.3-.73-2.65a36.06,36.06,0,0,1-33.81-4.09c-4.74-3.35-7.46-8.58-12-12a32.33,32.33,0,0,0-6.74-3.58c-1.05-.45-3-.93-3.79-1.58-2.66-2.34-.29-6,1.47-7.68,12-11.39,27.12,7.32,37.26,12.39,11,5.48,19.43,1.57,27.33-6.69,1.22-1.28-.72-3.23-1.95-1.95Z" transform="translate(-627.5 -65.5)"/><ellipse class="cls-5" cx="239" cy="264.86" rx="122.85" ry="31.14"/><path class="cls-1" d="M933.93,286.28a61.73,61.73,0,0,1-12.68,19.31c-5.56,5.75-12.09,9.2-18.63,13.58-3,2-5.69,4.58-6.41,8.25-.63,3.21.38,6.67,3.55,8.06,7.52,3.29,15.17-4.6,19.82-9.39,7.58-7.82,15.58-15.4,22.78-23.58" transform="translate(-627.5 -65.5)"/><path d="M932.74,285.58c-5.5,12.84-14.28,21.81-25.92,29.24-5.88,3.75-16.28,10.57-10.93,19,4.83,7.64,14.94,2.16,19.86-2.13,9.79-8.54,19-18.55,27.57-28.25,1.17-1.32-.77-3.27-1.95-1.95-6.86,7.72-14.29,14.9-21.51,22.28-3.07,3.13-6.07,6.46-9.82,8.8-2.19,1.37-4.82,2.54-7.45,2.14-4.65-.71-6.36-5.09-4.32-9.19s6.89-6.42,10.62-8.8a89.85,89.85,0,0,0,10.26-7.32,61.32,61.32,0,0,0,16-22.46c.69-1.61-1.68-3-2.38-1.39Z" transform="translate(-627.5 -65.5)"/><path d="M826,265.58a13.92,13.92,0,0,0-8.9-3.83,1.36,1.36,0,0,0-1.35,1.35,57.89,57.89,0,0,1-2.7,18.24,1.36,1.36,0,0,0,1.3,1.7,17.5,17.5,0,0,0,13.56-6.13c1.13-1.3-.77-3.22-1.9-1.9a14.91,14.91,0,0,1-11.66,5.34l1.3,1.7a60.22,60.22,0,0,0,2.8-19l-1.35,1.35a11,11,0,0,1,7,3c1.27,1.18,3.17-.72,1.9-1.9Z" transform="translate(-627.5 -65.5)"/><path d="M817.26,263.05c0-7.65-4.78-7.52-11.34-7.55-6.18,0-11.53.22-17.19,2.73-4.24,1.88-3.58,4.05-2.78,8.42a109.54,109.54,0,0,0,4.45,16.45c1.32,3.76,2,6.58,6.15,7.21a29.39,29.39,0,0,0,13.59-1.16c2.71-1,3.47-3.14,4.34-5.76,2.18-6.49,2.61-13.56,2.77-20.34,0-1.73-2.65-1.73-2.69,0A81.23,81.23,0,0,1,813,278.53c-.44,2-.92,5.62-2.39,7.22-1.82,2-6.4,1.9-8.86,2-4.35.2-6.66.28-8.32-4.13-1.07-2.84-1.95-5.78-2.76-8.7-.76-2.72-3.85-10.43-2.54-13,.95-1.84,5.84-3,7.95-3.38,3.1-.6,6.68-.38,9.83-.37,3.69,0,8.64-.19,8.65,4.86a1.35,1.35,0,0,0,2.69,0Z" transform="translate(-627.5 -65.5)"/><path class="cls-6" d="M907.22,195.07l20.35,6.27c8,2.48,16.1,5,24.33,6.71,6.49,1.38,13.12,2.3,19.39,4.48a19.58,19.58,0,0,0,1.5-4.18q-6.08-1.69-12.31-2.78c-3.28-.57-6.58-1-9.85-1.65a189.3,189.3,0,0,1-23-6.4L913,192.75a5.72,5.72,0,0,0-2.77-.41,2,2,0,0,0-1.7,1.93" transform="translate(-627.5 -65.5)"/><path d="M907,195.87c10.8,3.33,21.57,6.82,32.45,9.9,10.43,3,21.33,4.18,31.63,7.56a.84.84,0,0,0,.94-.38,30.07,30.07,0,0,0,1.59-4.38.85.85,0,0,0-.58-1c-12.63-3.41-25.59-4.7-38.13-8.58-6.64-2.06-13.22-4.33-19.86-6.41-3.07-1-6-2.1-7.34,1.5-.37,1,1.24,1.44,1.61.44,1.19-3.21,29.47,7.43,33.07,8.38,4.82,1.28,9.69,2.16,14.61,3,1.83.3,14.37,1.49,14.62,3.73.31,2.77-6,.45-7,.21-2.65-.62-5.32-1.11-8-1.63-5.3-1-10.54-2.25-15.74-3.7-11.2-3.12-22.27-6.74-33.38-10.16-1-.32-1.47,1.29-.44,1.61Z" transform="translate(-627.5 -65.5)"/><path class="cls-7" d="M907.59,246.39l-3-1a8.16,8.16,0,0,0-2.12-.52c-1.57-.1-3,.71-4.5,1.31a19,19,0,0,1-9.8,1.27c3.32,1.71,6.78,3.46,10.51,3.52,2.15,0,4.35-.5,6.44,0,1.43.36,2.71,1.2,4.14,1.54a19.48,19.48,0,0,0,2.75.32c5.13.49,9.8,3.11,14.8,4.36a11.22,11.22,0,0,0,4.07.4,5.13,5.13,0,0,0,3.53-1.88,13.19,13.19,0,0,1-9.88-3,40.94,40.94,0,0,0-3.87-3.45,15.94,15.94,0,0,0-4.44-1.75,14.09,14.09,0,0,0-4.23-.74c-1.73.05-3.75.66-5-.55" transform="translate(-627.5 -65.5)"/><path d="M907.95,245.1c-2.49-.85-4.72-1.92-7.37-1.38-4.38.89-7.65,2.81-12.4,2.37a1.36,1.36,0,0,0-.68,2.51c3.53,1.8,7.15,3.58,11.19,3.71,3.24.1,5.45-.08,8.67,1a39.11,39.11,0,0,0,6,1.1c6.67,1.18,15.95,8.15,22,2.3a1.36,1.36,0,0,0-1-2.3,13.05,13.05,0,0,1-9.88-3.5,19.63,19.63,0,0,0-4.59-3.53,21.7,21.7,0,0,0-5.46-1.66c-2.16-.39-4.91.44-6.81-.64a1.35,1.35,0,0,0-1.36,2.32c2,1.12,3.47.69,5.68.73a15.84,15.84,0,0,1,10.17,4.21c3.61,3.26,7.29,5,12.25,4.74l-1-2.3c-3.58,3.45-9.84,0-13.64-1.33-3.44-1.21-6.74-1.4-10.2-2.22-2.76-.66-4.75-1.78-7.69-1.79a26,26,0,0,1-13.08-3.17l-.68,2.51a21.86,21.86,0,0,0,8.6-.75c2.09-.65,4.12-2,6.42-1.7a21.2,21.2,0,0,1,4,1.36c1.64.56,2.35-2,.72-2.6Z" transform="translate(-627.5 -65.5)"/><path class="cls-1" d="M952.25,306.27a43.85,43.85,0,0,0,7-3.83,34.79,34.79,0,0,0,5.38-5c3.13-3.44,6-7.14,9.32-10.37a47.86,47.86,0,0,1,24.36-12.56,26.86,26.86,0,0,1,12.15.15,5.92,5.92,0,0,1,2.2,1c1.93,1.59,1.56,4.84-.09,6.73s-4.14,2.74-6.51,3.55c-8.83,3-17.85,6.54-24.38,13.2-1.84,1.88-3.46,4-5.48,5.7-3.27,2.76-7.39,4.28-11.41,5.74" transform="translate(-627.5 -65.5)"/><path d="M952.95,307.46c9.11-4.29,13.9-11.11,20.78-18.16,7.79-8,19.34-14.13,30.73-14,1.46,0,3.47-.1,4.83.51,3.54,1.57,3.81,4.93.31,7.26-2.17,1.45-5.33,2.07-7.76,3a78.09,78.09,0,0,0-12.37,5.56A43.42,43.42,0,0,0,979.13,300c-4.29,4.68-8.72,7.16-14.66,9.34-1.65.6-.94,3.27.73,2.65,5.69-2.09,10.63-4.36,14.82-8.88a49.69,49.69,0,0,1,17.32-12.32c4.93-2.13,12.6-3.07,16.25-7.35,2.06-2.42,2.59-6.35.09-8.67-3.23-3-10.07-2.38-14-1.81A48.62,48.62,0,0,0,982.4,279a56.9,56.9,0,0,0-14.13,12.2c-5.11,5.85-9.58,10.5-16.71,13.86-1.6.75-.21,3.13,1.39,2.38Z" transform="translate(-627.5 -65.5)"/><path d="M797.37,231.72c-2.66,1.08-7.5,2.83-8.37,5.93-.44,1.56.31,2.9,1.07,4.23.53.92,1.58,1.9,1.9,2.92.65,2.05-.15,1.89-1.21,2.95a1.38,1.38,0,0,0,1.95,1.95c2-2,3.45-2.83,1.9-5.83-.69-1.34-3.61-4.16-2.76-5.85s4.79-3,6.26-3.63.91-3.32-.73-2.65Z" transform="translate(-627.5 -65.5)"/><path d="M808.71,236.12c-2.09,1-5.61,2.25-6.48,4.65a4.23,4.23,0,0,0,.23,3.19c.22.48.86,1,1,1.52q.55.7-.41,1l-1.23,1c-1.36,1.13.59,3.07,1.95,1.95s3.62-2.49,2.6-4.67c-.67-1.43-2.25-2.49-.52-4a18.25,18.25,0,0,1,4.28-2.3c1.61-.74.21-3.11-1.39-2.38Z" transform="translate(-627.5 -65.5)"/><path class="cls-2" d="M718.19,205c-7.3-15.57-23.83-26-40.68-33.58a1.71,1.71,0,0,0-1.08-.21c-.67.17-.77,1-.67,1.59a16.74,16.74,0,0,0,3,6.16c6.78,10.24,12.87,20.19,19.65,30.44" transform="translate(-627.5 -65.5)"/><path d="M719.24,204.42c-7.68-15.68-24.36-27.55-40.4-33.69-7.57-2.9-2.36,7-.63,9.68,6.44,9.84,12.65,19.82,19.12,29.63.86,1.3,3,.08,2.1-1.23-4.89-7.41-9.61-14.93-14.42-22.4-1.93-3-4.89-6.19-6.18-9.5a3,3,0,0,1-.49-3.74q1.44.66,2.88,1.35,2.15,1,4.27,2.14c12.87,6.74,25.12,15.65,31.65,29,.69,1.41,2.79.17,2.1-1.23Z" transform="translate(-627.5 -65.5)"/><path class="cls-2" d="M718,202.41c8.17-3.32,18.8-5.41,27.62-4,1.46.24,3,.53,4.36-.05a6,6,0,0,0,2.6-2.88l14.69-26.35c1-1.84,2.16-3.79,4.15-4.83a12,12,0,0,1,4.51-1,72.8,72.8,0,0,1,14.65.23c1.83.21,3.84.6,4.94,1.93,1.56,1.89.35,4.75-1.77,6.14s-4.82,1.75-7.38,2.28-5.25,1.4-6.68,3.38c-1.25,1.73-1.25,3.93-1.41,6a31.25,31.25,0,0,1-4.2,13.23c-2,3.47-4.79,6.78-5.27,10.67s1.34,7.51,2,11.3c.71,4.36-.15,8.83.41,13.21.6,4.63,2.78,9.24,1.66,13.79-1,4.21-4.82,7.56-9.17,9.4s-9.23,2.36-14,2.63a148.21,148.21,0,0,1-23.37-.54c-8.16-.83-17.26-3-21.18-9.46-3.43-5.66-1.67-12.59-2.2-19" transform="translate(-627.5 -65.5)"/><path d="M718.32,203.59A57.72,57.72,0,0,1,746,199.74c7.34.78,9.1-6.32,12.18-11.84l6.88-12.35c3-5.43,4.77-10.46,11.74-11.09a61.28,61.28,0,0,1,6.42-.19c1.92,0,6.91-.48,8.38.64l1.11,2.51q3.05,3.53-2.1,4.25a19.25,19.25,0,0,1-2.28.56,29.66,29.66,0,0,0-6.08,1.62c-6.65,3.07-4.74,10.79-6.81,16.7-2.45,7-8.79,12.28-7.76,20.15.64,4.92,2.18,9.25,2.1,14.33a57.88,57.88,0,0,0,1.47,13c2.83,14-10.41,17.56-21.64,18.22-10.35.61-21.68.7-31.77-2-5.5-1.47-11-4.28-12.93-10-1.66-4.94-.56-10.65-.84-15.77-.09-1.56-2.52-1.57-2.44,0,.47,8.5-1.51,17.81,6.11,23.77,6.92,5.42,16.89,6,25.3,6.47,14.78.83,45.47,1.53,40.56-21.3a50.64,50.64,0,0,1-1.44-9.51c-.08-3.17.27-6.28-.21-9.44-.94-6.29-3.26-10.77.32-16.83,2.5-4.24,5-8.08,6.29-12.91a50.41,50.41,0,0,0,.91-5.45c.93-6.49,3.47-7.31,8.74-8.5,3.06-.69,6.54-1.41,8.31-4.32a4.82,4.82,0,0,0-1.14-6.66c-2.61-1.94-7.27-1.76-10.3-1.88-4.35-.17-10.28-.73-14.29,1.41s-5.8,7.44-7.8,11l-9.64,17.29c-1.53,2.75-1.5,3.15-4.63,4.48a8.3,8.3,0,0,1-5.49.85,45.48,45.48,0,0,0-9.14.14,64.44,64.44,0,0,0-16.43,4.15c-1.44.56-.82,2.92.65,2.35Z" transform="translate(-627.5 -65.5)"/><path d="M732.36,243.39a9.13,9.13,0,0,0,4.35.28c1.67-.34,2.48-1.29,4.17-.7,2.91,1,5.82,1.48,8.43-.52,1.46-1.12,0-3.65-1.47-2.51-3.09,2.37-5.07-.38-8.11-.42a3.59,3.59,0,0,0-1.67.53,6.47,6.47,0,0,1-4.94.55,1.45,1.45,0,0,0-.77,2.8Z" transform="translate(-627.5 -65.5)"/><path class="cls-8" d="M717.45,236.92a3.85,3.85,0,0,0-3.77,1.74,3.08,3.08,0,0,0,.66,3.76,2.24,2.24,0,0,0,1,.55,2.85,2.85,0,0,0,1.31-.09,4.29,4.29,0,0,0,3.13-2.43,2.28,2.28,0,0,0-1.9-2.92" transform="translate(-627.5 -65.5)"/><path d="M717.45,235.47A5.13,5.13,0,0,0,712,238.9c-.64,2.31.81,5.2,3.32,5.51a5.82,5.82,0,0,0,5.79-3.43,3.74,3.74,0,0,0-2.86-4.86c-1.83-.28-2.62,2.52-.77,2.8,2.28.35-.35,2.82-1.72,2.63-.93-.13-1.21-1.46-.84-2.16a2.49,2.49,0,0,1,2.52-1c1.86.17,1.85-2.74,0-2.91Z" transform="translate(-627.5 -65.5)"/><path class="cls-8" d="M760.57,239.31a3,3,0,0,0-1.89,4.44,4.33,4.33,0,0,0,5.41,1,3.14,3.14,0,0,0,1-.86,2.87,2.87,0,0,0-.48-3.56,8.09,8.09,0,0,0-3.62-2" transform="translate(-627.5 -65.5)"/><path d="M760.19,237.91a4.55,4.55,0,0,0-3.31,5.14c.46,2.42,3,3.76,5.28,3.69s4.89-1.68,4.83-4.3c-.07-3.09-3-4.64-5.59-5.46-1.79-.57-2.55,2.24-.77,2.8,1.17.37,2.87.9,3.35,2.18s-.78,1.81-1.81,1.87c-.85,0-2.09-.26-2.4-1.17a1.59,1.59,0,0,1,1.2-1.95,1.45,1.45,0,0,0-.77-2.8Z" transform="translate(-627.5 -65.5)"/><path d="M719.26,221.46a5.7,5.7,0,0,1,9.57.44,1.45,1.45,0,0,0,2.51-1.47c-3.16-5.57-11-5.56-14.59-.44-1.07,1.54,1.45,3,2.51,1.47Z" transform="translate(-627.5 -65.5)"/><path d="M741.25,221.89c2.06-3,7.37-2.64,9.38.34,1,1.54,3.56.09,2.51-1.47-3.28-4.86-11.06-5.26-14.39-.34-1.05,1.55,1.47,3,2.51,1.47Z" transform="translate(-627.5 -65.5)"/><path class="cls-2" d="M762.46,257.06c3.57.91,7.21,1.84,10.32,3.66a35.72,35.72,0,0,1,6.22,5l4.43,4.15c.14.14,1.55,0,1.6.21.11.42-1.59,1-1.86,1.37-.68.88,1.2,2.8,2.29,3.23-1.58.53-3.8,1.25-2.3,4.09-1.6.28-4.06-2.35-5.5-3a7.35,7.35,0,0,0-3.05-.47l-10-.12" transform="translate(-627.5 -65.5)"/><path d="M762.14,258.24c6,1.54,10.79,3.55,15.42,7.81,2.41,2.22,4.06,4.42,7.15,5.22l-.54-2c-1,1.3-2.39,1.1-2.33,3,.05,1.54,1.83,2.81,3,3.49l.29-2.23c-2.89,1-4.29,2.5-3.15,5.58l1.17-1.54c-2.54-.24-4.2-2.93-6.82-3.4-3.7-.67-8-.18-11.71-.22a1.22,1.22,0,0,0,0,2.44c3.77,0,9.74-.83,13.21.91,1.91,1,3.05,2.5,5.32,2.72a1.22,1.22,0,0,0,1.17-1.54q-.8-2.38,1.45-2.59a1.23,1.23,0,0,0,.29-2.23c-2.2-1.26-1.25-1.36-.18-2.69a1.23,1.23,0,0,0-.54-2c-3.63-.94-6.39-5.15-9.32-7.41-4-3.05-8.48-4.39-13.25-5.61a1.22,1.22,0,0,0-.65,2.35Z" transform="translate(-627.5 -65.5)"/><path class="cls-8" d="M737.11,242.36a14.84,14.84,0,0,0,.14,5.13,6.54,6.54,0,0,0,1.16,2.8,3.31,3.31,0,0,0,1.38,1.07,2.32,2.32,0,0,0,1.79,0,2.68,2.68,0,0,0,1.27-1.66,15.06,15.06,0,0,0,.21-6.67" transform="translate(-627.5 -65.5)"/><path d="M735.65,242.36c-.44,3.49-.06,10.07,4.58,10.58,5.12.57,4.65-6.74,4.28-9.92-.21-1.84-3.12-1.86-2.91,0,.15,1.3,1,7.72-1.48,6.9-1.11-.37-1.44-2.46-1.59-3.44a15.12,15.12,0,0,1,0-4.11c.23-1.85-2.68-1.83-2.91,0Z" transform="translate(-627.5 -65.5)"/><path class="cls-2" d="M679.38,306.54q-16.57-5.25-32.83-11.23a1.78,1.78,0,0,1-.83-.49c-.35-.46-.07-1.08.21-1.58q8-14.05,14.93-28.57a4.49,4.49,0,0,0,.61-2.09A4.7,4.7,0,0,0,660,260a265.29,265.29,0,0,0-28.41-28.19c-.83-.71-1.73-1.53-1.78-2.56a3.91,3.91,0,0,1,1.46-2.64q9.17-9.5,19-18.46c10.93,3.86,20.33,10.47,29.56,17a1.37,1.37,0,0,1,.62.7c.11.48-.37.89-.8,1.2-2.84,2-5.83,4.57-5.78,7.82,0,2,1.27,3.86,2.48,5.57l11.52,16.45a3.81,3.81,0,0,1,.91,2.1,3.77,3.77,0,0,1-.94,2.06c-5.72,7.79-12.38,15.07-16.93,23.46a3.26,3.26,0,0,0-.54,1.66,3.54,3.54,0,0,0,1.18,2l8.67,9.32" transform="translate(-627.5 -65.5)"/><path d="M679.7,305.37q-14.24-4.53-28.31-9.58c-1-.37-2.87-.56-3.57-1.46-1-1.26-.33-1.39.55-3q1.63-2.9,3.21-5.82,3.61-6.67,7-13.46c1.31-2.62,4.22-6.41,4.09-9.5-.12-2.82-3.68-5.67-5.38-7.56a265.19,265.19,0,0,0-20-19.9c-1.41-1.27-3.89-2.63-4.83-4.23-1.54-2.64.33-4.17,2.31-6.18q5.3-5.4,10.8-10.59c1.5-1.42,3.07-3.57,5.08-4.07s5.72,1.84,7.7,2.85a117.23,117.23,0,0,1,11.76,7c2.25,1.49,8.53,4.34,7.46,7.17-.44,1.15-2.61,2.2-3.39,3.36a8.07,8.07,0,0,0-1.37,3.07c-.58,3.19,1.29,5.8,3,8.28,2.77,4,5.59,8,8.38,12,2.17,3.1,3.32,4.39,1.57,8-1.23,2.55-3.83,4.93-5.59,7.19-2.69,3.43-5.37,6.89-7.73,10.56-1.55,2.4-4.12,5.38-2.73,8.32,1.77,3.72,6.83,7.49,9.64,10.51,1.07,1.15,2.79-.58,1.72-1.72L674.92,290c-1.74-1.87-2.37-2-2.29-4.51.06-2,.93-3.14,2-4.72,3.33-5.18,7.28-9.93,11.05-14.78,1.84-2.36,5.11-5.15,4.07-8.42-.63-2-2.72-4.11-3.89-5.79l-5.24-7.48c-1.47-2.1-5.09-5.69-5.26-8.28-.13-2,1.5-4.86,2.84-6.25-1.12,1.16,2.87-2.15,3-2.39,1-1.91.18-2.52-1.37-3.77a106,106,0,0,0-29.16-16.63,1.21,1.21,0,0,0-1.19.31q-8,7.35-15.7,15.09c-2.18,2.21-6.49,5.16-4.46,8.7,1.43,2.5,4.9,4.54,7,6.43q3.73,3.36,7.33,6.87t7,7.11c2.37,2.49,5.55,5.08,7.33,8,2,3.26,1.71,4.86.18,8q-1,2.13-2.1,4.24-2.34,4.66-4.78,9.27c-1.78,3.36-3.64,6.67-5.47,10-.64,1.16-1.9,2.7-1.27,4.17.45,1,1.64,1.27,2.59,1.67,3.23,1.37,6.66,2.41,10,3.57q10.92,3.83,22,7.32c1.5.48,2.14-1.87.65-2.35Z" transform="translate(-627.5 -65.5)"/><path class="cls-9" d="M683,290.53a20.82,20.82,0,0,1,7.55-.53c3.15.36,6.58,1.82,7.34,4.59a2.25,2.25,0,0,1-.54,2.35,3.46,3.46,0,0,1-1.58.62c-4.54.89-9.26,0-13.79-.94" transform="translate(-627.5 -65.5)"/><path d="M683.3,291.7a20.23,20.23,0,0,1,7-.5c1.45.17,4.9.68,5.59,2.26l-.42,2.91a15.09,15.09,0,0,1-2.54.29,24.4,24.4,0,0,1-2.88,0,59,59,0,0,1-7.73-1.2c-1.53-.31-2.19,2-.65,2.35,3.49.7,19.07,4.3,17.43-3.37-1.42-6.62-11.59-6.18-16.41-5.07-1.53.35-.88,2.7.65,2.35Z" transform="translate(-627.5 -65.5)"/><path class="cls-9" d="M681.21,303.17a32.81,32.81,0,0,1,8.92.05,11.06,11.06,0,0,1,7.41,4.57A3.22,3.22,0,0,1,698,311a3.3,3.3,0,0,1-1.7,1.26,13.72,13.72,0,0,1-7.7.5,40.91,40.91,0,0,1-7.42-2.44" transform="translate(-627.5 -65.5)"/><path d="M681.21,304.32a31.85,31.85,0,0,1,8.61,0c2.54.49,7.12,2.19,6.62,5.33q.45,1.83-1.53,1.85a7.26,7.26,0,0,1-2,.33,14.87,14.87,0,0,1-4.54-.32,42.33,42.33,0,0,1-6.87-2.32c-1.38-.55-2,1.68-.61,2.22,3.92,1.57,8,3.16,12.34,2.73,2.36-.23,5.9-1,6.2-3.94s-2.63-5.48-4.89-6.7c-4.08-2.19-8.82-1.89-13.27-1.52-1.47.12-1.48,2.43,0,2.31Z" transform="translate(-627.5 -65.5)"/><path d="M676.55,175.54a28.67,28.67,0,0,0,6.22,9.28,1.14,1.14,0,0,0,.6.38,1.19,1.19,0,0,0,.62-.14c2.58-1.1,5.34-2.34,6.7-4.72A2.48,2.48,0,0,0,691,178a3.26,3.26,0,0,0-1.46-1.14q-6.12-3.11-12.39-5.93" transform="translate(-627.5 -65.5)"/><path d="M675.65,176.07c1.38,3.19,3.63,7.59,6.6,9.65,2.22,1.54,6.34-1.53,7.93-3.06,1.84-1.78,3-4.45.67-6.27-1.69-1.33-4.09-2.13-6-3.07q-3.57-1.72-7.19-3.35c-1.22-.55-2.29,1.26-1.06,1.81q3.85,1.74,7.66,3.58c1.27.61,2.53,1.24,3.79,1.87a5.33,5.33,0,0,1,1.51.78c.86,1.05-.13,2.46-.84,3.16a12.13,12.13,0,0,1-3.28,2.11c-1.52.74-2.42.32-3.49-.94a29.61,29.61,0,0,1-4.46-7.33c-.54-1.24-2.35-.17-1.81,1.06Z" transform="translate(-627.5 -65.5)"/><path d="M775.77,165.35A20.64,20.64,0,0,0,782,173.3a3.52,3.52,0,0,0,1.27.7,3.81,3.81,0,0,0,1.89-.19q4.7-1.31,9.31-2.9a4.07,4.07,0,0,0,2.19-1.35,2.74,2.74,0,0,0-.61-3.34,6.75,6.75,0,0,0-3.32-1.48,56.72,56.72,0,0,0-10-1c-2.13-.08-4.36-.14-6.25.83" transform="translate(-627.5 -65.5)"/><path d="M774.78,165.93c1.5,3.1,4.71,8.55,8.53,9.22,2.62.46,6-1.31,8.43-2.1,1.79-.58,4.71-1,5.88-2.79,5.55-8.32-18-8.12-21.41-6.78-1.36.54-.77,2.78.61,2.22,3-1.2,6.37-.83,9.54-.62,1.77.11,4.61-.16,6.11.77l1.2.31q2.4,3.85-1,4.16c-1.95,1.07-7.39,3.14-9.44,2.4-2.88-1-5.25-5.46-6.45-8-.65-1.34-2.64-.17-2,1.16Z" transform="translate(-627.5 -65.5)"/><path d="M650,208a20.58,20.58,0,0,1,10.85-8.73,6,6,0,0,1,2.39-.45,6.47,6.47,0,0,1,2.11.64,69.14,69.14,0,0,1,20.82,14c1.35,1.34,2.73,3,2.26,4.78a6,6,0,0,1-2.3,2.78l-4.51,3.63a1.93,1.93,0,0,1-1,.52,2,2,0,0,1-1.22-.46A260.63,260.63,0,0,0,650.34,208" transform="translate(-627.5 -65.5)"/><path d="M651.07,208.63a19.84,19.84,0,0,1,7.11-6.78c4.34-2.41,7.15-1.23,11.2.9a69.72,69.72,0,0,1,7.92,4.86c2.15,1.53,6.69,4.27,8,6.75s1.19,4.82-.79,6.45c-1.75,1.43-3.6,2.65-6.05,1.87-3.13-1-6.62-4.21-9.46-5.9-5.9-3.5-11.94-6.74-18.08-9.8-1.4-.7-2.64,1.41-1.23,2.1,5.31,2.64,10.54,5.41,15.67,8.38,4.39,2.55,9,6.66,13.71,8.45,3.27,1.25,6.76-2.59,8.88-4.82,2-2.06,2.23-4.14.67-6.58-2.2-3.43-6.18-6.16-9.44-8.54a58.71,58.71,0,0,0-13.36-7.63c-6.56-2.47-13.56,3.86-16.88,9-.85,1.32,1.26,2.55,2.1,1.23Z" transform="translate(-627.5 -65.5)"/><path d="M708.28,253.66l6.61,15a1.38,1.38,0,0,0,1.55.63,95.58,95.58,0,0,1,44.12-1.72c1.73.34,2.47-2.31.73-2.65a98.77,98.77,0,0,0-45.59,1.72l1.55.63-6.61-15c-.71-1.62-3.08-.22-2.38,1.39Z" transform="translate(-627.5 -65.5)"/><path class="cls-2" d="M715.94,269a77.88,77.88,0,0,1,24.34,7,41.85,41.85,0,0,0,6.51,2.8,10.82,10.82,0,0,0,7.06-.12,1.41,1.41,0,0,1,.68-.17c.61.06.71.85.44,1.34s-.74.93-.73,1.48c0,1.31,2.66,1.65,2.59,3-.09,1.64-4,1.31-3.87,2.94.06.63.81,1.05.91,1.68.16.95-1.26,1.52-2.3,1.28s-1.89-.92-2.93-1.14a7,7,0,0,0-2.12,0l-8.25.8c-5,.48-21.56-.29-25.57-3" transform="translate(-627.5 -65.5)"/><path d="M715.94,270.21A80.17,80.17,0,0,1,735,275c4.69,1.85,9.44,5.26,14.64,5.51a12.5,12.5,0,0,0,3.18-.24c1.82-.38.63-.33.63-.33.18.81-.46,1.39-.1,2.39.23.64,1.79,1.32,1.55,2.11-.12.38-2.33.82-2.73,1.45s-.11,1.34-.32,1.8c-.54,1.19,3.46,1.31-1.41.73-.77-.09-1.51-.54-2.32-.65-4-.52-8.4.86-12.44,1-6.7.16-16.4.55-22.36-3a1.22,1.22,0,0,0-1.23,2.1c6.44,3.8,16.82,3.51,24,3.28,2.38-.07,4.74-.37,7.11-.59a24.47,24.47,0,0,1,4.37-.39c1.17.12,2.77,1.24,4,1.22s2.35,0,3.05-1.08c.93-1.37-.25-2.31.37-3.2s2.14-.67,2.7-1.77.23-1.55-.24-2.61c-.57-1.3-.93,0-1.42-2.28-.09-.42.48-.92.27-1.44a2.54,2.54,0,0,0-1.44-1.68c-.47-.17-.86.18-1.33.17-2.43-.06-3.74.83-6.41.12-3.38-.9-6.57-2.92-9.79-4.27a83,83,0,0,0-21.39-5.6c-1.55-.2-1.53,2.23,0,2.44Z" transform="translate(-627.5 -65.5)"/><path d="M871.56,211.5a46.22,46.22,0,0,1,15.24,5.76,1.58,1.58,0,0,0,1.6-2.73,48.82,48.82,0,0,0-16-6.08c-2-.38-2.84,2.67-.84,3Z" transform="translate(-627.5 -65.5)"/><path class="cls-1" d="M973.3,231c4.93-.26,10.12-.47,14.51,1.78,1.34.69,2.68,1.78,2.81,3.28a3.56,3.56,0,0,1-1.18,2.76,9.45,9.45,0,0,1-2.62,1.64,60.59,60.59,0,0,1-12.48,4.3" transform="translate(-627.5 -65.5)"/><path d="M973.3,232.3a57.18,57.18,0,0,1,6.89-.09,20.89,20.89,0,0,1,4.11.63c2.35.65,3.51.84,3.91,3.26s-.63,2.5-2.61,3.42c-1.35.63-2.73,1.19-4.12,1.7a65.45,65.45,0,0,1-7.49,2.22c-1.68.4-1,3,.72,2.6A64.08,64.08,0,0,0,987,241.84c2.45-1.14,5.43-3,5-6.18-1-7.1-13.78-6.3-18.62-6.05-1.72.09-1.73,2.78,0,2.69Z" transform="translate(-627.5 -65.5)"/><path d="M974.17,239.76a37,37,0,0,1,14.28-1.71c1.56.12,1.56-2.32,0-2.44a38.72,38.72,0,0,0-14.93,1.8c-1.49.48-.85,2.83.65,2.35Z" transform="translate(-627.5 -65.5)"/><path d="M970.29,231.89a20,20,0,0,1,2.19,12.77c-.27,1.69,2.32,2.42,2.6.72a23,23,0,0,0-2.46-14.85c-.82-1.53-3.14-.17-2.32,1.36Z" transform="translate(-627.5 -65.5)"/><rect class="cls-10" x="0.5" y="0.5" width="400" height="400"/></svg>