<svg id="Layer_7" data-name="Layer 7" xmlns="http://www.w3.org/2000/svg" viewBox="0 0 401 401"><defs><style>.cls-1{fill:#fcfcfc;}.cls-2{fill:#e2e1e0;}.cls-10,.cls-3,.cls-9{fill:#aa856b;}.cls-4{fill:#0c0c0c;}.cls-5{fill:#ecfaff;}.cls-6{fill:#f5f7f7;}.cls-7{fill:#06d0ff;}.cls-8{fill:#ff0837;}.cls-10,.cls-16,.cls-9{stroke:#000;stroke-miterlimit:10;}.cls-9{stroke-width:3px;}.cls-10{stroke-width:3.94px;}.cls-11{fill:#f7f7f7;}.cls-12{fill:#fff;}.cls-13{fill:#494948;}.cls-14{fill:#0a0a0a;}.cls-15{fill:#a36c46;}.cls-16{fill:none;}</style></defs><title>Q7</title><path class="cls-1" d="M270,393.72l6.56,18.68a4.26,4.26,0,0,1,.36,2.21,4.07,4.07,0,0,1-1.85,2.26,23.84,23.84,0,0,0-5,4.09c-1.34,1.68-2,4.1-1.07,6,1.13,2.22,3.92,2.93,6.4,3.18a42.81,42.81,0,0,0,6.34.18A10.82,10.82,0,0,0,287.1,429c3-1.86,3.79-5.78,4-9.28a52,52,0,0,0-3.63-22" transform="translate(-221.5 -157.5)"/><path d="M267.94,394.29l3,8.41c.93,2.64,2.58,5.67,3,8.41.28,2.08.64,3-1.17,4.84a19.13,19.13,0,0,1-1.75,1.29,12.15,12.15,0,0,0-3.65,4.33c-3.1,6.77,3.09,10.3,9,10.83,7.07.63,14.31-.21,16.36-8.07,2.26-8.66,0-19-3.07-27.18-1-2.57-5.15-1.46-4.16,1.15a51.36,51.36,0,0,1,3.58,20.61c-.17,3.75-.74,7.94-5,9-2.24.59-8.54,1.08-10.46-.31l-2.25-4.5a11.14,11.14,0,0,1,3.59-3.47,21.75,21.75,0,0,0,2.34-1.76,5.38,5.38,0,0,0,1.88-4.41c-.13-3-2-6.32-3-9.14l-3.94-11.21c-.91-2.6-5.09-1.48-4.16,1.15Z" transform="translate(-221.5 -157.5)"/><path class="cls-1" d="M307.72,396.68A67,67,0,0,1,303.31,416a2,2,0,0,0-.2.86c.09,1.14,1.72,1.16,2.86,1.12a6.59,6.59,0,0,1,5.9,3.46,3.54,3.54,0,0,1,.41,2.56c-.42,1.47-2.07,2.17-3.56,2.52a20.44,20.44,0,0,1-10.52-.39c-2.46-.76-4.94-2.17-5.9-4.56-.8-2-.37-4.24.08-6.35l2.63-12.5c.31-1.48.7-3.08,1.88-4a6.36,6.36,0,0,1,2.58-1q3.88-.89,7.83-1.47" transform="translate(-221.5 -157.5)"/><path d="M305.56,396.68a68.75,68.75,0,0,1-1.84,11c-.67,2.61-2.64,6-2.69,8.61a3.51,3.51,0,0,0,1.3,3.07,7.5,7.5,0,0,0,1.84.68,5.22,5.22,0,0,0,1.19.09q2.89-.22,2.79,4.31c-1.84,1.93-9.31-.09-11.27-1.16-4.57-2.5-2.14-8.82-1.29-12.84.5-2.38.57-6.58,1.86-8.63,1.87-3,7.36-3,10.43-3.52,2.74-.42,1.57-4.58-1.15-4.16-3.91.6-9.79.65-12.31,4.18s-2.85,10.22-3.74,14.55c-.79,3.82-1.84,7.95.7,11.35,2.34,3.13,6.57,4.42,10.29,4.82,5.68.62,17.65-2.17,11.09-10.08a8.5,8.5,0,0,0-4.1-2.7c-.89-.27-1.81-.19-2.69-.43q-1,1.55-.27-.1.33-.84.61-1.7a72.81,72.81,0,0,0,3.55-17.37c.25-2.77-4.07-2.75-4.32,0Z" transform="translate(-221.5 -157.5)"/><path class="cls-2" d="M316.23,247.63c.23-1.24-1.24-2.12-2.51-2.48-6.73-1.89-14.68.84-18.32,6.5a14,14,0,0,0,2.91,18.06,22.48,22.48,0,0,0,7.48,3.68,23.47,23.47,0,0,0,10,1.23c3.37-.45,6.68-2.18,8.3-5a10.58,10.58,0,0,0,.28-8.92,32.66,32.66,0,0,0-4.88-7.92L315.16,247" transform="translate(-221.5 -157.5)"/><path d="M318.32,247.05c-2.09-8.72-17.36-3.87-21.78,0a16.17,16.17,0,0,0-.76,23.23c6.43,6.45,20.86,9.68,28.13,3,9.22-8.52-1.54-20.34-6.88-27.41-1.65-2.19-5.4,0-3.73,2.18,3.51,4.64,10,10.88,9.81,17.16-.36,10.36-15.06,7.57-20.92,4.43-6-3.23-8.84-10.87-4.92-16.91a13.57,13.57,0,0,1,7.37-5.31c1.66-.51,8.87-1.92,9.51.77s4.81,1.56,4.16-1.15Z" transform="translate(-221.5 -157.5)"/><path class="cls-3" d="M453.69,323.73c-.85,4.21-3.31,8-5.5,11.74-4.83,8.35-8.48,17.41-9.58,26.8s.46,19.17,5.46,27.28c4.37,7.1,11.21,12.68,18.89,16.59a54.79,54.79,0,0,0,25.86,6.19,42.55,42.55,0,0,0,25.12-8.53c8.74-6.85,13.63-17.27,15.41-27.76s.74-21.16-.6-31.66c-.73-5.74-1.56-11.5-3.49-17a6.2,6.2,0,0,0-1.64-2.8c-1.27-1.08-3.15-1.16-4.87-1.2l-38.09-.73a74.32,74.32,0,0,0-14.59.68Z" transform="translate(-221.5 -157.5)"/><path d="M451.89,323.23c-1.47,5.86-5.2,10.73-7.89,16.06a72.62,72.62,0,0,0-6.31,17.23c-2.13,9.82-1.71,20.28,2.43,29.53,8.72,19.49,33.23,30.37,53.76,27.75,20.86-2.66,34.65-18.85,37.55-39.12,1.7-11.89.24-24.17-1.6-36-.66-4.24-1.28-9.44-3.36-13.28s-5.66-3.85-9.63-3.94c-14.44-.33-29.07-1.21-43.51-.71-6.55.23-13.07.87-19.64,1.06-2.4.07-2.41,3.81,0,3.74,13.17-.38,26.15-1.05,39.35-.8l15.24.29c5.44.1,13.27-1.59,15.72,4.47,1.84,4.54,2.26,10,2.88,14.83.71,5.57,1.34,11.15,1.5,16.77.61,20.34-7.1,41.38-28.35,47.59-19.12,5.59-43.77-2.88-54.34-20.14-6.35-10.37-6.72-23.07-3.53-34.54A74.82,74.82,0,0,1,448.92,338c2.49-4.51,5.31-8.7,6.58-13.76C456.08,321.89,452.48,320.9,451.89,323.23Z" transform="translate(-221.5 -157.5)"/><path class="cls-3" d="M462.7,261.25c-11.12-1.41-21.69,5-30.52,11.71s-17.74,14.39-28.83,16.27c-.56,2,2,3.4,4.09,4.05s15.63-.92,14.89,1.06c-.57,1.53-13.93,5.21-14.2,6.81,1.25.36,9.66.93,10.53,1.86-1,.94-9.19,2-10.16,2.94a29.77,29.77,0,0,1,20.74,8.22c2.1,2.05,3.89,4.44,6.4,6,3.34,2.11,7.53,2.55,11.55,2.75a161.5,161.5,0,0,0,27.89-.73c9.8-1.17,19.76-2.35,29.49-.89,5.43.81,10.69,2.51,16.15,3.13,4.38.5,8.58-1.33,12.73-2.54l33.69-9.76c-.2-1.94,10.47-3.65,12.51-3.82-.63-1.76-8.68-4-7.22-5.27a15.63,15.63,0,0,1,5.19-2.58c-6.81-2.75-11.2-9-15.56-14.64s-9.7-11.49-17-12.71c-2.1-.35-4.61-.48-5.72-2.21a5.83,5.83,0,0,1-.67-2.83,93.38,93.38,0,0,0-3.33-19.18c-.73-2.56-1.88-5.42-4.51-6.29-3-1-6.19,1.23-8.47,3.46a69.5,69.5,0,0,0-10.48,13.07c-.82,1.32-1.72,2.78-3.24,3.27a6.75,6.75,0,0,1-2.57.15l-16.41-1.18a28,28,0,0,0-9.15-19.67,4,4,0,0,0-2.46-1.29,4.16,4.16,0,0,0-2.53,1.09c-5,3.82-5.27,10.93-9.68,15.35-2.16,2.16-6,5.11-3.16,4.36" transform="translate(-221.5 -157.5)"/><path d="M462.7,259.38c-24.34-2.26-37.58,23.69-59.85,28a1.89,1.89,0,0,0-1.37,1.8c.08,8.12,11.89,5.76,16.9,5.95a11,11,0,0,0,2.5.18l-.44-1.86q-.63.34-1.28.63c-1.92.33-4.16,1.63-6,2.35-2,.78-5.56,1.63-6.64,3.73a1.89,1.89,0,0,0,1.12,2.75c3,.65,7.45,0,10.09,1.67v-3.23c-3,1.87-7.16,1-10.16,2.94a1.89,1.89,0,0,0,.94,3.49A28.76,28.76,0,0,1,429,316.53c4,4.06,7.43,6.91,13.2,7.81,13.62,2.13,27.66.12,41.23-1.19,7.48-.73,15.06-1.05,22.5.28,6,1.08,12.39,3.59,18.59,2.81,7-.87,14-3.82,20.71-5.77L567.65,314a1.87,1.87,0,0,0,1.31-1.31c.27-1.24,9-2.27,10.71-2.45a1.89,1.89,0,0,0,1.62-2.82,9,9,0,0,0-3.73-2.83,18.55,18.55,0,0,1-2.59-1.3q-1.28-1.06-.41.58a19.45,19.45,0,0,1,3.58-1.55c1.35-.48,2-2.7.45-3.42-10.73-4.83-14.83-16.72-24-23.48a23,23,0,0,0-6-3.27c-2.87-1-6.7-.56-8-4-.88-2.3-.56-5.92-.95-8.42a91.12,91.12,0,0,0-2-9.54c-.95-3.56-2.2-7.84-6.06-9.22s-7.75,1.24-10.51,3.84c-4.31,4.05-7,9-10.78,13.45-3.89,4.61-15.06,1.71-20.61,1.32l1.87,1.87a30.79,30.79,0,0,0-5.19-15.79c-2.13-3.11-5.75-8.24-10.13-6.65-4.2,1.52-6.22,6.61-7.9,10.29A22.71,22.71,0,0,1,464.1,256c-1.29,1.34-3.24,2.51-4,4.26a2,2,0,0,0,.67,2.56,2.93,2.93,0,0,0,2.46.25c2.37-.35,1.37-4-1-3.61l.42.13.67,2.56c.93-2.06,3.66-3.5,5.07-5.29,2.06-2.62,3.07-5.76,4.56-8.7.71-1.39,1.59-3.55,2.94-4.42,3.51-2.28,6.35,2.37,7.7,4.44a26.71,26.71,0,0,1,4.25,13.23,1.92,1.92,0,0,0,1.87,1.87c5.69.41,12,1.73,17.71,1.23,3.73-.33,5.13-2.93,7-5.81a67.62,67.62,0,0,1,5.81-7.62c1.11-1.25,2.26-2.53,3.49-3.67l2.15-1.82,6.34.49c1.76,1.5,2.17,6.32,2.66,8.49a89.72,89.72,0,0,1,1.74,10.87c.35,3.66.19,6.92,3.93,8.61,2,.89,4.29.77,6.33,1.44a22.09,22.09,0,0,1,8.24,5.21c7.46,7.1,11.79,17,21.6,21.39l.45-3.42c-2.22.8-7.54,2.23-6.56,5.53.9,3.06,5.92,2.69,7.47,5.07l1.62-2.82c-3.77.39-8.45.87-11.82,2.67-.58.31-1.1.71-1.66,1q-.3.35-.57.71-.14.94-.83,0c-4,1.83-8.89,2.57-13.1,3.8-8.28,2.4-16.6,5.37-25,7.33s-17.25-2.25-25.76-3-17.26.36-25.84,1.32a168.61,168.61,0,0,1-26,.82c-4.22-.18-8.81-.27-12.51-2.58-3.25-2-5.44-5.49-8.45-7.85a32.56,32.56,0,0,0-19.63-6.66l.94,3.49c3-1.87,7.16-1,10.16-2.94a1.89,1.89,0,0,0,0-3.23c-3-1.91-7.61-1.33-11-2l1.12,2.75c1.62-3.14,15.89-3.06,14.4-8.51-1.55-5.63-18.87,1.56-18.93-4.35l-1.37,1.8c21.81-4.26,35.36-30.09,58.85-27.91,2.4.22,2.38-3.52,0-3.74Z" transform="translate(-221.5 -157.5)"/><path d="M475.74,310.32a6,6,0,0,0,6.06,5.58c4.28.2,7.14-3.34,9.33-6.54H487.9c4.8,6.76,13.34,7.59,19.66,2.36,1.86-1.54-.8-4.17-2.65-2.65-4.37,3.61-10.44,3.09-13.78-1.61a1.9,1.9,0,0,0-3.23,0,19.05,19.05,0,0,1-2.23,2.89q-2.53,3.11-6.18,0c-.25-2.37-4-2.4-3.74,0Z" transform="translate(-221.5 -157.5)"/><path class="cls-4" d="M450.66,344.1a27.79,27.79,0,0,0-1.1,9.49,8.42,8.42,0,0,0,.73,3.34c1.1,2.18,3.61,3.31,5.93,4.27a108.45,108.45,0,0,0,11.07,4.14c7.74,2.27,15.94,2.82,24.06,3.13q6.61.26,13.23.32a21,21,0,0,0,5.92-.52A13.53,13.53,0,0,0,518.6,361a32.62,32.62,0,0,0,2.62-10.56c.29-2.37.5-4.9-.67-7-1.75-3.13-5.86-4.15-9.51-4.85-9.46-1.79-19-3.83-28.62-3.93-21.62-.22-16.25.11-22.4.53a17,17,0,0,0-4.71.74A5.26,5.26,0,0,0,452,339S451.16,342.4,450.66,344.1Z" transform="translate(-221.5 -157.5)"/><path d="M448.85,343.6c-1.45,5.47-2.81,13.22,2.39,17.11,6.26,4.68,16.2,7,23.74,8.23,8.83,1.39,17.85,1.54,26.76,1.69,6.8.11,12.78-.33,17-6.3,3.45-4.84,5.94-14.19,4.12-20.06-2-6.36-9.62-7.12-15.15-8.18a170.94,170.94,0,0,0-42.33-3.24c-2.07.12-4.14.37-6.2.56-3,.27-6.12.76-8.06,3.29-1.44,1.88-1.68,4.7-2.3,6.9s3,3.31,3.61,1c1.11-3.94,1-6.65,6-7.39,1.32-.2,2.71-.2,4-.33s2.7-.28,4.07-.33a184.86,184.86,0,0,1,42.12,3.52c4.55.88,10.74,1.54,10.92,7.51A28.06,28.06,0,0,1,517,360.06c-4.52,9.1-15.3,6.9-23.74,6.61s-17.19-.73-25.45-3.13c-3.83-1.12-8.6-2.51-12-4.56-5.4-3.23-4.71-9.07-3.3-14.38C453.08,342.26,449.47,341.27,448.85,343.6Z" transform="translate(-221.5 -157.5)"/><path class="cls-5" d="M478,281.44c-3-.34-6.21-.63-8.77.89a10.47,10.47,0,0,0-4.13,5.75,11.87,11.87,0,0,0-.72,6.62c.74,3.16,3.51,5.62,6.66,6.79a22.49,22.49,0,0,0,10.06.86,11.1,11.1,0,0,0,4.17-1.06,8.1,8.1,0,0,0,2.67-2.46,11.67,11.67,0,0,0,.66-12.45,12.68,12.68,0,0,0-11.37-6" transform="translate(-221.5 -157.5)"/><path d="M478,279.57c-8.37-.88-14.74,2.76-15.61,11.8-.88,9.21,8.3,13.23,16.16,13s13.88-4.65,13.37-13.17c-.46-7.76-7.31-12.65-14.68-12.73-2.41,0-2.41,3.72,0,3.74,4.7,0,9.38,2.5,10.67,7.33,1.82,6.85-3.09,10.91-9.36,11.08-5.81.16-12.84-1.91-12.33-9,.2-2.73,1.51-6.19,4-7.68,2.29-1.39,5.34-.89,7.83-.63s2.38-3.49,0-3.74Z" transform="translate(-221.5 -157.5)"/><path class="cls-5" d="M513.9,283.48a14.39,14.39,0,0,0-13.44-1.4c-4.32,1.87-7.35,6.39-6.93,10.87a14.48,14.48,0,0,0,1.33,4.52c1.21,2.7,3,5.36,5.81,6.57a10.77,10.77,0,0,0,8-.17,25.45,25.45,0,0,0,6.83-4.33c2.5-2.05,5.09-4.69,4.88-7.81a9.47,9.47,0,0,0-1.44-3.91c-1-1.69-2.12-3.44-4-4.13s-4-.27-5.42-1.52" transform="translate(-221.5 -157.5)"/><path d="M514.85,281.86c-6.95-4.14-16.59-3.62-21.24,3.73-4.12,6.51-.88,16.81,6.13,20.06,7.25,3.36,16.79-2.74,20.8-8.69,2.1-3.12,2-6.17.33-9.47a13,13,0,0,0-3.53-4.58c-2.12-1.56-4.66-1.09-6.9-2.36s-4,2-1.89,3.23c1.55.88,2.86.78,4.47,1.37,3.58,1.32,6.72,5.46,4.69,9.36-2.15,4.13-9.25,8.69-13.88,8.33-6.73-.53-10.43-10.11-7-15.36,3.67-5.6,10.91-5.49,16.12-2.38,2.07,1.24,4-2,1.89-3.23Z" transform="translate(-221.5 -157.5)"/><path class="cls-6" d="M471.33,261.16c-.21-2.58,1.19-5,2.55-7.27a10.73,10.73,0,0,1,3.35-3.93,2,2,0,0,1,1.26-.35c.88.13,1.24,1.14,1.36,2a33.15,33.15,0,0,1-.36,8.74,5.51,5.51,0,0,1-.48,1.89,3.69,3.69,0,0,1-3.78,1.67,5.31,5.31,0,0,1-3.49-2.39" transform="translate(-221.5 -157.5)"/><path d="M473.2,261.16a11.35,11.35,0,0,1,2-5.9c.38-.64.75-1.3,1.18-1.9s1.78-1.62,1.48-1.92c.82.8.18,4.57.09,5.61a15,15,0,0,1-.48,3.75c-1,1.94-3.1,1.16-4.17-.24-1.45-1.89-4.7,0-3.23,1.89,2.17,2.83,6.06,4.72,9.26,2.15,1.68-1.36,1.88-3.34,2.13-5.36a26.31,26.31,0,0,0,.19-7.9c-.66-3.56-3.73-4.56-6.49-2.2-3.18,2.73-5.76,7.83-5.73,12,0,2.41,3.76,2.41,3.74,0Z" transform="translate(-221.5 -157.5)"/><path class="cls-6" d="M517.18,264.59a25.75,25.75,0,0,1,4.51-7c.7-.77,1.82-1.56,2.71-1a2,2,0,0,1,.66.79c1.63,3,1.1,6.68.53,10.06a2.31,2.31,0,0,1-.37,1.06c-.64.83-2,.54-2.93.05a12,12,0,0,1-5.08-5" transform="translate(-221.5 -157.5)"/><path d="M518.79,265.54a24.37,24.37,0,0,1,3.67-6c.18-.21,1.28-1.14,1-1.25.7.25.81,3,.83,3.56a19.67,19.67,0,0,1-.24,3.48c-.11.8.1,1.5-.81,1.57-.7.06-2.12-1.41-2.56-1.85a11,11,0,0,1-1.85-2.5c-1.19-2.1-4.42-.21-3.23,1.89,1.59,2.81,4.76,6.34,8.27,6.39,4.16.06,4.17-5.6,4.16-8.59,0-2.75-.86-8.13-4.67-7.66s-6.42,6-7.78,9c-1,2.18,2.23,4.08,3.23,1.89Z" transform="translate(-221.5 -157.5)"/><path class="cls-3" d="M518.83,398.5c16.44-13.3,34.33-40.55,52.19-52,4.84-3.12,10.26-5.67,16-6.23s12,1.15,15.71,5.38a17.81,17.81,0,0,1,3.58,6.94,19.27,19.27,0,0,1-.07,11.68c-2.14,6-7.78,10.27-13.52,13.49-9.19,5.15-19.29,8.58-29.32,12-7.46,2.52-14.92,5-22.43,7.41a88.66,88.66,0,0,1-13.64,3.45c-3.22.47-6.61.6-9.59-.6" transform="translate(-221.5 -157.5)"/><path d="M520.16,399.82c12.21-10.07,21.84-22.92,32.57-34.47,10.06-10.83,28.11-29.94,44.68-21.53,10,5.07,9.94,19.13,2.7,26.35-6.7,6.69-16.79,10.42-25.48,13.63S556.91,390,548,392.88s-20.4,8.29-29.73,5.27c-2.3-.74-3.28,2.87-1,3.61,7.37,2.39,15.42-.14,22.54-2.33,9.49-2.91,18.9-6.14,28.29-9.35a165.8,165.8,0,0,0,23.27-9.49c6.24-3.26,12.84-7.47,16-14.06a19.88,19.88,0,0,0-15.91-28.16c-14.89-1.4-27.94,10.47-37.57,20.34-12.29,12.6-22.73,27.22-36.37,38.47-1.86,1.53.8,4.17,2.65,2.65Z" transform="translate(-221.5 -157.5)"/><path class="cls-4" d="M529.89,388.18l.81,8.08c.05.55.22,1.22.75,1.34a1.32,1.32,0,0,0,.47,0l10-1.44a1.45,1.45,0,0,0,1.09-.5,1.43,1.43,0,0,0,.14-.76c0-5.12.34-10-.13-15.14,0-.5.12-5.28-.33-5.5s-2.5,2.88-2.92,3.17c-4.06,2.77-7.29,7-11,10.2" transform="translate(-221.5 -157.5)"/><path d="M528.39,388.18c.27,2.66-.6,9.6,2.66,10.86,1.6.62,4.62-.49,6.26-.73s5.09,0,6.44-1.37c1.06-1.08.86-2.25.9-3.76.09-3.35.19-6.71.06-10.06-.1-2.67.5-7.19-.75-9.63a1.5,1.5,0,0,0-1.69-.69c-1.93.77-3.17,3.11-4.77,4.42-3.5,2.87-6.45,6.3-9.81,9.33-1.44,1.3.69,3.41,2.12,2.12,2.8-2.53,5.27-5.4,8.1-7.88,1.05-.92,2.26-1.66,3.24-2.67.55-.56,1.21-2.15,1.92-2.43l-1.69-.69c.55,1.09.09,3.52.13,4.74.1,3.65.26,7.25.19,10.91,0,1.86.37,3.3-1,4.16-1.13.7-3.66.53-5,.72-2.22.32-3,.63-3.73-1.71-.53-1.67-.39-3.91-.56-5.66-.19-1.9-3.19-1.92-3,0Z" transform="translate(-221.5 -157.5)"/><path class="cls-4" d="M558.08,357.92c1.81,10.2,3.38,17.49,5.19,27.69a2.9,2.9,0,0,0,1.12,2.18c1,.54,2.16,0,3.12-.58a64,64,0,0,1,16.39-6.36q-.73-16.91-2.75-33.73c-.14-1.14-.41-2.46-1.49-2.94s-2.25.11-3.25.67c-6.18,3.5-11.57,7.74-17.43,11.72-.58.39-1.87.53-1.56,1.13" transform="translate(-221.5 -157.5)"/><path d="M556.28,358.41c.93,5.17,1.92,10.33,2.91,15.49.79,4.11.72,10.26,2.8,13.9,1.33,2.33,3.49,2.17,5.69,1.38,5.69-2,10.75-5,16.73-6.52a1.89,1.89,0,0,0,1.37-1.8c-.36-7.83-.88-15.65-1.64-23.45-.33-3.44.46-12.79-3.53-14.84s-9.77,3.46-12.54,5.36-5.64,4.13-8.57,6c-1.51,1-3.34,1.42-3.87,3.25-.67,2.32,2.94,3.31,3.61,1-.21.72,3.21-1.75,3.59-2,1.9-1.34,3.79-2.7,5.7-4s3.83-2.64,5.8-3.87q1.5-.94,3-1.81a4.48,4.48,0,0,1,2.36,4.39c1.21,4.65,1,10.19,1.41,15,.39,5,.68,10,.9,15l1.37-1.8a70.93,70.93,0,0,0-10.51,3.47c-1.73.74-3.75,2.26-5.55,2.66-2.9.65-2.49-1.31-2.94-3.77-1.47-8-3.08-16-4.52-24-.42-2.37-4-1.36-3.61,1Z" transform="translate(-221.5 -157.5)"/><path class="cls-4" d="M594,343a94.59,94.59,0,0,0,.11,15.63c.34,3.82,1,7.86,3.66,10.76a2.2,2.2,0,0,0,.92.68c.84.26,1.68-.37,2.31-1a19.11,19.11,0,0,0,4.57-5.52c2.32-4.89.17-10.65-2.78-15.22-2.1-3.25-5-4.18-8.79-5.37" transform="translate(-221.5 -157.5)"/><path d="M592.1,343c-.49,7.42-1.2,16.59,1.8,23.66,2.31,5.46,5.75,6.61,10,2.26,4.66-4.8,5.53-10.49,3-16.66s-6.19-9.07-12.44-11.06c-2.3-.73-3.29,2.88-1,3.61,4.44,1.42,7.24,3.12,9.32,7.38,1.93,4,3.45,11.48-1.57,14.09s-5.21-6.64-5.43-9.59a99.08,99.08,0,0,1,0-13.68c.16-2.41-3.59-2.4-3.74,0Z" transform="translate(-221.5 -157.5)"/><path d="M481,300.07a1.87,1.87,0,0,0,0-3.74,1.87,1.87,0,0,0,0,3.74Z" transform="translate(-221.5 -157.5)"/><path d="M499.61,300.8a1.87,1.87,0,0,0,0-3.74,1.87,1.87,0,0,0,0,3.74Z" transform="translate(-221.5 -157.5)"/><path class="cls-7" d="M461.4,336.29a8.14,8.14,0,0,1,.16,4.74,76.06,76.06,0,0,1-3.6,13.21,13,13,0,0,1-2,3.92.65.65,0,0,1-.52.3.64.64,0,0,1-.4-.29,25.69,25.69,0,0,1-3.38-5.25,10.43,10.43,0,0,1-.92-6,14.91,14.91,0,0,1,.48-1.83,11.19,11.19,0,0,1,.85-2.14,12.68,12.68,0,0,1,3.51-3.55,13.92,13.92,0,0,1,4.7-2.74" transform="translate(-221.5 -157.5)"/><path d="M459.59,336.79c1,3.2-.5,7.32-1.34,10.42-.6,2.22-1.76,8.45-3.79,9.64h1.89c-3-2.18-4.37-7.62-3.5-10.85,1-3.57,4.52-6.33,7.89-7.58,2.24-.83,1.27-4.45-1-3.61-4.85,1.8-9.37,5.46-10.64,10.64a15.1,15.1,0,0,0,5.35,14.62,1.84,1.84,0,0,0,1.89,0c3.29-1.93,4.36-7.79,5.31-11.14,1.15-4.06,2.8-9,1.54-13.14-.69-2.3-4.3-1.32-3.61,1Z" transform="translate(-221.5 -157.5)"/><path class="cls-8" d="M513.66,341.14a16,16,0,0,0-1.21,5.61,129.82,129.82,0,0,0-.36,15.75,17.93,17.93,0,0,0,.62,4.69c.06.19.16.39.32.37s.26-.18.37-.34a44,44,0,0,0,3.74-6.15,20.83,20.83,0,0,0,2.08-7.15c.06-.74.06-1.46.06-2.18a17.25,17.25,0,0,0-.14-2.56,11.5,11.5,0,0,0-1.8-4.29c-.82-1.35-1.66-2.74-2.88-3.35" transform="translate(-221.5 -157.5)"/><path d="M512,340.67c-1.88,4.87-1.67,10.64-1.72,15.78,0,3.5-.93,9.47,1.54,12.36a1.79,1.79,0,0,0,2.5,0c7.55-7,9.94-22,1.07-28.78-1.81-1.38-3.57,1.69-1.78,3.05,7,5.31,3.78,18.07-1.79,23.23h2.5c-1.67-2-.53-9.87-.45-12.49.12-4.07.07-8.38,1.55-12.22.82-2.12-2.6-3-3.41-.94Z" transform="translate(-221.5 -157.5)"/><path class="cls-3" d="M458.84,406c-1.41,5.77,3,12.07.74,17.57-.61,1.49-1.69,3.06-1.09,4.56s2.31,1.85,3.82,2.05,3.21.36,4.82.45a9.66,9.66,0,0,0,4.61-.56,7.86,7.86,0,0,0,3.78-4.9c1.34-4.12.86-8.57.37-12.87" transform="translate(-221.5 -157.5)"/><path d="M457,405.55a21.07,21.07,0,0,0,.21,7.64c.84,4.44,1.26,7.14-.16,11.44s.69,6.64,5,7.43c4.49.83,10.09,1.37,13.28-2.53,3.81-4.67,3-11.66,2.43-17.19-.26-2.37-4-2.39-3.74,0,.45,4,1.1,8.49-.3,12.38-1,2.82-3.84,3.87-6.59,4.08q-1.61-.09-3.22-.26-3,.66-2.49-2.16c-.57-2.73.85-5.57.52-8.49-.43-3.83-1.94-7.44-1.3-11.35.39-2.36-3.22-3.37-3.61-1Z" transform="translate(-221.5 -157.5)"/><path class="cls-3" d="M511.34,407.33a44.86,44.86,0,0,1-.07,12.08,9.55,9.55,0,0,0,0,4.49c.5,1.43,1.7,2.47,2.61,3.68s1.52,2.92.72,4.2-2.32,1.45-3.71,1.6c-3.25.35-6.58.7-9.74-.11s-6.18-3-7-6.19a13.75,13.75,0,0,1,0-5.12c.31-2.42,1.75-6.62,2.06-9" transform="translate(-221.5 -157.5)"/><path d="M509.47,407.33c.52,4.69,0,8.94-.28,13.6a8.91,8.91,0,0,0,.47,3.92c.61,1.57,4.21,4.72,2.15,6.52-1,.9-6,.61-7.45.51-3.41-.25-7.32-1.57-8.39-5.28-1.17-4.06,1.39-9.17,2.08-13.17.41-2.36-3.2-3.37-3.61-1-.91,5.27-4,11.65-1.42,16.91,2.55,5.1,8.57,6.47,13.78,6.27,3.82-.14,10.37-.3,10-5.7a6.87,6.87,0,0,0-1.28-3.26c-1.55-2.33-2.43-3.92-2.36-7.23.08-4.09.53-8,.07-12.08-.26-2.37-4-2.4-3.74,0Z" transform="translate(-221.5 -157.5)"/><ellipse class="cls-9" cx="223.14" cy="188.13" rx="6.98" ry="7.3"/><ellipse class="cls-10" cx="305.28" cy="194.67" rx="8.88" ry="8.83"/><path d="M446.33,350.17a5.76,5.76,0,0,1,2.6.28,1.5,1.5,0,0,0,.8-2.89,7.86,7.86,0,0,0-3.4-.38,1.54,1.54,0,0,0-1.5,1.5,1.51,1.51,0,0,0,1.5,1.5Z" transform="translate(-221.5 -157.5)"/><path d="M446.34,345.79l3.66.36a1.51,1.51,0,0,0,1.5-1.5,1.53,1.53,0,0,0-1.5-1.5l-3.66-.36a1.51,1.51,0,0,0-1.5,1.5,1.53,1.53,0,0,0,1.5,1.5Z" transform="translate(-221.5 -157.5)"/><path d="M520.33,357.17h3.33a1.5,1.5,0,0,0,0-3h-3.33a1.5,1.5,0,0,0,0,3Z" transform="translate(-221.5 -157.5)"/><path d="M520,351.83h4.67a1.5,1.5,0,0,0,0-3H520a1.5,1.5,0,0,0,0,3Z" transform="translate(-221.5 -157.5)"/><path d="M499.5,427v3.67a1.5,1.5,0,0,0,3,0V427a1.5,1.5,0,0,0-3,0Z" transform="translate(-221.5 -157.5)"/><path d="M503.55,427l.33,3.33a1.54,1.54,0,0,0,1.5,1.5,1.51,1.51,0,0,0,1.5-1.5l-.33-3.33a1.54,1.54,0,0,0-1.5-1.5,1.51,1.51,0,0,0-1.5,1.5Z" transform="translate(-221.5 -157.5)"/><path d="M464.85,426a12.41,12.41,0,0,0,.36,4.4,1.5,1.5,0,0,0,2.89-.8,10,10,0,0,1-.25-3.6,1.51,1.51,0,0,0-1.5-1.5,1.53,1.53,0,0,0-1.5,1.5Z" transform="translate(-221.5 -157.5)"/><path d="M468.83,425.67v3a1.5,1.5,0,0,0,3,0v-3a1.5,1.5,0,0,0-3,0Z" transform="translate(-221.5 -157.5)"/><path class="cls-11" d="M477.59,353.69a44.43,44.43,0,0,1,1.15-6.17c.11-.42.33-2,.4-2.13q-.46-.87.44.65l.86,1.37c1.84,2.92,3.53,6.81,6,9.24a1.88,1.88,0,0,0,1.82.48c1.87-.53,2.45-2.33,2.7-4.07a52.35,52.35,0,0,0,.34-9.55c-.1-2.4-3.84-2.41-3.74,0,.07,1.73.09,3.45,0,5.18a39.54,39.54,0,0,1-.31,4.84l1.82.48a22.78,22.78,0,0,1-2.5-3.92L484,346c-1.13-1.78-2.25-4.66-4.72-4.63-4.7.06-5,9.1-5.4,12.35-.28,2.39,3.47,2.37,3.74,0Z" transform="translate(-221.5 -157.5)"/><path class="cls-12" d="M311.33,228.33c5.35,3.72,10.29,5.74,15.64,9.46a143.08,143.08,0,0,0,13.08,8.4c4.15,2.26,8.53,4.12,12.53,6.6a33.61,33.61,0,0,1,10.55,9.88A20.86,20.86,0,0,1,366.64,277c-1.24,8.38-8.68,15.12-17.16,17.88s-17.8,2.11-26.56.3-17.23-4.73-26-6.49c-5-1-10.12-1.64-14.7-3.75-11.64-5.35-16.6-18.68-17.27-30.89-.25-4.53,0-9.17,1.61-13.43,3.35-8.62,12.46-14.5,22-16.08s13.89,0,22.73,3.82" transform="translate(-221.5 -157.5)"/><path d="M310.24,230.2c7.2,4.82,14.8,9.08,22.06,13.83,7,4.59,15.17,7.45,21.9,12.46,7.48,5.57,13.4,15.43,8.88,24.71-3.84,7.89-12.52,12-20.83,13-9.49,1.2-18.94-1-28.06-3.4-8.57-2.28-17.28-3.88-25.84-6.08-15.8-4.07-22.19-20.72-21.28-35.82.62-10.38,7.46-17.89,17.15-21.09,9.29-3.07,17.33-1.34,26,2.38,2.53,1.08,4.73-2.64,2.18-3.73-8.19-3.51-15.45-5.6-24.4-4-8.25,1.44-16.3,5.77-21.06,12.81-9,13.22-4,36.58,7.44,47,7.44,6.78,17.28,7.29,26.62,9.54,11.37,2.74,22.58,6.77,34.39,7.07,16.56.41,38.62-10.72,32.65-30.67-3.22-10.76-12.74-16.67-22.19-21.42a141.9,141.9,0,0,1-16.39-9.84c-5.52-3.77-11.51-6.72-17.06-10.44-2.31-1.55-4.48,2.19-2.18,3.73Z" transform="translate(-221.5 -157.5)"/><path d="M312.63,258.71c2.78,0,2.78-4.32,0-4.32s-2.78,4.32,0,4.32Z" transform="translate(-221.5 -157.5)"/><path d="M329.52,255.6l-.06.36a2.21,2.21,0,0,0,1.51,2.66,2.18,2.18,0,0,0,2.66-1.51l.06-.36a2.21,2.21,0,0,0-1.51-2.66,2.18,2.18,0,0,0-2.66,1.51Z" transform="translate(-221.5 -157.5)"/><path class="cls-13" d="M371.66,273.3c-1.47-1.16-3.93-.36-4.88,1.21a4.28,4.28,0,0,0,2.66,6.06c2.57.67,5.52-1.4,5.57-3.92s-2.8-4.7-5.4-4.13" transform="translate(-221.5 -157.5)"/><path d="M372.75,271.44c-3.14-2.08-7.67,0-8.48,3.6a6.52,6.52,0,0,0,5.6,7.78c3.7.36,7.5-2.74,7.28-6.58-.23-4.07-4.42-6.39-8.11-5.79-2.74.44-1.57,4.6,1.15,4.16a2.42,2.42,0,0,1,2.66,1.92c.06,1.2-1.48,2.11-2.54,2-2.86-.26-1.83-4.77.27-3.37,2.32,1.54,4.49-2.2,2.18-3.73Z" transform="translate(-221.5 -157.5)"/><path class="cls-12" d="M267.77,236.06c-3-3.41-7.79-4.31-12.25-5a4.28,4.28,0,0,0-2.11,0,4.35,4.35,0,0,0-1.36.94,17.31,17.31,0,0,0-2,2.08c-2.08,2.62-4.74,6.93-1.85,10.52a1.72,1.72,0,0,0,.5.42c4.74,2.63,6.13-4.13,9.71-3.7a3.9,3.9,0,0,1,1.74.76,8.53,8.53,0,0,1,3.48,5.69" transform="translate(-221.5 -157.5)"/><path d="M269.3,234.54c-3.59-3.71-9.7-5.81-14.84-5.76-4.54,0-8.45,6.3-9.37,10.21s1.26,9.09,6,8.81a7.45,7.45,0,0,0,4.47-2.25c.52-.46,1.44-1.82,2.16-1.93,2.36-.34,3.52,3.13,3.87,4.76.58,2.71,4.75,1.57,4.16-1.15-1.24-5.77-6.8-10.58-12-6-.44.39-.82.86-1.28,1.24-1.21,1-1,1.13-2.35-.14-2.2-2.06.51-6.08,2.4-7.79,3.37-3.07,10.92.16,13.7,3,1.94,2,5-1.06,3.05-3.05Z" transform="translate(-221.5 -157.5)"/><path class="cls-12" d="M292.45,222.95a12.52,12.52,0,0,1,14.66-12.84,9,9,0,0,1,6.14,3.77c.75,1.2,1,2.94,0,3.9-1.74,1.63-5.22-.56-6.76,1.26a3.74,3.74,0,0,0-.66,1.89l-.58,3.74" transform="translate(-221.5 -157.5)"/><path d="M294.61,222.95c.05-4.56,2.47-8.76,7-10.27a11.09,11.09,0,0,1,4.31-.55c.92.07,8.11,2.56,4.88,4.13-.77.37-2.43-.27-3.37,0a4.5,4.5,0,0,0-2,1c-2,1.62-1.88,4.61-2.24,6.92-.42,2.72,3.73,3.89,4.16,1.15.2-1.3.06-4.16,1.52-4.82.52-.23,2.22.2,2.83.14a4.61,4.61,0,0,0,4-2.54c1.84-3.88-2.1-7.78-5.34-9.18-9.9-4.28-19.91,4.08-20,14.11,0,2.78,4.28,2.78,4.32,0Z" transform="translate(-221.5 -157.5)"/><path class="cls-12" d="M255.63,322.63c-1.72-.74-6.27-2.77-7.53-4.15-7.34-8.09-14.54-17.82-14-28.72s9.42-22.73,19.32-27.35a11.35,11.35,0,0,1,3.68-.9c3-.48,5.84.39,5.75,2.25s-6.06,6.44-7.87,6c.86,1,2.77,4.91,4,7a1,1,0,0,1-.5,1.49c-4.75,2.05-11.58,3.16-13.5,7.63-1.84,4.27.82,9.63,2.88,13.8a17,17,0,0,0,10.44,8.66" transform="translate(-221.5 -157.5)"/><path d="M256.71,320.76c-12.29-5.35-23.27-21.48-19.74-35.24a34,34,0,0,1,11.81-17.64c2.45-1.95,6.41-4.91,9.82-4.35,2.74.45,1.49.87.3,1.88-.93.79-2.58,2.21-3.9,2.18-1.53,0-2.84,1.9-1.86,3.25.78,1.08,3.69,4.87,3.44,6,0,0-4.64,1.48-5.86,2-3.74,1.53-7.3,3.72-8.24,7.93-1.13,5,1.65,11.05,4.23,15.22a20.07,20.07,0,0,0,11.05,8.43c2.64.88,3.77-3.29,1.15-4.16-5.82-1.94-8.94-6.38-11.07-11.9-1.34-3.48-2-7.29,1.23-9.9,1.77-1.44,4.38-2,6.49-2.79s5.34-1.33,5.71-4-2.91-6.92-4.38-9L255,271.91c4.38.09,14-7.39,8.18-11.54-7.85-5.62-19.42,5.35-23.68,10.83-6.79,8.74-9.58,19.55-5.53,30.12,3.78,9.85,10.85,18.94,20.56,23.17,2.52,1.1,4.72-2.62,2.18-3.73Z" transform="translate(-221.5 -157.5)"/><path class="cls-1" d="M318.83,307.31a24.74,24.74,0,0,1,12.23,23.83A10.48,10.48,0,0,1,330,335c-1.47,2.67-4.51,4-7.33,5.12" transform="translate(-221.5 -157.5)"/><path d="M317.74,309.18a22.93,22.93,0,0,1,10.44,13.43,20.06,20.06,0,0,1,.72,8.21c-.59,4.23-3.12,5.73-6.83,7.26-2.53,1-1.42,5.22,1.15,4.16,7.93-3.26,11.05-8.35,9.9-17a27.32,27.32,0,0,0-13.19-19.76c-2.39-1.43-4.56,2.3-2.18,3.73Z" transform="translate(-221.5 -157.5)"/><path class="cls-1" d="M315.19,297.36c3.57,13,5.48,26.39,7.38,39.74a135.52,135.52,0,0,1,1.83,19.61,68.12,68.12,0,0,1-9.71,34.68h-.16c-6.39,6-14.17,11.36-22.91,11.4l.33.11c-4,0-8.15,0-12-1.19-8.1-2.57-13.55-10-17.79-17.4a58.64,58.64,0,0,1-5.54-12c-1.77-5.8-2.06-11.94-2-18,.26-25.5,5.28-49.69,17.05-72.31l19.83,6.5Z" transform="translate(-221.5 -157.5)"/><path d="M313.11,297.93c4.19,15.63,6.68,31.9,8.47,48,1.75,15.68-.73,30.69-8.75,44.4l1.86-1.07c-2.66,0-6.36,4.7-8.32,6a27.94,27.94,0,0,1-14.75,5.36,2.17,2.17,0,0,0-.57,4.24l.33.11.57-4.24c-6.18,0-12-.35-17.17-4.18-4.23-3.16-7.32-7.56-10-12-3-5.1-5.77-10.43-7-16.29-1.24-6-1.13-12.25-.93-18.35.75-23.26,6-46,16.66-66.79l-2.44,1c14.66,4.8,29.07,10,43.52,15.36,2.61,1,3.73-3.2,1.15-4.16-14.45-5.4-28.86-10.55-43.52-15.36a2.17,2.17,0,0,0-2.44,1c-12,23.49-17.68,49.77-17.34,76.13.16,12.7,4.17,23.77,11.49,34.12,2.93,4.14,6.41,8.06,10.86,10.61,5.29,3,11.19,3.29,17.14,3.28a2.17,2.17,0,0,0,.57-4.24l-.33-.11-.57,4.24c9.28-.39,17.34-5.48,23.36-11.44,1-.94,1.62-1.09,2.45-2.53a66.45,66.45,0,0,0,3.78-7.8,69.29,69.29,0,0,0,4.42-15.53c1.79-11.09.32-22-1.25-33-1.82-12.72-3.78-25.41-7.11-37.83C316.55,294.1,312.39,295.24,313.11,297.93Z" transform="translate(-221.5 -157.5)"/><path class="cls-1" d="M320.7,381.6c6.21-.34,12.48,1.36,18.62.41,8.22-1.27,15.14-7.23,19.44-14.35.34-.56.74-1.18,1.38-1.31,1-.2,1.75.9,2.14,1.86,3,7.18,3.53,15.63.09,22.59s-11.43,11.84-19,10.33a22.16,22.16,0,0,1-9.13-4.57,40.37,40.37,0,0,1-7.79-8c-1-1.32-5.11-2.51-6.74-2.5" transform="translate(-221.5 -157.5)"/><path d="M320.7,383.76c10-.25,19.42,2.38,28.49-3.21a33.65,33.65,0,0,0,8.75-7.94,25.85,25.85,0,0,1,1.9-2.62c1.36-1.32.29-1.31,1,.34a26.77,26.77,0,0,1,1.77,9.25c.24,11.86-10.57,24.24-23,17.94-7.75-3.94-10.71-12.94-19.94-13.67-2.77-.22-2.76,4.1,0,4.32,5.87.46,9.06,6.91,13.44,10.25s9.29,5.57,14.8,5c10.53-1,17.89-10.46,18.85-20.55.33-3.52-1.88-25-9.28-17.14-2.1,2.24-3.45,5.13-5.71,7.33a25.56,25.56,0,0,1-8.79,5.76c-7.14,2.65-14.9.42-22.27.6-2.77.07-2.78,4.39,0,4.32Z" transform="translate(-221.5 -157.5)"/><path class="cls-14" d="M284,286c-2.9,9.5-6.61,21.41-8.9,31.07a158.13,158.13,0,0,0-4.19,24.12c-.55,7.08-.22,14.54,3.21,20.76s10.69,10.78,17.61,9.15a25.11,25.11,0,0,0,7.41-3.56c2.65-1.67,5.4-3.47,6.9-6.23a16.41,16.41,0,0,0,1.58-7.1c.55-11-1.82-22-4.18-32.78l-5.91-27.12c-.31-1.42-.71-3-1.9-3.79-1-.65-2.54.16-3.35-.66-2.09-2.1-4.86-2.91-9.62.05" transform="translate(-221.5 -157.5)"/><path d="M281.92,285.43c-4.8,15.68-9.81,31.44-12.23,47.7-1.87,12.6-2.75,28.78,9,37.06a16.78,16.78,0,0,0,16.68,1.89c5.1-2.22,11.35-6,13.32-11.52,2.45-6.82,1.11-15.47.11-22.43-1.3-9.07-3.48-18-5.43-26.95-1.13-5.16-2.23-10.34-3.38-15.5-.61-2.72-1.08-5.88-3.83-7.23-1.09-.54-2.45-.58-3.56-1.1a15.77,15.77,0,0,0-2.63-1.27c-3-.8-5.87.52-8.45,2-2.42,1.36-.25,5.09,2.18,3.73,3.67-2.07,5.78-1.37,9,.56,3.5,2.11,3.59,6.51,4.42,10.3,1.75,8,3.55,16.08,5.25,24.14,1.77,8.38,3.32,16.89,3.14,25.49-.11,5.3-1,8.88-5.49,12.11-3.17,2.26-7.05,4.83-11.08,4.89-8.19.11-13.66-7.55-15.28-14.74-1.75-7.77-.58-16.24.78-24,2.62-15,7.19-29.49,11.63-44,.81-2.66-3.35-3.8-4.16-1.15Z" transform="translate(-221.5 -157.5)"/><path class="cls-15" d="M469.51,366.49a2.8,2.8,0,0,0-.8,2,44.73,44.73,0,0,0-.48,9.81,15,15,0,0,0,3.69,8.93c3.58,3.77,9.35,4.59,14.5,3.85a17.13,17.13,0,0,0,6.65-2.2c5.32-3.31,7.19-10.34,6.54-16.56a1.3,1.3,0,0,0-.2-.67c-.28-.36-.83-.34-1.29-.3-3.81.32-7.54-1-11.2-2.12a116.43,116.43,0,0,0-16.43-3.77c-.71-.11-1.64-.1-1.9.57" transform="translate(-221.5 -157.5)"/><path d="M467.64,365.4c-2.52,3.78-2.11,10.8-1.27,15.08A15.5,15.5,0,0,0,473,390.84c7.22,4.56,19.19,3.41,24.73-3.27,2.69-3.24,8-16.67,1.4-18.37-2.68-.69-5.68-.32-8.47-1.11s-5.68-1.75-8.57-2.49c-3.73-1-11.09-4-14.58-1.46-2.22,1.62-.07,5.37,2.18,3.73,2-1.44,9,1.34,11.26,1.9,2.89.73,5.7,1.69,8.57,2.49a35.24,35.24,0,0,0,4.8,1.07c.57.08,3.67,0,3.82.16-.65-.66-.56,1.85-.58,2.2a18.17,18.17,0,0,1-.84,4.77c-2.4,7.34-10.4,9.93-17.53,8.27a10.71,10.71,0,0,1-8.25-7.79c-.9-3.21-1.5-10.41.47-13.36,1.54-2.32-2.19-4.48-3.73-2.18Z" transform="translate(-221.5 -157.5)"/><path d="M332.3,287.44c1-.71,2.06-1.56,3.27-1.06,1,.41,1.68,1.57,2.6,2.17,2,1.28,4,1,6.13.14,2.56-1,1.44-5.18-1.15-4.16-1.56.61-2.37.66-3.59-.5a7.46,7.46,0,0,0-2.84-1.92c-2.36-.76-4.7.22-6.6,1.6-2.23,1.61-.08,5.36,2.18,3.73Z" transform="translate(-221.5 -157.5)"/><rect class="cls-16" x="0.5" y="0.5" width="400" height="400"/></svg>