<svg id="Layer_8" data-name="Layer 8" xmlns="http://www.w3.org/2000/svg" viewBox="0 0 401 401"><defs><style>.cls-1{fill:#fff;}.cls-2{fill:#d1d1d1;}.cls-3{fill:#ff7c24;}.cls-4{fill:#f9f9f9;}.cls-5{fill:#3a3a3a;}.cls-6{fill:#fffefd;}.cls-7{fill:none;stroke:#000;stroke-miterlimit:10;}</style></defs><title>Q8</title><path class="cls-1" d="M1074.28,269.52c1.44.07,2.11,2.1,2.11,2.1.9,3.18,2.43,6.52,3.33,9.7,1.81,6.36,3.24,12.92,6.16,18.84,3.7,7.52,8.29,14.57,9.21,21.56.83,6.29,2.26,12.48,2.4,18.82.33,14.76-1.78,30.76-11.89,41.42-2.7,2.85-6.51,5.35-10.29,4.36l7.9-.35c3.46,1.61,5.33,1.27,6.26,5,1,3.93-2,8-5.71,9.55s-7.91,1.18-11.89.63c-2.15-.3-4.49-.74-5.92-2.4a6.46,6.46,0,0,1-1-5.73,19,19,0,0,1,2.65-5.4c-3.61.91-7.47.18-11.18.51l.16.82c3,1.51,3,2.91,2.8,6.3-.2,3-2.63,5.27-5,7a11.71,11.71,0,0,1-2.61,1.51,12.77,12.77,0,0,1-4.78.55q-4-.07-8-.34a23.65,23.65,0,0,1-6.88-1.21,9,9,0,0,1-5.14-4.53c-1.1-2.53-.6-5.5.49-8,1.35-3.13,6.52-3.49,7.36-5.66l2.46.28c-2.54-.36-3.43,0-5-1.23A52.24,52.24,0,0,1,1012,344.28c-.28-9.06,1.81-18,4.23-26.74a349.27,349.27,0,0,1,15.15-43.34s1.14-4.25,3.07-6.19" transform="translate(-982.5 -81.5)"/><path d="M1073.95,270.74c2,.74,2.56,5.13,3.19,6.88.9,2.48,1.63,5,2.32,7.52A98.59,98.59,0,0,0,1084,299c2,4.62,4.73,8.93,6.83,13.53,2.41,5.26,3.17,10.43,4.08,16.09,1.68,10.45,2,21.15-.14,31.57-1.69,8.2-8,26.57-19.1,24.89l-.34,2.49c3.47-.15,8.35-1.27,11.34,1.19,3.67,3,.91,8.14-2.32,10a14.33,14.33,0,0,1-7.28,1.53c-2.13,0-5.58.08-7.45-.92-6.07-3.28-3.11-7.67-.94-11.17a1.28,1.28,0,0,0-1.43-1.86c-3.59.65-7.22.29-10.84.46a1.29,1.29,0,0,0-1.22,1.6,5.62,5.62,0,0,0,.61,1.48c1.06,2.34,2.19,2,2.37,4s-1.07,4.16-2.41,5.52c-4.6,4.71-11.71,3.82-17.73,3.21-4.63-.47-10.2-1.66-10.5-7.6-.17-3.43,2.07-5.72,4.81-7.16s2.44-2.07,4.85-1.79v-2.54c-9.11-1-16.24-13-19.64-20.74-4.57-10.39-5.07-21.53-3-32.59,2-10.71,5.39-21.27,8.89-31.56q2.78-8.16,6-16.17c1.64-4.13,3.16-10.09,6-13.6,1-1.26-.76-3.06-1.79-1.79-2.58,3.18-3.7,7.42-5.23,11.16q-4,9.74-7.38,19.72c-4.28,12.59-8.72,25.76-10,39.07a54,54,0,0,0,6.37,31.13c4.19,7.6,10.67,16.89,19.8,17.91,1.62.18,1.6-2.35,0-2.54l-2.46-.28a1.25,1.25,0,0,0-1.09.63c-1.39,2.24-5,2.42-6.65,4.54a11.38,11.38,0,0,0-1.82,8.4c1.3,7.16,9.43,8.16,15.35,8.51,7,.41,13.6.75,18.25-5.49a10.09,10.09,0,0,0,1.78-8.21c-.43-1.64-2.7-2.7-2.92-3.87l-1.22,1.6c3.88-.18,7.68.14,11.52-.55l-1.43-1.86c-2.9,4.67-5.21,11.57,1.22,14.46,6.07,2.73,16.17,2.45,20.76-2.84,3.14-3.61,3.57-9.58-.94-12.22-3.94-2.31-7.85-1.52-12.21-1.33-1.35.06-1.82,2.27-.34,2.49,9.68,1.45,16.3-9.55,19.4-17.22,4.41-10.91,5.3-23.86,4-35.46-.71-6.15-1.31-12.88-3.34-18.74s-5.38-11.05-8-16.6c-3.31-7-4.56-14.54-7.1-21.76-1.14-3.24-1.66-8.09-5.26-9.46-1.53-.58-2.19,1.87-.67,2.44Z" transform="translate(-982.5 -81.5)"/><path class="cls-2" d="M1344.67,326.68a31.63,31.63,0,0,1,5.89,2.42,10.61,10.61,0,0,1,4.41,4.48,12,12,0,0,1,1,4.22,12.21,12.21,0,0,1-.4,4.63,8.13,8.13,0,0,1-11.1,4.92" transform="translate(-982.5 -81.5)"/><path d="M1344.3,328.05c5,1.7,9.71,3.71,10.22,9.75.5,5.85-3.67,10.31-9.7,8.18-1.73-.61-2.48,2.14-.76,2.74,6.4,2.26,12.83-1.73,13.33-8.58.61-8.51-5.07-12.38-12.34-14.84-1.74-.59-2.49,2.16-.76,2.74Z" transform="translate(-982.5 -81.5)"/><path class="cls-2" d="M1239,368.28c-.16-.33-1.55.6-1.7.28-2,2-2.9,4.88-3.72,7.61-.44,1.46-.87,3.08-.23,4.46s2.41,2.19,4,2.69a29.21,29.21,0,0,0,7.75,1.47,20.14,20.14,0,0,0,17.47-9.51" transform="translate(-982.5 -81.5)"/><path d="M1239,366.86c-3.94,0-5.34,4.38-6.38,7.56-1.38,4.24-1.49,7.72,3,9.78a22.55,22.55,0,0,0,28.19-8.21c1-1.53-1.45-3-2.46-1.44a19,19,0,0,1-19,8.53,26.9,26.9,0,0,1-3.85-.92c-2.85-.9-3.77-2.42-3.52-5.62.16-2,1.74-6.85,4.06-6.84a1.42,1.42,0,0,0,0-2.85Z" transform="translate(-982.5 -81.5)"/><path class="cls-1" d="M1251.45,383.85a113.73,113.73,0,0,0-4.86-15.39c-.46-1,.18-1.27-1.05-1.91l-1.41-.44s-8,3.24-9.3,4.26-6.34,5.47-6.76,7.4,4.65,5.07,7.89,5.77a99.1,99.1,0,0,0,14.51,1.32A1.1,1.1,0,0,0,1251.45,383.85Z" transform="translate(-982.5 -81.5)"/><path d="M1252.58,383.85c.24-2.76-1.76-6.77-2.59-9.33s-1.51-7.57-4-9c-2-1.13-3.8.17-5.67,1a27.59,27.59,0,0,0-8.75,5.26c-1.73,1.62-5.18,4.3-4.48,7,.79,3.11,5.87,5.16,8.58,5.82a67.26,67.26,0,0,0,11.94,1.3c1.67.09,4.55.54,4.94-1.78.24-1.41-1.93-2-2.17-.6,0,.08-35.09.06-14.05-12.76,1.87-1.14,5-2.86,7.15-3.19,1.66-.26,1.6.13,2.42,2.08a84.54,84.54,0,0,1,3,8.82c.43,1.44,1.6,3.85,1.47,5.35S1252.45,385.28,1252.58,383.85Z" transform="translate(-982.5 -81.5)"/><path class="cls-3" d="M1038.32,306.43a18.36,18.36,0,0,1,10-17.17,18,18,0,0,1,19.53,2.8,25.3,25.3,0,0,1,4.45,5.57,26.37,26.37,0,0,1,3.72,9.09,19.34,19.34,0,0,1-9.5,19.84c-4.51,2.44-9.82,2.91-14.93,2.67a8.14,8.14,0,0,1-4-.92,8.85,8.85,0,0,1-2.68-3.24,50.61,50.61,0,0,1-5.06-10.38c-1.14-3.69-2.8-4.91-1.35-8.49" transform="translate(-982.5 -81.5)"/><path d="M1039.55,306.43c-.16-9.73,7.34-18.27,17.46-17.61s18.23,11.51,18,21.34c-.22,10.76-9.07,17.3-19.18,17.85-3.21.17-6.6.35-9.15-2.34-1.33-1.41-2.31-3.83-3.19-5.54-1.86-3.59-5.13-9.5-3.83-13.61.47-1.5-1.89-2.15-2.36-.65-1.61,5.11,1.73,11,4.08,15.49,3,5.84,5.08,9.05,11.87,9.14,11.87.16,23-6.23,24.12-19,1-11-7.71-23.5-18.91-25-11.94-1.61-21.58,8.23-21.39,19.9a1.22,1.22,0,0,0,2.44,0Z" transform="translate(-982.5 -81.5)"/><path class="cls-1" d="M1045.53,203.27c0-23.16-13.55-47-39.71-60.27-2.54-1.29-5.4-2.51-8.5-2.43-4.38.12-8,3-8.83,6.12s.41,6.36,2.3,9.24c4.2,6.4,11.24,11.57,16.27,17.64a79.66,79.66,0,0,1,8.2,12.85c3.4,6.17,6.18,12.08,9.58,18.25.17.31-.18,1.49.53,1.95" transform="translate(-982.5 -81.5)"/><path d="M1046.83,203.27a66.2,66.2,0,0,0-12.57-38,74,74,0,0,0-14.55-15c-5.63-4.39-13.16-10.08-20.5-10.88-4.89-.53-10.48,1.93-12,7-2,6.78,4.45,13.37,8.72,17.72,6.7,6.83,12.67,13.09,17.37,21.54,2.39,4.3,4.61,8.69,6.86,13.06,1.43,2.76,2.43,6.09,4,8.6.9,1.39,3.14.1,2.23-1.3-1.09-1.69-1.79-4.27-2.76-6.12-1.87-3.57-3.66-7.18-5.55-10.74-3-5.69-6.08-11.47-10.2-16.45-4.42-5.34-10-9.58-14.32-15-3.24-4.09-6.71-10.63-.87-14.37,4-2.57,8.52-1,12.39.85,22.59,11.1,38.77,33.68,39.07,59.16a1.29,1.29,0,0,0,2.58,0Z" transform="translate(-982.5 -81.5)"/><path class="cls-1" d="M1045.53,203.27c3.68-.38,7.8-1.07,11.4-.38.91-22.06,17.44-44.18,35.56-61.9,3.31-3.23,6.9-6.56,12-8.16s12.08-.74,14.56,2.86c2.14,3.11.25,6.83-1.84,10a111,111,0,0,1-13.88,16.87c-3.14,3.14-6.51,6.16-9.14,9.54-3.08,4-5.05,8.33-7.57,12.5a74.13,74.13,0,0,1-18.91,20.56" transform="translate(-982.5 -81.5)"/><path d="M1045.53,204.56c3.69-.4,7.34-.94,11.05-.42a1.32,1.32,0,0,0,1.64-1.25c.87-15.05,8.21-28.71,17.07-40.58a170.86,170.86,0,0,1,15.6-17.91c5.21-5.27,11.07-11.26,19.08-11.05,6.12.16,10.32,3.28,7,10.27-1.78,3.74-5.08,7.35-7.68,10.47-4.67,5.59-10.32,10.24-15,15.8-4.26,5.07-6.8,11.21-10.48,16.67A75.9,75.9,0,0,1,1067.06,204c-1.3,1,0,3.25,1.3,2.23A82.55,82.55,0,0,0,1083,192c4.08-5.2,6.76-11.12,10.37-16.6,4.34-6.58,10.75-11.51,15.92-17.39,4-4.6,9.49-10.33,11.4-16.27,3.51-10.9-11.42-12.34-18.38-9.5-6.06,2.48-10.71,7.64-15.16,12.25A171.36,171.36,0,0,0,1073.06,161c-9.15,12.27-16.52,26.36-17.42,41.89l1.64-1.25c-4-.55-7.78-.1-11.74.33-1.64.18-1.65,2.77,0,2.58Z" transform="translate(-982.5 -81.5)"/><path class="cls-1" d="M1069.12,205.82c9.07,1.4,24.59,7.71,25.47,31.93.92,25.39-11.12,30.61-21.48,32.63s-21.2,0-31.42-2.49c-8.17-2-16.58-4.44-22.46-9.57a25.92,25.92,0,0,1-8.58-19c-.19-6.93,1.86-13.78,4.47-20.36,2.24-5.64,11.48-11.17,10.25-12.32" transform="translate(-982.5 -81.5)"/><path d="M1068.75,207.16c9,1.47,16.72,6.43,20.83,14.7,5.47,11,6.14,29.76-2.19,39.66-8,9.49-23.36,9.1-34.33,7.33-16.3-2.64-38.21-7.21-40.77-26.77-1.15-8.8,1.42-20.86,7.6-27.46,1.7-1.81,8.11-5.56,6.68-8.71-.73-1.62-3.13-.22-2.39,1.4-.21-.46-5.66,4.73-6.25,5.35a22.84,22.84,0,0,0-5.09,8.38c-3,8.25-4.95,17.37-2.35,26,5.44,18.1,27.41,22.42,43.69,24.76,11.26,1.62,26.13,1.42,34.59-7.67,9-9.63,9-27.11,5.16-38.87a30.24,30.24,0,0,0-24.44-20.78c-1.75-.29-2.5,2.38-.74,2.67Z" transform="translate(-982.5 -81.5)"/><path d="M1041.43,231.93l.47.39a1.42,1.42,0,0,0,2,0,1.4,1.4,0,0,0,0-2l-.47-.39a1.42,1.42,0,0,0-2,0,1.4,1.4,0,0,0,0,2Z" transform="translate(-982.5 -81.5)"/><path d="M1062.09,231.16a1.39,1.39,0,0,0,0-2.77,1.39,1.39,0,0,0,0,2.77Z" transform="translate(-982.5 -81.5)"/><path d="M1048.31,257.18a4,4,0,0,1,5.9.12c.88,1.12,2.45-.46,1.57-1.57-2.08-2.64-6.89-2.65-9-.12-.92,1.08.64,2.66,1.57,1.57Z" transform="translate(-982.5 -81.5)"/><path class="cls-1" d="M1022.61,316.55a24.65,24.65,0,0,0,13.93,9.09,20.86,20.86,0,0,0,16.74-3.87,11.87,11.87,0,0,0,3.77-4.33c1.28-2.76,1-5.91.4-8.73-.3-1.52-.8-3.21-2.11-3.66a3.8,3.8,0,0,0-2.16.11,26.58,26.58,0,0,0-4.93,1.84,11.56,11.56,0,0,1-4.19,1.55,7.73,7.73,0,0,1-4.2-1.46L1032.9,303" transform="translate(-982.5 -81.5)"/><path d="M1021.75,317.41c4.54,5.39,10.62,9.5,17.85,9.84,6.51.31,14.76-2.61,18.14-8.56,1.92-3.38,2.59-12-1.36-14.42-2.11-1.28-4.93.08-7,.89-1,.4-2,1-3,1.36-2.22.69-4.44.11-6.61-.89s-4.21-2.47-6.25-3.66a1.22,1.22,0,0,0-1.23,2.11c3.35,2,7.66,5.8,11.76,5.7,1.76,0,3.25-1,4.81-1.72,2.31-1,5.09-2.92,7.13-.17.78,1,.68,3.25.69,4.47,0,8.17-9,12.65-16.3,12.46-6.94-.19-12.55-4-16.9-9.14-1-1.2-2.74.53-1.73,1.73Z" transform="translate(-982.5 -81.5)"/><path class="cls-1" d="M1074.65,293a37.17,37.17,0,0,1-2.91,10.08,8.55,8.55,0,0,1-1.94,3c-1.67,1.51-4.4,2-6,3.59-1.81,1.74-1.84,4.73-.06,7.09a10,10,0,0,0,8.17,3.68c3.64-.28,5.89-2.89,7.24-5.58a13.48,13.48,0,0,0,1.17-10.42c-.47-1.42-1.2-3.09-.19-4.05" transform="translate(-982.5 -81.5)"/><path d="M1073.61,292.71c-.72,4.37-1.62,10.36-5.46,13.2-2,1.48-4.71,1.82-6,4.14-2.23,3.87.64,8.26,4.11,10.11a9.57,9.57,0,0,0,12.3-2.34,16.36,16.36,0,0,0,3.3-7.71c.4-2.72-1.75-6.92-.76-9.21.54-1.26-1.31-2.36-1.86-1.09-1.6,3.71,1.24,7.4.19,11.46-.81,3.12-3,6.9-6.28,7.84-4.35,1.23-11.41-2.89-8.64-7.76,1.67-2.94,5.48-3.23,7.39-6.15,2.24-3.43,3.19-7.95,3.85-11.9.22-1.36-1.85-1.94-2.08-.57Z" transform="translate(-982.5 -81.5)"/><path d="M1044.94,292.8a33.29,33.29,0,0,1,8.39,12c.6,1.41,2.66.19,2.06-1.21a34.82,34.82,0,0,0-8.77-12.45c-1.14-1-2.83.66-1.69,1.69Z" transform="translate(-982.5 -81.5)"/><path d="M1055,319.63a18.06,18.06,0,0,1-1.6,7.66c-.69,1.51,1.55,2.83,2.24,1.31a21.13,21.13,0,0,0,2-9,1.3,1.3,0,0,0-2.6,0Z" transform="translate(-982.5 -81.5)"/><path d="M1062.08,291.36a27.44,27.44,0,0,0,.64,18c.6,1.54,3.11.87,2.5-.69a25.08,25.08,0,0,1-.64-16.58,1.3,1.3,0,0,0-2.5-.69Z" transform="translate(-982.5 -81.5)"/><path d="M1041.49,295.41c5,1.64,10.2,3.31,15.54,3.4s10-1.88,14.82-3.57c1.3-.45.74-2.53-.57-2.08-4.68,1.63-9.21,3.54-14.25,3.5s-10.14-1.75-15-3.32c-1.32-.43-1.89,1.65-.57,2.08Z" transform="translate(-982.5 -81.5)"/><path d="M1058,317.86a11.71,11.71,0,0,1,4.82-1.12,1.3,1.3,0,0,0,0-2.6,14.68,14.68,0,0,0-6.13,1.48c-1.5.74-.18,3,1.31,2.24Z" transform="translate(-982.5 -81.5)"/><path d="M1059.23,370.51a14,14,0,0,0,3.7,4.85c1.2,1,2.94-.72,1.73-1.73a12.36,12.36,0,0,1-3.32-4.36c-.67-1.42-2.77-.18-2.11,1.23Z" transform="translate(-982.5 -81.5)"/><path d="M1058.66,376.32a65.8,65.8,0,0,1,7.57-5.5c1.33-.83.11-2.94-1.23-2.11a70.25,70.25,0,0,0-8.07,5.88c-1.2,1,.53,2.73,1.73,1.73Z" transform="translate(-982.5 -81.5)"/><path class="cls-1" d="M1013.83,363c-1.69-1-3.89-.22-5.14,1.4a9.6,9.6,0,0,0-1.65,6.05,10.44,10.44,0,0,0,1.12,4.75,6,6,0,0,0,8.21,2.44c2.73-1.71,3.95-6,2.6-9.2" transform="translate(-982.5 -81.5)"/><path d="M1014.45,361.9c-8.84-3.76-11,11.49-5.58,16,6.71,5.62,13.69-3,11.28-9.82-.52-1.47-2.88-.84-2.36.65,1.33,3.76-.79,9.87-5.8,8.16-5.65-1.94-4.21-15.18,1.22-12.87,1.43.61,2.68-1.5,1.23-2.11Z" transform="translate(-982.5 -81.5)"/><path class="cls-2" d="M1251.52,374.18c-6.31-1-9.81-3.33-14.15-7.43s-5.23-10.33-5.51-16c-1.66-33.41,6.4-66.6,7.65-100,.45-11.88.12-24.17,5.47-35.12,2.88-5.89,7.3-11.12,11.9-16.12,8-8.68,18.13-17.53,30.94-17.88,11.94-.33,22.24,6.87,30.8,14.08,4.09,3.44,8.11,7,11,11.29,3.42,5,5.12,10.8,6.29,16.56,4.4,21.5,2,43.67,5.62,65.29,2.7,16.24,8.75,32.63,5.12,48.73a68.74,68.74,0,0,1-6.69,16.74c-1.81,3.42-3.81,6.88-7,9.44s-7.59,4.11-11.84,5.36a168.46,168.46,0,0,1-69.6,5.1" transform="translate(-982.5 -81.5)"/><path d="M1251.9,372.81c-7.32-1.37-14.78-5.78-17.25-13.2s-1.72-16.57-1.5-24.28c.49-17.39,2.92-34.64,5-51.89,1-8.64,1.95-17.29,2.49-26,.5-7.92.34-15.9,1.15-23.81,1.69-16.58,10.88-29.27,23.12-40.09,6-5.29,13.23-9.77,21.37-10.46,8.45-.71,16.35,2.72,23.22,7.33s14.29,10.39,18.94,17.25,6.28,15.52,7.4,23.64c2.42,17.47,1.37,35.21,3.62,52.7,2,16,8.36,31.87,6.69,48.13A55.59,55.59,0,0,1,1335,359.63c-5.88,7.36-17,9.13-25.78,11a169.79,169.79,0,0,1-57.65,2.13c-1.81-.24-1.79,2.61,0,2.85a172.25,172.25,0,0,0,56.6-1.85c8-1.62,17.36-3.24,24.29-7.86,6.39-4.26,9.86-12.26,12.71-19.09,7.1-17,2.75-33.88-.84-51.13-4.24-20.38-2.87-41.09-5.29-61.65-1-8.22-2.29-16.76-6.07-24.22s-10.54-13.1-17.06-18.19c-12.12-9.46-26.63-15.11-41.38-8-6.77,3.25-12.49,8.4-17.59,13.82-5.46,5.79-10.83,12-14,19.41-3.32,7.75-4.14,16.19-4.49,24.53-.39,9.57-.74,19.1-1.67,28.65-2.22,22.74-6.14,45.35-6.49,68.24-.12,8.13-1,18.39,3.21,25.78,3.58,6.34,10.77,10.26,17.7,11.55,1.79.33,2.56-2.41.76-2.74Z" transform="translate(-982.5 -81.5)"/><path class="cls-4" d="M1241,236.83c3,4.13,6.5,5,11.62,4.95s10.32-.94,15.32.18c3.18.71,6.12,2.21,9.2,3.29a36,36,0,0,0,12.69,2c4.85-.11,10.33-1.71,12.36-6.12a15.7,15.7,0,0,0,1.09-5c.46-4.57.86-9.22-.07-13.71s-3.38-8.88-7.39-11.11a17.93,17.93,0,0,0-8.83-1.9,33.9,33.9,0,0,0-19.67,6.45,6.38,6.38,0,0,1-3,1.52c-1.92.17-3.43-1.51-4.87-2.79-4.48-4-6.79-5.07-12.22-2.53l-4.51,9.3Z" transform="translate(-982.5 -81.5)"/><path d="M1240.09,237.77c4.81,5.94,11.28,5.41,18.34,5.09a33.7,33.7,0,0,1,14.59,2.19,46.13,46.13,0,0,0,12.24,3.34c5.87.61,13.68.12,17.36-5.3,3.53-5.18,3.14-15.18,1.89-21-3.26-15.19-19.32-16.34-31.52-11-2,.89-3.71,2.16-5.65,3.14s-1,1.23-3.73.76c-2.52-.44-1.69-.3-3.22-1.37-2.31-1.63-4.07-3.71-7-4.18-4.45-.71-7,1.27-8.72,4.86-1.57,3.24-3.14,5.89-3.53,9.44l-1.43,13.07c-.18,1.69,2.47,1.68,2.65,0l1.16-10.59c.47-4.33.42-4.36,2.19-8,.64-1.32,1.46-4.49,2.62-5.41,4-3.2,8.47,1.49,11.29,3.69,5.9,4.62,9.49-1,15.3-3.34,8.85-3.61,21.31-4.43,25.81,5.82,1.9,4.33,1.89,9.07,1.57,13.7-.43,6.1-1.61,11-8.1,12.69-9.86,2.5-17.61-3.2-26.8-4.87-8.5-1.54-19.15,3.12-25.42-4.62C1240.89,234.57,1239,236.46,1240.09,237.77Z" transform="translate(-982.5 -81.5)"/><path class="cls-5" d="M1259.81,230.24c.73,1,1.53,2.72,2.26,3.71a.58.58,0,0,0,1.06.06q1.2-1.26,2.34-2.59a1.56,1.56,0,0,0,.47-.91c0-.77-1-1.1-1.72-1.19-1.56-.19-3.39-.28-4.41.92" transform="translate(-982.5 -81.5)"/><path d="M1258.67,230.91c.6.86,1.07,1.79,1.6,2.69s1,1.78,1.94,2c1.13.27,1.93-.72,2.6-1.45a12.59,12.59,0,0,0,2.2-2.64c1-1.95-.9-3.25-2.61-3.49-1.95-.28-4.07-.21-5.52,1.28-1.19,1.23.68,3.1,1.87,1.87,1-1,2.35-.53,3.56-.5a1.68,1.68,0,0,1,.4.13l-.18-.32a7.34,7.34,0,0,0-.86,1c-.33.38-1.06,1.46-1.46,1.58l1,.13c-.53-.25-.87-1.26-1.14-1.75s-.71-1.26-1.13-1.85c-1-1.38-3.27-.06-2.29,1.34Z" transform="translate(-982.5 -81.5)"/><path d="M1261.09,235.15a25.31,25.31,0,0,1,0,2.87c0,.44-.06.88-.1,1.32q0,.37-.1.74-.19.77,0,.19l1.61-.21-.1-.06.66,1.14V241l-.66,1.14.08,0c1.55-.7.21-3-1.34-2.29l-.08,0a1.28,1.28,0,0,0-.66,1.14,1.55,1.55,0,0,0,.77,1.33,1.37,1.37,0,0,0,1.61-.21c.8-.63.76-2.09.85-3a24.77,24.77,0,0,0,.05-4c-.11-1.69-2.76-1.71-2.65,0Z" transform="translate(-982.5 -81.5)"/><path d="M1284.17,226.76a1.33,1.33,0,0,0,0-2.65,1.33,1.33,0,0,0,0,2.65Z" transform="translate(-982.5 -81.5)"/><path d="M1283.83,226.79a1.33,1.33,0,0,0,0-2.65,1.33,1.33,0,0,0,0,2.65Z" transform="translate(-982.5 -81.5)"/><path d="M1251.07,225.31a1.33,1.33,0,0,0,0-2.65,1.33,1.33,0,0,0,0,2.65Z" transform="translate(-982.5 -81.5)"/><path d="M1250.73,225.34a1.33,1.33,0,0,0,0-2.65,1.33,1.33,0,0,0,0,2.65Z" transform="translate(-982.5 -81.5)"/><path class="cls-2" d="M1284.43,264.21c-1.51,10.33-5.92,20-10.31,29.47s-8.86,19.09-10.51,29.4-.13,21.61,6.43,29.73c1.08,1.33,2.63,2.68,4.29,2.26a4.83,4.83,0,0,0,2-1.33,107.32,107.32,0,0,0,33.24-75.47" transform="translate(-982.5 -81.5)"/><path d="M1283.15,263.85c-3.2,19.66-15.83,36-20.13,55.26a48,48,0,0,0-.23,21.53c1.11,4.67,4.33,14.64,10,15.71,2.48.47,4-1.21,5.68-2.79a96.31,96.31,0,0,0,8.58-9.46A108.52,108.52,0,0,0,1299.27,325a109.67,109.67,0,0,0,11.65-46.78,1.33,1.33,0,0,0-2.65,0,106.37,106.37,0,0,1-9.56,41.84,108,108,0,0,1-9.93,17.29c-2.24,3.18-12,18.19-16.91,15.45-2.74-1.52-4.8-7.3-5.67-9.9a37.9,37.9,0,0,1-1.86-11.22c-.17-7.72,1.77-15.26,4.45-22.44,5.6-15,14.31-28.69,16.92-44.71.27-1.67-2.28-2.39-2.56-.7Z" transform="translate(-982.5 -81.5)"/><path class="cls-1" d="M1288.07,340.58a6.44,6.44,0,0,1-1-2.5c-.15-2.28-2.63-3.56-4.76-4.39a51.85,51.85,0,0,0-8.71-2.81,17.37,17.37,0,0,0-9,.38,6.51,6.51,0,0,0-1.36,3.87c.14,2,1.83,12,3.24,14.22s5.35,6.06,5.77,6.06,7-2.68,8.87-5.35S1288.07,340.58,1288.07,340.58Z" transform="translate(-982.5 -81.5)"/><path d="M1289.21,339.91c-.92-1.55-.93-3.31-2.07-4.74s-2.93-2.1-4.52-2.76c-4.82-2-10.21-3.82-15.5-3.1-8.21,1.11-4.73,11.53-3.23,17,1.14,4.16,5.27,11.71,10.28,9.77,7.24-2.81,10.53-8.94,15-14.83,1-1.35-1.26-2.68-2.29-1.34-2.76,3.6-5.29,8.42-8.91,11.14a22.31,22.31,0,0,1-4.14,2.28c-.47.21-2.06.52-1.52.64-1.91-.39-4.73-5-5.37-6.55-1.2-2.92-4.22-13.2-1.12-15.23,3.29-2.15,10.23.62,13.47,1.8,2.76,1,4.91,1.58,6.41,4.44.47.89.63,1.91,1.17,2.82A1.33,1.33,0,0,0,1289.21,339.91Z" transform="translate(-982.5 -81.5)"/><path d="M1272.94,331.26c-1.58,4-3.93,7-4.44,11.37-.29,2.54.25,6.51-.49,8.67-.55,1.62,2,2.31,2.56.7.74-2.17.22-5.29.41-7.55.4-4.85,2.8-8.09,4.52-12.5.62-1.59-1.94-2.28-2.56-.7Z" transform="translate(-982.5 -81.5)"/><path d="M1284,333.48c-1.12.09-1.69,1.36-2.26,2.18-1.46,2.11-2.86,4.26-4.27,6.4l-4.67,7.09-1.73,2.62c-.19.28-1.08,1.43-.76,1.15-1.29,1.11.59,3,1.87,1.87,2.45-2.11,4.2-6.28,6-8.94q2.13-3.23,4.28-6.46a21.64,21.64,0,0,0,1.75-2.59c.55-1.17,1.27-.8-.15-.69,1.69-.13,1.7-2.78,0-2.65Z" transform="translate(-982.5 -81.5)"/><path class="cls-2" d="M1238.12,264.2c-3.85,9.71-14.56,17.21-25,18.24-4.84.48-9.86-.26-14.49,1.24-7.61,2.47-12.13,10.29-14.61,17.9a1.41,1.41,0,0,0,1.08,2.2l10.11,3.22c3.71,1.18,7.49,2.37,11.39,2.41,4.18,0,8.23-1.27,12.21-2.55,5.09-1.65,13.52-9.2,16.83-13.4" transform="translate(-982.5 -81.5)"/><path d="M1237,263.53a29.47,29.47,0,0,1-14,14.62c-6.9,3.47-13.58,2.45-20.91,3.47a19.85,19.85,0,0,0-13.1,7.58c-2.42,3-6.21,8.71-6.33,12.79-.12,3.91,6.14,4.31,8.93,5.21,6.12,1.95,12.15,4.15,18.66,3.26,10.8-1.48,19.61-7.79,26.42-16.08,1.07-1.31-.79-3.19-1.87-1.87-6.63,8.07-15.58,14.73-26.32,15.51-5.86.42-11.54-1.89-17-3.64a34.65,34.65,0,0,1-4.21-1.34c-2-.92-1.86-1.19-1.13-3.12a35.64,35.64,0,0,1,3.73-7.38c3.93-5.8,9.11-8.24,16.06-8.53,5.1-.21,9.87-.17,14.73-1.94a32.36,32.36,0,0,0,18.7-17.19c.67-1.55-1.61-2.9-2.29-1.34Z" transform="translate(-982.5 -81.5)"/><path class="cls-6" d="M1202.44,307.82h0c.69-9-.18-14.85-4.51-22.82a6.74,6.74,0,0,0-3.24.56c-1.13.7-5.21,4.23-6.62,7.61s-6.2,8-5.92,8.73,16.34,6.76,18.87,7S1202.44,307.82,1202.44,307.82Z" transform="translate(-982.5 -81.5)"/><path d="M1201.12,307.82V308h2.65v-.28h-2.65v.14c0,1.72,2.54,1.69,2.65,0,.57-8.55-.69-15.88-4.69-23.48a1.33,1.33,0,0,0-1.14-.66c-6.22-.2-9.28,6.24-12.05,10.76-1.56,2.54-7.5,6.84-3.32,9.24,4.53,2.6,10.17,4.19,15.13,5.75,1.6.5,8.53,1.65,5.9-2.27-.95-1.41-3.24-.08-2.29,1.34-1.57-2.33-7.78-3.27-10.68-4.36-2-.75-4.13-2-6.2-2.49-.76-.19-1.2-1.06-1.05-.22s2.08-2,2.42-2.4c1.66-2.12,8.15-15.09,11.8-12.7-.13-.09,2,5.44,1.7,4.69a31.78,31.78,0,0,1,1.51,5.35,45.74,45.74,0,0,1,.33,11.46h2.65v-.14a1.33,1.33,0,0,0-2.65,0V308a1.33,1.33,0,0,0,2.65,0v-.14A1.33,1.33,0,0,0,1201.12,307.82Z" transform="translate(-982.5 -81.5)"/><path class="cls-6" d="M1183.81,301.38c.87.12,3.06-2.06,3.8-2.54,5-3.17,8-4,13.74-5.24" transform="translate(-982.5 -81.5)"/><path d="M1184.16,302.66c2.44-.43,4.73-3.15,6.9-4.31a39.79,39.79,0,0,1,10.65-3.46c1.67-.36,1-2.91-.7-2.56a45.57,45.57,0,0,0-9.57,2.88,28.38,28.38,0,0,0-4.49,2.5c-1.08.76-2.16,2.17-3.49,2.4-1.68.3-1,2.85.7,2.56Z" transform="translate(-982.5 -81.5)"/><path class="cls-6" d="M1184.35,302.95a49.88,49.88,0,0,0,12.59,1.16,19.49,19.49,0,0,0,5.6-.85" transform="translate(-982.5 -81.5)"/><path d="M1184,304.22c6.11,1.27,12.8,2,18.9.31a1.33,1.33,0,0,0-.7-2.56c-5.6,1.56-11.88.85-17.49-.31-1.66-.35-2.38,2.21-.7,2.56Z" transform="translate(-982.5 -81.5)"/><path class="cls-2" d="M1315.18,335.51c-6,6.15-6.65,14.91-9.38,22.65a2.59,2.59,0,0,1-1,1.46,3.62,3.62,0,0,1-2,.28c-11.71-.46-23.25,6.76-26.67,16.68a5.68,5.68,0,0,0-.17,4.28c.68,1.43,2.3,2.32,3.88,3,11.24,4.87,24.62,4.13,36.7,1.22,5.23-1.26,10.47-3,14.58-6.1,4.27-3.26,7-7.79,9.59-12.21,2.15-3.65,4.35-7.42,4.74-11.51s2.2-9.72.49-13.64-2.31-9-4.37-12.68" transform="translate(-982.5 -81.5)"/><path d="M1314.24,334.57c-4.09,4.56-5.95,10-7.54,15.79-1,3.83-1.42,8-6.08,8.23a30.1,30.1,0,0,0-8.84,1.71,29.27,29.27,0,0,0-13,9c-2.33,2.9-5.88,8.33-3.92,12.21,2.22,4.39,10,5.68,14.27,6.41a63.6,63.6,0,0,0,20.25-.1c6.51-1,13.32-2.46,19.16-5.63,5.66-3.07,9.31-8,12.56-13.45a46.78,46.78,0,0,0,6.74-20.43c.4-3.75-.44-6.28-1.57-9.79s-1.87-7-3.52-10.28c-.76-1.53-3-.18-2.29,1.34,3.45,6.9,5.28,14.78,4.17,22.34-1.08,7.32-4.1,13.38-8.3,19.43-8.9,12.8-28,15.77-42.66,14.5a43,43,0,0,1-11.89-2.65c-6.45-2.52-4-8.62-.71-12.55a27.32,27.32,0,0,1,17.59-9.25c4.76-.56,7.27.65,8.94-4.37,2.4-7.21,3.28-14.73,8.55-20.61,1.14-1.27-.73-3.15-1.87-1.87Z" transform="translate(-982.5 -81.5)"/><path d="M1248.39,374.45a60.31,60.31,0,0,1,2,8.19c.21,1.67,2.87,1.69,2.65,0a65,65,0,0,0-2.11-8.9,1.33,1.33,0,0,0-2.56.7Z" transform="translate(-982.5 -81.5)"/><path d="M1230.14,380.68c2.36.25,5.65-1.55,7.82-2.27a109.48,109.48,0,0,1,10.84-3.32c1.67-.36,1-2.92-.7-2.56a101.45,101.45,0,0,0-10,3.06c-2,.67-5.69,2.67-7.91,2.43-1.69-.18-1.68,2.47,0,2.65Z" transform="translate(-982.5 -81.5)"/><path d="M1238.44,384c.51-.78,4.88-1.18,6-1.37,2.09-.37,4.2-.64,6.29-1,1.68-.28,1-2.84-.7-2.56-2.68.45-5.37.79-8,1.32-1.77.35-4.71.6-5.81,2.27-.94,1.43,1.35,2.76,2.29,1.34Z" transform="translate(-982.5 -81.5)"/><path class="cls-1" d="M1298.77,386.4a205.91,205.91,0,0,0-4.86-21.39c-.46-1.45.18-1.76-1.05-2.65l-1.41-.61s-8,4.51-9.3,5.92-6.34,7.61-6.76,10.28,4.65,7,7.89,8,13.52,2.11,14.51,1.83A1.49,1.49,0,0,0,1298.77,386.4Z" transform="translate(-982.5 -81.5)"/><path d="M1300.05,386.75c.59-2.6-1.09-6.61-1.64-9.15-.62-2.89-1.27-5.77-2-8.63-.46-1.76-.76-5-1.68-6.52-1.45-2.47-3.55-2.05-5.56-.92-3.24,1.83-6.62,3.63-9,6.49-2.14,2.52-5.83,6.44-6,9.92-.24,3.9,4.48,7.43,7.62,8.82,3.87,1.71,8.77,1.92,12.95,2.26,2.43.2,5.09.45,5.46-2.63.2-1.69-2.45-1.67-2.65,0-.17,1.4-14.77-2-16.41-3s-4.49-3.35-4.19-5.75c.19-1.54,1.89-3.4,2.76-4.62a21.91,21.91,0,0,1,5.62-6c1.82-1.21,4.32-3.3,6.45-3.87.83-.22-.81-.64-.18.05a4.9,4.9,0,0,1,1,1.6,29.41,29.41,0,0,1,1.16,4.29c.91,3.43,1.69,6.91,2.42,10.38.34,1.62,1.65,5.43,1.39,6.57C1297.12,387.71,1299.67,388.42,1300.05,386.75Z" transform="translate(-982.5 -81.5)"/><path d="M1277.55,374.58c5.74-.58,11.17-3.35,17-3.41a1.33,1.33,0,0,0,0-2.65c-5.85.06-11.25,2.83-17,3.41-1.68.17-1.7,2.82,0,2.65Z" transform="translate(-982.5 -81.5)"/><path d="M1278,381.39c6.34-2.18,12.68.82,19.05,0,1.67-.22,1.69-2.87,0-2.65-6.62.86-13.16-2.16-19.76.1-1.6.55-.91,3.11.7,2.56Z" transform="translate(-982.5 -81.5)"/><rect class="cls-7" x="0.5" y="0.5" width="400" height="400"/></svg>