<svg id="Layer_1" data-name="Layer 1" xmlns="http://www.w3.org/2000/svg" viewBox="0 0 401 401"><defs><style>.cls-1{fill:#e5f7cb;}.cls-2{fill:#b9fcb9;}.cls-3{fill:#f9f9f9;}.cls-4{fill:#fff;}.cls-5{fill:#e3e3ff;}.cls-6{fill:#efeff9;}.cls-7{fill:#0a0a0a;}.cls-8{fill:none;stroke:#000;stroke-miterlimit:10;}</style></defs><title>Q1</title><path class="cls-1" d="M-343.1-13.38c3.09-22.89-.08-39.25,10.12-59.25,2.38-4.67,5.59-11.86,10.06-13.61,2.45-1,8.3-2.11,10.87-1.68,11.27,1.89,20.14,8.12,24.78,20s1.46,28.34,2.41,41.35c.79,5.67,2.53,11.1,4,16.59S-278.23,1.26-278.56,7l.13,1.14a206.26,206.26,0,0,1,1.95,48.94c-.62,7.87-1.79,16-5.83,22.46A27.83,27.83,0,0,1-297.6,91c-6,1.9-12.29,2-18.49,1.6-7.06-.51-14.42-1.91-20.05-6.81s-8.69-12.43-10-20.21-1-15.78-.67-23.69l1.45-34.45c.31-7.33.63-14.73,2.31-21.81" transform="translate(407.5 247.5)"/><path d="M-342.13-13.38c1.68-13,1.19-26.38,3.52-39.33a70.58,70.58,0,0,1,5.69-17.85c2.52-5.3,5.29-12.82,11.19-15.05,11.75-4.45,25.06,2.73,31.07,12.95,6.82,11.6,4.8,25.48,4.65,38.32A63.3,63.3,0,0,0-283.82-17c1,3.67,2.09,7.3,2.92,11,1,4.56,1.12,8.94,1.43,13.54.44,6.47,1.74,12.89,2.19,19.38A202,202,0,0,1-277,49.41c-.63,14.79-1.94,31.85-17,39.12-11.82,5.7-32.64,5.26-42.5-4.44-11.81-11.62-9.81-31-9.18-46,.72-17.12-.15-35.38,3.56-52.17.27-1.22-1.61-1.74-1.88-.52-3.69,16.72-2.87,34.69-3.59,51.73-.62,14.8-2.31,31.93,6.71,44.78,7.86,11.2,23.35,13,36,11.6,13.8-1.49,24.17-10,27.53-23.56,4-16,3.1-34.16,1.4-50.45-.38-3.61-1-7.2-1.38-10.8-.44-3.81-.24-7.62-.9-11.43-1.55-9-5.41-17.61-5.78-26.82-.56-14.08,2.74-29-3.91-42.18-4.75-9.38-15.26-17.51-26.22-17.2-5.57.16-10.78,1.66-14.21,6.21-4.45,5.91-7.73,13.58-9.93,20.61-4.92,15.71-3.67,32.59-5.76,48.76-.16,1.24,1.79,1.23,1.95,0Z" transform="translate(407.5 247.5)"/><path class="cls-1" d="M-281.83-20.72A83.86,83.86,0,0,1-260.92-3.53c2.28,2.6,4.5,5.51,5.29,9.08a7.06,7.06,0,0,1-.33,4.66,7.94,7.94,0,0,1-2.1,2.34L-262,15.9a44,44,0,0,1-7.43,5.47,20.2,20.2,0,0,1-5.16,1.92c-.5.11-1.19.09-1.34-.47a1.34,1.34,0,0,1,0-.61c.71-3.54,4.91-10.28,5-10.7a3.1,3.1,0,0,0-.6-2l-.05-.08a7.94,7.94,0,0,0-4-3c-1-.36-2.25-.73-2.55-1.9a2.5,2.5,0,0,1-.05-.8c0-.27.07-.54.11-.81.6-4-.41-8.16-1.41-12.1l-2.85-11.21" transform="translate(407.5 247.5)"/><path d="M-282.32-19.88c8.78,5.21,18.25,12.23,23.76,21,4.67,7.46-2.07,12.73-7.63,16.91-1.18.89-7.92,5.59-8.51,3.46-.34-1.24,2.07-4.75,2.67-5.87,2.32-4.37,2.77-6.53-1.89-9.6-.41-.27-1-.32-1.36-.59-1.8-1.21-1.51-1.68-1.7-3.44s0-3.65-.23-5.48c-.84-5.81-2.7-11.55-4.14-17.23a1,1,0,0,0-1.88.52c2,7.73,4.19,15.07,4.22,23.06,0,5,4.88,3.06,6.65,7.08,1.23,2.78-10,16.88-.19,13.78,5.39-1.7,9.69-5.77,13.88-9.39s5.31-6.74,3-12c-4.52-10.22-16.37-18.44-25.66-23.95a1,1,0,0,0-1,1.68Z" transform="translate(407.5 247.5)"/><path class="cls-2" d="M-314.65,92c-3,.34-5.78-2.1-7.19-5.13s-1.72-6.55-2-10a621.8,621.8,0,0,1-1.43-63l.9-7.54,4.39-11.78A8,8,0,0,1-315-9a14.3,14.3,0,0,1,6,0,31.51,31.51,0,0,1,12.8,5.35l6.78,12.91,1.92,5.79c.43,4.34.39,7.66.82,12,1.1,11.11,2.2,22.32,1.12,33.43s-4.53,22.26-11.4,30.2l-9.24,2.07Z" transform="translate(407.5 247.5)"/><path d="M-314.65,91c-8-.11-8-11.53-8.39-17.07s-.69-11.14-.92-16.72q-.7-16.74-.49-33.5c.07-5.51-.26-11.85,1.1-17.23C-322.47,3-320.94-2-319-5.08c3.71-6.09,13.67-2.55,18.52,0,3,1.52,3.63,2.31,5.06,5C-293.6,3.47-291.4,7-290,10.75c2.9,7.75,2.43,16.93,3.12,25.12.94,11.12,1.36,22.48-1.13,33.44A52.43,52.43,0,0,1-294.13,85c-1.11,1.82-2.24,4-4.1,4.89a19,19,0,0,1-3.66.82c-4.52,1-8.1.68-12.77.28-1.25-.11-1.24,1.84,0,1.95,5.11.44,8.79.66,13.75-.45,2.45-.55,3.94-.53,5.59-2.4,3.25-3.69,5.47-8.54,7.12-13.12,4.4-12.2,4.45-25.41,3.51-38.19-.46-6.21-1.17-12.39-1.52-18.61a31.2,31.2,0,0,0-1.91-10A71,71,0,0,0-294.81-3c-3.43-5.33-14.37-8.54-20.45-6.9s-7.06,8.1-9,13.25c-1.73,4.63-2,9.6-2.07,14.52q-.51,23.65.77,47.29c.42,7.74-1.21,27.7,10.89,27.86A1,1,0,0,0-314.65,91Z" transform="translate(407.5 247.5)"/><path class="cls-3" d="M-311.71-130a21.84,21.84,0,0,0,3,13.05l4.42-17.54a48,48,0,0,0,33.57-6.58c6.39-4,12.11-10.29,12.51-17.82.28-5.28-2.1-10.37-5.14-14.71-9-12.79-23.75-20.69-39.06-23.79a83.11,83.11,0,0,0-26.35-1.06c-5,.6-10.1,1.7-14.53,4.18-7.76,4.34-12.79,12.6-14.82,21.25-2.69,11.46-.24,24.43,7.9,32.93,6.55,6.84,15.88,10.16,24.88,13.12,2.77.91,5.69,1.82,8.55,1.24s5.52-3.19,5.07-6.07" transform="translate(407.5 247.5)"/><path d="M-312.75-130a24.88,24.88,0,0,0,3.13,13.58,1.05,1.05,0,0,0,1.9-.25l4.42-17.54-1.28.73c16.17,2.56,40.7-3,46.52-20.77,5.91-18-16.44-34.2-30.47-40a80.08,80.08,0,0,0-30.81-5.82c-9.66,0-20.47,1.19-28.24,7.47-13.74,11.1-16.49,33.52-7.27,48.23,5.43,8.67,14.63,13.27,24,16.61,5.72,2,20.31,7.07,20.2-4a1,1,0,0,0-2.08,0c0,2.26-2.36,4-4,4.71-2,.84-3.8.36-5.78-.13-1.62-.4-3.21-1-4.78-1.52a90.8,90.8,0,0,1-11.56-4.6c-7.51-3.74-13.67-9.35-16.79-17.28-5.57-14.19-1.65-33.37,11.62-42,7.34-4.77,17.14-5.43,25.65-5.38a79.3,79.3,0,0,1,24.77,4c13.72,4.62,30.67,15.41,34,30.64,2.32,10.68-6.6,19-15.24,23.39A47.65,47.65,0,0,1-304-135.48a1.07,1.07,0,0,0-1.28.73l-4.42,17.54,1.9-.25A23,23,0,0,1-310.67-130c.07-1.34-2-1.34-2.08,0Z" transform="translate(407.5 247.5)"/><path class="cls-4" d="M-132.12-128.17c2-.37,2.18,5.16,2.9,7.07,4,10.52,5.83,2.72,6-2.27.1-2.67,1.28-5.68,3.68-6.86a7.16,7.16,0,0,1,2.69-.54c11.71-.81,23.61-1.06,34.86-4.42s22-10.39,26.82-21.12c6.44-14.46,0-32.31-12-42.66s-31.1-16.45-46.9-17.56c-15-1.06-40.06,11.27-53.67,17.66s-12.68,9.47-16,24.15c-2.12,9.44-.57,19.95,5.43,27.53,4.73,6,11.7,9.68,18.51,13.1,8.63,4.33,18.34,8.57,27.62,5.93" transform="translate(407.5 247.5)"/><path d="M-132.4-127.17c2.49.34,2.1,10.66,5.74,12.08,2.5,1,3.5-2,3.95-3.86.2-.85.3-1.72.42-2.59.4-3,.25-4,3-6.24s4.46-2.1,8-2.32c2.47-.15,4.95-.3,7.42-.5,7.94-.61,16-1.55,23.56-4,11.58-3.81,22.68-11.54,26.93-23.4s.49-25.37-6.95-35.15c-8-10.55-20.68-16.78-33.12-20.54s-24.49-5-37.07-1.53S-155-206-166.73-200.49c-8.52,4-14,7.72-16.16,17.14-3.16,13.48-4.81,27.72,5.5,38.72,5.73,6.11,13.74,10,21.24,13.42,7.74,3.57,15.8,6.07,24.31,4,1.3-.31.75-2.32-.55-2-8.91,2.12-17.27-1.16-25.19-5-6.27-3-12.83-6.29-17.77-11.32-10-10.19-8.59-23.5-5.75-36.27.81-3.64,1.68-7.34,4.3-10.14,3.09-3.3,7.64-5.12,11.65-7,10.16-4.79,20.37-9.59,31.07-13.06,12-3.87,22.5-4.15,34.76-1.19,12.07,2.91,24.63,8,33.57,16.89s14.58,23,11.05,35.67-15.48,20.78-27.53,24.41c-8.21,2.47-16.8,3.23-25.31,3.8-4.66.31-11.63-.88-14.86,3.36-1.48,1.95-1.63,4.26-1.88,6.58a13,13,0,0,1-.53,3.41c-.78,1.93-.77,2.1-2.19.42-2.05-2.43-.91-10-4.84-10.53-1.31-.18-1.88,1.83-.55,2Z" transform="translate(407.5 247.5)"/><path d="M-331.58-137.64c.17-9.31-.17-18.61-.58-27.91l-1,1a55.57,55.57,0,0,1,7.19.18c5,.49,4.46,4.31,4.66,8.39l1,20.84c.06,1.34,2.15,1.34,2.08,0l-.73-15.16c-.18-3.81.61-9.51-.76-13.07-1.72-4.47-9.71-3.39-13.45-3.27a1.06,1.06,0,0,0-1,1c.41,9.3.75,18.6.58,27.91a1,1,0,0,0,2.08,0Z" transform="translate(407.5 247.5)"/><path d="M-333.16-166.52c-.1.67-1.72,1-1.85,2l1.28-.73a14.18,14.18,0,0,1-3.46-.6c-1.62-.91-.78-1.35.49-2.72a31.12,31.12,0,0,1,6.69-5.09c3.21-2,5.71-1.55,8.05,1.46a37.46,37.46,0,0,1,4.62,7.86l.9-1.57c-3.23.19-6.12-1.12-9.27-1.57a23.22,23.22,0,0,0-7.67.29c-1.32.24-.76,2.25.55,2,5.82-1.08,10.73,1.7,16.38,1.36a1.06,1.06,0,0,0,.9-1.57c-1.67-3.73-6.21-14-11.8-12.16-4,1.31-13.68,7.35-13.34,12.32a1.06,1.06,0,0,0,.77,1c1.88.31,3.75.66,5.63,1,.5.08,1.19-.13,1.28-.73s1.72-1,1.85-2c.2-1.31-1.81-1.88-2-.55Z" transform="translate(407.5 247.5)"/><path d="M-317.78-170.06c.86-2.57.87-4.38,4.05-4.07a20.36,20.36,0,0,1,4.75,1.61c3.35,1.34,4.81,1.43,5.82,5.29a49.19,49.19,0,0,1,.76,5.87l3,23.48c.17,1.31,2.26,1.33,2.08,0l-2.78-21.52c-.45-3.51.13-9.95-2.68-12.54-2.35-2.16-9.29-4.55-12.34-4.6-3.6-.06-3.67,2.83-4.71,5.93-.43,1.28,1.59,1.82,2,.55Z" transform="translate(407.5 247.5)"/><path d="M-317.93-176a10.79,10.79,0,0,0-5.09-.68l.74,1.78,8.24-7.8a56.26,56.26,0,0,1,4.12-3.9c3.13-2.4,4.43-.5,6.38,2.08,2.13,2.82,4.37,5.63,6.28,8.61,1.12,1.75,2.86,4.81.43,5.79-1.35.54-4.58-.68-6.1-.95-1.31-.23-1.87,1.78-.55,2,2.44.43,8.5,2.65,10.19-.16,2.44-4.07-4.72-11.36-6.81-14.18s-4.25-8-8.8-6.55c-2,.63-3.75,3.07-5.23,4.47l-9.62,9.1a1.05,1.05,0,0,0,.74,1.78,7,7,0,0,1,4.54.6c1.26.46,1.81-1.56.55-2Z" transform="translate(407.5 247.5)"/><path d="M-300-151.19c2.47.33,6.22-.2,8.5.78,2.07.88,1.87,4.32,2,6.42l.53,6.13c.12,1.33,2.2,1.34,2.08,0l-.77-8.92c-.14-1.57,0-3.66-1.23-4.82s-3.51-1.05-5-1.17c-2.05-.16-4.09-.23-6.13-.5-1.33-.18-1.31,1.91,0,2.08Z" transform="translate(407.5 247.5)"/><path d="M-299.12-158.61c1.43-2.79,2.93-3.31,5.47-1.56,2,1.39,4,2.8,6,4.2,1.51,1.06,4.66,2.39,5,4.22s-1.6.64-2.82.49l-4.52-.55c-1.33-.16-1.32,1.92,0,2.08,2.37.29,8.6,2.4,10.55.12s-2-4.57-3.55-5.65l-6.58-4.62c-1.62-1.14-3.64-3.17-5.58-3.68-2.85-.75-4.56,1.6-5.73,3.89-.61,1.19,1.19,2.25,1.8,1.05Z" transform="translate(407.5 247.5)"/><path d="M-295.14-163.62c-.52-1.64-.35-3.31-.69-5-.27-1.31-2.28-.76-2,.55.35,1.67.17,3.32.69,5,.41,1.27,2.42.73,2-.55Z" transform="translate(407.5 247.5)"/><path d="M-293.41-171.37a50.57,50.57,0,0,0,19.08,1.64l-.53-1.94c-5.73,3.57-12.83,7.57-19.16,3-1.09-.79-2.13,1-1.05,1.8,7,5.06,14.9,1,21.26-3,.82-.51.56-2-.53-1.94a48.93,48.93,0,0,1-18.52-1.57c-1.28-.4-1.83,1.62-.55,2Z" transform="translate(407.5 247.5)"/><path d="M-325.79-176.55c.44-3.93.72-7.87,1.08-11.81a18.61,18.61,0,0,1,.24-2.54,3.51,3.51,0,0,1,1.34-2.71l1.28.38c2.07.17,4.4,1.31,6.4,1.9l-.77-1c.07,3.07-6.8,3.53-8.88,3.39-1.34-.09-1.33,2,0,2.08,3.55.25,11.08-.65,11-5.47a1.07,1.07,0,0,0-.77-1c-2.49-.74-6.2-2.68-8.8-2.51a2.51,2.51,0,0,0-2.4,1.66c-.95,2.06-.68,5.4-.87,7.65-.28,3.33-.55,6.66-.92,10-.15,1.33,1.94,1.32,2.08,0Z" transform="translate(407.5 247.5)"/><path d="M-306.7-197.05a1,1,0,0,0,0-2.08,1,1,0,0,0,0,2.08Z" transform="translate(407.5 247.5)"/><path class="cls-5" d="M-86.3-30.65a115.9,115.9,0,0,0,6.55,16.89l20,44.63c4.24,9.44,8.56,19.19,9,29.57s-4,21.68-13.15,26.16c-.75.36-1.51.68-2.28,1l-3.28,1.35a57.51,57.51,0,0,1-9.34,3.23A28.93,28.93,0,0,1-100,88.59c-8.82-5.42-14.29-15.34-16.7-25.58s-2.16-20.91-1.88-31.44l1.64-62.38Z" transform="translate(407.5 247.5)"/><path d="M-87.29-30.37C-84.87-22-81-14.06-77.43-6.1l12,26.78C-58.08,37-46.14,57.13-54.6,75.22-58.51,83.59-66,86.84-74.32,89.77c-9.77,3.46-20.4,2.28-28.5-4.5-14.44-12.07-15.17-32.69-14.8-50,.47-22,1.15-44.07,1.73-66.1l-1,1,30.62.17a1,1,0,0,0,0-2.06l-30.62-.17a1,1,0,0,0-1,1c-.6,22.65-1.39,45.31-1.77,68-.29,17.32,1.16,37.54,15.44,49.58a30.14,30.14,0,0,0,23.84,6.79c6.72-1,15.35-4.1,20.77-8.39C-45.5,73.93-49.17,53.46-55.05,39-59.68,27.65-65,16.55-70,5.36-75.37-6.52-81.69-18.39-85.31-30.92A1,1,0,0,0-87.29-30.37Z" transform="translate(407.5 247.5)"/><path class="cls-5" d="M-64.19-84.67c-.38-6.85,0-13.65-2.88-19.84-.4-.85-.92-1.78-1.81-2-1.13-.29-2.17.68-2.93,1.58A57.35,57.35,0,0,0-80.6-90.63a3.07,3.07,0,0,1-1.3,1.74,2.84,2.84,0,0,1-1.44.12l-21.3-1.89c-1.68-.15-3.53-.38-4.65-1.67a7.26,7.26,0,0,1-1.29-3,92.69,92.69,0,0,0-4.13-12.29c-.8-1.93-2.08-4.13-4.14-4.17-1.58,0-2.86,1.29-3.75,2.63-3.29,4.93-4,11.12-5.72,16.83a12.47,12.47,0,0,1-1.5,3.52,18.88,18.88,0,0,1-2.92,3c-7.58,7.09-10.42,18.71-7.93,28.91s9.88,18.79,19,23.56,19.87,5.9,30,4.19c8.27-1.39,16.49-4.81,22.12-11.16,6-6.75,8.42-16.14,8.76-25.25.25-6.53-.53-13.26-3.44-19.08" transform="translate(407.5 247.5)"/><path d="M-63.16-84.67c-.19-4.06.69-23.92-6.82-22.81-2.88.43-5.31,5.25-6.74,7.41-1.56,2.37-2.65,5-4.09,7.37s-1.7,2.47-4.46,2.72a34.47,34.47,0,0,1-5.81-.51l-9.68-.86c-4.18-.37-6.83,0-8.82-4.3-2.19-4.72-2.22-10.83-5.61-15-6-7.45-10.88,5.79-12.07,10.11-.72,2.61-1.13,5.37-2,7.92-1.13,3.15-3,4.79-5.2,7.11A29.36,29.36,0,0,0-141-74.26a33.35,33.35,0,0,0,2.74,26.14c10.18,18.51,33.76,24.43,53.08,18.49C-75-32.77-66.79-39.45-62.83-49.55c4.35-11.1,4.54-24.77-.47-35.64-.55-1.2-2.33-.16-1.78,1,4.37,9.47,4.31,21.13,1.31,31-3.12,10.26-10.43,17.49-20.48,21-18,6.31-40.48,1.55-51.12-15.15A31.43,31.43,0,0,1-139-73.71a27.89,27.89,0,0,1,7-11.4c2.28-2.27,3.71-3.9,4.68-7,1.44-4.56,2-9.41,4.05-13.78.3-.64,1.05-2.51,1.56-2.8l2.78.18q3.67-1,3.92,2.83c.92,2.29,1.72,4.64,2.43,7,.8,2.64,1,6.17,3.53,7.85,2.24,1.52,5.74,1.3,8.29,1.53,5.6.5,11.81,1.87,17.43,1.54,3.36-.2,3.64-2.63,5-5.44A57,57,0,0,1-74.94-99c.61-.94,1.26-1.86,1.93-2.76q1.11-3.81,3.76-1.66,1.91,0,2.1,1.56c2.71,4.24,1.69,12.32,1.92,17.22.06,1.32,2.12,1.33,2.06,0Z" transform="translate(407.5 247.5)"/><path class="cls-5" d="M-82.51-66.26" transform="translate(407.5 247.5)"/><path d="M-82.51-65.23a1,1,0,0,0,0-2.06,1,1,0,0,0,0,2.06Z" transform="translate(407.5 247.5)"/><path class="cls-5" d="M-117.8-70.08h.34" transform="translate(407.5 247.5)"/><path d="M-117.8-69h.34a1,1,0,0,0,0-2.06h-.34a1,1,0,0,0,0,2.06Z" transform="translate(407.5 247.5)"/><path class="cls-5" d="M-94.38-48.31c-.34,2.4-4.7,3.94-6.3,4.57s-5.65-4.71-6-6.19a16,16,0,0,1-.65-4.16c-1.09,2.67-9.27,6.8-10.43,4.73a20.27,20.27,0,0,1-2.6-8.11" transform="translate(407.5 247.5)"/><path d="M-95.21-48.54a5.1,5.1,0,0,1-8.34,1.89c-2.11-2-2.79-4.58-3-7.43a.86.86,0,0,0-1.6-.43,10.56,10.56,0,0,1-5.76,4.18c-4.29,1.34-5.32-3.61-5.68-7.12-.11-1.09-1.83-1.1-1.72,0,.32,3.1,1.1,9.24,5,9.51,3.28.23,8.06-3,9.6-5.71l-1.6-.43c.22,3.76,2.06,9.46,6.12,10.94,3,1.09,7.57-2.18,8.54-4.94.37-1-1.29-1.49-1.65-.46Z" transform="translate(407.5 247.5)"/><path class="cls-5" d="M-104.82-55a1.26,1.26,0,0,1-1.11.83,3.29,3.29,0,0,1-1.42-.27,3.46,3.46,0,0,1-1.15-.6,1.35,1.35,0,0,1-.49-1.17,1.28,1.28,0,0,1,1-1,2.73,2.73,0,0,1,1.44.13c.77.24,1.59.75,1.66,1.57" transform="translate(407.5 247.5)"/><path d="M-105.65-55.23c-.28.7-2.9-.36-2.38-1,.29-.36,1.1-.07,1.45.07a1.18,1.18,0,0,1,.86.89c.19,1.09,1.84.63,1.65-.46-.43-2.43-5.31-3.55-5.76-.61-.24,1.56,1.28,2.42,2.53,2.81s2.74.15,3.31-1.26c.41-1-1.25-1.47-1.65-.46Z" transform="translate(407.5 247.5)"/><path class="cls-5" d="M-69.66,80.34C-72.21,94.45-82.17,105-93.21,111c-11.64,6.24-25.16,8-38.28,7.29-12.34-.66-25.34-3.83-33.91-12.94-3.78-4-6.42-10.73-2.83-14.94,2.06-2.41,5.57-3,8.64-2.44s5.84,2.26,8.57,3.81c8.49,4.84,17.45,9.08,27,10.95s19.8,1.2,28.43-3.39,15.34-13.44,16.08-23.37" transform="translate(407.5 247.5)"/><path d="M-70.65,80.06c-6.82,33.84-49.29,43.58-78.19,34.13-7.44-2.43-16.55-7.35-19.33-15.22-2.48-7,3.18-11.55,9.82-9.68,4,1.13,7.71,3.9,11.36,5.82,12.6,6.64,26.82,11.49,41.19,8.78,14.11-2.66,25.78-13.37,27.32-28,.14-1.32-1.92-1.31-2.06,0-2.39,22.69-27.36,29.91-46.55,25-9.46-2.42-17.59-7.19-26.16-11.64-4.77-2.47-11.56-4.43-15.71.33-3.89,4.45-1.45,11.06,1.75,15.13,4.25,5.4,10.69,9,17.08,11.17,15.31,5.29,34.16,4.87,49.36-.53,15.78-5.61,28.73-18,32.1-34.79.26-1.29-1.72-1.85-2-.55Z" transform="translate(407.5 247.5)"/><path class="cls-5" d="M-96.91,78.77A45.82,45.82,0,0,0-113.47,41a11.9,11.9,0,0,0-5.66-2.89,8.54,8.54,0,0,0-6.59,2.26c-4,3.52-5.11,9.65-3.92,14.93s4.31,9.88,7.59,14.12,4.25,5.07,7.64,10.71c-.08-5.41-9.75-6.47-15-6s-8,7.12-5.77,11.9c1.7,3.58,9.68,3.69,13.49,4.52,2.92.63,6.76.73,9.72,1.06,3.71.41,7.63.55,11-1.09,5.86-2.85,7.57-6.19,4.07-11.78" transform="translate(407.5 247.5)"/><path d="M-95.88,78.77a47.83,47.83,0,0,0-7.19-27.51c-3.61-5.74-11.2-16-19.15-13.92-7.68,2-9.92,11.44-8.41,18.26,2.16,9.71,10.31,16.85,15.34,25.08.49.8,2,.55,1.92-.52-.82-6.79-10.93-7.89-16.32-7-6.26,1.06-10.39,10.63-4.93,15.12,3.1,2.55,8,2.49,11.78,3.12,5.52.92,11.7,2,17.3,1.42,8.25-.92,14-6.76,9.53-14.58a1,1,0,0,0-1.78,1c5,8.79-5.56,12-12.57,11.48-5.45-.38-10.86-1.1-16.25-2-1.91-.31-4.59-.55-6.19-1.75-4.09-3.06-1.88-10.2,2.52-11.67,3.85-1.29,14.26-.23,14.86,4.79l1.92-.52c-3.43-5.62-7.93-10.42-11.39-16-2.11-3.41-3.87-7.2-4.13-11.26-.32-5,1.79-11.72,7.35-13.05C-113.84,37.46-105.87,50-103,55.61a45.78,45.78,0,0,1,5,23.16c-.05,1.33,2,1.32,2.06,0Z" transform="translate(407.5 247.5)"/><path class="cls-5" d="M-117.71-29.61c-4.87,1.29-8.13,2.38-13.16,2.56s-10.24-.84-14.35-3.82c-5.34-3.88-8.17-10.53-13.28-14.72-1.5-1.23-3.44-2.26-5.27-1.68a4.94,4.94,0,0,0-2.38,1.9,11,11,0,0,0-1.32,9.22,21.12,21.12,0,0,0,4.8,8.2,30.52,30.52,0,0,0,7.6,6.39c7.36,4.23,16.24,4.28,24.68,4.21,4.12,0,8.39-.09,12.13-1.86" transform="translate(407.5 247.5)"/><path d="M-118-30.6c-6.85,1.84-13.81,3.67-20.86,1.64-6.71-1.94-10.14-7.12-14.25-12.32-2.35-3-6.21-8.07-10.68-7-2.92.7-4.49,4-5,6.66-1.77,9.68,8.12,19,16.19,22.44,4.85,2,10.16,2.64,15.37,2.83,6.37.23,13.21.57,19.22-1.85,1.21-.49.68-2.48-.55-2-5.13,2.06-10.66,1.89-16.11,1.82-5-.06-10-.31-14.78-1.86A28.53,28.53,0,0,1-163.77-31a15.31,15.31,0,0,1-3.11-7.91c0-1-.09-3,.49-3.8l6.17-2.88a15.51,15.51,0,0,1,2.67,2.25c5.47,5.38,8.47,12.61,16,15.61,7.93,3.16,16.2,1.2,24.1-.92a1,1,0,0,0-.55-2Z" transform="translate(407.5 247.5)"/><path class="cls-5" d="M-117.37-17.71a27.63,27.63,0,0,1-19.25,8.17c-3.15,0-6.7-.39-9.09,1.72A8.17,8.17,0,0,0-148-1.52a6.69,6.69,0,0,0,1.13,4c1.51,2,4.3,2.18,6.73,2A36.66,36.66,0,0,0-117.8-5.12" transform="translate(407.5 247.5)"/><path d="M-118.1-18.44a27.62,27.62,0,0,1-12.75,7.16c-3.85.92-7.73.14-11.54.91-5.18,1-7.76,6.19-6.32,11.22,1.53,5.37,7.48,5,12,4.27a39.14,39.14,0,0,0,19.68-9.51c1-.87-.46-2.32-1.46-1.46a37.14,37.14,0,0,1-15.73,8.38c-2.55.61-5.61,1.35-8.23.86-3-.56-5.51-4.43-4.23-7.42a7.52,7.52,0,0,1,6.64-4.48c9.17-.52,16.5-1.85,23.43-8.47,1-.92-.5-2.37-1.46-1.46Z" transform="translate(407.5 247.5)"/><path d="M-294.42-53.24a1,1,0,0,0,0-1.95,1,1,0,0,0,0,1.95Z" transform="translate(407.5 247.5)"/><path d="M-311.91-52.66a1,1,0,0,0,0-1.95,1,1,0,0,0,0,1.95Z" transform="translate(407.5 247.5)"/><path class="cls-1" d="M-348.42,45.61l-7-2c-1-.29-2.26-.47-2.85.5a2.82,2.82,0,0,0-.18,2,15.28,15.28,0,0,0,3.32,6.29q2,2.64,4.2,5.15c.95,1.1,2.11,2.26,3.45,2.1" transform="translate(407.5 247.5)"/><path d="M-348.16,44.67c-2.15-.62-4.29-1.28-6.44-1.86-1.07-.29-2.31-.7-3.4-.2-2,.94-1.59,3.46-1,5.18,1,3,3.25,5.44,5.2,7.83,1.71,2.09,3.36,4.73,6.27,4.92,1.25.08,1.25-1.87,0-1.95-2.94-.19-6.9-6.67-8.29-8.83a8.81,8.81,0,0,1-1.14-2.15q-1.14-1.73,1.22-3.1l1.17.34c1.91.18,4,1.16,5.86,1.69a1,1,0,0,0,.52-1.88Z" transform="translate(407.5 247.5)"/><path d="M-290.44,89.39a3.82,3.82,0,0,1,2.71,2.45c.29.88.15,1.66-1,1.43-.56-.11-.84-.77-1.52-.66a1.35,1.35,0,0,0-.95.74c-.11.2-.07.46-.16.65v.75q-1.47,1.69-2.15-.09c-.37-.53-1.36-.73-1.68,0a9,9,0,0,1-.61,1.26q-1.74.5-1.48-1.23c-.11-1.45.11-1.78,1.36-2.35l5.85-2.64c1.14-.52.15-2.19-1-1.68-2.24,1-5.31,1.83-7.26,3.34-1.28,1-1.08,3-.77,4.42.27,1.27.89,2.55,2.32,2.69,1.72.16,2.66-1.47,3.26-2.82h-1.68c.9,1.26,2.11,2.8,3.88,2.41a2.49,2.49,0,0,0,1.44-.9c.46-.61.18-2.68.44-2.9l-.95.25c1.2.34,1.74,1.65,3.22,1.2a2.31,2.31,0,0,0,1.46-1.94c.6-3-1.57-5.41-4.22-6.26-1.2-.38-1.71,1.5-.52,1.88Z" transform="translate(407.5 247.5)"/><path d="M-324,93.18c.32.46,1.09,1.8.83,2.31l-1.3.68-.4-.47c-.47-.17-.47-.53-1.07-.53a1.58,1.58,0,0,0-.91.38c-.31.2-.51.68-.84.83-1.09.49-1.88-.47-2-1.56a1,1,0,0,0-1.23-.94c-.46.12-1.38.8-1.75.79-1.41-.06-1.13-2.15-.39-2.77a4.16,4.16,0,0,1,3.63-.49c2.08.61,3.83,1.83,6,2.16,1.23.19,1.75-1.69.52-1.88-3.71-.56-9.51-5.19-12.27-.15a4.06,4.06,0,0,0,.35,4.67c1.51,1.48,2.89-.06,4.43-.46l-1.23-.94c.18,1.6.56,3.81,2.47,4.21a2.64,2.64,0,0,0,2-.51c.4-.27.71-.78,1.11-1q-.39-.74,0-.19a2.82,2.82,0,0,0,.66.62c1.08.83,2.45,1.11,3.42,0,1.36-1.6.72-4.16-.34-5.71-.71-1-2.39-.05-1.68,1Z" transform="translate(407.5 247.5)"/><path class="cls-1" d="M-342-19.73l-14.39,6.45c-2.76,1.24-5.52,2.47-8.22,3.88a18.07,18.07,0,0,0-5.3,3.77A8.92,8.92,0,0,0-372.28.77a11.19,11.19,0,0,0,1.91,5.05,27.18,27.18,0,0,0,6.54,7.23c2.06,1.56,4.38,2.85,5.84,5.13a3.86,3.86,0,0,1,.64,1.58,5.16,5.16,0,0,1-.32,2.09L-360,29.77c-.18.61-.3,1.45.18,1.77a1,1,0,0,0,.83.05c2.24-.54,4.19-2.07,6.08-3.56a17.6,17.6,0,0,0,5.09-5.43,5.88,5.88,0,0,0,.72-2.5,8.87,8.87,0,0,0-.93-3.55,58.7,58.7,0,0,1-2-5.85,1.46,1.46,0,0,1-.06-.92,1.14,1.14,0,0,1,.48-.5,9.1,9.1,0,0,1,2.52-1.17,1.84,1.84,0,0,0,1.11-.6,2.15,2.15,0,0,0,.27-.77,135.86,135.86,0,0,0,3-25.64" transform="translate(407.5 247.5)"/><path d="M-342.47-20.57c-7.53,3.37-15.35,6.41-22.61,10.33-4.26,2.3-8.55,5.75-8.15,11.13.38,5.18,5,9.87,8.82,12.92,2.7,2.18,5.89,3.27,5.81,7.78,0,1.47-1,3.36-1.42,4.75-.62,2.06-1.54,3.7-.67,5.69a1,1,0,0,0,.84.48c3.85.25,8.55-4.12,10.93-6.76,3.3-3.65,2.84-6.61,1.24-10.89-.9-2.4-1.78-3.46.79-5.81.4-.36,1.25-.36,1.54-.85,1.08-1.86,1.21-4.55,1.57-6.62a144.18,144.18,0,0,0,2-20.47,1,1,0,0,0-1.95,0,140.52,140.52,0,0,1-1.91,20,23.12,23.12,0,0,1-.67,3.62c-.79,2.24-.55,1.84-2.48,3-.66.41-1.88.84-2.22,1.71-1.36,3.57,3.58,7.86,2.74,11.72-.61,2.8-5,6.44-7.45,7.8l-1.2.76q-2.87,1.43-1.91-.46c-.16-.76,1-3.32,1.19-4,1.08-3.58,2-5.84-.52-8.95-3.43-4.16-8.44-6.11-11.33-11-5.1-8.62,3.66-13.18,10.34-16.27,5.87-2.71,11.8-5.3,17.7-7.94,1.14-.51.15-2.19-1-1.68Z" transform="translate(407.5 247.5)"/><path class="cls-6" d="M-287.85-46.11a25.29,25.29,0,0,1,6.36,3.8c1,.77,3.44,1.64,3.87,3,.13.41.65,1.15.52,1.56-.27.89-3,.91-3.83,1l-9.71,1.49,7,.4c1.24.07,4.4.19,5,1.24s-.52,1.48-2.37,3.27a7,7,0,0,1-2.45,1.47,33.34,33.34,0,0,1-8.72,2,2.89,2.89,0,0,1-1.37-.11,3.15,3.15,0,0,1-1.26-1.19,23.79,23.79,0,0,1-2.81-6c-1.26-3.72-2.12-8.25,0-11.46,1.17-1.81,2.22-2.23,4-3.25.93-.54-.38-.53,3,.81Z" transform="translate(407.5 247.5)"/><path d="M-288.34-45.27c1.38.61,10.48,5.38,9.82,6.85s-10.59,2-12.37,2.24c-1.14.17-.78,1.85.26,1.91,2.57.15,5.18.19,7.74.44,3.75.37,3.27,1.67.21,3.52-1.78,1.08-7.37,3-9.52,2.48-3-.72-4.16-5.34-4.9-7.88-1.24-4.3-1.29-11.26,4.26-12.62-1.23.3.33.44,1.29,1a33.59,33.59,0,0,1,3.21,2.09c1,.72,2-1,1-1.68-3.76-2.61-5.8-4.43-9.62-1-5.37,4.81-2.56,15.34,1.3,20.3,1.79,2.3,4,1.83,6.68,1.34,3.59-.66,8.57-1.89,10.69-5.28,3.42-5.46-10.24-4.5-12.33-4.62l.26,1.91c3.76-.58,7.6-1,11.33-1.66,1.31-.25,2.68-.45,2.91-1.94s-1.55-3.19-2.7-4a55.26,55.26,0,0,0-8.52-5.08C-288.5-47.45-289.49-45.77-288.34-45.27Z" transform="translate(407.5 247.5)"/><path d="M-121.65-75.4l9-.65c2.66-.19,2.68-4.36,0-4.17l-9,.65c-2.66.19-2.68,4.36,0,4.17Z" transform="translate(407.5 247.5)"/><path d="M-86.07-72.93A40.28,40.28,0,0,1-78.24-70c2.39,1.19,4.51-2.4,2.1-3.6A45.63,45.63,0,0,0-85-77c-2.6-.68-3.71,3.34-1.11,4Z" transform="translate(407.5 247.5)"/><path d="M-317.92-61.12a25.15,25.15,0,0,1,5.29.38c1.23.22,1.75-1.65.52-1.88a27.63,27.63,0,0,0-5.81-.45c-1.25,0-1.26,2,0,1.95Z" transform="translate(407.5 247.5)"/><path d="M-296.12-60.44a22.16,22.16,0,0,1,9.11-1c1.25.12,1.24-1.83,0-1.95a23.52,23.52,0,0,0-9.63,1c-1.19.38-.68,2.27.52,1.88Z" transform="translate(407.5 247.5)"/><path d="M-143.25-163.82c4,0,4-6.25,0-6.25s-4,6.25,0,6.25Z" transform="translate(407.5 247.5)"/><path d="M-124.23-170.76h-.68a3.16,3.16,0,0,0-3.13,3.13,3.18,3.18,0,0,0,3.13,3.13h.68a3.16,3.16,0,0,0,3.13-3.13,3.18,3.18,0,0,0-3.13-3.13Z" transform="translate(407.5 247.5)"/><path d="M-100.94-165l1.36-.68A3.15,3.15,0,0,0-98.47-170a3.2,3.2,0,0,0-4.28-1.12l-1.36.68a3.15,3.15,0,0,0-1.12,4.28,3.2,3.2,0,0,0,4.28,1.12Z" transform="translate(407.5 247.5)"/><path class="cls-7" d="M-337.84-64.13a6.35,6.35,0,0,1-5.95-3.3,13.9,13.9,0,0,1-1.57-6.94c-.06-4,.7-8.37,3.56-11.22s8.28-3.27,10.63,0c.31.43,6.4,4.19,7.42,3.78,6.79-2.72,10.19-2.94,16.76-2,.66.09,3.09-5.29,3.77-5.8,2.3-1.73,8.47-4.28,8.91-4.41,1.42-.4,7.15.71,8.29,1.69a14.13,14.13,0,0,1,5,10.7,11.28,11.28,0,0,1-6.09,9.86,2.45,2.45,0,0,1-1.18.31c-.85-.05-1.44-.83-2-1.51-5.27-7-14.89-9.94-23.46-8.22s-15.95,7.65-20.53,15.09c-1,1.64-2.44,3.63-4.33,3.24" transform="translate(407.5 247.5)"/><path d="M-337.84-65.15c-11.55-.22-7.1-29.54,6.38-19.36a22.51,22.51,0,0,0,5.7,3.25c2.28.81,3.3-.05,5.7-.8a28.41,28.41,0,0,1,11.36-1c2.32.21,2.45.19,3.72-1.64,1.61-2.33,2.15-4.18,4.83-5.61,2-1.09,4.56-2.64,6.9-2.81a10.35,10.35,0,0,1,10.53,7.24c1.21,3.42-.18,15.71-6.77,12.14-1.39-.75-2.74-3-4.1-4a23.32,23.32,0,0,0-3.91-2.39A25.7,25.7,0,0,0-305-82.42a27.69,27.69,0,0,0-18.59,4.08,34.56,34.56,0,0,0-6.94,5.7c-2.07,2.2-5,8.65-8,8.74a1,1,0,0,0,0,2c2.16-.06,3.23-1,4.56-2.74,2.63-3.39,4.75-6.82,8.12-9.59,7.62-6.24,18.2-8.56,27.32-4.2a20.9,20.9,0,0,1,5.69,3.94c1,.94,1.83,2.6,3,3.33,2,1.28,3.9.11,5.55-1.27,4.55-3.81,5.39-10.32,2.94-15.53a11.9,11.9,0,0,0-11.86-7.21c-3.32.2-8.59,2.6-10.83,4.95-1.72,1.81-1.71,4.76-4.63,5.11-3.86.47-7.25-.31-11.14.82-2.51.73-4,1.71-6.45.49a22.67,22.67,0,0,1-3-1.75c-1.89-1.36-3.19-2.94-5.64-3.3-13.58-2-16.31,25.46-2.87,25.71a1,1,0,0,0,0-2Z" transform="translate(407.5 247.5)"/><path d="M-338.61-61.26q12.56,11.38,25.48,22.34c4.18,3.54,8.35,7.13,12.65,10.53,2.93,2.31,5.76,4.21,9.63,3.84,1.29-.12,1.31-2.16,0-2-5.59.54-10.17-4.85-14.16-8.17q-5.58-4.64-11.1-9.37-10.66-9.13-21.06-18.57c-1-.88-2.42.56-1.44,1.44Z" transform="translate(407.5 247.5)"/><rect class="cls-8" x="0.5" y="0.5" width="400" height="400"/></svg>