<svg id="Layer_2" data-name="Layer 2" xmlns="http://www.w3.org/2000/svg" viewBox="0 0 401 401"><defs><style>.cls-1{fill:#ffeaba;}.cls-2{fill:#ff6896;}.cls-3{fill:#cc7d00;}.cls-4{fill:#cecece;}.cls-5{fill:#bababa;}.cls-6{fill:#ffdb27;}.cls-7{fill:#ff4848;}.cls-8{fill:#60d8d2;}.cls-9{fill:#f4abab;}.cls-10{fill:#d1ffd9;}.cls-11{fill:#ffefad;}.cls-12{fill:none;stroke:#000;stroke-miterlimit:10;}</style></defs><title>Q2</title><path class="cls-1" d="M903,255.21c.48,5.88,3.1,11.45,3.7,17.32.77,7.54-1.81,15-4.36,22.16-1.69,4.78-3.51,9.74-7.27,13.26s-9.49,5.27-14.93,5.47-10.84-.88-16.17-2l-9.27-1.87c-4.92-1-10-2.07-14-5-4.71-3.51-7.16-9.25-7.82-15s.26-11.45,1.19-17.11l2.58-15.81c1.07-7.85,1.94-22.06,3.75-29.79s4.92-15.35,10.35-21.29,13.44-10,21.64-9.57c6.92.39,13.38,3.94,18.11,8.83a34,34,0,0,1,8,13.43,66,66,0,0,1,2.24,13.7l2.15,23.36" transform="translate(-528.5 49.5)"/><path d="M902.21,255.21c.49,4.22,1.77,8.2,2.75,12.32a36,36,0,0,1-.69,18.78c-2.81,10-6.1,21.6-17,25.14-9.79,3.18-20.78-.28-30.49-2.25-10.85-2.2-20.41-5.55-22.78-17.66-2.08-10.63,1.47-22.34,3.13-32.87,1.12-7.08,1.55-14.26,2.41-21.38,2.14-17.7,10.9-41.66,32.84-40.43,11.95.67,21.89,10.66,25.33,21.66,3.59,11.48,3.27,24.92,4.37,36.84.1,1,1.72,1,1.62,0-1.89-20.53-.07-48.93-23.21-58.26-20-8.08-36,10.42-40.51,28-2.35,9.11-2.69,18.7-3.73,28-1.33,11.89-5.61,24.42-4.19,36.45,1.08,9.15,6.24,16.12,15.07,19,5.64,1.83,11.71,2.68,17.52,3.84s11.77,2.28,17.72,1.64c10.92-1.18,16.61-7.88,20.23-17.72,2.37-6.42,4.81-13.14,5-20.05.22-7.28-3-13.94-3.82-21.08-.12-1-1.74-1-1.62,0Z" transform="translate(-528.5 49.5)"/><path class="cls-2" d="M876,261.65a8.28,8.28,0,0,0-6.21-5.11.45.45,0,0,0-.24,0c-.13.05-.18.2-.22.33a2,2,0,0,1-3.11.56c.31.6-.32,1.25-.89,1.63s-1.21.59-1.6.17c-.2-.21-.24-.55-.49-.69-.53-.29-1,.57-1.61.63s-.82-.4-1-.83a2.86,2.86,0,0,0-.56-1.23c-.59-.55-1.57-.24-2.29.15a9.22,9.22,0,0,0-4.6,4.9,20.75,20.75,0,0,0-.65,3.77,21.66,21.66,0,0,0,1.54,2.81,11.27,11.27,0,0,0,7.34,4.41,24.05,24.05,0,0,0,8.83-.3,10.68,10.68,0,0,0,3.09-.95,4,4,0,0,0,2-2.34s1.11-3.59,1.11-4.12S876,261.65,876,261.65Z" transform="translate(-528.5 49.5)"/><path d="M876.69,261.24a9.23,9.23,0,0,0-5.33-5.11c-.36-.12-5.4.2-4.75.59a.82.82,0,0,0-1.22.7l-1.48.7a.85.85,0,0,0-.92-.37c-2.27.53-1.72-1.71-4-1.74s-4.95,2.75-5.94,4.5c-2.18,3.84-1.24,7.49,1.9,10.39,4.38,4,15.1,5.11,19.77,1,2.89-2.54,2.57-7.08,2.07-10.47-.15-1-1.71-.59-1.56.43a12.85,12.85,0,0,1,.06,5.12c-1,4.48-5.33,5.39-9.45,5.57-5.93.26-15.39-3.93-11.39-11.24a3.28,3.28,0,0,1,3.56-2.25q1.76-1.23,2.31.26c.18,0,.23.35.48.37.8.06,1.64.08,2.35.09,2,0,3.54.33,3.88-2.37l-1.22.7c1.36.82,1.78.49,3.28.19.43-.08.56-.92.87-1,2.21-.27,4.5,2.95,5.34,4.7C875.74,263,877.14,262.18,876.69,261.24Z" transform="translate(-528.5 49.5)"/><path class="cls-3" d="M870.17,196.84c.8,1,0,2.34-.67,3.4a23.38,23.38,0,0,0-2.38,6.24c-1.66,6.11-3.09,12.44-2.22,18.7a3.53,3.53,0,0,0,.65,1.84,4.07,4.07,0,0,0,2.14,1.07c3.41.92,7.32,1.74,10.28-.13,3.29-2.07,3.86-6.46,6.16-9.52s6.43-4.79,8.29-8.18a1.76,1.76,0,0,0,.28-1,1.94,1.94,0,0,0-.5-1A30.73,30.73,0,0,0,870.77,197" transform="translate(-528.5 49.5)"/><path d="M869.39,197.06c.47,1.55-2.1,6-2.6,7.59a76,76,0,0,0-2.2,9c-.67,3.67-1.86,9.38-.2,12.88,1.27,2.66,5.24,3.07,7.84,3.26,3.53.27,6.53-.7,8.63-3.65,1.25-1.76,1.87-3.85,2.95-5.69,1.48-2.52,3.6-4.08,5.79-5.92,1.83-1.55,4.44-3.59,3.55-6.16-1.16-3.38-6.35-6.53-9.35-8.21a33.53,33.53,0,0,0-13-4c-1-.11-1,1.51,0,1.62a31.49,31.49,0,0,1,11.52,3.37c2.39,1.25,7.24,3.84,8.33,6.5,1.79,4.35-3.91,6.67-6.13,9.06-1.77,1.9-2.52,4.18-3.79,6.4-2.52,4.4-7,6.54-12.07,4.34s-3.08-10.36-2.3-14.32a50.1,50.1,0,0,1,3.2-11.11c.93-2,2.08-3.25,1.42-5.44a.81.81,0,0,0-1.56.43Z" transform="translate(-528.5 49.5)"/><path class="cls-3" d="M904,266.5a18.26,18.26,0,0,1-9.35,8.89c-2.26,1-4.84,1.54-6.49,3.32a8.37,8.37,0,0,0-1.91,4.25,16,16,0,0,0,0,5.64,4.42,4.42,0,0,0,1,2.41,4.83,4.83,0,0,0,2.53,1.13,20.21,20.21,0,0,0,10.62-.69,7.26,7.26,0,0,0,3.91-2.65,7.62,7.62,0,0,0,.88-2.41,44.46,44.46,0,0,0-.1-20.23" transform="translate(-528.5 49.5)"/><path d="M903.3,266.09c-2.73,5.2-6.53,7.24-11.65,9.59-2.72,1.25-4.64,2.37-5.72,5.34-1.55,4.29-1.53,10.58,3.63,11.9,4.48,1.15,12.58.68,15.44-3.71,1.76-2.69,1.85-7,2-10.16a48.32,48.32,0,0,0-1.17-13.1c-.22-1-1.78-.59-1.56.43,1.22,5.63,2,12.29.48,18-1,3.72-2.58,5.84-6.31,6.82-4.65,1.22-11.39,1.28-11.64-5.4-.29-7.8,6.54-8.11,11.47-11.47a19.87,19.87,0,0,0,6.41-7.4c.48-.92-.91-1.74-1.4-.82Z" transform="translate(-528.5 49.5)"/><path class="cls-4" d="M579.13,80.13c-2.23-11.36-2.23-16.28.61-27.48,1.81-7.15,5.73-15,12.51-16,4.31-.68,8.66,1.76,11.55,5.28s4.55,8,5.91,12.49a130.68,130.68,0,0,1,5,24.75l26.16-3.6a3.63,3.63,0,0,0,1.88-.63c1-.82,1-2.4,1-3.75a80.36,80.36,0,0,1,2-20.93c1.74-7.6,5.08-15.48,11.51-19.07a10,10,0,0,1,5.35-1.42c5.91.33,9.41,7.26,10.94,13.44a76.59,76.59,0,0,1,.77,33.25c3.78,1.69,6.37,5.5,8.36,9.37,5.42,10.56,7.78,23.34,4.66,34.94-3,11-10.64,20.11-19.83,25.83s-19.8,8.32-30.37,9.24c-8.15.7-16.46.43-24.31-2a38,38,0,0,1-20.12-14.32,57.35,57.35,0,0,1-5.78-11.59c-4.09-10.39-7.24-21.86-5-32.9.42-2.06-.44-3.44-.67-5.53s-.08-9.17-2-9.33" transform="translate(-528.5 49.5)"/><path d="M580.79,79.67c-1.39-7.27-2-14.11-.57-21.43,1.31-6.58,3.38-16.35,10.33-19.27,9.49-4,15.09,8.17,17.29,15.15a130.33,130.33,0,0,1,5.15,25,1.76,1.76,0,0,0,2.17,1.66L632,78.51c3.34-.46,9.6,0,12.12-2.53s1.2-8.26,1.36-11.51a70.3,70.3,0,0,1,3-18c1.54-4.83,4-10.14,8.39-13,6.46-4.31,11.28.24,13.67,6.26,4.44,11.16,4.2,24.72,2,36.34a1.77,1.77,0,0,0,.79,1.94c6.79,3.56,10,12.53,11.88,19.52a43.93,43.93,0,0,1-.09,24.34c-4.64,14.77-17.63,25-32.06,29.33s-32.15,5.47-46-1.42c-14.27-7.11-20.87-23.52-23.52-38.47-1-5.47-.68-10.3-.14-15.78.25-2.56-.48-4.85-.7-7.39-.27-3.09.32-8.18-3.18-9.58-2.05-.82-2.95,2.5-.91,3.31.92.36.62,6.24.73,7.36a66.1,66.1,0,0,1,0,11.1c-.51,8.75,1.79,17.48,4.8,25.61,5.42,14.62,14.13,25.84,29.74,30.09,28.07,7.63,67.53-4.6,75.14-35.57A49,49,0,0,0,687.83,94c-2.27-7.16-5.75-15.43-12.73-19.09l.79,1.94c2.29-12.28,2.54-26.32-2-38.16-3-7.82-9.88-13.74-18.13-8.68-9,5.53-11.76,17.58-13.06,27.27a81.67,81.67,0,0,0-.71,9.06c0,2.13.52,4.34-.76,6.16s-2.41,1.59-4.53,1.88l-22.43,3.08,2.17,1.66c-1.33-12.12-5.33-48.65-25.24-44-7.65,1.77-11.27,10.23-13.09,17.07-2.59,9.72-2.49,18.58-.61,28.39.41,2.17,3.72,1.25,3.31-.91Z" transform="translate(-528.5 49.5)"/><path d="M614,108.63a1.72,1.72,0,0,0,0-3.43,1.72,1.72,0,0,0,0,3.43Z" transform="translate(-528.5 49.5)"/><path d="M645.41,102.95v-.4a1.72,1.72,0,0,0-3.43,0v.4a1.72,1.72,0,0,0,3.43,0Z" transform="translate(-528.5 49.5)"/><path d="M619.7,130.4c7.85,6.13,17.56-.3,16.42-9.9l-3.37.46c1.65,3.95,4.56,7.92,9.27,8.06a7.93,7.93,0,0,0,8-7c.32-2.16-3-3.09-3.31-.91-.43,2.86-2.36,4.44-5.19,4s-4.37-2.46-5.47-5.08c-.66-1.59-3.63-1.66-3.37.46.7,5.91-4.53,12.18-10.56,7.47-1.72-1.34-4.17,1.07-2.43,2.43Z" transform="translate(-528.5 49.5)"/><path d="M629.06,131c2.19,2.91,5.64,5.7,9.53,5.21,4.32-.54,5.6-4.8,6.12-8.49.3-2.16-3-3.1-3.31-.91s-.64,5.86-3.51,6c-2.27.15-4.59-1.89-5.86-3.58s-4.3,0-3,1.73Z" transform="translate(-528.5 49.5)"/><path class="cls-4" d="M669.94,145.52c3.41,2.07,7,4.19,10.88,4.47,6.71.48,12.62-4.51,17.39-9.64,5.15-5.54,9.95-11.8,12.18-19.28,1.08-3.61,1.54-7.45,3-10.9s4.29-6.6,7.8-6.77,6.75,2.86,8.49,6.28c4.53,8.9,2.13,20.08-1.92,29.25-4.8,10.89-12,20.85-21.65,26.88s-13.57,14-23.7,9c2.21,17.21.55,29.76,1.65,47,1.65,12.9,2.3,27.73,4.42,40.9,2.61,16.22,4.14,33.93-3.36,48.25-1.91,3.65-4.75,7.22-8.58,7.86-2.07.35-7.15.63-9.17,0-3.9-1.16-4.92-3.45-7.79-6.53-4.15-4.44-5-11.22-5.83-17.48q-1.26-10-2.89-20c-.55-3.38-1.18-6.86-3-9.68s-5.11-4.81-8.16-3.85c-4.62,1.45-5.62,7.91-6,13.1a186.84,186.84,0,0,1-2.32,19.12c-1.54,8.82-4.75,18.8-12.6,21.72a16,16,0,0,1-10.42-.16c-3.74-1.21-7.39-3.53-9.22-7.27-2-4.08-1.47-9-.89-13.56q3.44-27,7.48-54l.2-1c3.36-25.14,7.65-33.93,9.65-50.62a49.73,49.73,0,0,1-38.39,2.79c-12.52-4.27-23.44-13.78-30-26.1A33.52,33.52,0,0,1,543,152a23.09,23.09,0,0,1,7.28-18.36,7.81,7.81,0,0,1,4.63-2.31c3.13-.14,5.58,2.79,7.42,5.53,6.17,9.19,11.47,19.6,20.29,25.76a17,17,0,0,0,6.82,3.05,17.75,17.75,0,0,0,6.6-.4c7.85-1.7,10.82-5.54,16.67-11.45" transform="translate(-528.5 49.5)"/><path d="M669.07,147c5.45,3.27,11,6,17.44,3.93,6.14-2,11-7,15.09-11.79s7.8-10,9.93-16c1.81-5.12,4.95-25.3,14.43-15.75,11.25,11.32.55,33-6.79,43.4-4.61,6.55-10.29,10.8-16.68,15.42-6.09,4.41-11.07,10.79-19.23,7.13-1-.46-2.76,0-2.58,1.48,1.78,14.71.77,29.44,1.49,44.2a427.39,427.39,0,0,0,4.5,43.32c2.31,15.13,4.5,31.94-2.31,46.3-1.71,3.6-4.12,7.65-8.3,8.56-2.75.6-6.71.73-9.28-.43-6.75-3-9.83-11.66-10.86-18.4-1.13-7.36-1.95-14.77-3.13-22.12-.86-5.37-1.69-11.72-6.5-15.1-3.49-2.46-7.93-2.24-10.77,1.1-3.21,3.79-3.28,9.44-3.66,14.14-.89,10.9-1.55,36.55-16.73,37.87a15.74,15.74,0,0,1-12.87-4.94c-3.2-3.75-3-8.65-2.48-13.28.9-8.48,2.18-16.94,3.34-25.39,2.24-16.27,4.21-32.69,7.48-48.79,2.25-11.07,5.32-21.93,6.72-33.17.18-1.41-1.56-2-2.58-1.48a48.58,48.58,0,0,1-49.76-4c-13-9.27-27.48-29.72-16.24-45.26a19.37,19.37,0,0,1,2.79-3.09,3,3,0,0,1,4.36-.73c3.33.75,4,2.14,5.86,4.92,2.08,3.09,4,6.3,6,9.41,3.85,5.82,8.16,11.66,14,15.64,5.47,3.73,11.41,4.15,17.63,2,6.05-2.06,10.17-6.66,14.53-11.1,1.55-1.58-.88-4-2.43-2.43-5.15,5.25-9.69,10.09-17.33,11.24-9,1.35-15.91-6.55-20.73-13.19-3.93-5.41-6.93-11.57-11.15-16.76-3.16-3.88-7.38-5.61-11.8-2.59-10.64,7.25-10.74,22-5.88,32.57a56.38,56.38,0,0,0,27,27.15c14.39,6.67,30.73,6,44.9-.87l-2.58-1.48c-1.42,11.39-4.66,22.41-6.88,33.65-3.09,15.66-5,31.59-7.2,47.4-1.12,8.18-2.26,16.37-3.25,24.57-.79,6.54-1.06,13.51,4.13,18.4,9.19,8.65,22.83,5.64,28.27-5.19,2.85-5.67,3.95-12,4.87-18.23q.81-5.47,1.31-11c.36-3.94.12-8.7,2.08-12.27,2.09-3.79,6.63-3.58,9.16,0a16.85,16.85,0,0,1,2.19,5.89c1,4.37,1.51,8.92,2.15,13.36,1.05,7.3,1.2,15.46,4,22.37,3.9,9.61,13.61,16.48,24.05,12.27,5.53-2.23,8.42-8.61,10.31-13.84a62.52,62.52,0,0,0,3.23-22c-.1-8.55-1.53-16.9-2.72-25.34-1.36-9.69-2-19.47-3-29.2-1.83-18.24-.31-36.6-2.52-54.8l-2.58,1.48c11.12,5,18.78-4.24,27.37-10.27,10-7,17-17.63,21.42-28.82,3.92-9.88,6.55-25.44-3-33.2a8.72,8.72,0,0,0-10.82-.62c-4.62,3.21-5.75,9-7,14.12-2.11,8.73-7,15.82-13.11,22.25-3,3.09-6.26,6.19-10.33,7.67-5.69,2.07-10.46-.45-15.3-3.36-1.9-1.14-3.63,1.83-1.73,3Z" transform="translate(-528.5 49.5)"/><path class="cls-5" d="M607.38,224.79c-9.41-.4-19-.46-28,2.33s-17.65,8.81-21.91,17.9a20.14,20.14,0,0,0-2,11.66c.66,4,3.17,7.68,6.72,8.89a5.11,5.11,0,0,0,3.66,0c1.8-.78,2.81-2.81,3.63-4.71,2.24-5.23,4.17-10.8,7.93-14.89s9.19-6.34,14.57-7.06,7.67,0,13,.77Z" transform="translate(-528.5 49.5)"/><path d="M607.38,223.07c-13.45-.53-27.69-.23-39.31,7.45-8.72,5.76-17,17.07-13.95,28.08,1.14,4.07,4.39,8.25,8.8,8.91s6.57-2.63,8.18-6.19c3-6.68,5.21-13.63,11.85-17.65s14.17-3.4,21.59-2.34c.84.12,2-.19,2.11-1.2L609,225.24c.35-2.16-3-3.09-3.31-.91l-2.38,14.88,2.11-1.2c-8.64-1.23-17.12-1.84-24.87,3.09a24.41,24.41,0,0,0-8.17,9c-2,3.63-4.59,15.82-10.67,13.45-7.52-2.93-4.63-14.62-1.8-19.62A31.32,31.32,0,0,1,571,232.7c10.9-6.65,24-6.69,36.35-6.2C609.59,226.59,609.58,223.16,607.38,223.07Z" transform="translate(-528.5 49.5)"/><path class="cls-6" d="M727.89,51c-3.74-1.67-4.1,3.32-6.92,6.47-6.87,7.66-10.82,18.17-11.41,28.83a58.45,58.45,0,0,0,7.08,30.63,30.4,30.4,0,0,0,7.43,9.56c9.18,7.29,23,3.92,31-4.85s11.16-21.45,12.25-33.72a48.82,48.82,0,0,0-.13-12.11,51.83,51.83,0,0,0-4.79-13.69c-1.92-4.05-4.11-8.22-7.71-10.59-3.85-2.54-5.6-2.93-10.11-2.9s-13.31-.66-16.69,2.38" transform="translate(-528.5 49.5)"/><path d="M728.35,49.3a4.4,4.4,0,0,0-5,1.27c-1,1.11-1.58,2.67-2.37,3.95-1.12,1.81-2.62,3.33-3.88,5a49.36,49.36,0,0,0-8.93,23.5A58.27,58.27,0,0,0,712,111c2.83,7.15,7,15.1,14.07,18.8,13.81,7.2,29.18-2.63,35.79-14.92,8.38-15.57,10.11-35.92,2.77-52-3.21-7.06-7.55-14.37-15.9-15.75-6.11-1-16.51-1.52-21.72,2.38-1.75,1.31,0,4.29,1.73,3,2.9-2.18,6.81-2.16,10.29-2.19,3.29,0,7.2-.43,10.38.47,8.66,2.44,13.2,14.12,15.32,21.94,2.5,9.24.93,20-1.48,29.09-2.26,8.57-6.39,17.37-13.89,22.54-6.73,4.63-16.22,6.37-23.32,1.5-7.69-5.27-11.66-16.3-13.58-25A51.27,51.27,0,0,1,714,72.66a44.48,44.48,0,0,1,7.17-12.85c1.11-1.4,4.37-7.76,6.26-7.2,2.12.64,3-2.68.91-3.31Z" transform="translate(-528.5 49.5)"/><path class="cls-7" d="M725.51,52.94c3.57,5.38,7,12.4,7.09,19l14.85.07a2.56,2.56,0,0,0,1.76-.44,3,3,0,0,0,.73-1.44c2-6.65,3.66-11.56,5.65-18.21l-16.14-4.17Z" transform="translate(-528.5 49.5)"/><path d="M724,53.81c3.57,5.53,6.48,11.48,6.85,18.15a1.75,1.75,0,0,0,1.72,1.72c4.33,0,8.66.09,13,.06,1.9,0,3.74.25,5.1-1.28,1.84-2.07,2.18-6,3-8.58,1.2-3.82,2.42-7.64,3.57-11.48A1.74,1.74,0,0,0,756,50.3L748,48.21c-2.47-.64-5.48-2-8-2.07-2.18-.06-4.54,1.32-6.56,2.07L725,51.29c-2.05.76-1.17,4.08.91,3.31l7.42-2.75c1.6-.59,3.25-1.12,4.83-1.79a8.64,8.64,0,0,1,1.39-.52c.89-.18-1.16-.07-.34,0,2.78.09,6,1.56,8.73,2.25l7.14,1.84-1.2-2.11c-1.64,5.44-3.06,11.14-5.11,16.43-1.2,3.1-2.85,2.38-6,2.37l-10.21,0L734.31,72c-.41-7.31-3.4-13.8-7.32-19.89C725.8,50.22,722.82,51.94,724,53.81Z" transform="translate(-528.5 49.5)"/><path class="cls-8" d="M711.56,90.27l7.21,3a11.28,11.28,0,0,0,3.64,1.06,3.9,3.9,0,0,0,3.4-1.43,4.6,4.6,0,0,0,0-4.77,9.79,9.79,0,0,0-3.49-3.32,32.31,32.31,0,0,0-12.22-4.68L709.78,90Z" transform="translate(-528.5 49.5)"/><path d="M711.11,91.92c4.25,1.77,16.52,8.42,17.07-.95.46-7.85-11.7-11.44-17.59-12.5a1.75,1.75,0,0,0-2.17,1.66L708.06,90a1.73,1.73,0,0,0,1.26,1.66l1.79.32c2.16.38,3.09-2.93.91-3.31l-1.79-.32L711.49,90l.35-9.82-2.17,1.66c4.49.8,11.47,2.59,14.22,6.61,1.14,1.67,1.15,4.18-1.47,4.22a9.26,9.26,0,0,1-3.19-1c-2.42-1-4.81-2-7.21-3C710,87.76,709.09,91.08,711.11,91.92Z" transform="translate(-528.5 49.5)"/><path class="cls-8" d="M767,88.33l-11.36,4.23c-1.72.64-3.72,1.25-5.25.18s-1.85-3.8-.94-5.66a10.42,10.42,0,0,1,4.33-4.1c3.71-2.21,8.3-3.85,12.11-1.84l1.6,3.09Z" transform="translate(-528.5 49.5)"/><path d="M766.53,86.68c-4.09,1.52-8.21,3.45-12.42,4.6-3.71,1-4-2.69-2-5A15.61,15.61,0,0,1,757.63,83c1.52-.61,5.27-1.93,6.83-.82a7.91,7.91,0,0,1,1.28,2.48c.36.95,0-.7,0-.06,0,.45-.11.94-.16,1.38l-.28,2.38c-.26,2.19,3.18,2.17,3.43,0,.35-3,.8-5.47-1.32-8-3.6-4.27-11.72-.71-15.34,1.68-3.47,2.29-7,7.44-3.5,11.35,1.85,2.06,4.61,1.79,7,1,4-1.29,7.94-2.94,11.89-4.41C769.49,89.23,768.61,85.91,766.53,86.68Z" transform="translate(-528.5 49.5)"/><path class="cls-7" d="M754.29,120.56l-3.16-4.67a3.82,3.82,0,0,0-1.09-1.2,3.42,3.42,0,0,0-1.89-.31l-20.7.56a4.4,4.4,0,0,0-1.57.23,4.85,4.85,0,0,0-1.78,1.59l-4.48,5.6s4.78,5,6.16,5.48,10.41,3.13,11.88,2.68,11.92-3.72,13.48-5.56A42.71,42.71,0,0,0,754.29,120.56Z" transform="translate(-528.5 49.5)"/><path d="M755.77,119.69c-1.67-2.47-3.15-6-6.19-6.95-3.29-1-8.35.1-11.78.19-3.7.1-8.86-.74-12.38.57-3,1.12-5.12,5.27-7,7.64a1.76,1.76,0,0,0,0,2.43c4.88,5.05,11.13,9,18.58,8.7,3.45-.12,7.28-2.06,10.42-3.36,4.07-1.69,6-3.74,8.36-7.5,1.18-1.88-1.79-3.6-3-1.73-2.35,3.74-4.32,5.19-8.37,6.73-2.56,1-5.53,2.43-8.28,2.34-6.35-.22-11.11-3.24-15.32-7.6v2.43c2-2.46,3.47-5.26,6.49-6.29s6.32-.8,9.53-.89l7.53-.2c2.16-.06,3.24-.3,5,1,1.5,1.1,2.36,2.71,3.38,4.22C754,123.25,757,121.53,755.77,119.69Z" transform="translate(-528.5 49.5)"/><path d="M609.86,102.84a14.82,14.82,0,0,1,7.16-.23c2.16.46,3.08-2.85.91-3.31a18.66,18.66,0,0,0-9,.23,1.72,1.72,0,0,0,.91,3.31Z" transform="translate(-528.5 49.5)"/><path d="M642.32,100.57a16,16,0,0,1,6.33-1.86c2.19-.17,2.21-3.6,0-3.43a20.23,20.23,0,0,0-8.06,2.33c-2,1-.22,4,1.73,3Z" transform="translate(-528.5 49.5)"/><path d="M681-20.22c2-6.73,15.76-7.28,15.92,1,.08,4-3.85,7.12-5.94,10.07-2.67,3.77-4.1,8.56-1.15,12.6,1.29,1.77,4.27.06,3-1.73-4.25-5.83,3.76-11.07,6.17-15.9,1.8-3.6,1.94-7.69-.76-10.87-5.51-6.5-18.12-4.34-20.52,3.91-.62,2.13,2.7,3,3.31.91Z" transform="translate(-528.5 49.5)"/><path d="M694,10.61a1.72,1.72,0,0,0,0-3.43,1.72,1.72,0,0,0,0,3.43Z" transform="translate(-528.5 49.5)"/><path d="M860.12,236.65a2.25,2.25,0,0,0,.7,3,2.16,2.16,0,0,0,3-.7,2,2,0,0,0-.66-2.9,2.36,2.36,0,0,0-2.89.42c-.67.79.47,1.94,1.15,1.15.36-.43,1.42-.26,1.06.42a.56.56,0,1,1-1-.53c.55-.89-.85-1.71-1.4-.82Z" transform="translate(-528.5 49.5)"/><path d="M854.73,221.41H855a.81.81,0,0,0,0-1.62h-.28a.81.81,0,0,0,0,1.62Z" transform="translate(-528.5 49.5)"/><path d="M867.21,222.2h.28a.81.81,0,0,0,0-1.62h-.28a.81.81,0,0,0,0,1.62Z" transform="translate(-528.5 49.5)"/><path class="cls-9" d="M874.36,247.13c-2.26,4.92-7.56,8-12.6,7.28s-9.45-5.11-10.49-10.48l1.63-2.61a7.86,7.86,0,0,0,5.15,1c1.85-.25,3.41-1.15,3.9-2.23,1.37,2.4,7,3.52,10.48,2.09Z" transform="translate(-528.5 49.5)"/><path d="M873.66,246.72c-2.45,4.65-7.5,8.06-12.93,6.66-3.6-.93-9.69-6-8.14-10a4,4,0,0,1,.74-1.18c.74-.32-.28.46.33.45,1.19,0,2.4.61,3.69.55a6.57,6.57,0,0,0,5.31-2.67l-1.27.16a9.42,9.42,0,0,0,8.74,2.89c2.06-.5,1.14-1.21,2,.13a19.74,19.74,0,0,1,1.42,3.67c.37,1,1.94.54,1.56-.43l-1.92-5a.83.83,0,0,0-1-.57c-3.12,1-7.49.95-9.69-1.88-.35-.45-1-.21-1.27.16-1.7,2.36-5.67,2.12-7.94.95a.83.83,0,0,0-1.11.29c-1.37,2.19-2.07,2.62-1.15,5.19a14.33,14.33,0,0,0,6.69,7.83c6.64,3.49,14-.17,17.32-6.39C875.54,246.62,874.14,245.8,873.66,246.72Z" transform="translate(-528.5 49.5)"/><path class="cls-10" d="M865.42,242.26l.24,3.51c.09,1.31.11,2.81-.89,3.71s-2.63.77-4,.55a3.5,3.5,0,0,1-1.76-.61,3,3,0,0,1-.84-1.88,23,23,0,0,1-.34-4.4c0-.35.32-.84.59-.6l2.84-1.41Z" transform="translate(-528.5 49.5)"/><path d="M864.61,242.26a38.05,38.05,0,0,1,.27,4.78,2.17,2.17,0,0,1-2,2.34,5.51,5.51,0,0,1-2.4-.2c-2-.82-1.6-3-1.87-4.76-.15-1-.34-1,.51-1.33a13.34,13.34,0,0,0,1.94-1c.56-.37.66,0,0-.19a2.7,2.7,0,0,1,.44.12,25.78,25.78,0,0,0,3.7,1,.81.81,0,0,0,.43-1.56c-1.36-.36-3.47-1.43-4.84-1-.94.29-1.78,1-2.7,1.34a1.09,1.09,0,0,0-.75.41,3.4,3.4,0,0,0-.32,2.2c.05,1.57.06,3.88,1.07,5.19s3.29,1.49,4.82,1.39c4.62-.32,3.55-5.56,3.33-8.74C866.16,241.23,864.54,241.22,864.61,242.26Z" transform="translate(-528.5 49.5)"/><path d="M861.17,245.44v4a.81.81,0,0,0,1.62,0v-4a.81.81,0,0,0-1.62,0Z" transform="translate(-528.5 49.5)"/><path d="M850.51,238.61a2.43,2.43,0,0,1,.75,3.56c-.88,1.32-2.67,1.82-4.15,2-1,.12-1,1.74,0,1.62,2.28-.27,4.88-1.13,5.87-3.41a4,4,0,0,0-1.65-5.17c-.93-.47-1.75.92-.82,1.4Z" transform="translate(-528.5 49.5)"/><path d="M875,236c-4.75,3.35-3.45,12.75,3.16,12.5,1,0,1-1.66,0-1.62-4.92.19-5.83-7-2.34-9.48.85-.6,0-2-.82-1.4Z" transform="translate(-528.5 49.5)"/><path class="cls-1" d="M894.63,209c2-1.46,4.56-3,6.86-2,1.59.68,2.43,2.34,3.14,3.87s1.49,3.3,1.19,5-5,4.11-6.7,3.49" transform="translate(-528.5 49.5)"/><path d="M895,209.72c1.42-1,3.22-2.35,5.05-2.21,2.55.19,4,3.55,4.61,5.62.68,2.24.23,3.3-1.62,4.4-1,.59-2.53,1.35-3.73,1.06-1-.25-1.45,1.31-.43,1.56,1.92.47,4.13-.58,5.68-1.66a4.16,4.16,0,0,0,1.91-5c-.56-2.52-2.09-6.09-4.59-7.23-2.7-1.23-5.53.49-7.68,2-.84.6,0,2,.82,1.4Z" transform="translate(-528.5 49.5)"/><path class="cls-1" d="M845.14,212.9a4.27,4.27,0,0,0-4.85-.53,5.9,5.9,0,0,0-2.38,3.07,7.73,7.73,0,0,0-.53,4.2c.26,1.4,1.95,3.08,3.23,3.79" transform="translate(-528.5 49.5)"/><path d="M845.71,212.32c-3.1-2.43-6.83-1-8.37,2.41-1.71,3.81-.68,7.23,2.86,9.4.89.55,1.71-.85.82-1.4-2.25-1.38-3.4-3.38-2.66-6s3.36-5.44,6.21-3.21c.81.64,2-.5,1.15-1.15Z" transform="translate(-528.5 49.5)"/><path class="cls-1" d="M902.39,296.77a23.67,23.67,0,0,0,12,2.26,1.34,1.34,0,0,1,.92.15,1,1,0,0,1,.32.62c.33,1.66-1,3.32-2.59,4a10,10,0,0,1-5.2.3,46,46,0,0,1-8.17-2" transform="translate(-528.5 49.5)"/><path d="M902,297.47a26.82,26.82,0,0,0,5.47,1.88c1.91.41,3.92.17,5.78.54l1.12-.06q.41,3-2.56,3.46a12.64,12.64,0,0,1-5-.2,49.57,49.57,0,0,1-7-1.8c-1-.32-1.42,1.24-.43,1.56,4.08,1.32,14.48,5,16.75-1.14.51-1.4.37-2.93-1.12-3.49-1.1-.41-2.88.07-4.06,0a23.81,23.81,0,0,1-8.19-2.15c-.94-.43-1.77,1-.82,1.4Z" transform="translate(-528.5 49.5)"/><path class="cls-1" d="M841.58,306.14a29.59,29.59,0,0,0-5.24,5.13c-.4.5-.8,1.16-.52,1.74.39.81,1.63.62,2.48.25a20.24,20.24,0,0,0,3-1.64,19.35,19.35,0,0,0-1.32,3.54,5.07,5.07,0,0,0,2.86-1c.4.68-.3,1.84.43,2.19a1,1,0,0,0,.75,0c1.63-.53,2.62-2.11,3.25-3.65s.49-2.27,1.61-3.53" transform="translate(-528.5 49.5)"/><path d="M841,305.57c-1.59,1.25-7.15,5.12-5.93,7.75s5.28-.14,6.65-1l-1.11-1.11a27,27,0,0,0-1.4,3.74.82.82,0,0,0,.78,1,7,7,0,0,0,3.27-1.13l-1.19-.48c.21.92-.23,2,.72,2.61a2.4,2.4,0,0,0,2.31-.24c2.81-1.5,2.63-4.79,4.37-7,.63-.81-.5-2-1.15-1.15a14.21,14.21,0,0,0-1.79,3.77c-.34.84-1.19,2.92-2.24,3-.81.06-.49-.7-.65-1.4a.82.82,0,0,0-1.19-.48,4.37,4.37,0,0,1-2.45.91l.78,1A23.6,23.6,0,0,1,842,312c.31-.68-.36-1.58-1.11-1.11a21.6,21.6,0,0,1-2.24,1.28c-2,1-1.19-.79-.57-1.75a18,18,0,0,1,4.06-3.73c.82-.64-.33-1.78-1.15-1.15Z" transform="translate(-528.5 49.5)"/><path class="cls-1" d="M881.74,313.91a12.5,12.5,0,0,0-3.41,6,1.1,1.1,0,0,0,0,.79c.3.61,1.25.3,1.83-.08l4.57-3.08a2,2,0,0,0,1.35,2.55,2.14,2.14,0,0,0,2.57-1.44,1.25,1.25,0,0,0,1.75.31,3.42,3.42,0,0,0,1.13-1.59c.08.64,1.09.78,1.58.34a2.54,2.54,0,0,0,.63-1.78,51.75,51.75,0,0,0,.4-6.49" transform="translate(-528.5 49.5)"/><path d="M881.17,313.33c-1.29,1.4-4.79,5.55-3.55,7.73,1.46,2.58,6.41-2.13,7.51-2.87l-1.22-.7c-.42,3.5,3.88,4.56,5.43,1.52l-1.27.16c1.68,1.57,3.32.3,4.16-1.44h-1.4a1.83,1.83,0,0,0,3,.34,3.62,3.62,0,0,0,.74-2.19,41.25,41.25,0,0,0,.4-6.49.81.81,0,0,0-1.62,0,35.81,35.81,0,0,1-.15,3.77c0,.29-.7,4.09-.95,3.75a.82.82,0,0,0-1.4,0,1.46,1.46,0,0,1-1.61,1.11.82.82,0,0,0-1.27.16l-2.41-.7a.81.81,0,0,0-1.22-.7c-.9.61-4.2,3.27-4.74,2.73-.95-.94,2.28-4.53,2.75-5,.71-.77-.44-1.92-1.15-1.15Z" transform="translate(-528.5 49.5)"/><path class="cls-11" d="M854.73,309.6c.23-6.51.89-12.72,4.38-18.29a11.37,11.37,0,0,1,4-4,6.17,6.17,0,0,1,5.58-.36c2.29,1.13,3.22,3.79,3.75,6.22a52.47,52.47,0,0,1,1.22,11.49c0,2.66-.26,5.42-1.65,7.72" transform="translate(-528.5 49.5)"/><path d="M855.54,309.6c.26-6.32.83-16.93,6.9-20.82,11.37-7.29,11.36,18,8.83,23.14-.46.93.94,1.75,1.4.82,2.7-5.48,2-12.1.89-17.94-.67-3.68-1.82-8.38-6.17-9.13-11.19-1.92-13.18,16.83-13.47,23.93,0,1,1.58,1,1.62,0Z" transform="translate(-528.5 49.5)"/><path class="cls-1" d="M845.38,257.2a20.32,20.32,0,0,1,6.35,4.35,1.4,1.4,0,0,0,.56.41,1.63,1.63,0,0,0,.63,0,4.89,4.89,0,0,1,1.57.1,1.33,1.33,0,0,1,.6.27,1,1,0,0,1,0,1.29,3,3,0,0,1-1.2.79,2.41,2.41,0,0,1,.93.5.77.77,0,0,1,.16.95,3.86,3.86,0,0,1-.47.41c-.43.44-.25,1.15,0,1.72a1.63,1.63,0,0,1-1.71-.17,4.42,4.42,0,0,0-1.6-.8,3.49,3.49,0,0,0-1.23.15,13.56,13.56,0,0,1-7.5-.41" transform="translate(-528.5 49.5)"/><path d="M845,257.9a21.87,21.87,0,0,1,5.57,3.63,6.67,6.67,0,0,0,1.33,1.13c.06,0,2.62.55,1.62,1-.69.35-.39,1.25.19,1.48.14.06-.14,2.49,0,3l.57-1c-1.11.36-2.62-1.06-3.93-.95-2.81.23-4.89.61-7.68-.27-1-.31-1.42,1.25-.43,1.56a17.24,17.24,0,0,0,7,.59,7.81,7.81,0,0,1,3.71.65,2.42,2.42,0,0,0,1.77,0,.82.82,0,0,0,.57-1c-.27-.92.84-1.75.56-2.72s-1-1.14-1.71-1.42l.19,1.48c1.57-.79,2.82-2.86.59-3.74a7.87,7.87,0,0,0-1.19-.22,7.62,7.62,0,0,1-3.32-1.87,22.52,22.52,0,0,0-4.59-2.77c-.94-.43-1.76,1-.82,1.4Z" transform="translate(-528.5 49.5)"/><path class="cls-1" d="M886.66,258.67a15.91,15.91,0,0,0-5.43,2c-1.85,1.11-3.75,2.67-5.89,2.31a6.22,6.22,0,0,0-2-.29c-.66.11-1.23.92-.77,1.39.25.26.72.3.88.62s-.2.79-.53,1.09-.63.82-.29,1.11.8.1,1,.41-.28.61-.38,1c-.16.53.58.95,1.15.82a12,12,0,0,0,1.54-.74,4.4,4.4,0,0,1,1.85-.14l9.23.63" transform="translate(-528.5 49.5)"/><path d="M886.44,257.89a20.64,20.64,0,0,0-6.82,2.85,7.58,7.58,0,0,1-5.16,1.24c-.82,0-1.4-.2-2.1.33-.9.7-.63,1.28-.46,2.2,0,.12.28.2.29.29.15,1.14-.08,0-.13.87,0,.68-.34.59-.17,1.45a.81.81,0,0,0,.57.57l.77.33-.37-.92c-.27,1.38-.57,3,1.65,2.79.71-.08,1.45-.51,2.18-.65a14,14,0,0,1,3.66,0l6.67.46c1,.07,1-1.55,0-1.62-2.91-.2-5.81-.43-8.72-.6a7.13,7.13,0,0,0-2.67.17c-.84.27-1.45,1.12-1.21-.09a.84.84,0,0,0-.37-.92c-1.13-.62.49-.71.26-1.9-.26-1.38-2-.93,1-.91a8.48,8.48,0,0,0,4.7-1.42,22.14,22.14,0,0,1,6.84-2.94c1-.21.59-1.77-.43-1.56Z" transform="translate(-528.5 49.5)"/><path d="M664.51,309.92l.24,5.35c.1,2.2,3.53,2.21,3.43,0l-.24-5.35c-.1-2.2-3.53-2.21-3.43,0Z" transform="translate(-528.5 49.5)"/><path d="M675.32,309.36a41.32,41.32,0,0,1,.94,6.91c.11,2.2,3.55,2.21,3.43,0a46.94,46.94,0,0,0-1.06-7.82c-.48-2.16-3.79-1.24-3.31.91Z" transform="translate(-528.5 49.5)"/><path d="M602.83,303.51q-.5,2.69-1.17,5.34c-.54,2.14,2.77,3.06,3.31.91q.67-2.65,1.17-5.34c.4-2.16-2.91-3.09-3.31-.91Z" transform="translate(-528.5 49.5)"/><path d="M613.8,306.15a59.58,59.58,0,0,1-1,7.66c-.43,2.16,2.88,3.08,3.31.91a66.8,66.8,0,0,0,1.13-8.57c.15-2.21-3.29-2.2-3.43,0Z" transform="translate(-528.5 49.5)"/><path d="M546.21,143.75l1.64,2.85a1.5,1.5,0,0,0,2.59-1.51l-1.64-2.85a1.5,1.5,0,0,0-2.59,1.51Z" transform="translate(-528.5 49.5)"/><path d="M551.25,138.23l2,3a1.53,1.53,0,0,0,2.05.54,1.52,1.52,0,0,0,.54-2.05l-2-3a1.53,1.53,0,0,0-2.05-.54,1.52,1.52,0,0,0-.54,2.05Z" transform="translate(-528.5 49.5)"/><rect class="cls-12" x="0.5" y="0.5" width="400" height="400"/></svg>