<svg id="Layer_3" data-name="Layer 3" xmlns="http://www.w3.org/2000/svg" viewBox="0 0 401 566.79"><defs><style>.cls-1{fill:#29ad25;}.cls-2{fill:#04ff00;}.cls-3{fill:#54efbf;}.cls-4{fill:#d88445;}.cls-5{fill:#ba7332;}.cls-6{fill:#ff5e4d;}.cls-7{fill:#ddc183;}.cls-8{fill:#b8f4c7;}.cls-9{fill:#ff43c5;}.cls-10{fill:none;stroke:#000;stroke-miterlimit:10;}</style></defs><title>Q3</title><path class="cls-1" d="M426.11-234.5a54.57,54.57,0,0,0,6.08-4.5,9.1,9.1,0,0,0,1.77-1.85,23.15,23.15,0,0,0,1.17-2.4,8.7,8.7,0,0,1,2.21-2.78c1.33-1.11,3-1.8,4.24-3s2.07-2.86,3.17-4.25c2-2.48,4.87-4.07,6.86-6.53,1-1.23,1.74-2.65,2.7-3.91a6.87,6.87,0,0,1,3.76-2.76l.32,9.15a25.25,25.25,0,0,1-.53,7.76,24.39,24.39,0,0,1-1.79,4.24q-1.34,2.67-2.72,5.31a22.24,22.24,0,0,1-2.57,4.13,35.62,35.62,0,0,1-3.57,3.35c-1.18,1.07-2.29,2.22-3.39,3.37l-16.1,16.83a108.29,108.29,0,0,0-2.22-21.47Z" transform="translate(-88.5 351.5)"/><path d="M426.91-233.14c2.78-1.83,6.16-3.88,8.16-6.6,1-1.38,1.35-3.06,2.52-4.36s2.77-1.93,4.1-3c2.95-2.37,4.73-5.81,7.6-8.34s5.66-8.08,9.2-9.52l-2-1.52c.17,4.92,1,10.29.07,15.17-.82,4.54-4.11,10.86-7.1,14.4-3.23,3.83-7.31,7.19-10.78,10.83l-12.08,12.62,2.7,1.12a116.69,116.69,0,0,0-.78-12.58c-.22-1.84-2-7.72-1.28-8.46,1.36-1.5-.87-3.75-2.23-2.23-1.84,2-.64,4-.22,6.66a113.4,113.4,0,0,1,1.35,16.62,1.6,1.6,0,0,0,2.7,1.12l13.42-14c3.67-3.83,8.47-7.33,11.27-11.84,2.36-3.79,5-8.43,6-12.82,1.22-5.27.29-11.22.11-16.57,0-.92-1-1.93-2-1.52-3.16,1.29-4.5,3.44-6.47,6.12-2.61,3.53-6.33,5.89-8.94,9.44-2.17,3-5.67,4.23-7.75,7.2-1.08,1.54-1.62,3.3-2.94,4.68a35.46,35.46,0,0,1-6.23,4.69C423.63-234.75,425.21-232,426.91-233.14Z" transform="translate(-88.5 351.5)"/><path class="cls-2" d="M410.53-254a33,33,0,0,0,.2,6.21,9,9,0,0,0,.59,2.84c1.36,3,5.51,3.73,7.44,6.43.48.67.79,1.43,1.26,2.11A5.94,5.94,0,0,0,424-234a1,1,0,0,1,.46.14.91.91,0,0,1,.29.56c.5,2.21.36,4.53.79,6.76.33,1.73,1,3.39,1.19,5.14a19,19,0,0,1-.16,4.13l-.49,4.37-.66.15c-.34-3.23-3.27-5.45-5.85-7.41a27.08,27.08,0,0,1-7.35-7.56c-2.75-4.71-2.86-10.47-2.58-15.91q.3-5.77,1.07-11.51" transform="translate(-88.5 351.5)"/><path d="M408.95-254c-.17,3.32-.42,8,1.63,10.89a12.74,12.74,0,0,0,3.44,2.87,20.89,20.89,0,0,1,4.75,4.8A15.24,15.24,0,0,0,422-232.9c.35.27,1.33.15,1.53.46.4.6.08,3.76.16,4.46.31,2.69,1.41,5.27,1.45,8a57.48,57.48,0,0,1-.7,7.13l1.16-1.52-.66.15,1.94,1.1c-1.49-6.66-9-9-12.61-14.28-5.26-7.62-3.14-19.1-2-27.69.26-2-2.9-2-3.16,0-1,8.17-2.62,17.74.51,25.65a21,21,0,0,0,5.29,7.54c3.15,3,7.94,5.06,9,9.62a1.61,1.61,0,0,0,1.94,1.1l.66-.15a1.62,1.62,0,0,0,1.16-1.52c.45-4,1-7.56,0-11.5-.61-2.66-.11-8.55-2.28-10.71-1.1-1.09-2.91-1.15-4-2.41s-1.8-2.76-3.24-3.91c-1.08-.86-2.53-1.37-3.53-2.31-2.79-2.61-2.62-6.9-2.44-10.35.1-2-3.05-2-3.16,0Z" transform="translate(-88.5 351.5)"/><path class="cls-3" d="M152.91-246.87a18.37,18.37,0,0,0-2.42,3.7,4.63,4.63,0,0,1-3.45,2.5c-2.47.08-3.94-2.89-6.29-3.66a6,6,0,0,0-4.61.76,42.87,42.87,0,0,1-4.18,2.34,16.11,16.11,0,0,1-4.49.87,40.77,40.77,0,0,0-7.61,1.14,12,12,0,0,0-6.38,4.08,3,3,0,0,1-1.14,1.13,2.51,2.51,0,0,1-1.16.09,11.36,11.36,0,0,1-4-.89,8.45,8.45,0,0,1-4.16-5.3,19.81,19.81,0,0,1-.51-6.89c.17-2.78.59-5.7,2.33-7.88a3.59,3.59,0,0,0,.87-1.41,2.15,2.15,0,0,0-.87-2c-.58-.49-1.28-.79-1.9-1.22a7,7,0,0,1-2.73-4.71,12.59,12.59,0,0,1,.56-5.52,21.24,21.24,0,0,1,5.57-9.09l.43,1c-2.42-1.11-3.25-4.39-2.33-6.89s3.11-4.32,5.42-5.65c5.57-3.23,12.69-4.8,16-10.35-1.71,1-1.49,3.73-.11,5.14s3.44,1.88,5.34,2.41a48.31,48.31,0,0,1,10.34,4.19,16.31,16.31,0,0,1,6.31,5.34c1.47,2.37,1.77,5.64.09,7.86,5.72,1.49,8.68,9.25,5.41,14.18a7.25,7.25,0,0,0-1.48,2.73,6,6,0,0,0,.73,3.07,13.3,13.3,0,0,1,.56,9.39c-1.09,3-3.93,5.5-7.14,5.55" transform="translate(-88.5 351.5)"/><path d="M151.79-248c-.84,1-1.72,3.28-2.66,4-3.59,2.84-4.25,0-6.47-1.19-2.44-1.36-4.87-1-7.31.22-2.75,1.37-4.7,2.62-7.88,3-1.67.2-3.36.27-5,.55a18.78,18.78,0,0,0-9.08,4c-1.84,1.46-1.46,2.59-4.52,1.55-4.26-1.45-4.86-5.61-4.88-9.41a16.33,16.33,0,0,1,1.43-7.67c.43-.81,1.64-1.89,1.79-2.93.35-2.28-1.1-3.06-2.53-4.38-3.67-3.4-3.51-7.11-1.46-11.53a21.59,21.59,0,0,1,4.21-5.9l-2.48-.32.43,1,2.16-2.16c-4.87-3.11.22-8.07,3.09-9.82a75.74,75.74,0,0,1,7-3.38c3.86-1.83,7.16-3.94,9.57-7.53,1-1.52-1.22-3.13-2.48-1.91-3.46,3.35-.91,7.58,2.87,9.23,5.4,2.36,24.5,6.14,18.87,16a1.6,1.6,0,0,0,.94,2.32,8.29,8.29,0,0,1,5.47,6.39c.64,3.36-1.48,5-2.35,7.86-.62,2,.06,3.41.71,5.38,1.52,4.67.94,11.41-5.32,12.18-2,.25-2,3.41,0,3.16a10,10,0,0,0,8.5-6.34c2.17-5.37-1.39-10.36.48-15.7,2.29-6.54.55-13.52-6.64-16l.94,2.32c2.66-4.66.81-9.57-3.13-12.83a33.24,33.24,0,0,0-8.16-4.62c-1.18-.51-13.91-4.29-10.95-7.17l-2.48-1.91c-4.59,6.86-14,7-19.38,12.91-3.36,3.7-3.54,9.3.91,12.14,1.48.95,2.72-.85,2.16-2.16l-.43-1a1.59,1.59,0,0,0-2.48-.32c-3.2,3.31-5.78,7.4-6.48,12a11,11,0,0,0,.72,6.51c.88,1.84,2.75,2.4,3.65,3.86,1.23,2-.71,3.31-1.34,5.28a24.07,24.07,0,0,0-.92,7c0,4.06.86,8.56,4.36,11.09,2.38,1.73,6.47,2.74,8.92.8,2.69-2.13,4-3.87,7.69-4.69,3-.68,6.18-.42,9.15-1.19,2.24-.58,3.9-2.25,6-2.95,4.94-1.63,4.78,1.63,8.33,2.79,4.74,1.56,6.4-3.44,8.75-6.34,1.27-1.56-1-3.81-2.23-2.23Z" transform="translate(-88.5 351.5)"/><path class="cls-4" d="M352-46.58c14.54-10.15,24.86-25.52,31.4-42,5.62-14.17,8.67-29.7,6.2-44.73-3.42-20.84-17.25-38.92-34.33-51.35-27.07-19.71-63.34-26.52-95.48-17.12s-59.26,35.07-69.59,66.93c-3.36,10.38-5,21.58-2.67,32.23,3.44,15.62,15,28.23,27.61,38,11.59,9,15.15,12.16,28.81,17.54l14.34,4.87c7.37,1.18,34.87,4.74,42.24,3.95C300.57-38.23,337.47-36.43,352-46.58Z" transform="translate(-88.5 351.5)"/><path d="M352.81-45.22c18.8-13.44,31.13-34.7,36.64-56.91,5.68-22.88,1.32-45.53-13-64.27-27.68-36.13-80.11-50.31-122.64-35.09a108.16,108.16,0,0,0-49.13,36c-13,17-23.12,40.6-18.79,62.37C190.06-82,208-67.26,224.62-55.4A81.82,81.82,0,0,0,245.3-44.94c5,1.73,10,3.91,15.22,4.68a344.33,344.33,0,0,0,43,3.7c15.71.31,35.7.38,49.25-8.65,1.68-1.12.1-3.86-1.59-2.73-12,8-29.15,8.18-43,8.25A265.09,265.09,0,0,1,277-41.32c-6-.68-12.41-1-18.29-2.41a137.36,137.36,0,0,1-14-4.74A81.51,81.51,0,0,1,223.7-60c-8.31-6.22-16.59-12.69-23.21-20.75-30.3-36.88,1.25-88.09,35.87-109,37.95-22.92,88.67-18.09,122.72,10,19.42,16,32,39,29.47,64.6S372.29-63,351.21-47.94C349.58-46.77,351.15-44,352.81-45.22Z" transform="translate(-88.5 351.5)"/><path d="M271.62-142.76c-.48,1-1,2.61-.1,3.5a2.35,2.35,0,0,0,3.16-.1c1.44-1.33,1.15-4.62-.94-5.18a2.59,2.59,0,0,0-2.56.86,3.47,3.47,0,0,0-.45,3.33,1.78,1.78,0,0,0,1.69,1.37,2,2,0,0,0,1.55-.64,2,2,0,0,0-1-3.28,1.61,1.61,0,0,0-1.94,1.1,1.6,1.6,0,0,0,1.1,1.94l-.77-1,.22-.8,1.18-.47,1.1,1.1a4,4,0,0,1-.18-.71q0,.18,0-.12a.25.25,0,0,1-.06.17q-.18.2-.06.08t-.08.06a.83.83,0,0,1-1-.21c-.19-.2-.16-.31-.1,0-.05-.27,0,.14,0,.2s0,.21,0,0a.56.56,0,0,1,.14-.21.79.79,0,0,1,.89-.06l.78,1.36a2.92,2.92,0,0,1,0-.33q0-.29,0-.07a3,3,0,0,1,.09-.32q-.09.18,0-.07a1.61,1.61,0,0,0-.57-2.16,1.6,1.6,0,0,0-2.16.57Z" transform="translate(-88.5 351.5)"/><path d="M290.45-141.57a3.17,3.17,0,0,0-1.77,2.12,2.45,2.45,0,0,0,1.22,2.66,2.38,2.38,0,0,0,3-.9,3.51,3.51,0,0,0,.18-3,1.6,1.6,0,0,0-1.52-1.16,2.59,2.59,0,0,0-2.27,2,3.05,3.05,0,0,0,.28,3,2.23,2.23,0,0,0,2.91.65,2.12,2.12,0,0,0,.75-2.94,1.62,1.62,0,0,0-2.16-.57,1.59,1.59,0,0,0-.57,2.16c-.74-1,1.1-2,1.59-1.18,0,0,.11.28.07.27a4.63,4.63,0,0,1,.17-.53l0-.07-.15.18-.8.22h.14l-1.52-1.16c0,.09.16.6.17.6s.06-.14.08-.15a.8.8,0,0,1,1-.12.83.83,0,0,1,.41.68c0,.07-.08.17-.08.24s.06,0,.06,0l.28-.14a1.6,1.6,0,0,0,.57-2.16,1.61,1.61,0,0,0-2.16-.57Z" transform="translate(-88.5 351.5)"/><path d="M254.08-108a9.54,9.54,0,0,0,8.64,8.72c5.48.59,9.92-3.14,12.92-7.3l-2.89-.38c1.94,6.13,6.68,11.34,13.26,12.34a14.42,14.42,0,0,0,15.2-8.39c.82-1.84-1.91-3.45-2.73-1.59-5.09,11.5-19.42,7.11-22.68-3.19a1.6,1.6,0,0,0-2.89-.38c-1.86,2.58-4.34,5-7.6,5.57-3.62.62-7.67-1.21-8.08-5.39-.2-2-3.36-2-3.16,0Z" transform="translate(-88.5 351.5)"/><path class="cls-4" d="M363.59-179.42c.81-2.36-1.15-5.51.57-7.31a26.73,26.73,0,0,1,8.4-5.56c3.89-1.78,8.37-3.13,12.39-1.67,3.23,1.17,5.63,4,7,7.16a38.59,38.59,0,0,1,2.45,10c.41,2.71.8,5.61-.34,8.1-1.61,3.52-5.74,5.09-9.57,5.67-3.56.54-7.1-3.28-10.65-3.87" transform="translate(-88.5 351.5)"/><path d="M365.12-179c.29-1.76-.46-3.94-.11-5.56.62-2.84,5.23-4.91,7.58-6,7.56-3.53,15.3-3,18.49,5.78,1.88,5.17,4.29,14.9-1.19,18.32a9.84,9.84,0,0,1-9.91.54,30,30,0,0,0-5.7-2.52,1.58,1.58,0,0,0-.84,3c3.83,1,6.93,4.16,11.07,3.93a15.41,15.41,0,0,0,8.34-3.23c6.13-5.05,3.35-16.55.56-22.71-3.26-7.21-10-10.13-17.49-7.87a32.36,32.36,0,0,0-11,5.73c-4,3.31-2.08,5.05-2.85,9.7-.33,2,2.72,2.84,3,.84Z" transform="translate(-88.5 351.5)"/><path class="cls-5" d="M371.47-175.9a12,12,0,0,1,0-5.62,7.2,7.2,0,0,1,3.32-4.42,7.09,7.09,0,0,1,7.32.68,10.7,10.7,0,0,1,4,6.44c.44,2,.34,4.34-1.19,5.67-1.21,1.06-2.95,1.17-4.55,1.23-1.39.05-7.65-3.44-8.93-4" transform="translate(-88.5 351.5)"/><path d="M373-176.32c-.72-4.13,1-10.11,6.41-8.53,3.22.93,6.19,5.5,5.28,8.89-1.53,5.73-9.53,0-12.42-1.3-1.84-.84-3.44,1.89-1.59,2.73,3,1.37,6.34,4,9.73,4.2,5.68.31,8.48-4.1,7.15-9.32-1.27-5-5.65-9.37-11.12-8.45-6,1-7.38,7.52-6.49,12.63.35,2,3.39,1.15,3-.84Z" transform="translate(-88.5 351.5)"/><path class="cls-4" d="M226.75-186c1.77-2.23,1.07-5.68,2-8.38a8.06,8.06,0,0,0,.51-4.08c-.44-2.23-2.38-3.84-4.35-5a24.24,24.24,0,0,0-7.09-2.7,11.75,11.75,0,0,0-5.34-.09,10.38,10.38,0,0,0-4.23,2.42A15.64,15.64,0,0,0,204-187.31c2,5.67,6.23,8.38,12.26,8.29.77,0,3-.26,3.42-.92" transform="translate(-88.5 351.5)"/><path d="M228.11-185.2c1.78-3.07,2.58-8.21,2.76-11.67.16-3.1-1.57-5.45-4-7.18-6.86-4.85-16.26-5.85-21.74,1.34-4.32,5.67-4.8,13.93-.63,19.81,3,4.29,11.14,7.75,16,4.32,1.64-1.17.07-3.91-1.59-2.73-3.22,2.29-9-.14-11.28-2.72-3.6-4.12-3.57-10.6-1-15.19,3.69-6.52,10.84-6.4,16.83-3.2,3.28,1.75,4.4,4.81,3.62,8.33-.55,2.47-.34,5-1.65,7.3a1.58,1.58,0,0,0,2.73,1.59Z" transform="translate(-88.5 351.5)"/><path class="cls-5" d="M220.87-188.22c.36-2.24-1.71-6.1-3.46-7.54a4.67,4.67,0,0,0-6.18.16,4.73,4.73,0,0,0-.39,5.44,7.34,7.34,0,0,0,4.67,3.24c1.89.47,4.18.25,5.37-1.29" transform="translate(-88.5 351.5)"/><path d="M222.44-188.22c.29-3.09-1.71-6.88-4.08-8.78-2.61-2.09-7-1.94-8.86,1.05-4.47,7,7.29,14.58,12.48,8.85,1.36-1.5-.87-3.74-2.23-2.23-3.33,3.68-11.1-2.84-6.93-5.56,3.51-2.29,6.73,3.94,6.47,6.67-.19,2,3,2,3.16,0Z" transform="translate(-88.5 351.5)"/><path class="cls-5" d="M273.57-116.43c-1.38.77-1.8,2.52-2.09,4.08a1.85,1.85,0,0,0,.06,1.23,1.84,1.84,0,0,0,.84.66c1.79.9,4.12,1.76,5.64.45a4.79,4.79,0,0,0,1.27-2.44c.35-1.25.58-2.71-.22-3.73a3.31,3.31,0,0,0-1.69-1c-1.72-.52-2.29-.16-3.81.79" transform="translate(-88.5 351.5)"/><path d="M272.78-117.79a6,6,0,0,0-2.47,3.52c-.4,1.36-.85,3.06.12,4.27a7.47,7.47,0,0,0,3.77,2,5.39,5.39,0,0,0,4.44-.48c2.21-1.47,3.33-5.76,2-8.11A5.14,5.14,0,0,0,276.9-119a5.67,5.67,0,0,0-4.12,1.16c-1.72,1.08-.13,3.81,1.59,2.73.93-.58,2.83-1.53,3.57,0,.42.9-.23,3.39-1.08,3.92s-3.2-.08-3.84-.8c-.13-.15,0,0,.07-.45.06-.29.12-.58.2-.86a3,3,0,0,1,1.08-1.84c1.69-1.12.11-3.85-1.59-2.73Z" transform="translate(-88.5 351.5)"/><path class="cls-6" d="M197.57-85.59c-2.48-3.48-4-7.53-5.58-11.52-2.27-5.93-4.54-11.95-5.25-18.26s.31-13.05,4.1-18.15l-.35-.9a64.78,64.78,0,0,1,11.17,3.57,16.73,16.73,0,0,1,3.87,2.11,17.51,17.51,0,0,1,2.74,2.88,44.65,44.65,0,0,1,6.49,10.21,21.35,21.35,0,0,1,1.72,11.84,26.76,26.76,0,0,1-3,8A23.83,23.83,0,0,1,210-90.68c-3.28,3.53-8.07,5.21-12.76,6.27" transform="translate(-88.5 351.5)"/><path d="M198.93-86.39c-4.95-7.4-8.45-17.26-10.14-26a29.1,29.1,0,0,1,.66-15.16c.88-2.48,3.58-4.68,2.55-7.31l-1.94,1.94c4.74,1.12,10.47,2.4,14.39,5.43,4.31,3.33,8,9.54,9.68,14.69,2,6.19.53,12-2.74,17.51s-8.45,7.87-14.53,9.35c-2,.48-1.14,3.53.84,3,6.25-1.52,11.93-3.94,15.6-9.47,3.52-5.31,5.71-11.51,4.68-17.9-1.07-6.61-5-12.86-9.44-17.75S197-134.52,190.91-136c-1.06-.25-2.41.76-1.94,1.94.36.93-1.44,2.89-1.9,4a26,26,0,0,0-1.75,6.28,35.62,35.62,0,0,0,.44,12.22c1.75,9,5.35,19.11,10.45,26.75,1.12,1.68,3.86.1,2.73-1.59Z" transform="translate(-88.5 351.5)"/><path class="cls-6" d="M386.14-95.47c-.67,4.45-2.65,8.57-4.61,12.62a113.27,113.27,0,0,1-5.82,11,113.29,113.29,0,0,1-9,11.92c-2.82,3.4-5.75,6.89-9.68,8.9l.13-.6c-4-3.83-7.54-8.49-8.4-14a24.71,24.71,0,0,1,0-6.56,38,38,0,0,1,4.42-14.54A14.12,14.12,0,0,1,356.61-91a17.85,17.85,0,0,1,3.82-2.08,54,54,0,0,1,11.91-4.1A20.23,20.23,0,0,1,384.7-96" transform="translate(-88.5 351.5)"/><path d="M384.61-95.89c-1.51,8.07-5.92,16.31-10.27,23.24-4.48,7.13-10.72,16-18.14,20.25l2.32,1.78c.66-3-3.9-5.87-5.39-8.19-3.88-6.05-3.46-12.9-1.64-19.61C353.54-86,357-90.08,364.17-93c6.56-2.66,13.33-4.28,20.11-1.44,1.87.78,2.69-2.27.84-3-11.43-4.79-29.18.86-34.49,12.27-2.72,5.83-4.48,13.39-3.45,19.84a21.47,21.47,0,0,0,3.23,8.17,54.73,54.73,0,0,0,5.07,5.76,1.6,1.6,0,0,0,2.32,1.78c7.55-4.34,13.48-12.67,18.26-19.82C381-76.94,386-86.17,387.66-95c.37-2-2.67-2.84-3-.84Z" transform="translate(-88.5 351.5)"/><path d="M377.39-70.53q2.54,1.51,5,3.13c1.71,1.12,3.29-1.62,1.59-2.73s-3.32-2.12-5-3.13a1.58,1.58,0,0,0-1.59,2.73Z" transform="translate(-88.5 351.5)"/><path d="M384.21-74.5l4.36,4.72c1.38,1.5,3.61-.74,2.23-2.23l-4.36-4.72c-1.38-1.5-3.61.74-2.23,2.23Z" transform="translate(-88.5 351.5)"/><path d="M260.15,24.72a34.85,34.85,0,0,0,4.2,1.33,1.58,1.58,0,0,0,.84-3,34.85,34.85,0,0,1-4.2-1.33,1.59,1.59,0,0,0-1.94,1.1,1.62,1.62,0,0,0,1.1,1.94Z" transform="translate(-88.5 351.5)"/><path d="M261.61,17.11a56,56,0,0,1,6.43,2c1.92.68,2.75-2.37.84-3a56,56,0,0,0-6.43-2c-2-.44-2.83,2.6-.84,3Z" transform="translate(-88.5 351.5)"/><path d="M343.33,28.74v2.76a1.58,1.58,0,1,0,3.16,0V28.74a1.58,1.58,0,1,0-3.16,0Z" transform="translate(-88.5 351.5)"/><path d="M223,30.08a1.45,1.45,0,0,1,.09.57s0,.3,0,.25-.08.3-.08.33a1.58,1.58,0,1,0,3,.84,5.31,5.31,0,0,0,0-2.82,1.58,1.58,0,1,0-3,.84Z" transform="translate(-88.5 351.5)"/><path class="cls-4" d="M225,33c17-.22,34-.44,51.05-1.09,23-.88,46-2.53,68.94-.34l.1-3.22.07-41.62c8.91,2.69,17.94,5.37,27.23,5.71s19-1.92,26-8.07A36.36,36.36,0,0,0,407.56-29c3.91-9.29,5-20,1.53-29.5S397-75.7,387-76.77c-3.71-.4-8.25.67-9.45,4.2a7.72,7.72,0,0,0,.34,5c2,5.54,7,9.86,7.86,15.69a13.63,13.63,0,0,1-4.32,11.51,19.62,19.62,0,0,1-11.52,5,25.58,25.58,0,0,1-17.66-4.9c-1-.73-2.35-2.54-3.47-2.74-1.34-.23-4,1.06-5.38,1.4q-5.41,1.31-10.9,2.28a158.84,158.84,0,0,1-61.4-.86c-11-2.41-21.66-6.09-32.29-9.76-2-.68-3.93-1.36-5.88-2.07-2.43-.89-4.89-1.79-7.21-2.92-2.14-1-3-1.24-5.2-.15a35.86,35.86,0,0,0-9.65,6.9,42.65,42.65,0,0,0-11,20.53c-3.06,13.16-4,30.05,1.63,42.69,2.82,6.33,8,11.45,14.91,12.91,5.9.1,10.64,1.17,16.42,2.32a57.2,57.2,0,0,0,21.39.16c5.36-1,11.09-3.16,13.56-8a12.25,12.25,0,0,0-.37-11.12,17,17,0,0,0-8.56-7.43C252,1,244.16,1.88,237.23-.59c-2-.71-4.06-1.86-4.87-3.82A8.08,8.08,0,0,1,232-8.14a35.56,35.56,0,0,1,3.59-12.92" transform="translate(-88.5 351.5)"/><path d="M225,34.58c20-.26,40-.59,59.92-1.46s40.07-1.79,60.07,0a1.6,1.6,0,0,0,1.58-1.58c.47-14.93.14-29.91.17-44.85l-2,1.52c17.89,5.39,40.84,11.06,56-3.87,12.41-12.26,16.45-35.27,6.38-50-4.51-6.6-11.66-11.77-19.75-12.64-6-.65-12.94,2.36-11.52,9.52.82,4.14,3.7,7.5,5.79,11,3.57,6,3.34,12.59-2.46,17.14-4.87,3.82-11.52,4.52-17.41,3.08a23.48,23.48,0,0,1-7.48-3.22c-1.54-1-2.93-3-4.75-3.63-2.62-.84-5.87,1-8.4,1.66a155.16,155.16,0,0,1-19.8,3.38,159.38,159.38,0,0,1-35.51,0c-12.32-1.41-24.24-4.64-36-8.52q-7.56-2.5-15.07-5.17c-3.64-1.3-8.33-4.57-12.25-4.31-3.46.23-7,3.12-9.63,5.19a39.72,39.72,0,0,0-9.22,10.58c-4.79,7.94-6.64,17.24-7.52,26.37-1.47,15.25.34,38.37,17.72,44.09,2.46.81,4.94.66,7.5.94,3.11.35,6.17,1,9.24,1.59a65.25,65.25,0,0,0,17.29,1.34c7.85-.56,18.35-2.39,21.62-10.71C273,13.33,266.36,5,258.41,2,252.78-.06,246.7.15,240.9-1.18c-3.88-.9-7.18-2.22-7.32-7-.11-4,1.75-8.64,3.38-12.12.86-1.83-1.87-3.44-2.73-1.59-2.31,4.95-6.24,14.14-2.62,19.33,4,5.75,14.17,5.07,20.24,6.14,5.1.9,10.35,2.75,13.38,7.24,3.84,5.69,1.86,12.49-4,15.65-8.71,4.68-20.44,3.71-29.75,1.89-8.38-1.64-18.29-.85-24.46-7.62s-7.87-17.15-8.07-26.06a77.69,77.69,0,0,1,3.67-26.49c2.85-8.32,11.69-23.19,22.27-21.79,3.28.43,7.36,3,10.53,4.13q6.78,2.38,13.6,4.65a193.51,193.51,0,0,0,29,7.55,163.74,163.74,0,0,0,56.71-.88c3.88-.72,7.92-2.37,11.77-2.85,3.42-.42,7.12,3.77,10.36,5.15a25.77,25.77,0,0,0,20,.28c5.91-2.57,10.65-8.18,10.54-14.88a17.37,17.37,0,0,0-2.66-8.27c-1-1.72-2.14-3.33-3.18-5-2-3.32-4.25-9.37.74-11.1,9.68-3.36,20.46,6.67,24.27,14.52,5.1,10.48,3.33,23.39-1.76,33.52-11.81,23.48-38.57,18.2-59.2,12a1.59,1.59,0,0,0-2,1.52c0,14.94.3,29.92-.17,44.85L345,30c-20-1.82-40-.9-60.07,0S245,31.16,225,31.42c-2,0-2,3.18,0,3.16Z" transform="translate(-88.5 351.5)"/><path d="M313.42-268.4a19.3,19.3,0,0,1,4.58-8.06c2.8-2.84,7.44-5.23,10.85-1.86,6.05,6,1.55,12.85-4.08,16.73-5.46,3.77-12.67,11-6,17.36,1.46,1.41,3.7-.82,2.23-2.23-7.21-7,9-13.56,12.12-18.44a12.83,12.83,0,0,0-.57-13.9c-7.76-11.36-19.41.67-22.13,9.56-.6,1.95,2.45,2.78,3,.84Z" transform="translate(-88.5 351.5)"/><path d="M287-267.38a19.3,19.3,0,0,1,4.58-8.06c2.8-2.84,7.44-5.23,10.85-1.86,6.05,6,1.55,12.85-4.08,16.73-5.46,3.77-12.67,11-6,17.36,1.46,1.41,3.7-.82,2.23-2.23-7.21-7,9-13.56,12.12-18.44a12.83,12.83,0,0,0-.57-13.9c-7.76-11.36-19.41.67-22.13,9.56-.6,1.95,2.45,2.78,3,.84Z" transform="translate(-88.5 351.5)"/><path d="M320.17-231.31a1.58,1.58,0,0,0,0-3.16,1.58,1.58,0,0,0,0,3.16Z" transform="translate(-88.5 351.5)"/><path d="M294.21-230.26a1.58,1.58,0,0,0,0-3.16,1.58,1.58,0,0,0,0,3.16Z" transform="translate(-88.5 351.5)"/><path d="M341-264.58a19.3,19.3,0,0,1,4.58-8.06c2.8-2.84,7.44-5.23,10.85-1.86,6.05,6,1.55,12.85-4.08,16.73-5.46,3.77-12.67,11-6,17.36,1.46,1.41,3.7-.82,2.23-2.23-7.21-7,9-13.56,12.12-18.44a12.83,12.83,0,0,0-.57-13.9c-7.76-11.36-19.41.67-22.13,9.56-.6,1.95,2.45,2.78,3,.84Z" transform="translate(-88.5 351.5)"/><path d="M347.77-227.48a1.58,1.58,0,0,0,0-3.16,1.58,1.58,0,0,0,0,3.16Z" transform="translate(-88.5 351.5)"/><path class="cls-7" d="M126.19-173.61c-.83-11.93-8.36-20.45-13.7-31.16a82.58,82.58,0,0,1-6.7-18.13c-.64-2.75-1.05-5.83.42-8.24s5.57-3.2,7-.76a8,8,0,0,1,8.81-4.84c1.49.32,3.17,1,4.4.13a7.63,7.63,0,0,0,1.26-1.57,4.31,4.31,0,0,1,4.35-1.47,3.82,3.82,0,0,0,1.76.29c1.05-.24,1.36-1.54,1.85-2.5a4.6,4.6,0,0,1,6.81-1.3,10.74,10.74,0,0,0,1.8,1.64c2.69,1.45,6.65-2.54,8.69-.27a4,4,0,0,1,.69,2.75c-.07,9.91-2.67,19.6-5.36,29.14q-7.18,25.42-15.47,50.52l-6.61-14.23" transform="translate(-88.5 351.5)"/><path d="M127.77-173.61c-.9-9.35-5.39-17-10-24.93a102.87,102.87,0,0,1-7.28-14.7,74.45,74.45,0,0,1-2.71-8.37c-.26-1-.54-2.06-.71-3.11-.26-1.62,1.08-10.76,5.07-6.07a1.59,1.59,0,0,0,2.48-.32c2.1-4.3,5.06-3.92,9-3.68a6.18,6.18,0,0,0,3.82-.58c.48-.24.66-.92,1.08-1.18,1.18-.72,3.19-.94,4.44-1.27s1.68.17,2.83-1c.48-.47.57-1.35,1-1.77,1.15-1,4.42-.7,5.9-.23,1.15.36,1.63,1.09,3,1.14s2.86-1.11,4.09-1c3.6.41,2.07,6.59,1.78,9-1.45,12-5.47,23.84-8.89,35.42q-5.41,18.3-11.39,36.42l2.89-.38-6.61-14.23c-.86-1.84-3.58-.24-2.73,1.59l6.61,14.23c.61,1.32,2.5.8,2.89-.38q7.65-23.24,14.4-46.75c2.15-7.5,4.35-15,5.56-22.76.59-3.79,2.88-11.72-.54-14.68a4.34,4.34,0,0,0-3.78-.78c-1.06.16-2.08.87-3.13,1-3,.24-1.8-.73-3.58-1.55-4-1.87-5.91-1-9,1.87-.9.85-.73,1.05-2.24,1.43-.92.23-1.79-.15-2.8.17-3.22,1-2.42,2.63-6.78,2.8-4.73.19-8.28.82-10.6,5.57l2.48-.32c-2.51-3-7-2.27-9.23.76-3.33,4.58-.47,11.88,1.11,16.55a107.48,107.48,0,0,0,9.6,20.12c4.08,6.94,8,13.79,8.81,22,.19,2,3.35,2,3.16,0Z" transform="translate(-88.5 351.5)"/><path d="M105-221.53c6,4.16,13.24,5.65,19.86,8.62a108.58,108.58,0,0,1,19.82,11.64c1.64,1.2,3.22-1.54,1.59-2.73a109,109,0,0,0-19.82-11.64c-6.59-3-13.88-4.48-19.86-8.62-1.68-1.16-3.26,1.58-1.59,2.73Z" transform="translate(-88.5 351.5)"/><path d="M127-235.73c7.82,4.38,15.44,9.05,22.8,14.17,1.67,1.16,3.25-1.57,1.59-2.73-7.37-5.11-15-9.78-22.8-14.17-1.77-1-3.37,1.73-1.59,2.73Z" transform="translate(-88.5 351.5)"/><path d="M119.22-191.63a66,66,0,0,1,20.11,10c1.65,1.19,3.23-1.55,1.59-2.73a68.55,68.55,0,0,0-20.87-10.3c-2-.58-2.79,2.47-.84,3Z" transform="translate(-88.5 351.5)"/><path d="M114.85-204.53c3.21-6.19,7.77-11.61,11.42-17.55,4-6.43,8.42-12.49,12.27-19a1.58,1.58,0,0,0-2.73-1.59c-3.85,6.51-8.32,12.57-12.27,19-3.65,5.94-8.21,11.36-11.42,17.55-.94,1.8,1.79,3.4,2.73,1.59Z" transform="translate(-88.5 351.5)"/><path d="M124.51-185.69c8-18.57,18.06-37.14,30.35-53.25,1.23-1.61-1.51-3.19-2.73-1.59-12.29,16.1-22.31,34.67-30.35,53.25-.8,1.85,1.92,3.46,2.73,1.59Z" transform="translate(-88.5 351.5)"/><path d="M142.75-196.14c-5.76,7.51-11.85,16.2-15.61,24.91-.8,1.85,1.92,3.46,2.73,1.59,3.76-8.72,9.86-17.4,15.61-24.91,1.24-1.61-1.51-3.19-2.73-1.59Z" transform="translate(-88.5 351.5)"/><path d="M108.26-236c-6.2-3.15-5.59-10.72-2.22-15.77s8.48-9.5,14.68-10.73a57.8,57.8,0,0,1,15.94-1.06c3.76.31,7.06.43,9.94-2.28,1.48-1.39-.75-3.62-2.23-2.23-3.06,2.88-8.8,1.05-12.5,1.12a70.73,70.73,0,0,0-8.94.93,25.36,25.36,0,0,0-16,8.11c-6.29,6.65-10.78,19.33-.3,24.64,1.81.92,3.41-1.81,1.59-2.73Z" transform="translate(-88.5 351.5)"/><path d="M105.25-259.77c-4.32.13-5.09-5.14-4.43-8.25a11.28,11.28,0,0,1,4.74-6.86c3.68-2.57,8.37-3.28,12.76-3.42s9,.35,13.55.11c2.37-.13,4.35-.22,5.66-2.36,1.07-1.74-1.66-3.32-2.73-1.59-1.21,2-9.84.74-12,.7a55.61,55.61,0,0,0-8.8.33c-4.82.66-9.77,2.41-13.08,6.14-4.61,5.19-5.37,18.66,4.3,18.37,2-.06,2-3.22,0-3.16Z" transform="translate(-88.5 351.5)"/><path d="M230.19,215.29a1.11,1.11,0,0,0,0-2.21,1.11,1.11,0,0,0,0,2.21Z" transform="translate(-88.5 351.5)"/><path class="cls-8" d="M412-257.54c-2.63,4.12-1.75,9.75.94,13.83s6.89,6.9,11.08,9.4a2.71,2.71,0,0,0,1.89.55,2.72,2.72,0,0,0,1.29-.91L448.38-257c3.62-3.82,7.29-7.7,9.82-12.32a335.82,335.82,0,0,0-46.31,12.54" transform="translate(-88.5 351.5)"/><path d="M410.63-258.34c-3,5.56-1.87,11.82,1.9,16.74,2.34,3.05,9.34,10.17,13.6,9.4,2.86-.52,5.64-5,7.49-6.93l9.27-9.78c5.88-6.21,12.34-12.19,16.69-19.62a1.6,1.6,0,0,0-1.78-2.32,349.39,349.39,0,0,0-46.31,12.54c-1.91.66-1.09,3.71.84,3a349.39,349.39,0,0,1,46.31-12.54l-1.78-2.32c-5.89,10.05-15.51,18.26-23.47,26.66-1.91,2-3.78,4.56-6,6.28-1.85,1.47-2.18,1.26-4,.66-1.36-.45-2.78-1.81-3.88-2.67-5.35-4.13-9.82-10.78-6.18-17.56,1-1.79-1.77-3.39-2.73-1.59Z" transform="translate(-88.5 351.5)"/><path d="M423.52-232.79a91.82,91.82,0,0,1,2.11,20.6,1.59,1.59,0,0,0,2.38,1.36c4.58-2.55,6.71-8.12,10.22-11.84,4.29-4.56,9.24-8.44,13.37-13.17,3-3.43,6.8-7.68,8.05-12.15,1.67-6,0-13.85-.27-20-.08-2-3.24-2-3.16,0,.23,5.69,1.38,12.2.52,17.84-.82,5.43-6,10.72-9.66,14.53-3.38,3.5-7.16,6.6-10.54,10.1s-5.94,9.6-10.14,11.94l2.38,1.36a95.62,95.62,0,0,0-2.22-21.44c-.43-2-3.48-1.14-3,.84Z" transform="translate(-88.5 351.5)"/><path d="M416.52-223.8A22.77,22.77,0,0,0,402.89-216c-2.47,3-5.32,7.85-2.81,11.65s8.82,4,12.63,4.44a68.5,68.5,0,0,0,21-1.06,71.74,71.74,0,0,0,19.63-6.46c3.91-2.07,9.1-5.27,9.65-10.15,1.32-11.6-18.13-9.9-24.52-8.58-2,.41-1.15,3.46.84,3,4.55-.94,9.64-1.42,14.24-.4,1.76.39,3.88,1,5.12,2.38,3.5,4-1.53,7.64-3.94,9.24-6.62,4.39-15,6.66-22.75,8.06-7.57,1.37-18.53,2.72-25.84-.49-6.06-2.66-2.94-7.63.48-11a19.93,19.93,0,0,1,10.78-5.34c2-.36,1.15-3.41-.84-3Z" transform="translate(-88.5 351.5)"/><path d="M428.34-221.78c4.5-6.52,9.09-12.85,15.14-18,5.26-4.49,10.9-8.4,15.32-13.78,1.28-1.56-.94-3.8-2.23-2.23-4.78,5.81-11,9.9-16.57,14.87s-10.08,11.32-14.39,17.57c-1.16,1.68,1.58,3.26,2.73,1.59Z" transform="translate(-88.5 351.5)"/><path d="M409.49-233.95c3.78.74,5.66,4.37,8.52,6.59,2.7,2.1,5.88,3.39,8.3,5.85,1.43,1.45,3.66-.78,2.23-2.23-2.84-2.88-6.7-4.27-9.65-7-2.75-2.53-4.67-5.49-8.57-6.26-2-.39-2.84,2.65-.84,3Z" transform="translate(-88.5 351.5)"/><path class="cls-9" d="M423.38-253.15c-3.07-1.36-6.48-3.09-7.41-6.31-.79-2.72.51-5.61,2.14-7.93s3.66-4.43,4.65-7.08c-.53,1.19.23,2.58,1.23,3.4s2.25,1.32,3.22,2.18a11,11,0,0,1,2.55,4.24c.71,1.73,1.43,3.62.9,5.41a5.32,5.32,0,0,1-3.59,3.33,11.3,11.3,0,0,1-5.05.17" transform="translate(-88.5 351.5)"/><path d="M424.18-254.52c-4.28-1.94-8.24-4.3-6-9.76,1.41-3.45,4.42-6,5.95-9.4l-2.89-1.22c-.46,2.46.51,4.1,2.49,5.56,2.26,1.67,4.43,3.46,5,6.43.47,2.36.39,4.5-2.11,5.48a10,10,0,0,1-4.63.11c-2-.24-2,2.92,0,3.16,4.38.52,10-.68,10.35-6a13.38,13.38,0,0,0-1.73-6.43,11.2,11.2,0,0,0-2.31-3.4c-1-1-4.39-2.21-4-4,.3-1.62-2.11-3-2.89-1.22-2.17,4.87-7.65,8.82-7.2,14.65.36,4.69,4.54,7.09,8.39,8.84,1.84.83,3.44-1.89,1.59-2.73Z" transform="translate(-88.5 351.5)"/><path class="cls-9" d="M438.84-260.07c-1.6-1.3-3.36-3-3.16-5a6.31,6.31,0,0,1,1-2.48l3.72-6.4c-.08,1.73,1.27,3.15,2.44,4.44a17.26,17.26,0,0,1,3.64,5.7,3.8,3.8,0,0,1,.25,2.1c-.36,1.51-2.09,2.22-3.63,2.45a6.3,6.3,0,0,1-3.25-.22,3,3,0,0,1-2-2.44" transform="translate(-88.5 351.5)"/><path d="M440-261.18a9.16,9.16,0,0,1-2.26-2.26c-.87-1.73.12-2.92.87-4.22,1.06-1.83,2.12-3.66,3.19-5.49l-2.94-.8c.22,2.55,1.62,4,3.22,5.92,1,1.19,2.68,3,2.92,4.64a2,2,0,0,1-1.5,2.45c-1.28.35-3.58.5-4-1.4s-3.52-1.14-3,.84c1.09,4.49,7.66,5.17,10.72,2.16,1.71-1.68,1.37-4,.47-6a17.75,17.75,0,0,0-2.23-3.66c-1.13-1.46-3.19-3-3.35-5a1.59,1.59,0,0,0-2.94-.8c-1.6,2.76-4.39,6.05-4.87,9.26-.42,2.79,1.61,4.9,3.57,6.54,1.55,1.3,3.79-.92,2.23-2.23Z" transform="translate(-88.5 351.5)"/><path class="cls-9" d="M425.73-243.44c-1.92-.59-2.76-3-2.29-5s1.87-3.54,3.23-5l3.82-4.2c-.74.07-1,1.11-.69,1.78a5.73,5.73,0,0,0,1.57,1.57,6.86,6.86,0,0,1,2,6.6,8.94,8.94,0,0,1-4.3,5.57,5,5,0,0,1-3.21.81,2.52,2.52,0,0,1-2.2-2.2" transform="translate(-88.5 351.5)"/><path d="M426.52-244.8c-5.15-2.33,3.18-9.65,5.07-11.73a1.59,1.59,0,0,0-1.91-2.48c-2.14,1.27-1.83,3.44-.3,5.1s3,3.16,2.44,5.79a6.81,6.81,0,0,1-1.76,3.2c-.71.75-4.26,3.54-4.91,1-.5-2-3.55-1.13-3,.84,1.48,5.79,8.34,2.84,10.91-.42a9.26,9.26,0,0,0,2-6.87,8.47,8.47,0,0,0-1.13-3.32c-.28-.45-2.09-2.86-2.6-2.56l-1.91-2.48c-3.17,3.49-12.79,12.9-4.43,16.69,1.84.83,3.44-1.89,1.59-2.73Z" transform="translate(-88.5 351.5)"/><path d="M376.09-70.87l7.53,6.48c1.53,1.32,3.78-.9,2.23-2.23l-7.53-6.48c-1.53-1.32-3.78.9-2.23,2.23Z" transform="translate(-88.5 351.5)"/><path d="M382.33-76a29.09,29.09,0,0,0,8,10.12c1.57,1.27,3.81-1,2.23-2.23a27,27,0,0,1-7.48-9.48c-.88-1.83-3.6-.23-2.73,1.59Z" transform="translate(-88.5 351.5)"/><path d="M256.24,16.74a31.86,31.86,0,0,1,8.38,3c1.8.95,3.39-1.78,1.59-2.73a34.93,34.93,0,0,0-9.14-3.32c-2-.42-2.83,2.63-.84,3Z" transform="translate(-88.5 351.5)"/><path d="M252.45,24.82a16.66,16.66,0,0,1,8,1.57c1.83.87,3.43-1.85,1.59-2.73a20.06,20.06,0,0,0-9.56-2c-2,.09-2,3.24,0,3.16Z" transform="translate(-88.5 351.5)"/><rect class="cls-10" x="0.5" y="0.5" width="400" height="400"/></svg>