<svg id="Layer_4" data-name="Layer 4" xmlns="http://www.w3.org/2000/svg" viewBox="0 0 401 401"><defs><style>.cls-1{fill:#fff;}.cls-2{fill:#a4fafc;stroke-width:1.68px;}.cls-10,.cls-11,.cls-2,.cls-7{stroke:#000;stroke-miterlimit:10;}.cls-3{fill:#f0d7ff;}.cls-4{fill:#9a26bf;}.cls-5{fill:#25c13b;}.cls-6{fill:#fff936;}.cls-10,.cls-7{fill:none;}.cls-7{stroke-linecap:round;stroke-width:2.22px;}.cls-8{fill:#fff992;}.cls-9{fill:#b5b5b5;}.cls-11{fill:#c8dd87;}</style></defs><title>Q4</title><path class="cls-1" d="M3,140.28a29.78,29.78,0,0,0,6.79,3.4,26.84,26.84,0,0,0,7.69.82c5.39,0,10.77-.22,16.16-.46h.05c-1.19,18.85,9.13,36.17,13.23,54.57a84.15,84.15,0,0,1,1.19,29.88c-.58,4.14-1.53,8.36-3.93,11.7-3.33,4.62-8.89,6.8-14.29,8.07-11.49,2.71-24.77,1.85-33.3-6.65-6.08-6.05-8.77-15.1-9-23.88s1.65-17.45,3.56-26L2.53,140.34" transform="translate(274.5 92.5)"/><path d="M2.43,141.24c7,4.25,13.24,4.5,21.33,4.29A56.27,56.27,0,0,1,30,145.3c3,.27,2.36.87,2.48,3.85A64.7,64.7,0,0,0,34,160.3C38,178.38,47,194.69,47.73,213.5c.37,9.29.57,22.72-7.45,29-6.64,5.23-17,6.53-25.22,5.85-21.13-1.76-28.09-21.39-26-40,1.33-11.59,4.56-23.06,7.08-34.43L3.6,140.64c.31-1.39-1.83-2-2.14-.59-4.48,20.17-9.55,40.3-13.37,60.6-2.74,14.59-3.16,32.78,9.37,43.25,10.36,8.65,26.85,8.57,38.82,3.5,15.61-6.61,14.88-27.49,13-41.69-2.78-21.06-15.47-40-14.49-61.67A1.12,1.12,0,0,0,34,143c-4.29-.72-9.45.35-13.81.4-6.34.07-11.13-.73-16.62-4.05a1.11,1.11,0,0,0-1.12,1.92Z" transform="translate(274.5 92.5)"/><ellipse class="cls-2" cx="137.45" cy="99.74" rx="85.86" ry="74.99"/><path class="cls-3" d="M-157-5.66c2.15-8.9,3.67-17.77,10.69-23.27a27.43,27.43,0,0,1,9.13-4.43A35.35,35.35,0,0,1-121-34.67c7.27,1.27,13.87,5.43,19.22,10.74a28,28,0,0,1,5.27,6.81A31.79,31.79,0,0,1-93.54-6.36,82,82,0,0,1-93,7l-7.26,6a44.79,44.79,0,0,1-6.52,4.79,36,36,0,0,1-11.37,3.64A105.56,105.56,0,0,1-130,22.9c-3.6.24-7.32.27-10.67-1.11-4.8-2-8.13-6.53-11.17-10.89-2-2.83-4-5.8-4.54-9.25-.32-2-.15-4.07-.75-6-1-3.3-4.1-5.37-7.05-6.94a64.87,64.87,0,0,0-13.24-5.27c-1.59-.44-3.49-.74-4.71.42a9,9,0,0,1,5.71,5.53,9.61,9.61,0,0,1-.82,8.1A4.38,4.38,0,0,0-178-.9c-.17,1.23.9,2.25,2,2.8s2.29,1,2.94,2c1,1.66.05,3.84-.92,5.55s-1.9,3.95-.77,5.54c.62.87,1.73,1.3,2.21,2.26,1.19,2.41-2.59,5.14-1.54,7.61.45,1.06,1.73,1.84,1.51,3-.14.73-.88,1.18-1.08,1.89-.49,1.81,2.73,3.33,1.81,4.95l5.56-7.72A74.44,74.44,0,0,0-161,19,39,39,0,0,0-157-5.66" transform="translate(274.5 92.5)"/><path d="M-156.15-5.44c2.06-8.63,3.74-18.47,11.7-23.76a32.88,32.88,0,0,1,30.57-2.36c8.53,3.91,16.53,11.33,18.73,20.66,1,4.33,2.56,11.5,1.42,16-1,4.08-8.05,8.45-11.37,10.71-7.6,5.17-18.58,6.31-27.57,6.4a17.8,17.8,0,0,1-14.67-6.72c-3.34-3.88-7-8.76-8.06-13.83-.63-3.16-.31-6.18-2.29-8.93-1.68-2.33-4.32-3.82-6.82-5.11-4.53-2.34-13-7.44-18-4.44a.85.85,0,0,0,.2,1.54,8.55,8.55,0,0,1,5.63,7.46c.15,2.4-1.22,3.65-1.7,5.7-.29,1.23-.67,1.47-.1,2.83a4.28,4.28,0,0,0,1.05,1.25,8.38,8.38,0,0,0,2.11,1.23L-174.7,9c-.35,2.1-2,3.19-1.1,5.54.93,2.54,3,2.37,1.82,6-.47,1.51-1.16,2.34-1,3.94.11,1.06.89,1.65,1,2.77s-.5,1.39-.48,2.3c0,1.65,2.08,3.5,1.83,4.84a.84.84,0,0,0,1.54.65c4.51-6.27,9.76-12.48,12.66-19.72a41,41,0,0,0,2.29-21.25c-.15-1.07-1.77-.61-1.62.45a38.82,38.82,0,0,1-3.6,23.22c-3,5.88-7.34,11.12-11.18,16.45l1.54.65c.41-2.2-1.3-3.47-1.34-5.69,0-.72.71-.89.6-1.6-.16-1-.76-1.32-1-2.18-.71-3.12,2.11-5.58,1-8.4-.33-.83-1.29-1.18-1.68-1.87-1.87-3.26.42-5,1.2-7.56.63-2,.5-3.66-1.08-5.14-1.87-1.75-3.5-.36-3.2-4.51.07-1,1.08-2.42,1.27-3.46.94-5.15-2-9.53-6.67-11.41l.2,1.54c3.73-2.24,12.25,2.42,15.5,4A23.47,23.47,0,0,1-161-8.22c2.95,2.58,3.27,5.46,3.74,9.11.82,6.32,5.52,12.42,9.8,16.94,5.12,5.4,11.18,6.37,18.37,5.84s14.83-1.29,21.28-4.37a41,41,0,0,0,8.22-5.71c1.86-1.53,6.61-4.22,7.49-6.52,1.2-3.13-.1-9.26-.47-12.48A37.59,37.59,0,0,0-95-15.91c-5.19-12.21-20.21-20.77-33.21-20-7.37.46-15.73,2.88-20.92,8.42-5.43,5.81-6.88,14.12-8.65,21.56-.25,1.05,1.37,1.5,1.62.45Z" transform="translate(274.5 92.5)"/><path d="M-101.33-9.08l.18-.19c.75-.78-.44-2-1.19-1.19l-.18.19c-.75.78.44,2,1.19,1.19Z" transform="translate(274.5 92.5)"/><path d="M-97.36-9.6h.18a.84.84,0,0,0,0-1.68h-.18a.84.84,0,0,0,0,1.68Z" transform="translate(274.5 92.5)"/><path d="M-97.69-1.73c.28-.35.91.32.88.63s-.21.42-.61.48c-.63.08-1.22.91-.59,1.43a1.19,1.19,0,0,1,.49.78c.05.4.16.4-.2.21s-.63-.57-1-.76c-1-.46-1.83,1-.85,1.45s2,2,3.24.74a2.58,2.58,0,0,0-.46-3.61l-.59,1.43c1.48-.2,2.87-1.24,2.19-2.88-.58-1.4-2.48-2.57-3.65-1.1-.67.84.52,2,1.19,1.19Z" transform="translate(274.5 92.5)"/><path class="cls-4" d="M-120.41-34.7c-.24-3.14-2-5.92-3.79-8.42A7.76,7.76,0,0,0-125.93-45a6.48,6.48,0,0,0-3.1-1,3.38,3.38,0,0,0-1.76.16c-1.19.54-1.53,2.1-1.71,3.44-.41,2.93-.54,4.52-.95,7.45" transform="translate(274.5 92.5)"/><path d="M-119.57-34.7c-.55-4.53-3.62-11.18-8.64-12-6.29-1-5.47,7.37-6,11.55-.15,1.06,1.47,1.52,1.62.45.37-2.73-.13-10.12,3.61-10.43,4.16-.34,7.38,7.12,7.77,10.4.13,1.06,1.81,1.07,1.68,0Z" transform="translate(274.5 92.5)"/><path class="cls-4" d="M-112.88,10.88a26.7,26.7,0,0,1,3.06,13.42,6,6,0,0,1-1,3.63,4.6,4.6,0,0,1-2.9,1.45,4.06,4.06,0,0,1-2.14-.14,3.75,3.75,0,0,1-1.93-2.09c-1.16-2.75,0-5.91,1.09-8.68l2.53-6.23A11.33,11.33,0,0,1-113,9.87" transform="translate(274.5 92.5)"/><path d="M-113.6,11.3A27.72,27.72,0,0,1-111,19a24,24,0,0,1,.36,4.64,7.38,7.38,0,0,1-.11,1.55q-.07,4.28-6.71-.43c-.46-2,1.09-4.87,1.8-6.64a60.94,60.94,0,0,1,3.39-7.79.84.84,0,0,0-1.45-.85c-2.2,3.82-10.36,20-1.1,20.86,10,.93,4.82-15.54,2.68-19.84-.48-1-1.93-.12-1.45.85Z" transform="translate(274.5 92.5)"/><path class="cls-4" d="M-105.32,17.39a14.94,14.94,0,0,1,1.75,7.23,1.8,1.8,0,0,1-.5,1.46,1.32,1.32,0,0,1-.72.22,3.79,3.79,0,0,1-3.45-2.4,7.84,7.84,0,0,1-.35-4.51" transform="translate(274.5 92.5)"/><path d="M-106,17.82a15,15,0,0,1,1.24,3.29c.2.85.8,3,.36,3.8-.75,1.43-2.59-.47-3-1.38a6.86,6.86,0,0,1-.32-3.93c.16-1.06-1.46-1.51-1.62-.45-.46,3,.48,8.58,4.83,7.95,3.94-.58,1-8.2,0-10.14-.49-1-1.94-.11-1.45.85Z" transform="translate(274.5 92.5)"/><path d="M-110.53-21.64c-5,3.66-5.31,10.47-4.49,16.16.88,6.06,5.17,10.11,10,13.5.88.63,1.73-.83.85-1.45C-108,3.91-111.69.73-113-3.87c-1.43-5-1.19-13,3.31-16.32.86-.63,0-2.09-.85-1.45Z" transform="translate(274.5 92.5)"/><path d="M-182.58-36.38c-1.56.14-3.38,1-3.14,2.9.2,1.56,2,2.31,3.36,2.13a2.49,2.49,0,0,0,2.25-3.06,2.3,2.3,0,0,0-3.55-1.31c-.87.63,0,2.08.85,1.45.44-.31,1-.23,1.09.39s-.51.87-1,.88-1.14-.15-1.28-.62c-.23-.78.95-1,1.46-1.08,1.07-.09,1.08-1.78,0-1.68Z" transform="translate(274.5 92.5)"/><path d="M-182.43-41.06c-1.37-.15-3,.23-3.15,1.89s1.54,2,2.78,1.9,2.61-.95,2.35-2.39a2,2,0,0,0-2.82-1.51c-1,.43-.13,1.88.85,1.45.11,0,.35.31.32.44-.09.35-.76.34-1,.34a3.63,3.63,0,0,1-.59-.06c-.05,0-.25-.1-.22,0s0-.06,0-.09c.28-.46,1-.29,1.46-.24,1.07.12,1.06-1.56,0-1.68Z" transform="translate(274.5 92.5)"/><path d="M-83.77-29.2C-86-30.35-89-30-90.1-27.5a3.62,3.62,0,0,0,2.36,5.09c2.42.63,4.84-1.23,5.73-3.39a3.18,3.18,0,0,0-3-4.51c-1.08,0-1.08,1.73,0,1.68,1.89-.08,1.77,1.92.94,3A3.31,3.31,0,0,1-87.22-24a2,2,0,0,1-1.27-3c.8-1.45,2.56-1.43,3.87-.76,1,.49,1.81-1,.85-1.45Z" transform="translate(274.5 92.5)"/><path d="M-91.58-36.34a3.17,3.17,0,0,0-2.4,3.2,2.67,2.67,0,0,0,3,2.51c1.37-.26,3-1.66,3-3.16s-1.56-2.29-2.85-2.6c-1.05-.25-1.5,1.37-.45,1.62.46.11,1.37.28,1.58.79s-.75,1.31-1.19,1.54a1,1,0,0,1-1.5-.83,1.49,1.49,0,0,1,1.18-1.45.84.84,0,0,0-.45-1.62Z" transform="translate(274.5 92.5)"/><path class="cls-5" d="M-122.28,77.24l-2.65-2.72c-1.64-1.68-3.42-3.76-3.08-6.14.49-3.48,5.24-5.29,5.08-8.81s-4.83-5-5-8.38c-.11-2,1.53-3.72,3.27-4.6s3.71-1.26,5.38-2.29q-1.73,1.82-3.3,3.8a3.34,3.34,0,0,0-.8,1.5c-.21,1.33,1.07,2.35,2.18,3l3.76,2.31c1.28.78,2.65,1.68,3.16,3.14.68,2-.46,4.08-1.79,5.63s-2.94,3-3.49,5a5.36,5.36,0,0,0,2.87,6.14,6,6,0,0,1,0-8.69c1.13-1,2.61-1.43,3.73-2.41a5.73,5.73,0,0,0,1.65-5.66c-.7-2.57-3.1-4.31-3.86-6.87-1-3.32,1.72-7.22,5-7.28-1.93,1.26-2.14,4.23-1.22,6.41s2.66,3.82,4.09,5.67,2.63,4.19,2.13,6.51-2.4,3.82-4,5.44-3,3.95-2.28,6.13l-5.5,3.46a7.82,7.82,0,0,1-4.21,1.62c-1.52,0-3.09-1.41-2.83-3" transform="translate(274.5 92.5)"/><path d="M-121.68,76.64c-2.27-2.33-6.87-5.85-4.73-9.95.67-1.29,2.11-2.26,3-3.45a5.77,5.77,0,0,0,1.35-3.89c-.16-2.12-1.82-3.5-3.12-5-4.81-5.5,2.61-7.41,6.37-9.34l-1-1.32c-1.32,1.43-4.32,3.84-4.32,6.12,0,3.51,4.88,4.17,6.81,6.15,1.57,1.6,1.7,5.4.61,7.17-.56.91-1.46,1.58-2.06,2.46a7.81,7.81,0,0,0-1.72,4.2,6.35,6.35,0,0,0,3.44,5.75.84.84,0,0,0,1-1.32c-5.48-6,4.87-8.4,5.68-13.69a7.09,7.09,0,0,0-.69-4.12c-1.66-3.62-7.4-10.33,1.14-11.69l-.82-1.4c-6.07,5.6,2.73,10.49,4.11,15.45,1.56,5.63-3.81,7.89-5.58,12.44-.49,1.27,0,1.86-1,3s-9.46,6.18-9.91,2c-.11-1.06-1.8-1.08-1.68,0,.87,8.11,10.77.53,13.81-1.38a.88.88,0,0,0,.39-.95c-.87-5.43,6.66-7.36,6.39-12.84s-10.64-11.6-5.34-16.49c.68-.62-.06-1.53-.82-1.4a6.65,6.65,0,0,0-5.52,4.73c-1,3.43,1.08,5.54,2.71,8.3,1.4,2.37.52,5.68-1.42,7.71-.65.67-1.89,1-2.6,1.63a6.68,6.68,0,0,0-1.68,2.39,7.1,7.1,0,0,0,1.63,7.55l1-1.32c-7.79-4.64,4.9-10.62,2.7-16.45-.61-1.62-2.09-2.53-3.47-3.44a21.41,21.41,0,0,1-3.14-1.92c-2.88-2.78-.42-5.35,1.46-7.4a.84.84,0,0,0-1-1.32c-3,1.54-7.71,2.25-8.83,6-.8,2.71.88,4.46,2.52,6.38,4.69,5.53-2.2,7.45-2.81,12.29-.49,4,3.55,7.09,6,9.56.76.78,1.94-.41,1.19-1.19Z" transform="translate(274.5 92.5)"/><path class="cls-6" d="M-125.93-21c.73.09.48,1.26.09,1.92a11.42,11.42,0,0,0-1.39,7.9A18.76,18.76,0,0,1-126.67-8c.06,3.64-3.61,6.47-3.53,10.11.05,2.48,1.84,4.52,2.53,6.89.42,1.43.42,3,.75,4.42a4.62,4.62,0,0,0,2.45,3.46,21.1,21.1,0,0,1-.08-8c.46-2.51,1.34-5.28.06-7.46A2.49,2.49,0,0,1-125,.29,2,2,0,0,1-124.28-1c2.19-2.43,4.2-5.4,4.18-8.74a16.18,16.18,0,0,0-1.47-5.71c-.83-2.1-1.77-4.35-3.64-5.5" transform="translate(274.5 92.5)"/><path d="M-126.52-20.38c.08.07-1.61,5.31-1.65,5.72a22.81,22.81,0,0,0,.13,3.72,16.85,16.85,0,0,1-1.79,8.76A10,10,0,0,0-131,1.43c-.28,3.56,2.33,7.18,3,10.61.46,2.42.92,4.21,3.1,5.55a.85.85,0,0,0,1.23-.95c-.79-4.79,1.16-9.25.55-13.91-.16-1.22-.93-1.86-.57-3.17C-123.28-2-121-3.9-120.3-5.39c2.28-5.13,0-12.72-4.31-16.2-.84-.67-2,.51-1.19,1.19,3.41,2.73,5.39,8.63,4.29,12.77-.75,2.8-2.9,4.08-3.84,6.61a3.46,3.46,0,0,0-.42,1.08c0,.25.1.44.08.65A7.81,7.81,0,0,1-125,7.07l-.31,1.53a27.52,27.52,0,0,0,.08,8.49l1.23-.95c-2.57-1.57-2.86-7.47-4.08-10.31-2.31-5.41,1.3-7.68,2.14-12.4a8.6,8.6,0,0,0-.09-3.24c-.4-3.85,0-5.25,1-8.91.33-1.22.78-1.9-.26-2.83-.8-.72-2,.46-1.19,1.19Z" transform="translate(274.5 92.5)"/><path class="cls-6" d="M-139.17-18.85c0,3.66-3.66,6-5.39,9.19s-1.53,6.83-1.33,10.37l.48,8.49a4.67,4.67,0,0,0,.39,1.95,4.35,4.35,0,0,0,1.77,1.55l6.08,3.59A23,23,0,0,0-141,6.12a6.58,6.58,0,0,1-1-1.87,5.46,5.46,0,0,1,.18-2.81,32.28,32.28,0,0,1,3.24-8,20.71,20.71,0,0,0,2-3.84,8.12,8.12,0,0,0-2.71-8.73" transform="translate(274.5 92.5)"/><path d="M-140-18.85c-.55,4.18-4.57,6.52-6,10.33-1.28,3.46-.85,7.34-.65,10.93.15,2.67-.46,6.73.89,9.17s5.76,4,8.15,5.44a.85.85,0,0,0,1.23-.95A25.81,25.81,0,0,0-139.42,7c-2.83-4.93-.71-9,1.92-13.74s3-9.15-1.24-13c-.8-.73-2,.46-1.19,1.19,7.11,6.47-2.55,13.9-3,21.14-.11,1.8.34,2.38,1.22,3.92a28.15,28.15,0,0,1,3.72,10l1.23-.95c-3.74-2.21-7.09-3.44-7.93-8.06a53.89,53.89,0,0,1-.49-10.62c.16-4.89,2-6.76,4.58-10.44a10.49,10.49,0,0,0,2.24-5.29c.14-1.07-1.54-1.06-1.68,0Z" transform="translate(274.5 92.5)"/><path class="cls-6" d="M-134.66-33.45a14.38,14.38,0,0,0-.43,12.32A15.48,15.48,0,0,0-134.2-34" transform="translate(274.5 92.5)"/><path d="M-135.38-33.87a15.6,15.6,0,0,0-.52,13,.85.85,0,0,0,1.54.2,16.76,16.76,0,0,0,1-13.52c-.36-1-2-.58-1.62.45a15.08,15.08,0,0,1-.81,12.23l1.54.2A14,14,0,0,1-133.93-33c.48-1-1-1.82-1.45-.85Z" transform="translate(274.5 92.5)"/><path class="cls-6" d="M-119.32-33.32a16.15,16.15,0,0,0-.48,11.77,49,49,0,0,0,1.89-11.89" transform="translate(274.5 92.5)"/><path d="M-120.13-33.55a17.47,17.47,0,0,0-.48,12.22.85.85,0,0,0,1.62,0,53.42,53.42,0,0,0,1.92-12.12c0-1.08-1.63-1.08-1.68,0a51.45,51.45,0,0,1-1.86,11.67H-119a16,16,0,0,1,.48-11.33c.41-1-1.21-1.43-1.62-.45Z" transform="translate(274.5 92.5)"/><path class="cls-1" d="M-1,139c-4.9-1.44-8.64-3.2-11.87-7.28A39.86,39.86,0,0,1-20.35,99.6,38.29,38.29,0,0,1-1,73.51a5.09,5.09,0,0,0,1.61-1.1,5.67,5.67,0,0,0,1-2.47A27.46,27.46,0,0,1,8,57.72c1.83-2,4.74-3.79,7-2.29,1.36.91,1.87,2.71,2.21,4.36a55.74,55.74,0,0,1,1,14.4l9.66.65A3.59,3.59,0,0,0,30,74.53a4.08,4.08,0,0,0,1.38-2.19c2.5-6.75,7-13.55,13.79-15a2.93,2.93,0,0,1,2.08.15,3.29,3.29,0,0,1,1.24,2c1.56,5,.8,10.41-.52,15.46a6.64,6.64,0,0,0-.31,3.31c.36,1.39,1.59,2.3,2.62,3.27,3.33,3.13,5.07,7.68,6.31,12.18,2.25,8.16,3.19,16.86,1.47,25.16S51.68,135,44.7,139.29c-6.71,4.13-14.87,3.94-22.65,3.8-10.45-.18-15.52-3-23-4.13" transform="translate(274.5 92.5)"/><path d="M-.7,138C-21.63,131.55-24.78,103-13.9,86.56A37.14,37.14,0,0,1-3.59,76.17C-1.36,74.67,1,74,2.17,71.51s1.43-5.17,2.68-7.62c1.08-2.11,3.38-6.68,5.72-7.15l5.34,2.06L16.21,60c.68,1.31.63,3.69.78,5.1a61.31,61.31,0,0,1,.18,9,1,1,0,0,0,1,1c4.83.33,11.46,2.77,14-2.33C34,69.17,42.46,52.41,47.73,60.57c2.3,3.57-.12,10.35-.73,14.11-.33,2-.67,3.45.4,5.31a17.48,17.48,0,0,0,2.68,2.76,19.56,19.56,0,0,1,3.5,5.44,48.71,48.71,0,0,1,3.28,11.07c2.85,15-.33,35.41-16.92,41.2C26.32,145.21,12.71,140.21-.7,138c-1.22-.2-1.74,1.66-.51,1.86,4.61.75,9,2.23,13.61,3.13a73.71,73.71,0,0,0,18.05,1c10.22-.54,18.72-4.67,24.11-13.6,5.89-9.76,6.26-21.66,4-32.57-1-5-2.43-10.33-5.48-14.55-.64-.89-1.52-1.6-2.15-2.47-1.71-2.38-1.93-4.46-1.64-7.33.3-3,1.13-5.82,1-8.93-.13-2.87-.38-7.52-3.81-8.24-3.09-.65-7,2.3-9.07,4.29a25.74,25.74,0,0,0-4.45,5.92c-1.33,2.36-2.21,6.31-5.14,7.33-1.71.59-7.56,0-8.61-1.49-.5-.72,0-4.45-.11-5.43a56.55,56.55,0,0,0-.67-5.64c-.48-2.79-1.11-6.52-4.37-7.3-3.71-.88-7,3-8.83,5.61a28.33,28.33,0,0,0-3.11,5.62C.48,69.12-.21,71.73-4,74.1a38.39,38.39,0,0,0-9.91,9.1c-13.35,17.4-10.68,49.47,12.66,56.69C0,140.26.48,138.4-.7,138Z" transform="translate(274.5 92.5)"/><path d="M4,97.16a1,1,0,0,0,0-1.93,1,1,0,0,0,0,1.93Z" transform="translate(274.5 92.5)"/><path d="M15,100.12a1,1,0,0,0,0-1.93,1,1,0,0,0,0,1.93Z" transform="translate(274.5 92.5)"/><path d="M-3.43,112.63c1.6,5.11,7.93,5.1,9.49,0l-1.76.23c2.39,4.37,6.74,7.6,11.68,5,1.1-.57.13-2.24-1-1.67-4,2.07-7.25-1.09-9-4.36a1,1,0,0,0-1.76.23q-2.29,5.13-5.77,0c-.37-1.18-2.23-.68-1.86.51Z" transform="translate(274.5 92.5)"/><path d="M1,116.89a4.52,4.52,0,0,0,7.9.22c.68-1-1-2-1.67-1a2.58,2.58,0,0,1-4.57-.22c-.6-1.09-2.27-.11-1.67,1Z" transform="translate(274.5 92.5)"/><path d="M15.46,167.49c-.12,6.58-.23,13.16-.22,19.74,0,4.73,0,10.31,2.6,14.48,2.8,4.58,8.77,6,13,2.45,4.86-4.07,3.81-10.52,2.6-16-1.65-7.46-4.31-14.67-6-22.12-.31-1.4-2.45-.81-2.14.59,1,4.66,2.55,9.21,3.83,13.8,1.38,5,3.67,11,3.08,16.25-.4,3.51-2.63,6.87-6.38,7.2-4.7.42-6.88-4-7.73-7.92-1.93-9-.63-19.4-.46-28.51a1.11,1.11,0,0,0-2.22,0Z" transform="translate(274.5 92.5)"/><path class="cls-1" d="M3.2,248.07a4.35,4.35,0,0,0,.55,6.09,3.25,3.25,0,0,1,1.1,1c.44.86-.26,1.88-1,2.5a19,19,0,0,0-3.36,3c-.89,1.23-1.13,3.18,0,4.19a3.89,3.89,0,0,0,1.54.74,47,47,0,0,0,7.41,1.59c2.81.37,6.11.29,7.9-2,1.34-1.72,1.39-4.17,1-6.37a46.22,46.22,0,0,1-.43-8.19" transform="translate(274.5 92.5)"/><path d="M2.24,247.51a5.56,5.56,0,0,0-.77,5.27c.32.86,1.2,1.43,1.5,2.17.7,1.72-.43,2.22-1.65,3.3-3.35,3-3.67,7.11,1,8.53,4.4,1.32,11.69,3.33,15.42-.5s1.12-11,1.31-15.72c.06-1.43-2.16-1.43-2.22,0-.14,3.51.7,7,.61,10.43-.19,7.11-8.83,5.13-13.31,4-1.8-.46-4.42-.74-2.12-4.42.34-.54,1.25-1,1.74-1.41.89-.75,2-1.55,2.25-2.8.64-3.22-4.45-4.08-1.87-7.71.83-1.17-1.1-2.28-1.92-1.12Z" transform="translate(274.5 92.5)"/><path class="cls-1" d="M27.65,250.17c-.19-.62,1.2,4,1.74,5.76a2.3,2.3,0,0,1,.14,1.3,2.43,2.43,0,0,1-.75,1A11.1,11.1,0,0,0,26,262.84a3.6,3.6,0,0,0,.22,3.27,3.69,3.69,0,0,0,2.39,1.07q2.06.35,4.13.59c2.78.32,5.67.46,8.28-.56s4.9-3.48,5-6.4-1.93-5.46-3.15-8.14a15.44,15.44,0,0,1-1.29-7.7" transform="translate(274.5 92.5)"/><path d="M28.44,249.39h0a1.12,1.12,0,0,0-1.86,1.08c.87,2.94,1.92,5,.51,8-.89,1.88-2.43,3.28-2.5,5.53-.14,5.1,6.49,4.89,10.2,5.08,4.48.23,9.62-.92,11.62-5.46a8,8,0,0,0,.07-6.06c-1.55-4.51-4-7.49-3.84-12.58.05-1.43-2.17-1.43-2.22,0-.16,4.26,1.21,7.11,2.82,10.9,1.76,4.15,2.11,8.36-2.81,10.27-2.48,1-5.14.8-7.74.52-1-.1-3,0-3.83-.55-2-1.2-1.82-3.56-.81-5.2.54-.88,2.29-2.34,2.58-3.53.51-2.12-1.32-5.52-1.91-7.5L26.87,251h0c1,1,2.6-.57,1.57-1.57Z" transform="translate(274.5 92.5)"/><path class="cls-1" d="M49.87,220.4c10.76-7.67,15-22.1,16.61-35.62s1.55-27.6,6.76-40.08c2.21-5.3,5.67-10.45,10.83-12.53s12.12.22,13.68,5.77a9.42,9.42,0,0,1,11.21.33,10.54,10.54,0,0,1,3.13,11.28c5.31.53,9.25,7,7.48,12.25-1.6,4.77-6.44,7.26-10.57,9.89a53.4,53.4,0,0,0-10.81,9.16c-7.86,8.69-12.81,19.79-19.76,29.28s-17.22,17.81-28.62,17" transform="translate(274.5 92.5)"/><path d="M50.36,221.24c13.25-10,16.27-27.11,17.74-42.65,1-10.45,1.49-21.21,5.13-31.16,1.78-4.87,4.36-10.25,8.89-13.14,5.06-3.22,12.47-2.22,14.7,3.91a1,1,0,0,0,1.42.58c7.51-4.56,15,2.58,12.92,10.51a1,1,0,0,0,.67,1.19,8.73,8.73,0,0,1,5.73,13.22c-2.44,3.74-7,5.67-10.52,8.13-7.09,4.9-12.55,11.4-17.21,18.58C80.4,205,70.4,227,49.81,226.12c-1.24-.05-1.24,1.88,0,1.93,13,.54,23.34-8.75,30.44-18.8,4.55-6.44,8.21-13.45,12.64-20a64.63,64.63,0,0,1,19.47-18.57c3.95-2.53,8.11-5.73,8.54-10.78s-2.42-8-6.11-10.63c-1.1-.79-1-.26-1.39-1.1-.34-.66.16-2.73,0-3.71a11.15,11.15,0,0,0-3.28-6.45c-3.61-3.44-8.78-3.43-12.87-.94l1.42.58a11.37,11.37,0,0,0-15.1-6.35c-8.58,3.47-12.26,14.09-14.19,22.31-5.08,21.58.06,50.81-20,65.92-1,.74,0,2.42,1,1.67Z" transform="translate(274.5 92.5)"/><path d="M29.38,116.74a39.84,39.84,0,0,1,7-1.39l-.83-1.45a30.52,30.52,0,0,1-6.39,7.44,1,1,0,0,0,.43,1.61,21.57,21.57,0,0,0,8,.15c1.22-.14,1.23-2.07,0-1.93a20.27,20.27,0,0,1-7.49-.08l.43,1.61a32.13,32.13,0,0,0,6.69-7.83,1,1,0,0,0-.83-1.45,42.72,42.72,0,0,0-7.56,1.46,1,1,0,0,0,.51,1.86Z" transform="translate(274.5 92.5)"/><path d="M-10,107.83a10.42,10.42,0,0,0-3.89-1.19,1,1,0,0,0-.93.71,6.17,6.17,0,0,0,.37,3.77,17.11,17.11,0,0,0,1,1.55,14,14,0,0,1-1.8-.3c-1.24-.07-1.24,1.86,0,1.93.91.05,1.66.57,2.6.28a1.86,1.86,0,0,0,1.34-1.5c.12-1-.58-1.43-1.07-2.13a4,4,0,0,1-.6-3.07l-.93.71a7.88,7.88,0,0,1,2.92.92c1.09.59,2.07-1.08,1-1.67Z" transform="translate(274.5 92.5)"/><path d="M20.7,196.35a37.09,37.09,0,0,0,.67,7.28c.3,1.4,2.44.81,2.14-.59a34.07,34.07,0,0,1-.59-6.69,1.11,1.11,0,0,0-2.22,0Z" transform="translate(274.5 92.5)"/><path d="M25.93,196c-.62.87,0,2.33.14,3.29.28,1.53.56,3.07.78,4.61s2.35.81,2.14-.59q-.26-1.79-.59-3.58c-.08-.43-.63-2.51-.55-2.61.83-1.17-1.1-2.28-1.92-1.12Z" transform="translate(274.5 92.5)"/><path d="M6.24,261.73a9.9,9.9,0,0,0-.15,3.81,1.12,1.12,0,0,0,1.37.78,1.14,1.14,0,0,0,.78-1.37,7,7,0,0,1,.15-2.63c.34-1.39-1.81-2-2.14-.59Z" transform="translate(274.5 92.5)"/><path d="M11.44,261.73q.11,2.42.3,4.84c.11,1.42,2.34,1.43,2.22,0q-.19-2.42-.3-4.84c-.06-1.42-2.29-1.43-2.22,0Z" transform="translate(274.5 92.5)"/><path d="M32,263.93a31,31,0,0,0,.87,3.59c.42,1.36,2.56.78,2.14-.59a31,31,0,0,1-.87-3.59c-.25-1.41-2.4-.81-2.14.59Z" transform="translate(274.5 92.5)"/><path d="M38,262.65a17.88,17.88,0,0,1,1.48,4.4c.28,1.4,2.43.81,2.14-.59A20.12,20.12,0,0,0,40,261.53c-.63-1.28-2.55-.16-1.92,1.12Z" transform="translate(274.5 92.5)"/><path d="M87.91,150.68a18.54,18.54,0,0,1,5.52-9.07c1.06-1-.51-2.53-1.57-1.57a20.66,20.66,0,0,0-6.1,10.05,1.11,1.11,0,0,0,2.14.59Z" transform="translate(274.5 92.5)"/><path d="M101.32,162.91c1.09-2.84,3.93-4,5.83-6.1.94-1.07-.62-2.65-1.57-1.57-1.1,1.24-2.58,2.09-3.78,3.22a10.31,10.31,0,0,0-2.62,3.85c-.51,1.34,1.64,1.92,2.14.59Z" transform="translate(274.5 92.5)"/><path d="M-.51,147.65a35.82,35.82,0,0,1-18.17-4.36c-4.45-2.36-8.6-5.32-13.45-6.84-5.42-1.7-13.88-1.71-14.79,5.54-1,7.9,8.17,12.59,13.95,15.54a76,76,0,0,0,28.86,8c1.43.11,1.42-2.11,0-2.22a73.34,73.34,0,0,1-23.12-5.54c-5.28-2.24-21.93-9.31-16.84-17.59,2.94-4.78,11-2,14.82-.21,3.27,1.52,6.27,3.55,9.44,5.25A38,38,0,0,0-.51,149.88a1.11,1.11,0,0,0,0-2.22Z" transform="translate(274.5 92.5)"/><path d="M-44.5,140.93l4.51,1.95c1.3.56,2.43-1.35,1.12-1.92L-43.38,139c-1.3-.56-2.43,1.35-1.12,1.92Z" transform="translate(274.5 92.5)"/><path d="M-45.24,145.71-42.5,147a1.14,1.14,0,0,0,1.52-.4,1.12,1.12,0,0,0-.4-1.52l-2.74-1.26a1.14,1.14,0,0,0-1.52.4,1.12,1.12,0,0,0,.4,1.52Z" transform="translate(274.5 92.5)"/><line class="cls-7" x1="231.47" y1="230.19" x2="187.3" y2="180.72"/><path d="M.8,100.45c.13.81.6,2.49-.32,3A2,2,0,0,1-2,102.72a1.84,1.84,0,0,1-.17-1.53,1.29,1.29,0,0,1,.46-.57q-.3,0,0,0h.3a7.44,7.44,0,0,1,2.75.48c1.29.61,2.42-1.31,1.12-1.92a8.89,8.89,0,0,0-2.72-.68,4.8,4.8,0,0,0-2.15,0c-2.23.78-2.49,3.79-1.34,5.53a4.24,4.24,0,0,0,5.19,1.39c2.2-1,1.85-3.61,1.53-5.58-.23-1.41-2.37-.81-2.14.59Z" transform="translate(274.5 92.5)"/><path d="M2.77,104.32a10,10,0,0,1,4.63.8c1.32.55,1.89-1.6.59-2.14a11.51,11.51,0,0,0-5.22-.88c-1.42.09-1.43,2.31,0,2.22Z" transform="translate(274.5 92.5)"/><path d="M14,102c-2.23-.91-5.39-.64-6.22,2s1.44,4.91,3.87,5.45c5.17,1.16,5.22-8,1.76-7.5-1.41.22-.81,2.36.59,2.14l-.7-.13a1.12,1.12,0,0,1,.1.25,2.52,2.52,0,0,0,.13.48,2.86,2.86,0,0,1,.09.93,3.42,3.42,0,0,1-.47,1.34c-.36.52-.87.38-1.43.19-1.06-.36-2.42-1.5-1.7-2.74s2.36-.75,3.39-.33c1.32.54,1.9-1.61.59-2.14Z" transform="translate(274.5 92.5)"/><path class="cls-8" d="M-142.65,194.42c3.2,3.8,4.35,8.23,5.66,13.1,1,3.66,2,7.47,1.31,11.21a19.5,19.5,0,0,1-2.47,6.23c-2,3.5-5,6.92-8.89,7.19s-7.21-2.68-8.88-6.22-1.93-7.62-2.13-11.57a37.08,37.08,0,0,1,0-6.28c.31-2.58,1.13-5.29.19-7.7" transform="translate(274.5 92.5)"/><path d="M-143.61,195c3.47,4.5,5.07,10.11,6.25,15.61.93,4.33,1,8.27-1,12.33-1.32,2.7-4.21,7.5-7.6,7.92-9.27,1.12-10.69-9.85-11-16.48-.23-4.73,1.36-9.67.2-14.28a1.11,1.11,0,0,0-2.14.59c1,4.13-.49,9.34-.28,13.68.19,4,.43,8.2,2.17,11.86,2.31,4.88,7.55,8.69,13,6.26s9.36-9.83,9.62-15.62c.34-7.46-2.77-17.09-7.32-23-.86-1.12-2.79,0-1.92,1.12Z" transform="translate(274.5 92.5)"/><path class="cls-8" d="M-145.52,232.09a9.65,9.65,0,0,1,3.49,5,24.36,24.36,0,0,1,1,6.21c0,.52-3.38,1.23-3.82.62-2.59-3.52-2.34-7.65-3.71-11.86" transform="translate(274.5 92.5)"/><path d="M-146.08,233.05a9.76,9.76,0,0,1,3.4,5.86,10.77,10.77,0,0,1,.49,3.61c0,.28.59-.23,0,.24a2.46,2.46,0,0,1-1.15.24c-1.8,0-2.3-3.15-2.65-4.67-.51-2.19-.83-4.4-1.48-6.56-.41-1.36-2.56-.78-2.14.59,1.08,3.56,1.2,7.45,3,10.77,1.18,2.22,2.7,2.52,5,1.76,2.61-.84,1.63-3.63,1.23-5.82a12.36,12.36,0,0,0-4.57-8c-1.14-.86-2.25,1.07-1.12,1.92Z" transform="translate(274.5 92.5)"/><path class="cls-8" d="M-138.67,228a19.38,19.38,0,0,1,6.26,9.83,7,7,0,0,1,.16,3A2.86,2.86,0,0,1-134,243a3,3,0,0,1-3.22-1.71,14.06,14.06,0,0,1-1.09-3.9,19.3,19.3,0,0,0-3.43-7.55" transform="translate(274.5 92.5)"/><path d="M-139.46,228.81a20.16,20.16,0,0,1,4.24,5.06,15.35,15.35,0,0,1,1.5,3.36,10.36,10.36,0,0,1,.46,2.61q-2.9,2.52-3.29.09c-1-1.55-1-4.19-1.64-5.94a21.61,21.61,0,0,0-2.59-4.7c-.82-1.15-2.75,0-1.92,1.12a19.44,19.44,0,0,1,3,5.93c.48,1.67.58,3.48,1.34,5.06,1,2,3.38,3.69,5.57,2.24,5.69-3.75-2-13.67-5.07-16.41-1.07-.94-2.65.62-1.57,1.57Z" transform="translate(274.5 92.5)"/><path d="M-152.55,208.05c1.55,0,3-.94,4.54-.61a3.12,3.12,0,0,1,2.18,1.62c.45.83.63,2.07-.57,2.27-.7.12-1.36-.48-2-.68a6.05,6.05,0,0,0-1.76-.22c-1.16,0-2.21.1-2.86,1.13-.77,1.21,1.16,2.33,1.92,1.12a4.81,4.81,0,0,1,1.44,0,6.26,6.26,0,0,1,1.72.69,3.37,3.37,0,0,0,2.33.06,3.06,3.06,0,0,0,2.29-3.64,5.32,5.32,0,0,0-3.06-4.14,5.72,5.72,0,0,0-2.47-.5c-1.29,0-2.43.71-3.71.69a1.11,1.11,0,0,0,0,2.22Z" transform="translate(274.5 92.5)"/><path class="cls-8" d="M-139.4,199.37a12.19,12.19,0,0,0,2.48.36,7.39,7.39,0,0,1,6,6.33c.08.65,0,1.44-.54,1.75a1.47,1.47,0,0,1-.59.15,5.75,5.75,0,0,1-4.33-1.44" transform="translate(274.5 92.5)"/><path d="M-139.7,200.44c1.25.33,2.6.22,3.81.7a6.26,6.26,0,0,1,2.69,2.12c.45.61,1.54,2.35,1.22,3.2q.13.63-.56.41l-.74-.06a4.89,4.89,0,0,1-2.29-1.08c-1.1-.89-2.68.67-1.57,1.57,2.62,2.12,8.26,3,7.24-2a8.68,8.68,0,0,0-2.92-4.85c-2-1.66-3.94-1.52-6.29-2.14a1.11,1.11,0,0,0-.59,2.14Z" transform="translate(274.5 92.5)"/><path class="cls-8" d="M-157.31,225.73a8.68,8.68,0,0,1-9.17,0,12.68,12.68,0,0,1-5.49-8,11.59,11.59,0,0,0-.84-2.83c-1.1-2-3.6-2.71-5.84-2.86a4.46,4.46,0,0,0-1.92.18,4.49,4.49,0,0,0-2.27,3c-.39,1.19-.56,2.68.32,3.54,1.19,1.18,3.21.22,4.75.82a4.38,4.38,0,0,1,1.93,1.87c1.59,2.51,2.49,5.59,4.71,7.5,1.76,1.52,4.09,2.06,6.33,2.56a11.47,11.47,0,0,0,4.77.37,11.67,11.67,0,0,0,3.28-1.43l2.56-1.44" transform="translate(274.5 92.5)"/><path d="M-157.87,224.77c-7.4,4-11.32-3-13.35-8.73a6.66,6.66,0,0,0-5.09-4.69c-4.09-1.06-9.36,1.51-7.83,6.69.66,2.25,2.13,1.89,3.88,2.48,3.53,1.19,4,2.56,5.59,5.48a13.73,13.73,0,0,0,2.76,3.75c2.27,2,5.65,2.81,8.55,3.19,3.9.51,6.43-1.09,9.74-3a1.11,1.11,0,0,0-1.12-1.92c-4.12,2.32-7.87,3.25-12.44,1.71-4.15-1.4-5.27-4.89-7.31-8.23a6.45,6.45,0,0,0-3-3c.35.14-3.26-.52-2.8-.23-4.44-2.82,2.19-6.18,5-4.23,2.34,1.62,2.34,5.25,3.6,7.62a12.85,12.85,0,0,0,3.47,4.22,10.17,10.17,0,0,0,11.43.78c1.26-.69.14-2.61-1.12-1.92Z" transform="translate(274.5 92.5)"/><path class="cls-1" d="M-157,219.62a14.68,14.68,0,0,1,3.69-1.12,6.15,6.15,0,0,1,3.29.19c1.93.78,3,2.94,3.65,5a4.49,4.49,0,0,1,.3,1.77,3.83,3.83,0,0,1-.75,1.79,9.2,9.2,0,0,1-4.74,3.53" transform="translate(274.5 92.5)"/><path d="M-156.48,220.58c3.12-1.32,6.51-1.82,8.3,1.63a4.83,4.83,0,0,1,.37,4.47,7.71,7.71,0,0,1-4.07,3c-1.33.49-.76,2.64.59,2.14a10.62,10.62,0,0,0,5.4-4c1.31-2,.87-3.95-.06-6-2.29-5.16-7-5.06-11.65-3.09-1.31.55-.18,2.47,1.12,1.92Z" transform="translate(274.5 92.5)"/><path d="M-157.89,201.86c5.29,1.59,13-1.52,15.56-6.51.64-1.27-1.27-2.4-1.92-1.12-2.07,4.1-8.72,6.8-13,5.49a1.11,1.11,0,0,0-.59,2.14Z" transform="translate(274.5 92.5)"/><path class="cls-8" d="M-144.52,175.14c-2.27-2.7-4.6-5.37-7.78-6.73a2.57,2.57,0,0,0-2.57-.07,3.05,3.05,0,0,0-.77,2.37l-.15,4.78a2.8,2.8,0,0,1-.25,1.28,2.61,2.61,0,0,1-.93.85l-7,4.54a9.26,9.26,0,0,0-5.41-3.89,2.71,2.71,0,0,0-1.8,0c-1.12.52-1.34,2.08-1.3,3.36a29,29,0,0,0,6.19,17.15A12.09,12.09,0,0,0-161,203c3.26,1.1,6.8-.19,9.9-1.71,3.58-1.76,7.09-3.93,9.57-7.16s3.76-7.7,2.48-11.61c-1-3-3.25-5.28-5.51-7.37" transform="translate(274.5 92.5)"/><path d="M-143.73,174.36c-1.93-2.27-7.62-9.46-11.56-7-1.3.8-1.23,2.08-1.46,3.39-.45,2.63-.2,4.61-2.17,6.86-1.28,1.46-4,2.57-5.59,3.63l1.52.4c-3-3.88-10.28-7.5-10.58.06s4.14,18.79,11.43,22c7,3.12,17.21-3.28,21.43-8.77,5.64-7.32,3.11-14.75-3-20.56-1-1-2.61.59-1.57,1.57,4.85,4.59,7.58,10.11,3.72,16.37-2.63,4.29-8.19,7.87-13,9.28-7.32,2.14-11.54-3.12-14.24-9-1.17-2.55-2.55-6.34-2.44-9.2.2-5.29,3.62-4.18,6.34-.63a1.13,1.13,0,0,0,1.52.4c3.12-2,7.59-3.63,8.67-7.34.73-2.49-1.07-4.5,1.68-5.41s6,3.56,7.73,5.56c.93,1.09,2.49-.49,1.57-1.57Z" transform="translate(274.5 92.5)"/><path d="M-159.79,191.11a1.11,1.11,0,0,0,0-2.22,1.11,1.11,0,0,0,0,2.22Z" transform="translate(274.5 92.5)"/><path d="M-155.6,195.28a2.54,2.54,0,0,0,3.26,1c1.46-.72,1.26-1.94,1.39-3.27l-.23,0,.6.47a3.78,3.78,0,0,0,.75.47,2.31,2.31,0,0,0,1.78,0c1.55-.61,1.88-2.27,2-3.75s-2.07-1.41-2.22,0c-.08.75-.16,1.66-1.11,1.41-.28-.07-.58-.48-.85-.62a2.43,2.43,0,0,0-1.91-.19,1.81,1.81,0,0,0-1.14,1.2,3.47,3.47,0,0,0,0,1.06c0,.18.09,1.8-.46,1-.82-1.15-2.75,0-1.92,1.12Z" transform="translate(274.5 92.5)"/><path d="M-151.1,182.32h-.24a1.11,1.11,0,0,0,0,2.22h.24a1.11,1.11,0,0,0,0-2.22Z" transform="translate(274.5 92.5)"/><path class="cls-9" d="M-209.27,194.42c3.2,3.8,4.35,8.23,5.66,13.1,1,3.66,2,7.47,1.31,11.21a19.5,19.5,0,0,1-2.47,6.23c-2,3.5-5,6.92-8.89,7.19s-7.21-2.68-8.88-6.22-1.93-7.62-2.13-11.57a37.08,37.08,0,0,1,0-6.28c.31-2.58,1.13-5.29.19-7.7" transform="translate(274.5 92.5)"/><path d="M-210.23,195c3.47,4.5,5.07,10.11,6.25,15.61.93,4.33,1,8.27-1,12.33-1.32,2.7-4.21,7.5-7.6,7.92-9.27,1.12-10.69-9.85-11-16.48-.23-4.73,1.36-9.67.2-14.28a1.11,1.11,0,0,0-2.14.59c1,4.13-.49,9.34-.28,13.68.19,4,.43,8.2,2.17,11.86,2.31,4.88,7.55,8.69,13,6.26s9.36-9.83,9.62-15.62c.34-7.46-2.77-17.09-7.32-23-.86-1.12-2.79,0-1.92,1.12Z" transform="translate(274.5 92.5)"/><path class="cls-9" d="M-212.13,232.09a9.65,9.65,0,0,1,3.49,5,24.36,24.36,0,0,1,1,6.21c0,.52-3.38,1.23-3.82.62-2.59-3.52-2.34-7.65-3.71-11.86" transform="translate(274.5 92.5)"/><path d="M-212.69,233.05a9.76,9.76,0,0,1,3.4,5.86,10.77,10.77,0,0,1,.49,3.61c0,.28.59-.23,0,.24A2.46,2.46,0,0,1-210,243c-1.8,0-2.3-3.15-2.65-4.67-.51-2.19-.83-4.4-1.48-6.56-.41-1.36-2.56-.78-2.14.59,1.08,3.56,1.2,7.45,3,10.77,1.18,2.22,2.7,2.52,5,1.76,2.61-.84,1.63-3.63,1.23-5.82a12.36,12.36,0,0,0-4.57-8c-1.14-.86-2.25,1.07-1.12,1.92Z" transform="translate(274.5 92.5)"/><path class="cls-9" d="M-205.28,228a19.38,19.38,0,0,1,6.26,9.83,7,7,0,0,1,.16,3,2.86,2.86,0,0,1-1.76,2.19,3,3,0,0,1-3.22-1.71,14.06,14.06,0,0,1-1.09-3.9,19.3,19.3,0,0,0-3.43-7.55" transform="translate(274.5 92.5)"/><path d="M-206.07,228.81a20.16,20.16,0,0,1,4.24,5.06,15.35,15.35,0,0,1,1.5,3.36,10.36,10.36,0,0,1,.46,2.61q-2.9,2.52-3.29.09c-1-1.55-1-4.19-1.64-5.94a21.61,21.61,0,0,0-2.59-4.7c-.82-1.15-2.75,0-1.92,1.12a19.44,19.44,0,0,1,3,5.93c.48,1.67.58,3.48,1.34,5.06,1,2,3.38,3.69,5.57,2.24,5.69-3.75-2-13.67-5.07-16.41-1.07-.94-2.65.62-1.57,1.57Z" transform="translate(274.5 92.5)"/><path d="M-219.17,208.05c1.55,0,3-.94,4.54-.61a3.12,3.12,0,0,1,2.18,1.62c.45.83.63,2.07-.57,2.27-.7.12-1.36-.48-2-.68a6.05,6.05,0,0,0-1.76-.22c-1.16,0-2.21.1-2.86,1.13-.77,1.21,1.16,2.33,1.92,1.12a4.81,4.81,0,0,1,1.44,0,6.26,6.26,0,0,1,1.72.69,3.37,3.37,0,0,0,2.33.06,3.06,3.06,0,0,0,2.29-3.64,5.32,5.32,0,0,0-3.06-4.14,5.72,5.72,0,0,0-2.47-.5c-1.29,0-2.43.71-3.71.69a1.11,1.11,0,0,0,0,2.22Z" transform="translate(274.5 92.5)"/><path class="cls-9" d="M-206,199.37a12.19,12.19,0,0,0,2.48.36,7.39,7.39,0,0,1,6,6.33c.08.65,0,1.44-.54,1.75a1.47,1.47,0,0,1-.59.15,5.75,5.75,0,0,1-4.33-1.44" transform="translate(274.5 92.5)"/><path d="M-206.31,200.44c1.25.33,2.6.22,3.81.7a6.26,6.26,0,0,1,2.69,2.12c.45.61,1.54,2.35,1.22,3.2q.13.63-.56.41l-.74-.06a4.89,4.89,0,0,1-2.29-1.08c-1.1-.89-2.68.67-1.57,1.57,2.62,2.12,8.26,3,7.24-2a8.68,8.68,0,0,0-2.92-4.85c-2-1.66-3.94-1.52-6.29-2.14a1.11,1.11,0,0,0-.59,2.14Z" transform="translate(274.5 92.5)"/><path class="cls-9" d="M-223.93,225.73a8.68,8.68,0,0,1-9.17,0,12.68,12.68,0,0,1-5.49-8,11.59,11.59,0,0,0-.84-2.83c-1.1-2-3.6-2.71-5.84-2.86a4.46,4.46,0,0,0-1.92.18,4.49,4.49,0,0,0-2.27,3c-.39,1.19-.56,2.68.32,3.54,1.19,1.18,3.21.22,4.75.82a4.38,4.38,0,0,1,1.93,1.87c1.59,2.51,2.49,5.59,4.71,7.5,1.76,1.52,4.09,2.06,6.33,2.56a11.47,11.47,0,0,0,4.77.37,11.67,11.67,0,0,0,3.28-1.43l2.56-1.44" transform="translate(274.5 92.5)"/><path d="M-224.49,224.77c-7.4,4-11.32-3-13.35-8.73a6.66,6.66,0,0,0-5.09-4.69c-4.09-1.06-9.36,1.51-7.83,6.69.66,2.25,2.13,1.89,3.88,2.48,3.53,1.19,4,2.56,5.59,5.48a13.73,13.73,0,0,0,2.76,3.75c2.27,2,5.65,2.81,8.55,3.19,3.9.51,6.43-1.09,9.74-3a1.11,1.11,0,0,0-1.12-1.92c-4.12,2.32-7.87,3.25-12.44,1.71-4.15-1.4-5.27-4.89-7.31-8.23a6.45,6.45,0,0,0-3-3c.35.14-3.26-.52-2.8-.23-4.44-2.82,2.19-6.18,5-4.23,2.34,1.62,2.34,5.25,3.6,7.62a12.85,12.85,0,0,0,3.47,4.22,10.17,10.17,0,0,0,11.43.78c1.26-.69.14-2.61-1.12-1.92Z" transform="translate(274.5 92.5)"/><path d="M-224.5,201.86c5.29,1.59,13-1.52,15.56-6.51.64-1.27-1.27-2.4-1.92-1.12-2.07,4.1-8.72,6.8-13,5.49a1.11,1.11,0,0,0-.59,2.14Z" transform="translate(274.5 92.5)"/><path class="cls-9" d="M-211.13,175.14c-2.27-2.7-4.6-5.37-7.78-6.73a2.57,2.57,0,0,0-2.57-.07,3.05,3.05,0,0,0-.77,2.37l-.15,4.78a2.8,2.8,0,0,1-.25,1.28,2.61,2.61,0,0,1-.93.85l-7,4.54a9.26,9.26,0,0,0-5.41-3.89,2.71,2.71,0,0,0-1.8,0c-1.12.52-1.34,2.08-1.3,3.36a29,29,0,0,0,6.19,17.15,12.09,12.09,0,0,0,5.32,4.19c3.26,1.1,6.8-.19,9.9-1.71,3.58-1.76,7.09-3.93,9.57-7.16s3.76-7.7,2.48-11.61c-1-3-3.25-5.28-5.51-7.37" transform="translate(274.5 92.5)"/><path d="M-210.35,174.36c-1.93-2.27-7.62-9.46-11.56-7-1.3.8-1.23,2.08-1.46,3.39-.45,2.63-.2,4.61-2.17,6.86-1.28,1.46-4,2.57-5.59,3.63l1.52.4c-3-3.88-10.28-7.5-10.58.06s4.14,18.79,11.43,22c7,3.12,17.21-3.28,21.43-8.77,5.64-7.32,3.11-14.75-3-20.56-1-1-2.61.59-1.57,1.57,4.85,4.59,7.58,10.11,3.72,16.37-2.63,4.29-8.19,7.87-13,9.28-7.32,2.14-11.54-3.12-14.24-9-1.17-2.55-2.55-6.34-2.44-9.2.2-5.29,3.62-4.18,6.34-.63a1.13,1.13,0,0,0,1.52.4c3.12-2,7.59-3.63,8.67-7.34.73-2.49-1.07-4.5,1.68-5.41s6,3.56,7.73,5.56c.93,1.09,2.49-.49,1.57-1.57Z" transform="translate(274.5 92.5)"/><path d="M-226.4,191.11a1.11,1.11,0,0,0,0-2.22,1.11,1.11,0,0,0,0,2.22Z" transform="translate(274.5 92.5)"/><path d="M-222.21,195.28a2.54,2.54,0,0,0,3.26,1c1.46-.72,1.26-1.94,1.39-3.27l-.23,0,.6.47a3.78,3.78,0,0,0,.75.47,2.31,2.31,0,0,0,1.78,0c1.55-.61,1.88-2.27,2-3.75s-2.07-1.41-2.22,0c-.08.75-.16,1.66-1.11,1.41-.28-.07-.58-.48-.85-.62a2.43,2.43,0,0,0-1.91-.19,1.81,1.81,0,0,0-1.14,1.2,3.47,3.47,0,0,0,0,1.06c0,.18.09,1.8-.46,1-.82-1.15-2.75,0-1.92,1.12Z" transform="translate(274.5 92.5)"/><path d="M-217.71,182.32H-218a1.11,1.11,0,0,0,0,2.22h.24a1.11,1.11,0,0,0,0-2.22Z" transform="translate(274.5 92.5)"/><rect class="cls-10" x="0.5" y="0.5" width="400" height="400"/><polygon class="cls-11" points="35.83 329.17 85.83 285.5 103.5 285.83 52.17 330.17 35.83 329.17"/></svg>