<svg id="Layer_5" data-name="Layer 5" xmlns="http://www.w3.org/2000/svg" viewBox="0 0 401 401"><defs><style>.cls-1{fill:#ededed;}.cls-2{fill:#f77308;}.cls-3{fill:#ffb1eb;}.cls-4{fill:#050505;}.cls-5{fill:#a3a2a0;}.cls-6{fill:#f9cb6e;}.cls-7{fill:#ff5b00;}.cls-8{fill:#24e9ff;}.cls-9{fill:none;stroke:#000;stroke-miterlimit:10;}</style></defs><title>Q5</title><path class="cls-1" d="M74,246.24c10.68-2.23,21,7.11,22.67,17.13s-3.09,20-8.56,28.75a165.83,165.83,0,0,1-27.42,33.29c5.45,1.4,11.16,2.94,15.16,6.64s5.49,10.29,1.63,14.11c-2.3,2.28-5.83,3-9.17,3.49-9.16,1.24-18.85.93-27.23-2.71s-15.2-11.09-15.87-19.64c-1-12.16,9.73-22,17.48-31.82a80.26,80.26,0,0,0,15-30.86" transform="translate(231.5 17.5)"/><path d="M74.31,247.35c9.17-1.47,17.84,5,20.61,13.63s-.69,17.83-4.73,25.33c-7.73,14.34-18.51,27.15-30.31,38.31a1.15,1.15,0,0,0,.5,1.91c6.39,1.66,14.74,3.61,17.41,10.45,4.12,10.56-9.3,11.88-16.42,12.16-13.25.51-30.4-4.09-34.42-18.64-3.6-13,8.27-23.9,15.6-33A84.27,84.27,0,0,0,58.8,264.94a1.14,1.14,0,0,0-2.21-.61,81.09,81.09,0,0,1-11.78,26.36c-4.77,6.94-10.92,12.84-15.52,19.9-7.73,11.85-6.5,25.3,5.31,33.94,6.23,4.56,13.93,6.48,21.55,6.87,6.29.32,15.76.54,21.09-3.53,4.61-3.51,4.43-9.81,1.38-14.32-3.86-5.72-11.36-7.6-17.62-9.23l.5,1.91a173.53,173.53,0,0,0,20.36-22.87c6.09-8.24,12.31-17.27,15-27.27,2.12-7.75,1.61-16-3.35-22.54-4.75-6.27-12-9.67-19.85-8.42-1.45.23-.83,2.44.61,2.21Z" transform="translate(231.5 17.5)"/><path class="cls-1" d="M71.32,280.74C69.18,298.49,67.16,311.33,57,323s-22.84,18.16-35.49,23.51a91.62,91.62,0,0,1-17.72,5.91c-22.18,4.37-44.42-6-65-18-8.24-4.81-16.47-10-23.53-17.48a58.23,58.23,0,0,1-15-29.5l.41-1.22c-1.33-15.32,1.16-30.74,3.94-45.69,6.14-33,15-70.14,24.08-101.89,0,0,10-3.24,16.52-4.52a387.77,387.77,0,0,1,95.12-6.72,8.27,8.27,0,0,1,5,1.39,13.32,13.32,0,0,1,3.13,4.6c21.15,43,29.72,96.55,22.91,147.43" transform="translate(231.5 17.5)"/><path d="M70,280.74c-1.13,9.29-2.22,18.82-5.65,27.6C60.53,318.1,53.37,326,45,332.21S27.24,342.8,17.69,346.63c-11.18,4.48-22.5,6.56-34.49,4.6-11-1.8-21.47-6.15-31.35-11.22C-57.77,335.07-67.54,329.68-76,323a61.47,61.47,0,0,1-19.22-24.87c-3.78-9.28-3.5-19.27-2.83-29.19,1.51-22.48,7-45,12-66.93q3.65-16.17,7.74-32.23,1.89-7.43,3.88-14.84,1-3.84,2.09-7.67l.93-3.36c0,.06.82-4.34.59-4.07,1.08-1.24,6.18-1.89,7.63-2.3,4.81-1.36,9.65-2.39,14.56-3.27q17.62-3.17,35.48-4.71,17.46-1.5,35-1.41c5.51,0,11,.11,16.54.44,3.9.23,6.54.93,8.56,4.78,1.27,2.42,2.39,4.92,3.51,7.41C70,184.2,76.12,233.62,70,280.74c-.22,1.7,2.45,1.68,2.67,0,5.94-45.65.34-93.3-17.52-135.84C52.24,138,49.7,126.85,40.95,126c-12.72-1.2-25.85-.77-38.59-.19-23.33,1.06-47.56,3.41-70,10.17-1.36.41-3.85.67-4.85,1.87s-1.56,5.34-2,7q-1.3,4.67-2.56,9.35Q-81.79,171.8-86,189.56c-5.57,23.59-11.29,47.58-14.07,71.68-1.22,10.59-2.58,22.76.59,33a60.92,60.92,0,0,0,15,24.81c7.91,8,17.72,13.75,27.45,19.2,10.28,5.76,21.06,11,32.51,14,24.24,6.32,49.52-2.7,69.48-16.82,8.62-6.1,16.31-13.89,20.71-23.61s5.64-20.6,6.92-31.14c.21-1.7-2.46-1.69-2.67,0Z" transform="translate(231.5 17.5)"/><path class="cls-2" d="M-73.72,156.15,55.59,143.29c3.87,15.59-6.24,32-19.92,40.39S5.5,194.32-10.46,196.14c-13.13,1.49-26.74,2.8-39.28-1.37s-24.11-25.41-24-38.62" transform="translate(231.5 17.5)"/><path d="M-73.72,157.29l66.64-6.63,32.82-3.26,15.91-1.58,8-.79c.32,0,3.43-.65,4-.4,1.82.83,1.56,2.32,1.66,4.35,1,19.82-16.78,34.29-33.84,40C11.95,192.13,2,193.53-7.89,194.7s-19.74,2.35-29.6,1.41C-49,195-57.07,190.75-63.6,181.23c-5-7.26-8.85-16.17-9-25.09a1.14,1.14,0,0,0-2.29,0c.14,10.27,4.91,20.68,11.08,28.72,7.63,9.95,17.56,13.22,29.86,13.77,14.32.64,29.43-1.47,43.46-4.25,13-2.57,26.08-7.23,35.58-16.78,9.07-9.12,14.41-21.77,11.57-34.62a1.15,1.15,0,0,0-1.1-.84L-73.72,155c-1.45.14-1.47,2.43,0,2.29Z" transform="translate(231.5 17.5)"/><path class="cls-1" d="M-65.53,139.29c-9.65-2.19-13.63-5.87-19.54-13.94-12.16-16.6-14.39-39.27-8.34-58.94s19.67-36.43,36-48.9C-47.45,10-36.22,3.73-24,1.45c10.84-2,22-.88,32.89.94C20.38,4.31,31.84,7,42.08,12.49a68.82,68.82,0,0,1,35.67,57A68.82,68.82,0,0,1,46.47,129C29.13,140,7.78,142.5-12.76,142.8a327.74,327.74,0,0,1-52.77-3.51" transform="translate(231.5 17.5)"/><path d="M-65.23,138.19c-15-3.65-23.91-18-27.86-32.19-4.4-15.82-2.61-32.93,4-47.88,12.53-28.44,43-55.61,75.18-56.56,17.15-.51,36.76,3,52.33,10.36A67.4,67.4,0,0,1,69.65,42.78c14.16,28.31,5.4,63.86-20.06,82.68-15,11.12-34,14.8-52.32,15.85a312,312,0,0,1-62.5-3.12c-1.44-.21-2.06,2-.61,2.21A318.86,318.86,0,0,0-4.4,143.68c17.25-.85,35-3.8,50-12.84,27-16.27,40-50.81,29.6-80.69a70.59,70.59,0,0,0-28.06-36C32.11,4.46,12.86.82-4.76-.49-23.74-1.9-40.63,3.87-55.9,15-69.3,24.76-81,37.23-88.7,52c-8.45,16.25-11.51,35.19-7,53.09,3.91,15.5,13.55,31.34,29.86,35.31,1.43.35,2-1.86.61-2.21Z" transform="translate(231.5 17.5)"/><path d="M-52,44.82a54.89,54.89,0,0,1,24.8,10.61v-2a61,61,0,0,1-15.69,7,1.14,1.14,0,0,0,.61,2.21A63,63,0,0,0-26,55.43a1.16,1.16,0,0,0,0-2A56.18,56.18,0,0,0-51.36,42.62c-1.44-.23-2.06,2-.61,2.21Z" transform="translate(231.5 17.5)"/><path d="M19.13,32.14A56.35,56.35,0,0,0,8.24,40.92c-2,2.15-6.54,6.44-7.11,9.49-.4,2.16,1.08,3.12,2.69,4.3A42.23,42.23,0,0,0,18,61.3a1.14,1.14,0,0,0,.61-2.21,40.89,40.89,0,0,1-10-4A15.87,15.87,0,0,1,5,52.73c-2.13-2.26-1-2.84.42-4.84A52.6,52.6,0,0,1,20.28,34.11c1.24-.78.1-2.76-1.15-2Z" transform="translate(231.5 17.5)"/><path d="M-43.49,95.85c-2,10.68,11.45,14.43,19.69,12.78,11.23-2.25,13.91-13.07,15.22-22.94l-2.13.58c4.27,7.91,11.85,15.12,21.57,13.61,7.61-1.19,12.83-8.54,10.51-16-.43-1.4-2.64-.8-2.21.61,2.69,8.7-6.12,14.85-14.09,13-6.45-1.53-10.79-6.7-13.81-12.29-.6-1.11-2-.44-2.13.58-.88,6.6-2,14.26-7.87,18.36-6.11,4.26-24.76,4-22.55-7.59.27-1.44-1.93-2.05-2.21-.61Z" transform="translate(231.5 17.5)"/><path class="cls-3" d="M-18.68,106c.14,4.71,2.05,10.26,3,14.86.9,4.13,4,8.44,7,11.42s8.1,4.2,11.54,1.74,3.9-7,3.84-11c-.11-7.22,1.86-17.44-.6-24.23C3,99-.22,97.63-3.24,95.17a28.32,28.32,0,0,1-6.48-7.43c-2.27,6.52-4.78,12.79-9,18.29" transform="translate(231.5 17.5)"/><path d="M-19.82,106c.52,7.59,2.37,16.77,6.88,23,3.33,4.63,8.82,9.33,14.91,6.78,5.65-2.37,5.77-9,5.88-14.21C8,113.93,9.56,106,7.2,98.49a1.17,1.17,0,0,0-1.1-.84C-.35,97.57-5.52,92.32-8.73,87.16a1.16,1.16,0,0,0-2.09.27c-2.26,6.4-4.84,12.5-8.84,18-.87,1.19,1.12,2.34,2,1.15,4.12-5.67,6.75-12,9.07-18.57l-2.09.27c3.34,5.37,7.81,9.39,13.82,11.37.93.31,1.52,0,2.29.72,1,.94.69,4.1.76,5.56a103.56,103.56,0,0,1-.4,11.18c-.19,3.26,0,6.62-.47,9.85-1.14,7.15-7.94,9.11-13.16,4.51-6.62-5.84-9.1-17-9.67-25.47-.1-1.46-2.39-1.47-2.29,0Z" transform="translate(231.5 17.5)"/><path d="M-4.53,114.34c2.09,6.48,2.32,13.32,3.95,19.91a1.14,1.14,0,0,0,2.21-.61C0,127.06-.24,120.21-2.33,113.73c-.45-1.4-2.66-.8-2.21.61Z" transform="translate(231.5 17.5)"/><path class="cls-4" d="M-11.83,73.31c-2.47,1.9-4.09,5.15-3.35,8.18s4.29,5.27,7.15,4a6.66,6.66,0,0,0,2.65-2.31c1.76-2.44,2.51-5.79,1.21-8.5s-5.13-3-7.66-1.4" transform="translate(231.5 17.5)"/><path d="M-12.63,72.5c-3.2,2.66-5.23,7.43-2.78,11.26a6.39,6.39,0,0,0,9.28,1.92c3.19-2.5,4.92-7.83,3-11.55C-5,70.72-9.37,70.58-12.4,72.32a1.14,1.14,0,0,0,1.15,2C-9.14,73.09-6,73-5,75.7a7.75,7.75,0,0,1-2.56,8.15,4.18,4.18,0,0,1-6.37-2.23c-1-2.89.74-5.71,2.9-7.51,1.13-.94-.49-2.55-1.62-1.62Z" transform="translate(231.5 17.5)"/><path class="cls-1" d="M-64.86,23.13c-5-7.93-17.47-8.61-26.78-9.79a3.14,3.14,0,0,0-2.48.38c-.83.71-.68,2-.45,3.08q3.35,16.11,7.12,32.13c6.26-9.41,14-17.67,22.59-25.8" transform="translate(231.5 17.5)"/><path d="M-63.87,22.56c-2.89-4.12-7.06-6.4-11.83-7.78A63.58,63.58,0,0,0-84.92,13c-2.33-.31-5.71-1.27-8-.88-5,.83-2.17,7.61-1.53,10.65Q-91.66,36-88.55,49.24a1.16,1.16,0,0,0,2.09.27C-80.06,40.06-72.29,31.8-64,23.94c1.07-1-.55-2.63-1.62-1.62-8.38,8-16.26,16.42-22.77,26l2.09.27q-2-8.48-3.88-17-1-4.73-2.05-9.46c-.57-2.67-2.54-6.82,1.25-7.62,1.72-.36,5.2.61,6.82.84,2,.29,4,.62,6,1.09,4.83,1.15,9.45,3,12.39,7.22.84,1.2,2.82.06,2-1.15Z" transform="translate(231.5 17.5)"/><path class="cls-1" d="M54,20.51a6.85,6.85,0,0,1,.9-2.68A77,77,0,0,1,74.64-2.29C76.9-3.87,80-5.34,82.26-3.8c1.52,1,2,3,2.26,4.81,1.37,10.31-2.17,20.63-6.49,30.1-1.83,4-4.3,8.37-8.57,9.46C65.93,34.07,63,28.23,57.39,23.35c-2.25-2-2.13-1.5-3.4-2.84" transform="translate(231.5 17.5)"/><path d="M55.1,20.82c.61-4.23,5-8.3,7.83-11.33a76.57,76.57,0,0,1,8.52-8c1.69-1.35,4.95-4.38,7.3-4.63,5.49-.58,5,6.52,4.93,9.58A49,49,0,0,1,81,20.5,75.55,75.55,0,0,1,75.86,33c-.92,1.71-2.62,5.11-4.62,5.61-2.32.58-3.06-2.79-4-4.38-3.41-5.88-7.71-9.79-12.45-14.48-1-1-2.67.58-1.62,1.62,2.6,2.57,5.47,4.58,7.77,7.5a84.26,84.26,0,0,1,7.52,12.32,1.15,1.15,0,0,0,1.29.53C76.87,39.23,79.57,31,82,24.6a59.39,59.39,0,0,0,3.7-14.51c.42-3.9.94-9.39-1.18-12.95C80.7-9.31,72.92-2.63,69.19.43A77.13,77.13,0,0,0,58.58,11c-2.19,2.65-5.17,5.67-5.68,9.2-.21,1.44,2,2.06,2.21.61Z" transform="translate(231.5 17.5)"/><path class="cls-5" d="M-79.2,28.38c.81-1.64-2.15-8-6.4-10.25A47.82,47.82,0,0,0-83.87,36a13.11,13.11,0,0,0,4.67-7.62" transform="translate(231.5 17.5)"/><path d="M-78.1,28.69C-76.79,24.46-81.79,19-85,17.15a1.16,1.16,0,0,0-1.72,1A51.7,51.7,0,0,0-85,36.3a1.16,1.16,0,0,0,1.91.5,15.08,15.08,0,0,0,5-8.12c.35-1.43-1.86-2-2.21-.61a13,13,0,0,1-4.37,7.11l1.91.5a50,50,0,0,1-1.7-17.56l-1.72,1c2.28,1.33,6.85,5.83,5.88,9-.44,1.41,1.77,2,2.21.61Z" transform="translate(231.5 17.5)"/><path class="cls-5" d="M63.6,18.53c1.52-3.43,2.42-4.1,7.18-10.44a6.62,6.62,0,0,1,3.79-2.48A3.24,3.24,0,0,1,78.36,7.4a4.48,4.48,0,0,1,0,2.21,32,32,0,0,1-5.85,13.28A2.37,2.37,0,0,1,71.07,24c-.84.12-1.38-.78-2-1.31-2.08-1.65-3.79-2-5.43-4.13" transform="translate(231.5 17.5)"/><path d="M64.59,19.11a24.8,24.8,0,0,1,2.56-4.38c.79-1.08,1.62-2.13,2.44-3.19.46-.6.91-1.22,1.38-1.81L72.36,8q5.93-2,4.81,1.46a22.07,22.07,0,0,1-4.61,11.31c-.71.83-1.49,1.56-2.4,1.35-.37-.09-1.1-.89-1.42-1.12a21.27,21.27,0,0,1-4.33-3.32c-1-1.11-2.58.51-1.62,1.62a13.16,13.16,0,0,0,2.79,2.43,46.41,46.41,0,0,0,3.93,2.84A2.65,2.65,0,0,0,73,24c2.07-1.9,3.48-5.18,4.53-7.72s2.74-6.33,2-9.07c-1.35-4.78-7.27-2.53-9.51,0A46.24,46.24,0,0,0,62.61,18c-.6,1.33,1.37,2.49,2,1.15Z" transform="translate(231.5 17.5)"/><path class="cls-1" d="M-58.72,236.95a115.9,115.9,0,0,1,9.88-49.59c1.28-2.89,2.78-5.84,5.34-7.69,4.45-3.21,11-2,15.2,1.52s6.51,8.79,8.15,14c3.81,12.19,4.74,25.5,1.13,37.76" transform="translate(231.5 17.5)"/><path d="M-57.57,236.95a117.75,117.75,0,0,1,3.35-30.36,114.64,114.64,0,0,1,4.39-13.88c2.13-5.47,4.62-13.06,11.48-13.65C-27,178.09-22.25,191-20,199.93a64.08,64.08,0,0,1-.1,32.75,1.14,1.14,0,0,0,2.21.61A67.72,67.72,0,0,0-19,194.92c-2.62-8.33-7.67-17.56-17.44-18.2-11-.72-14.6,12.15-17.4,20.52a119,119,0,0,0-6,39.71,1.14,1.14,0,0,0,2.29,0Z" transform="translate(231.5 17.5)"/><path class="cls-6" d="M-72.89,156.91c1.48,8.74,12.54,11.2,20.77,14.48,18.15,7.25,45.79,6.67,64.41.76S41,157,55.36,143.77c-31.54,3.53-78,7.72-87.76,8.29-11.15.66-30.4,3.72-40.11,5.62" transform="translate(231.5 17.5)"/><path d="M-74,157.22c2.25,10,14.55,12.74,22.85,15.77,12.58,4.6,26.58,5.49,39.85,4.56,12.83-.9,25.53-3.79,37.05-9.64s21-14.65,30.41-23.35c.68-.63.19-2.06-.81-2q-35.92,4-71.95,7c-18.88,1.63-37.58,3.3-56.23,6.91-1.44.28-.83,2.48.61,2.21,18.82-3.65,37.7-5.27,56.75-6.93,23.63-2,47.25-4.32,70.82-6.94l-.81-2c-8.55,7.91-17.15,16-27.41,21.64-10.85,6-23,9.22-35.27,10.41s-25.06.76-37-2.5a142.88,142.88,0,0,1-13.8-4.86c-5.49-2.12-11.44-4.74-12.86-11-.32-1.44-2.53-.83-2.21.61Z" transform="translate(231.5 17.5)"/><path class="cls-7" d="M-30.62,156.85a14.62,14.62,0,0,0-6.74,5.21c-.83,1.18-1.49,2.79-.73,4a4.31,4.31,0,0,0,2.1,1.47,4.22,4.22,0,0,0,2.85.5,3.61,3.61,0,0,0,2-2.76,23.6,23.6,0,0,0,.47-8.44" transform="translate(231.5 17.5)"/><path d="M-30.92,155.74c-3.41,1.39-12.86,8.33-6.82,12.21,2.19,1.41,5.28,2.12,6.93-.41,1.9-2.89,1.65-7.44,1.34-10.7-.14-1.45-2.43-1.47-2.29,0,.24,2.42.76,12.88-4.25,9.45-3.9-2.67,3.46-7.44,5.7-8.35,1.35-.55.76-2.76-.61-2.21Z" transform="translate(231.5 17.5)"/><path class="cls-7" d="M-10.49,155.9a55.08,55.08,0,0,0-1.79,9c-.14,1.08,1.83,3.44,2.4,3.33a3.82,3.82,0,0,0,2.75-2.64,6.29,6.29,0,0,0-.2-3.93,18.72,18.72,0,0,0-1.84-3.55l-1.33-2.17" transform="translate(231.5 17.5)"/><path d="M-11.59,155.59a48.68,48.68,0,0,0-1.31,5.7,13.17,13.17,0,0,0-.46,4.23c.27,1.4,1.79,3.65,3.33,3.79,2.3.21,4-2.61,4.23-4.54.42-3.51-2-6.63-3.7-9.45-.77-1.25-2.75-.11-2,1.15a38,38,0,0,1,2.79,4.85,5.43,5.43,0,0,1,.46,3.92c-.32.9-1.1,1.93-2,1.32-1.49-1-.73-3.25-.49-4.67a48.47,48.47,0,0,1,1.31-5.7,1.14,1.14,0,0,0-2.21-.61Z" transform="translate(231.5 17.5)"/><path class="cls-7" d="M11.34,152.36a27,27,0,0,0,.63,7.37,3.58,3.58,0,0,0,.84,1.56,3.52,3.52,0,0,0,1.94.83A4.62,4.62,0,0,0,17,162a3.24,3.24,0,0,0,2-2.11,4.26,4.26,0,0,0-.8-3.58,11.31,11.31,0,0,0-2.82-2.52c-1.21-.84-2.61-1.69-4.06-1.41" transform="translate(231.5 17.5)"/><path d="M10.2,152.36c-.09,2.66-.19,6,1,8.51s4.6,3.19,6.87,1.91c6.36-3.59-1.85-12-6.72-11.56-1.46.12-1.47,2.41,0,2.29,1.9-.16,4,1.33,5.24,2.65,1.71,1.75,2,5.1-1.25,4.89-3.46-.23-2.93-6.17-2.85-8.69,0-1.47-2.24-1.47-2.29,0Z" transform="translate(231.5 17.5)"/><path class="cls-1" d="M22.22,232.25a179.08,179.08,0,0,1,1.85-53c.78-4.22,2.18-9,6.12-10.73s8.43.51,11.75,3.21c7.5,6.11,12.6,14.87,15.21,24.19s2.84,19.18,1.73,28.79" transform="translate(231.5 17.5)"/><path d="M23.37,232.25A184.17,184.17,0,0,1,22.61,200a175.72,175.72,0,0,1,2.07-17.62c.85-5,1.79-13.07,8.53-13.3,5.35-.18,10.47,5.35,13.61,9.14a48.16,48.16,0,0,1,8,14.18c3.8,10.33,4.08,21.5,2.92,32.33-.16,1.46,2.13,1.45,2.29,0,1.33-12.49.62-25.38-4.63-37-3.63-8-12-21.07-22.17-21s-10.83,14.64-11.77,21.86a183.37,183.37,0,0,0-.37,43.6c.16,1.45,2.45,1.46,2.29,0Z" transform="translate(231.5 17.5)"/><path class="cls-1" d="M-100.81,265.73c-5.95-.55-14-4.78-17-9.92s-4.4-11.07-5.88-16.85c-2.21-8.62-4.81-17.32-9.81-24.68S-146.3,201-155.16,200.14c-3.69-.34-8.39,1.09-8.81,4.77-.41,3.51,3.3,5.89,6.23,7.87A34.69,34.69,0,0,1-147,224.42c5.16,9.13,5.92,20.09,9.91,29.8,5.54,13.46,23,24.91,37,28.66" transform="translate(231.5 17.5)"/><path d="M-100.81,264.59c-9.7-1.27-16.07-7.44-19.17-16.42-2.71-7.87-4-16.12-7.1-23.88-4.68-11.76-13.84-23.7-27.34-25.19-4-.44-9.91.7-10.65,5.52-.85,5.55,6.31,8.56,9.69,11.41,13.44,11.34,11,29.58,19.75,43.43C-128,271.63-114,280.15-100.35,284a1.14,1.14,0,0,0,.61-2.21c-15.6-4.39-31.87-15.11-37.38-31-2.75-7.92-3.84-16.37-7.37-24a36.87,36.87,0,0,0-6.38-9.62c-2.8-3-6.6-4.75-9.42-7.63-4.16-4.24-.59-8.17,3.88-8.31a18.89,18.89,0,0,1,6.68,1.27,29.93,29.93,0,0,1,11.67,7.91c6.62,7.06,9.89,16.44,12.38,25.6,2,7.46,3.23,16.55,8.49,22.59,4.06,4.67,10.34,7.46,16.38,8.25,1.45.19,1.44-2.1,0-2.29Z" transform="translate(231.5 17.5)"/><path class="cls-8" d="M-34.48,122.35c-1.66,0-3.08,1.16-4.31,2.27a13.34,13.34,0,0,0-3.06,3.56,5,5,0,0,0-.26,4.53,3.16,3.16,0,0,0,4,1.58c1.81-.87,2-3.37,1.68-5.37s-.61-4.33.83-5.74" transform="translate(231.5 17.5)"/><path d="M-34.48,121.2c-4.86.51-12.85,8.74-7.6,13.33a3.94,3.94,0,0,0,6-.61c2-3-.93-7.29,1.27-9.94.94-1.12-.67-2.75-1.62-1.62-2.33,2.8-.64,5.69-1.12,8.88-.21,1.37-1.25,2.76-2.77,1.76-1.75-1.15-1-3.55-.12-4.93,1.2-1.85,3.7-4.34,6-4.59,1.45-.15,1.46-2.44,0-2.29Z" transform="translate(231.5 17.5)"/><path class="cls-8" d="M20,105.51a8.74,8.74,0,0,1,9.32,3.31c.89,1.28,1.39,3.08.5,4.35a3.08,3.08,0,0,1-3.13,1.08,5.32,5.32,0,0,1-2.87-1.9A17,17,0,0,1,21,106" transform="translate(231.5 17.5)"/><path d="M20.34,106.61a7.72,7.72,0,0,1,5.06.41c1.54.69,3.6,2.28,3.71,4.13A1.71,1.71,0,0,1,26.72,113a4.49,4.49,0,0,1-2.34-1.88,17.57,17.57,0,0,1-2.26-5.47,1.14,1.14,0,0,0-2.21.61c.86,3,1.91,6.45,4.65,8.25,2.15,1.42,5.51,1.25,6.61-1.42s-.91-5.53-3-7.06a10,10,0,0,0-8.48-1.64,1.14,1.14,0,0,0,.61,2.21Z" transform="translate(231.5 17.5)"/><path d="M-41.35,179.4v5.72a1.14,1.14,0,0,0,2.29,0V179.4a1.14,1.14,0,0,0-2.29,0Z" transform="translate(231.5 17.5)"/><path d="M-31.44,181.31v4.19a1.14,1.14,0,0,0,2.29,0v-4.19a1.14,1.14,0,0,0-2.29,0Z" transform="translate(231.5 17.5)"/><path d="M-30.68,184.17a1.14,1.14,0,0,0,0-2.29,1.14,1.14,0,0,0,0,2.29Z" transform="translate(231.5 17.5)"/><path d="M26.65,172.67a28,28,0,0,0,2.41,7.54c.63,1.33,2.61.17,2-1.15a26,26,0,0,1-2.18-7c-.24-1.45-2.45-.83-2.21.61Z" transform="translate(231.5 17.5)"/><path d="M36.63,170.37l2.17,6.9c.44,1.4,2.65.8,2.21-.61l-2.17-6.9c-.44-1.4-2.65-.8-2.21.61Z" transform="translate(231.5 17.5)"/><path class="cls-1" d="M-67.72,292.64c2.38-17.73,17.3-31.24,37.38-33.63,3.43-.41,6.95-1,10.24,0a22.13,22.13,0,0,1,7.56,4.55c7.3,6.13,13.36,14.2,15,23.49,1.22,7.06-.22,14.35-2.72,21.09a70.71,70.71,0,0,1-22.1,30.5,35.87,35.87,0,0,1,26.11,3.58,16.08,16.08,0,0,1,6.52,6.06c1.4,2.64,1.46,6.12-.49,8.4-2.49,2.92-7,2.9-10.88,2.63L-20.74,358c-7.55-.53-15.54-1.21-21.67-5.56s-9.18-13.74-4.2-19.32c-1.87,1.47,4.08-13.56,2.21-12.09" transform="translate(231.5 17.5)"/><path d="M-66.62,292.95a37.29,37.29,0,0,1,17.25-26.19,46,46,0,0,1,16.43-6.21c3.55-.63,7.43-1.28,11-.64,4.16.74,7.33,3.3,10.38,6.08C0,276.56,4.32,290.2-.52,305.32a70,70,0,0,1-22.69,32.54c-.95.77.1,2.14,1.11,1.91,8.93-2,18.77-.88,26.53,4.25,2.5,1.66,6.52,5.07,5.66,8.62s-3.77,5.42-7.25,5.64c-3.89.25-8-.37-11.83-.64-8.49-.6-17.77-.33-26-2.93s-17.74-12-10.87-20.83a1.15,1.15,0,0,0-1.39-1.8q1.51,1.4,1.47,0,.14-.62.31-1.24a21.58,21.58,0,0,0,.89-3.06,39.27,39.27,0,0,0,1.44-5.11c.19-1.28.16-3.71-1.89-2.63-1.3.69-.15,2.66,1.15,2q-1.51-1.4-1.47,0-.14.62-.31,1.24a21.58,21.58,0,0,0-.89,3.06,39.27,39.27,0,0,0-1.44,5.11c-.19,1.28-.16,3.71,1.89,2.63l-1.39-1.8c-5.77,7.4-1.68,17.47,5.77,22,5,3.06,11.05,4,16.83,4.52,7.86.73,15.79,1.27,23.68,1.7,4,.22,8.84.36,11.69-3s2.06-8-.3-11.28c-6.88-9.55-22.5-11-33-8.67l1.11,1.91c11.74-9.6,21.08-23,24.48-37.89C6.44,286-.18,272.16-12.3,262.33c-10.33-8.38-25.74-4.65-36.51,1.44a39.62,39.62,0,0,0-20,28.58c-.22,1.44,2,2.06,2.21.61Z" transform="translate(231.5 17.5)"/><rect class="cls-9" x="0.5" y="0.5" width="400" height="400"/></svg>