<svg id="Layer_9" data-name="Layer 9" xmlns="http://www.w3.org/2000/svg" viewBox="0 0 401 401"><defs><style>.cls-1{fill:#ffc700;}.cls-2{fill:#ffd233;}.cls-3{fill:none;}.cls-3,.cls-7{stroke:#000;stroke-miterlimit:10;}.cls-4{fill:#fff1e6;}.cls-5{fill:#321600;}.cls-6,.cls-7{fill:#ffc49f;}.cls-7{stroke-width:0.67px;}.cls-8{fill:#9f7800;}</style></defs><title>Q9</title><path class="cls-1" d="M337.61-291.08a12.53,12.53,0,0,0-4.26-3.77c-1.75-.77-4.1-.55-5.19,1a5.22,5.22,0,0,0-.33,4.28,14.64,14.64,0,0,0,2.79,5.46" transform="translate(-259.83 422.83)"/><path d="M338.26-291.72c-2.31-2.76-6.56-6.5-10.17-3.35s-.29,8.86,1.88,11.66c.72.93,2-.38,1.3-1.3-1.55-2-4.6-7.27-1.58-9.18,2.83-1.79,5.66,1.53,7.28,3.47.76.91,2.05-.4,1.3-1.3Z" transform="translate(-259.83 422.83)"/><path class="cls-1" d="M374.41-293a4.66,4.66,0,0,1,6.93-.59,4.66,4.66,0,0,1-1,6.89" transform="translate(-259.83 422.83)"/><path d="M375.2-292.5a3.71,3.71,0,0,1,5.62-.24,3.76,3.76,0,0,1-.9,5.28c-1,.65-.06,2.24.93,1.58a5.6,5.6,0,0,0,1.25-8.21c-2.32-2.57-6.52-2-8.48.65-.7,1,.89,1.87,1.58.93Z" transform="translate(-259.83 422.83)"/><path class="cls-2" d="M369.71-185.7a12.67,12.67,0,0,1,1.61,13.23c-1.11,2.32-3,4.35-3.37,6.89s.81,5.25,1.48,7.86a6.91,6.91,0,0,1,.1,3.85c0,.11-5.63.45-6.28-1.12-1.89-4.5-1.87-18.25-2.1-23.12" transform="translate(-259.83 422.83)"/><path d="M368.91-185.23a12.2,12.2,0,0,1,2.23,10.55c-.75,2.72-2.82,4.75-3.68,7.4a10.13,10.13,0,0,0-.26,5.12c.29,1.61,1,3.1,1.33,4.69.39,2,.66,2.37-1,2.79-5.36,1.39-4.85-8-5-11.06-.26-4.12-.3-8.24-.46-12.36,0-1.18-1.88-1.18-1.84,0,.28,6.77,0,13.74,1.34,20.42.86,4.38,3.72,5.61,8.21,4.7a.89.89,0,0,0,.64-.64c.45-2.48-.1-4.26-.79-6.69-1.4-4.95.77-7.82,2.58-11.91a13.83,13.83,0,0,0-1.71-13.94c-.69-.95-2.28,0-1.58.93Z" transform="translate(-259.83 422.83)"/><path class="cls-2" d="M373.23-253.43c1.13,2.93,4.18,4.55,6.68,6.45,5.22,4,8.58,10,10.54,16.27a9.94,9.94,0,0,1,.55,5.29c-.43,1.74-2,3.32-3.8,3.16-1.54-.14-2.68-1.44-3.65-2.64L372-239.19c3.65,8.41,3.17,18,2.23,27.1q-1.18,11.44-3.18,22.77l-.41.91a19.33,19.33,0,0,1-2.22,5.5,9.45,9.45,0,0,1-4.42,3.84l-1,.06a38,38,0,0,1-14,.19,20.91,20.91,0,0,1-12-6.77,27.62,27.62,0,0,1-3.49-5.77,11.53,11.53,0,0,1-1.44-4.86,12.46,12.46,0,0,1,1.1-4.41l3.13-8.16c2.53-17.07,7.24-27.89,5-44.18" transform="translate(-259.83 422.83)"/><path d="M372.44-253c1.37,2.73,3.52,4.19,5.91,6a29.62,29.62,0,0,1,9.09,11.08c.72,1.5,2.8,5.36,2.6,7.19q-3.44,6.92-5.85,3.16l-2.31-2.86-9.22-11.43c-.56-.7-1.87.06-1.53.89,5.24,13.08,2.34,28.33.3,41.82-.83,5.5-1.51,14.08-7.23,16.88-5.12,2.51-14.35,1.24-19.31-.83-7.27-3-13.57-11.36-10.87-19.31,1-3,2.55-6,3.27-9.1s1.12-6.46,1.77-9.65c2.31-11.35,4.56-22.21,3.12-33.84-.14-1.16-2-1.17-1.84,0a75.85,75.85,0,0,1-1.1,23.85c-1.46,7.65-2.34,16.1-5.12,23.35-1.14,3-3,6.27-3,9.55,0,2.85,1.72,6,3.14,8.31a21.61,21.61,0,0,0,14.51,10c5,1,12.44,1.55,17-1s6-9.16,6.79-13.9c2.43-14.87,6.11-32.11.3-46.59l-1.53.89c2.26,2.8,17,26,20.52,13.37,1.34-4.77-2.55-11.77-5.09-15.63a28.73,28.73,0,0,0-5.06-5.87c-2.7-2.36-6-3.87-7.71-7.22-.53-1.06-2.11-.13-1.58.93Z" transform="translate(-259.83 422.83)"/><rect class="cls-3" x="0.5" y="0.5" width="400" height="400"/><path class="cls-4" d="M493.92-130.77c7.18,5.34,13.81,10.87,22.75,11.23-.44,1.83,1.21,3,1.37,4.88,1.11,13.18,1,42.79.2,44.21a4.07,4.07,0,0,1-2.66,2.23,4.45,4.45,0,0,1-2.07-.22A14.27,14.27,0,0,1,505.72-75a36.66,36.66,0,0,1-3.65-9.71c-3.56-13.67-5.5-27.71-7.42-41.7l-.43-3.14c-.29-2.13-.74-2.63-2.12-4.26a30,30,0,0,1-3-4.26,38.25,38.25,0,0,1-3.89-9.69c-1.81-7-2.1-14.27-1.94-21.44.62-28.46,12.63-92.71,12.63-92.71-12.35,5.82-14.52,23.69-26.25,30.67-2.27,1.35-5.09,2.22-7.55,1.25-3.25-1.29-4.55-5.17-5-8.64a41.35,41.35,0,0,1,5.65-26.71c4.83-7.92,22.95-16.32,22.95-16.32a39.85,39.85,0,0,1,2.72-8.93l-.28-3.23c6.76,7.33,30.09,13.21,40.82,12.65,17.72-.92,45.5-13.19,45.86-16.22,5.71,13,8,29.56,7.24,43.7-.82.34,4.13,21.64,4.2,32.29.14,21.7-2.31,43.66-10.09,63.92-3.49,9.1-8.11,17.9-14.74,25S546-119.88,536.37-118.51c-8.75,1.24-17.64-.85-25.94-3.89-5.92-2.17-11.79-4.91-16.33-9.26" transform="translate(-259.83 422.83)"/><path d="M493.41-129.9c7.15,5.35,14.06,10.66,23.25,11.36l-1-1c0,2.16,1.07,3.62,1.44,5.79a43.74,43.74,0,0,1,.31,5.14c.19,4.08.29,8.16.36,12.24.11,7.34.2,14.71-.16,22a10.19,10.19,0,0,1-.17,2.64c-1,2.78-4,2.47-6.11,1.16C505-74.4,503.45-83,501.9-89.65c-2.85-12.2-4.56-24.63-6.27-37-.26-1.89-.31-4-1.19-5.7-1.14-2.25-3.18-4-4.47-6.2-3.52-6-4.9-13-5.46-19.83-.68-8.22-.11-16.54.65-24.73,1.48-16.1,3.9-32.12,6.47-48.08,1.64-10.16,3.36-20.31,5.25-30.43a1,1,0,0,0-1.48-1.14c-8.63,4.43-12.31,13.53-17.33,21.27-3.1,4.76-11.91,15.91-18,8.45-4.31-5.29-2.38-16.42-.64-22.31,3.41-11.56,11.74-17.49,21.89-22.95,1.43-.77,4.24-1.5,5.24-2.83s2.06-6.55,2.47-8.31a12.41,12.41,0,0,0,.11-4.37l-1.72.71c5.76,5.83,14.92,8.48,22.63,10.43,8.12,2.05,16.29,3.18,24.62,1.9a118.35,118.35,0,0,0,27.7-8.24c3.3-1.39,12.19-4,13.4-8.1l-1.84.24c6.08,14.25,6.69,28.63,7,43.78.22,10.08,3.83,20,4.25,30.18A173.67,173.67,0,0,1,579-169.21c-4.69,16.58-12.46,34.17-27.49,43.83-9,5.79-19.29,7.35-29.74,5.22-9.54-1.94-19.66-5.59-26.95-12.22-1-.87-2.38.55-1.42,1.42,11.38,10.35,31.18,16.37,46.26,12.85,16.48-3.85,27.93-17.77,34.71-32.52,8-17.46,11.49-36.8,12.55-55.88a131.64,131.64,0,0,0-.42-24.07c-.82-6.39-2.07-12.71-3.07-19.07-1.06-6.7-.11-13.63-.81-20.46a95.34,95.34,0,0,0-6.93-27.79c-.36-.84-1.61-.51-1.84.24-.44,1.5-3.92,2.86-5.16,3.51a99.83,99.83,0,0,1-10,4.46,112.57,112.57,0,0,1-25.06,7c-7.78,1.11-15.49-.05-23.06-2-7.4-1.87-16.22-4.32-21.75-9.91a1,1,0,0,0-1.72.71c.27,3.14-.89,5.23-1.57,8.25-.61,2.7-.08,2.87-2.3,4A96.78,96.78,0,0,0,470.34-274c-10.17,7.25-14.93,18.8-14.57,31.25.13,4.54.7,10.86,5.26,13.29s9.47-.69,12.76-3.67c9-8.16,11.31-22.15,22.62-27.95l-1.48-1.14c-5.08,27.2-9.83,54.72-12.07,82.31-.78,9.58-1.19,19.38.6,28.87a42.13,42.13,0,0,0,6.69,16.34c1.72,2.53,2.88,4,3.32,6.95.6,4,1.1,8,1.69,12.07,1,6.67,2,13.34,3.37,19.95S501-82,504-76c2,3.85,11.86,14.14,15.17,5.82.66-1.67.41-3.95.47-5.71.17-4.7.18-9.41.16-14.11,0-5-.1-10.09-.28-15.13-.08-2.23-.17-4.46-.31-6.68-.16-2.52-1.56-5.37-1.57-7.73a1,1,0,0,0-1-1c-8.8-.67-15.44-6-22.24-11.09-1-.78-2,1-1,1.74Z" transform="translate(-259.83 422.83)"/><path class="cls-4" d="M542.58-119.69c0,7.73-.21,14,.06,21.74.29,8,.89,16.36,5.05,23.2a14.39,14.39,0,0,0,5.17,5.32,4.4,4.4,0,0,0,3.9.47c1.25-.6,7.24-23.62,7.48-34a249,249,0,0,0-1.73-31.21L543-120.74" transform="translate(-259.83 422.83)"/><path d="M541.58-119.69c0,13.19-1.83,28.35,3.06,40.94,1.36,3.49,9.49,16.33,13.64,9.2,1.67-2.87,2.24-7,3-10.15,1.2-4.82,2.25-9.69,3-14.6,2.09-13.18.54-26.73-.79-39.91-.07-.69-.82-1.34-1.51-.87l-19.53,13.47c-1.06.73-.05,2.47,1,1.74L563-133.35l-1.51-.87c1.14,11.2,2.55,22.8,1.55,34.06a135.28,135.28,0,0,1-4.69,23.65c-.36,1.32-1,5.94-2.23,6.73s-4.18-1.4-5-2.14a18,18,0,0,1-3-4A29.34,29.34,0,0,1,545-84.62c-2.47-11.35-1.44-23.54-1.42-35.08a1,1,0,0,0-2,0Z" transform="translate(-259.83 422.83)"/><path d="M539.64-227.5a21.3,21.3,0,0,0-1.36,6.24c-.09,1.29,1.92,1.29,2,0a19.51,19.51,0,0,1,1.29-5.7c.47-1.21-1.48-1.73-1.94-.53Z" transform="translate(-259.83 422.83)"/><path d="M545.73-225.3a33.35,33.35,0,0,1-.49,8.06c-.23,1.26,1.7,1.81,1.94.53a35.58,35.58,0,0,0,.56-8.6c-.07-1.29-2.09-1.29-2,0Z" transform="translate(-259.83 422.83)"/><path class="cls-4" d="M545.22-280.68c-1,.4-46.49-1.77-47.25-2.23-8.17-5-14-13.53-16.54-22.81-2.74-10.15-1.69-21.1,1.87-31,6.87-19.07,23.72-34.55,43.6-38.52s42,4.35,53.34,21.16,10.38,41.28-3.13,56.4c-8.16,9.14-19.91,14.46-31.9,17" transform="translate(-259.83 422.83)"/><path d="M544.95-281.65c-3.66.81-9.22-.21-13.17-.37q-10.73-.44-21.45-1c-5.56-.3-10.89.41-15.35-3.2-10.42-8.45-14.86-22-14-35.07,1.67-24.63,20.65-47.14,44.75-52.65,23.52-5.37,50.51,7.13,58.65,30.48a47.2,47.2,0,0,1-3.15,38.3c-7.55,13.3-21.89,20.34-36.32,23.53-1.26.28-.73,2.22.53,1.94,13-2.87,25.85-8.73,34.18-19.47,7.41-9.54,10.4-22.08,9.09-34-2.73-24.91-24.41-42.63-48.89-44S492.63-362,483.38-339.67c-5.34,12.88-6.43,28-.48,40.89,3,6.48,9.36,16.45,17.22,17.12,8.6.74,17.27,1,25.89,1.4,4.5.2,9,.4,13.5.53,1.89.06,4.1.42,6,0,1.26-.28.73-2.22-.53-1.94Z" transform="translate(-259.83 422.83)"/><path class="cls-4" d="M507.22-367.46c-4.64-4.24-8.2-5.69-14.42-6.59a5.2,5.2,0,0,0-3.48.38,5,5,0,0,0-1.73,2.3,23.51,23.51,0,0,0,.5,20.35c.32.61.81,1.29,1.5,1.23a1.82,1.82,0,0,0,1.16-.85c4.8-6.24,8.71-14.37,16.33-16.32" transform="translate(-259.83 422.83)"/><path d="M507.93-368.17c-4.3-3.78-11.44-8.14-17.52-6.92-5.9,1.18-6.27,11.83-5.71,16.37.3,2.49,1.82,11.77,6.15,9.42,2.2-1.2,4-5.41,5.44-7.41,2.93-4.05,6.13-7.77,11.06-9.29,1.23-.38.71-2.32-.53-1.94a19.36,19.36,0,0,0-8.81,5.81,50.85,50.85,0,0,0-3.45,4.4c-1.06,1.47-2.9,5.51-4.74,5.85-1.67.31-2.06-2.32-2.51-3.94a21.9,21.9,0,0,1-.76-5.33c-.11-3.9.4-7.51,3.23-10.24,2.21-2.14,2.84-1.78,5.67-1.19a25.2,25.2,0,0,1,3.16.86,23.65,23.65,0,0,1,7.91,5c1,.85,2.39-.56,1.42-1.42Z" transform="translate(-259.83 422.83)"/><path class="cls-4" d="M565-369.19c6.93-4,15.73-8.48,23.68-7.39a7.48,7.48,0,0,1,5,2.35c1.53,1.95,1.23,4.74.58,7.13a32.33,32.33,0,0,1-9.6,15.46c-.52.46-1.2.94-1.85.7a2,2,0,0,1-.76-.61c-5.07-5.69-11.69-12.34-16.76-18" transform="translate(-259.83 422.83)"/><path d="M565.49-368.33c5.28-3,10.87-6.08,17-7.09a14.41,14.41,0,0,1,6-.12,7.15,7.15,0,0,1,4.84,8.16,29,29,0,0,1-3.59,8.18c-1,1.56-4.5,7.47-6.95,6.93-1.44-.32-3.85-4.21-4.9-5.33-4-4.22-8-8.39-11.86-12.7-.87-1-2.29.46-1.42,1.42,3.31,3.68,6.73,7.26,10.13,10.86,1.94,2.06,5.05,7.16,7.72,8,4.73,1.47,10.27-10,11.56-13.19,2.49-6.13,2.9-13.08-5-14.34-8.59-1.37-17.29,3.37-24.45,7.49a1,1,0,0,0,1,1.74Z" transform="translate(-259.83 422.83)"/><path d="M511.9-334.3a1.5,1.5,0,0,0,0-3,1.5,1.5,0,0,0,0,3Z" transform="translate(-259.83 422.83)"/><path d="M538.11-332.41a1,1,0,0,0,0-2,1,1,0,0,0,0,2Z" transform="translate(-259.83 422.83)"/><path d="M509.27-313.63c-2.44,3.2,1.4,5.52,4.34,5.72a11.2,11.2,0,0,0,10.89-7l-1.84-.24c1.88,8.54,17.86,9.87,16.4-.06-.19-1.28-2.13-.73-1.94.53.69,4.67-5.17,5.06-7.68,4.28a7,7,0,0,1-4.84-5.29,1,1,0,0,0-1.84-.24,9.28,9.28,0,0,1-4.61,5,6.36,6.36,0,0,1-2.27.84q-3.91,1.36-4.88-2.56c.78-1-1-2-1.74-1Z" transform="translate(-259.83 422.83)"/><path class="cls-5" d="M520.93-320.61a2.26,2.26,0,0,0,.39,2.08,3.32,3.32,0,0,0,1.84,1.13,3.49,3.49,0,0,0,3.72-1.26,2.48,2.48,0,0,0-.92-3.54,3.35,3.35,0,0,0-2-.05,8.53,8.53,0,0,0-2.3.86" transform="translate(-259.83 422.83)"/><path d="M520-320.88c-1.08,4.39,5.62,6.24,7.79,2.73a3.61,3.61,0,0,0-.51-4.39c-1.65-1.57-4.31-.62-6,.28-1.15.59-.13,2.33,1,1.74.85-.44,2.55-1.27,3.5-.68a1.52,1.52,0,0,1,.45,1.79c-.78,1.87-4.81,1.32-4.26-.92.31-1.26-1.63-1.79-1.94-.53Z" transform="translate(-259.83 422.83)"/><path class="cls-6" d="M540.09-375.67c-2,5.59-5.34,8.73-8.43,13.81A45.21,45.21,0,0,0,526-347.28a18.77,18.77,0,0,0,.05,9.33,23.58,23.58,0,0,0,3.12,5.78,24.48,24.48,0,0,0,5.54,6.5c4.62,3.37,10.86,3.1,16.56,2.69a26,26,0,0,0,5.49-.79,18,18,0,0,0,5.4-2.8c7.2-5.23,11.89-13.69,19.82-17.73a3.59,3.59,0,0,0,1.38-1c.74-1,.08-2.48-.59-3.57l-3-5a40.08,40.08,0,0,0-3.94-5.7c-2.75-3.13-6.4-5.32-10-7.46l-5.27-3.14a53.24,53.24,0,0,0-9.72-4.93,17.86,17.86,0,0,0-10.73-.63" transform="translate(-259.83 422.83)"/><path d="M539.13-375.93c-3.36,8.32-10,14.62-12.78,23.32-2.5,7.71-2.58,14.11,1.95,21,3.79,5.73,8,9.25,15.06,9.83,7.35.6,14.69-.19,20.58-4.86,6.17-4.89,10.43-11.91,17.25-16,1.71-1,3.32-1.46,3.5-3.71.24-3-3.51-7.08-5-9.37-4.37-6.78-10.53-10.35-17.33-14.39-7.05-4.2-14.07-8.31-22.54-6.44-1.26.28-.73,2.22.53,1.94,8.36-1.84,15.45,2.94,22.3,7,6,3.59,11.39,6.85,15.29,12.89a40.22,40.22,0,0,1,2.93,4.79,2.64,2.64,0,0,1,.79,3.24,1.71,1.71,0,0,1-1.51,2.3c-1.39,1.36-3.4,2.35-4.89,3.67-4.42,3.94-7.93,8.8-12.58,12.5C557-323.79,549-323,541.94-324c-7.32-1.08-13.76-8.36-15.21-15.58-2.8-14,9.61-24.13,14.33-35.78.48-1.2-1.46-1.72-1.94-.53Z" transform="translate(-259.83 422.83)"/><path class="cls-4" d="M574-149.92c4.81,2.47,9.62,4.95,14.32,7.62a45.71,45.71,0,0,1,9,6.24,44.34,44.34,0,0,1,5.79,7.09,150.72,150.72,0,0,1,12.47,21.64c2.5,5.32,4.72,10.9,5.13,16.76a28.36,28.36,0,0,1-2.1,12.8c-1.41,3.4-4,6.85-7.72,7.06a4.31,4.31,0,0,1-2.07-.35,5.85,5.85,0,0,1-1.95-1.7c-3.27-4-5.05-9-6.2-14.1s-1.73-10.22-2.93-15.26c-3.75-15.83-15-30.91-28.68-39.76" transform="translate(-259.83 422.83)"/><path d="M573.49-149.05c6.61,3.4,13.55,6.63,19.64,10.92,6.55,4.62,10.84,11.91,14.86,18.69,4.12,7,8.25,14.42,10.45,22.24a29.66,29.66,0,0,1,.79,13.69c-.71,3.74-2.75,10.74-7.33,11.61-5.08,1-8-7.51-9.09-10.71a85.91,85.91,0,0,1-2.68-12.15,74.63,74.63,0,0,0-5.73-19.51,71.38,71.38,0,0,0-24.89-28.48c-1.08-.72-2.09,1-1,1.74a67.94,67.94,0,0,1,29.37,44.87c1.44,8,2.43,17.54,8.08,23.88,3.48,3.9,8.09,2.74,11.23-1.13,10.56-13,1.17-31.75-5.68-44-4-7.11-8.4-15.07-14.68-20.45-6.47-5.53-14.82-9.12-22.33-13-1.15-.59-2.17,1.14-1,1.74Z" transform="translate(-259.83 422.83)"/><path class="cls-6" d="M490-220.26a46.55,46.55,0,0,1,23,15.45A46.55,46.55,0,0,1,523-179a24.05,24.05,0,0,1-.64,8.19,10,10,0,0,1-2.2,4.16c-1.73,1.83-4.28,2.61-6.72,3.28-6.19,1.7-12.81,3.15-19,1.31a33.83,33.83,0,0,1-7.4-3.55,7.12,7.12,0,0,1-2-1.51c-1.53-1.88-.85-4.62-.47-7a62.51,62.51,0,0,0,.44-7.22c.5-12.86,4.35-25.39,5.28-38.23" transform="translate(-259.83 422.83)"/><path d="M489.71-219.29a46,46,0,0,1,26.92,21.88,45.39,45.39,0,0,1,5.26,17.58c.28,3.26.42,7.1-1.11,10.08-2.05,4-6.11,5.05-10.2,6.07-7,1.73-13.6,2.19-20.16-1.18-3.84-2-5.34-4.93-4.81-9.28.37-3,.35-6,.54-9.05.76-12.25,4.17-24.16,5.18-36.4.11-1.29-1.9-1.28-2,0-.75,9.1-2.79,18-4.14,27A112.17,112.17,0,0,0,484-181.36c-.18,3.72-1.34,8-.9,11.64.58,5,6.83,7.37,11,8.61,6.93,2,15,.36,21.69-2,12.58-4.42,8.29-22.38,4.29-31.63a47.9,47.9,0,0,0-29.91-26.52c-1.24-.39-1.77,1.55-.53,1.94Z" transform="translate(-259.83 422.83)"/><path class="cls-6" d="M579.44-169.36c-5.55-1.36-10.49-2.39-15.53.31-3.68,2-6,5.74-7.88,9.48-1.27,2.55-2.54,5.31-4.95,6.83a13.09,13.09,0,0,1-3.53,1.39,76.75,76.75,0,0,1-9.68,2,5.17,5.17,0,0,0-2.42.75,4.11,4.11,0,0,0-1.11,1.44c-2.3,4.4-1.5,10,1.24,14.13s7.16,6.93,11.85,8.56c1.14.4,1.46-.3,2.6-.68a8.39,8.39,0,0,0,2.9-1.27c5.54-5.44,10.79-10.75,14.74-17.43a86.76,86.76,0,0,0,6-11.17l6.05-14.69" transform="translate(-259.83 422.83)"/><path d="M579.71-170.33c-5.93-1.42-12.27-2.52-17.62,1.24-5.89,4.14-6.79,13.91-13.58,16.42a56.22,56.22,0,0,1-10.09,2.25c-1.82.31-3.24.51-4.47,2-3.2,3.87-2.17,10.61,0,14.65a21.73,21.73,0,0,0,12.51,10c4.33,1.19,7.92-2.61,10.69-5.43,11.45-11.65,17.44-25.33,23.58-40.24.49-1.2-1.45-1.72-1.94-.53-4.72,11.45-9.11,23-17,32.74-2.82,3.45-7.53,10-12,11.11-5,1.24-11.27-3.79-13.7-8.06a14,14,0,0,1-1.77-10c.94-4,4.44-4.26,7.91-4.95s7.89-1.31,10.71-3.83c3-2.69,4.1-7,6.33-10.3,4.9-7.21,12.24-7.06,19.93-5.21,1.26.3,1.79-1.64.53-1.94Z" transform="translate(-259.83 422.83)"/><path d="M462.13-238.78a3.15,3.15,0,0,0,.17-.28,1,1,0,0,0-1.38-1.38c-.46.27-.78,1-1.05,1.44-.58.93-1.15,1.87-1.69,2.82A11.12,11.12,0,0,0,457-233.8c-.24.85.31,1.86,1.32,1.55a1,1,0,0,0-.53-1.94q1,1.84,1.13,1l0-.08s.12-.25.06-.17a7.75,7.75,0,0,0,.41-.83c.37-.69.77-1.37,1.17-2s.76-1.26,1.15-1.88c.12-.19.26-.38.37-.58.2-.37.38-.25-.16.06l-1.38-1.38a3.15,3.15,0,0,1-.17.28c-.68,1.11,1.06,2.12,1.74,1Z" transform="translate(-259.83 422.83)"/><path d="M465.82-241.36c-.52,3.22-2.06,6.37-3.37,9.33-.52,1.17,1.21,2.2,1.74,1,1.38-3.12,3-6.42,3.57-9.81.2-1.27-1.73-1.81-1.94-.53Z" transform="translate(-259.83 422.83)"/><path d="M509.88-75.31a15.78,15.78,0,0,0,.77,7.26c.42,1.21,2.37.69,1.94-.53a14.48,14.48,0,0,1-.7-6.72c.16-1.28-1.85-1.27-2,0Z" transform="translate(-259.83 422.83)"/><path d="M514.38-74.3A37.62,37.62,0,0,0,516-67.73c.41,1.22,2.35.7,1.94-.53a37.62,37.62,0,0,1-1.58-6.57c-.19-1.28-2.13-.73-1.94.53Z" transform="translate(-259.83 422.83)"/><path d="M550.85-77.13a44.32,44.32,0,0,1,1.59,6.59c.16,1.27,2.17,1.28,2,0a47.56,47.56,0,0,0-1.66-7.12,1,1,0,0,0-1.94.53Z" transform="translate(-259.83 422.83)"/><path d="M555.87-80.28a75.82,75.82,0,0,1,1,8.69c.07,1.29,2.09,1.29,2,0a80.52,80.52,0,0,0-1.08-9.23c-.22-1.27-2.16-.73-1.94.53Z" transform="translate(-259.83 422.83)"/><path class="cls-6" d="M603-125.6a18,18,0,0,0-1.83,5.83c-.31,3.31.94,6.57,2.41,9.55s3.19,5.9,3.94,9.14c.41,1.8.52,3.66,1,5.44a7.46,7.46,0,0,0,2.87,4.57c1.46.94,7.57-2.22,7.65-4a9.75,9.75,0,0,0-1.15-4.29,208.1,208.1,0,0,0-14.2-26.46" transform="translate(-259.83 422.83)"/><path d="M602.16-126.11c-3.6,8.11-.59,13.36,2.82,20.88,1.69,3.73,1.63,16.23,8.28,15.2,5.12-.79,7.71-4.11,5.88-8.84-3.68-9.56-9.16-18.74-14.59-27.4-.69-1.09-2.43-.09-1.74,1,3.16,5,6.15,10.19,8.89,15.47,2,3.76,9.38,15,3,17.13-6.08,2.08-5.81-8.24-7.36-12.06-2.91-7.18-7-12.42-3.49-20.37.52-1.17-1.21-2.2-1.74-1Z" transform="translate(-259.83 422.83)"/><path class="cls-6" d="M581.2-133.66a4.57,4.57,0,0,1,3.6-1.71,5.36,5.36,0,0,1,3.7,1.59,4.38,4.38,0,0,1,1.37,3.6,2.93,2.93,0,0,1-2.65,2.55c-1.35,0-2.46-1-3.27-2.13a8.08,8.08,0,0,0-2.81-2.87" transform="translate(-259.83 422.83)"/><path d="M581.91-132.94a3.81,3.81,0,0,1,4.85-.89c1.42.77,2.87,2.8,1.77,4.4-1.48,2.14-3.41-.45-4.32-1.65a7.94,7.94,0,0,0-2.56-2.4c-1.14-.61-2.16,1.12-1,1.74,2.35,1.26,3,4.61,6,5.08a3.87,3.87,0,0,0,4.28-3.49c.59-5.5-7-8.09-10.38-4.19-.85,1,.57,2.4,1.42,1.42Z" transform="translate(-259.83 422.83)"/><path d="M500.82-363.79c-.87-2-3.66-5.28-6.19-4.47s-4,5.72-3.17,8c.6,1.62,2.15,4.4,4.15,3.24a21.64,21.64,0,0,0,2.64-2c1.18-1,1.72-2.52,2.57-3.75.74-1.06-1-2.07-1.74-1-.92,1.32-1.43,2.63-2.74,3.6a7,7,0,0,0-1.31,1.1l-.44.34q.45.33.08-.06a4,4,0,0,1-.63-1,5,5,0,0,1,.34-5.54c1.51-2.37,4,1,4.7,2.54.52,1.18,2.26.16,1.74-1Z" transform="translate(-259.83 422.83)"/><path d="M571.31-363.36a21.52,21.52,0,0,1,7.91-3.36,12,12,0,0,1,2.38-.31c1.38,0,1.3.36,1.35,1.68a12,12,0,0,1-.54,4.38c-.2.59-.83,2.23-1.44,2.5-.81.36-1.6-.46-2.07-.87-.72-.64-1.26-1.5-2-2.15a27,27,0,0,0-5.83-3.82c-1.15-.58-2.17,1.16-1,1.74a24.14,24.14,0,0,1,5.73,3.77c1.16,1.08,2,3.25,3.51,3.86,3.08,1.24,5.09-4,5.47-6.16.42-2.35,1-6.71-2.27-7-4.16-.35-8.84,1.73-12.2,4-1.07.72-.06,2.46,1,1.74Z" transform="translate(-259.83 422.83)"/><path d="M537.95-332.4a1.5,1.5,0,0,0,0-3,1.5,1.5,0,0,0,0,3Z" transform="translate(-259.83 422.83)"/><path class="cls-4" d="M539.63-265a58.87,58.87,0,0,0-5.77,36.71c.51,3,8.42,12.29,11.3,11.3,3.49-1.21,5-5.24,6.13-8.74a124.87,124.87,0,0,1,22.25-39.89" transform="translate(-259.83 422.83)"/><path d="M538.76-265.46a61,61,0,0,0-6.38,33.81c.62,5.83,4.76,13.09,10.58,15.33,6.85,2.64,9.49-9.89,11-13.91a125.77,125.77,0,0,1,20.27-34.64c.81-1-.6-2.42-1.42-1.42a129.89,129.89,0,0,0-14.74,22.12,127.16,127.16,0,0,0-5.43,11.83c-1.61,4-2.55,10-5.85,13s-6-.67-8.23-3.26c-3-3.41-4-6.14-4.35-10.72a58.91,58.91,0,0,1,6.26-31.09c.58-1.15-1.16-2.17-1.74-1Z" transform="translate(-259.83 422.83)"/><path d="M537.49-230.36a61.2,61.2,0,0,0-3.26,6.77c-.49,1.2,1.45,1.72,1.94.53a57,57,0,0,1,3.05-6.29,1,1,0,0,0-1.74-1Z" transform="translate(-259.83 422.83)"/><path d="M542.49-227a52.13,52.13,0,0,0-3.19,9.33c-.3,1.26,1.64,1.79,1.94.53a49.4,49.4,0,0,1,3-8.85c.53-1.17-1.21-2.19-1.74-1Z" transform="translate(-259.83 422.83)"/><path class="cls-7" d="M514.43-215.9" transform="translate(-259.83 422.83)"/><path class="cls-1" d="M341.76-253.22a22.63,22.63,0,0,1-13.4-13.88,22.63,22.63,0,0,1,2.46-19.14A28.76,28.76,0,0,1,338-293.6a40.42,40.42,0,0,1,18.57-7.49,17.12,17.12,0,0,1,8.52.62,21,21,0,0,1,5.72,3.86c4,3.45,8,7,10.92,11.48s4.63,9.86,3.7,15.08c-.9,5-4.21,9.41-8.3,12.49s-8.93,5-13.8,6.57" transform="translate(-259.83 422.83)"/><path d="M342-254.11c-10.63-4.36-16.45-16-12.62-27.07s16.4-17.62,27.33-19c7.54-.93,12.18,2.8,17.42,7.71,4.33,4.06,8.53,8.9,10,14.8,3.51,14.21-9.61,21.95-21,25.76-1.12.37-.64,2.14.49,1.77,11.74-3.91,25.36-12,22.68-26.47-1.27-6.89-5.84-12.49-10.81-17.16-5.38-5.06-10.23-9.12-18-8.36-12.2,1.19-26.28,8.75-30.06,21.16-3.64,12,2.86,24,14.15,28.6,1.09.45,1.57-1.33.49-1.77Z" transform="translate(-259.83 422.83)"/><path d="M346.1-279.21a.92.92,0,0,0,0-1.84.92.92,0,0,0,0,1.84Z" transform="translate(-259.83 422.83)"/><path d="M362-279.61a.92.92,0,0,0,0-1.84.92.92,0,0,0,0,1.84Z" transform="translate(-259.83 422.83)"/><path d="M350.35-266.41a3.34,3.34,0,0,0,4,2.61c2.8-.43,3.73-3.48,4.29-5.84l-1.68.22a6,6,0,0,0,11.58-1.49c.18-1.16-1.59-1.65-1.77-.49-.73,4.64-6.35,5.35-8.23,1.05a.93.93,0,0,0-1.68.22q-.19.9-.46,1.78-.58,3.1-4.27,1.44c-.2-1.16-2-.67-1.77.49Z" transform="translate(-259.83 422.83)"/><path d="M354.75-263.23c1.06.65,2.12,1.32,3.19,2a3,3,0,0,0,2.43.69c1.63-.45,2.94-2.59,3.64-4,.53-1.05-1.05-2-1.58-.93s-1.61,3.23-3,3a7.89,7.89,0,0,1-1.6-1l-2.13-1.3c-1-.62-1.93,1-.93,1.58Z" transform="translate(-259.83 422.83)"/><path d="M341.76-252.3c7.21.26,14.27,2.38,21.49,2.52a.92.92,0,0,0,0-1.84c-7.22-.14-14.28-2.27-21.49-2.52-1.18,0-1.18,1.79,0,1.84Z" transform="translate(-259.83 422.83)"/><path d="M352.95-243.6a25.39,25.39,0,0,1,9.18,10.16c1.58,3.23,4,9.84,2.08,13.2-3.69,6.4-6.14-1.55-6.95-3.3a45.05,45.05,0,0,0-2.16-4.27,35.48,35.48,0,0,0-7.07-8.34c-.88-.78-2.18.51-1.3,1.3a33.85,33.85,0,0,1,7.54,9.3c1.53,2.83,2.39,6.86,4.71,9.16s4.94,1,6.42-1.83c4.87-9.45-4-22.07-11.53-27-1-.64-1.91.94-.93,1.58Z" transform="translate(-259.83 422.83)"/><path class="cls-2" d="M361.12-185.89a42.22,42.22,0,0,1,0,9.25,14.18,14.18,0,0,1-3.89,8.23c-1.08,1-2.41,1.87-3.07,3.21a8,8,0,0,0-.48,3.94l.36,7.74c.08,1.8-4.59,5.39-5.74,4.34a9,9,0,0,1-2.22-4,42.77,42.77,0,0,1,2.49-32" transform="translate(-259.83 422.83)"/><path d="M360.2-185.89c.23,3.45.59,7.13-.28,10.53-1,3.73-3.31,5.54-5.58,8.31-3.21,3.9-.35,8.91-1.74,13.31-.26.83-1.62,4.3-3.36,3.75-1.47-.46-2.62-4.49-3-5.84a41.12,41.12,0,0,1-1.27-9.5,42.9,42.9,0,0,1,4.34-19.38c.51-1.06-1.07-2-1.58-.93a44.75,44.75,0,0,0-4.41,23.59c.31,3.31,1.1,14.05,6,13.89,1.68-.06,4-2.07,4.81-3.41,1.79-2.86.08-6.52.39-9.69.45-4.56,4.33-6.72,6.12-10.67,2-4.36,1.65-9.31,1.33-14-.08-1.17-1.92-1.18-1.84,0Z" transform="translate(-259.83 422.83)"/><path class="cls-2" d="M331.77-195.08c-10.82,9.47-15.86,26.32-11,39.84.43,1.2,1.17,2.55,2.44,2.65s2.15-1.06,2.67-2.17c1.62-3.48,1.35-7.49,1.35-11.33a93.66,93.66,0,0,1,1-12.57c.52-3.85,1.74-9.44,5.76-10.31" transform="translate(-259.83 422.83)"/><path d="M331.12-195.73c-10.37,9.47-17.27,27.31-11.1,40.95,2.92,6.46,7.16.88,7.88-3.64s.19-9.34.6-14,.38-13.85,5.81-15.69c1.11-.38.63-2.15-.49-1.77-4.26,1.45-5.55,5.77-6.24,9.86a92.36,92.36,0,0,0-1.12,10.3c-.16,3,1.13,10-.64,12.38-4.52,6.18-5.82-5.13-5.94-7.47a36.3,36.3,0,0,1,1.21-11,38.43,38.43,0,0,1,11.33-18.68c.87-.8-.43-2.09-1.3-1.3Z" transform="translate(-259.83 422.83)"/><path class="cls-8" d="M354.89-273.82a3.22,3.22,0,0,0-.63.81,1.09,1.09,0,0,0,0,1,1.46,1.46,0,0,0,.39.4,4.69,4.69,0,0,0,2.54,1.07,2.71,2.71,0,0,0,2.43-1.1,1.93,1.93,0,0,0-.33-2.52,3.18,3.18,0,0,0-1.5-.49,4.11,4.11,0,0,0-2.74.26" transform="translate(-259.83 422.83)"/><path d="M354.24-274.47a2.74,2.74,0,0,0-1,2.38,3,3,0,0,0,1.64,1.76,4.2,4.2,0,0,0,5.06-.31,2.89,2.89,0,0,0,0-4.17c-1.3-1.12-3.9-1.11-5.35-.37-1.05.54-.12,2.12.93,1.58s4.52-.27,3.32,1.49a2,2,0,0,1-2.08.57,3.8,3.8,0,0,1-1.06-.47,4,4,0,0,1-.6-.44,1.5,1.5,0,0,1,.47-.73c.81-.86-.49-2.16-1.3-1.3Z" transform="translate(-259.83 422.83)"/><path d="M415.26-176.06c-.12-10.7,13.09-12.11,19.53-6.14a20.52,20.52,0,0,1,5.7,9.29c1.42,5-.33,9.07-2.92,13.28-7.41,12.1-13.74,24.26-15.26,38.58-.2,1.92,2.8,1.9,3,0,1.26-11.82,6-22.71,12.17-32.78,4.87-8,8.91-14.55,4.35-23.8-3.18-6.45-9.83-12.17-17.43-11.37-6.68.7-12.21,6.15-12.13,12.94a1.5,1.5,0,0,0,3,0Z" transform="translate(-259.83 422.83)"/><path d="M424-100.5a1.5,1.5,0,0,0,0-3,1.5,1.5,0,0,0,0,3Z" transform="translate(-259.83 422.83)"/><path d="M398.48-371c.42-6.33,3.71-12.76,9.83-15.27s14.19,1,15.64,7.75c1.29,6-5,14.13-7.71,19.22l-10.13,19.23c-.9,1.71,1.69,3.22,2.59,1.51,5.34-10.14,10.88-20.21,16-30.45,3.12-6.19,3.27-12.5-2.31-17.36-12.08-10.5-26.07,2.34-26.94,15.37-.13,1.93,2.87,1.92,3,0Z" transform="translate(-259.83 422.83)"/><path d="M411-327.5a1.5,1.5,0,0,0,0-3,1.5,1.5,0,0,0,0,3Z" transform="translate(-259.83 422.83)"/><path d="M612.37-290.62c.55-3.47-.19-6.66,0-10.12.2-4.57,4.42-7.15,8.48-4.72a29.59,29.59,0,0,1,4.69,3.72c7.15,6.61,7.45,14.8,3.44,23.32-5.53,11.74-16.85,20.55-17,34.43a1.5,1.5,0,0,0,3,0c.15-18.6,26.36-32.22,18.54-51.91-2.3-5.8-10.23-14.25-17-14-9.66.36-6.12,12.75-7,18.49-.3,1.89,2.59,2.7,2.89.8Z" transform="translate(-259.83 422.83)"/><path d="M616-226.5a1.5,1.5,0,0,0,0-3,1.5,1.5,0,0,0,0,3Z" transform="translate(-259.83 422.83)"/></svg>